<?xml version="1.0" encoding="UTF-8" standalone="no"?>
<!DOCTYPE svg PUBLIC "-//W3C//DTD SVG 1.1//EN"
 "http://www.w3.org/Graphics/SVG/1.1/DTD/svg11.dtd">
<!-- Generated by graphviz version 2.43.0 (0)
 -->
<!-- Title: GameEngine/Include/AnimationSystem.hpp Pages: 1 -->
<svg width="1362pt" height="236pt"
 viewBox="0.00 0.00 1361.50 236.00" xmlns="http://www.w3.org/2000/svg" xmlns:xlink="http://www.w3.org/1999/xlink">
<g id="graph0" class="graph" transform="scale(1 1) rotate(0) translate(4 232)">
<title>GameEngine/Include/AnimationSystem.hpp</title>
<!-- Node1 -->
<g id="Node000001" class="node">
<title>Node1</title>
<g id="a_Node000001"><a xlink:title=" ">
<polygon fill="#999999" stroke="#666666" points="782.5,-228 654.5,-228 654.5,-198 782.5,-198 782.5,-228"/>
<text text-anchor="start" x="662.5" y="-216" font-family="Helvetica,sans-Serif" font-size="10.00">GameEngine/Include</text>
<text text-anchor="middle" x="718.5" y="-205" font-family="Helvetica,sans-Serif" font-size="10.00">/AnimationSystem.hpp</text>
</a>
</g>
</g>
<!-- Node2 -->
<g id="Node000002" class="node">
<title>Node2</title>
<g id="a_Node000002"><a xlink:href="NetworkEntityMapper_8hpp.html" target="_top" xlink:title=" ">
<polygon fill="white" stroke="#666666" points="639.5,-162 483.5,-162 483.5,-132 639.5,-132 639.5,-162"/>
<text text-anchor="start" x="491.5" y="-150" font-family="Helvetica,sans-Serif" font-size="10.00">Client/include/NetworkEntity</text>
<text text-anchor="middle" x="561.5" y="-139" font-family="Helvetica,sans-Serif" font-size="10.00">Mapper.hpp</text>
</a>
</g>
</g>
<!-- Node1&#45;&gt;Node2 -->
<g id="edge1_Node000001_Node000002" class="edge">
<title>Node1&#45;&gt;Node2</title>
<g id="a_edge1_Node000001_Node000002"><a xlink:title=" ">
<path fill="none" stroke="#63b8ff" d="M674.48,-194.05C649.6,-183.91 618.97,-171.43 595.87,-162.01"/>
<polygon fill="#63b8ff" stroke="#63b8ff" points="673.46,-197.42 684.05,-197.95 676.11,-190.94 673.46,-197.42"/>
</a>
</g>
</g>
<!-- Node3 -->
<g id="Node000003" class="node">
<title>Node3</title>
<g id="a_Node000003"><a xlink:href="client_8hpp.html" target="_top" xlink:title=" ">
<polygon fill="white" stroke="#666666" points="711.5,-90.5 577.5,-90.5 577.5,-71.5 711.5,-71.5 711.5,-90.5"/>
<text text-anchor="middle" x="644.5" y="-78.5" font-family="Helvetica,sans-Serif" font-size="10.00">Client/include/client.hpp</text>
</a>
</g>
</g>
<!-- Node1&#45;&gt;Node3 -->
<g id="edge17_Node000001_Node000003" class="edge">
<title>Node1&#45;&gt;Node3</title>
<g id="a_edge17_Node000001_Node000003"><a xlink:title=" ">
<path fill="none" stroke="#63b8ff" d="M703.32,-189.19C697.86,-180.75 691.75,-171.03 686.5,-162 671.68,-136.5 655.98,-105.31 648.68,-90.54"/>
<polygon fill="#63b8ff" stroke="#63b8ff" points="700.52,-191.31 708.93,-197.76 706.38,-187.48 700.52,-191.31"/>
</a>
</g>
</g>
<!-- Node14 -->
<g id="Node000014" class="node">
<title>Node14</title>
<g id="a_Node000014"><a xlink:href="SoloPlay_8hpp.html" target="_top" xlink:title=" ">
<polygon fill="white" stroke="#666666" points="843.5,-156.5 695.5,-156.5 695.5,-137.5 843.5,-137.5 843.5,-156.5"/>
<text text-anchor="middle" x="769.5" y="-144.5" font-family="Helvetica,sans-Serif" font-size="10.00">Client/include/SoloPlay.hpp</text>
</a>
</g>
</g>
<!-- Node1&#45;&gt;Node14 -->
<g id="edge13_Node000001_Node000014" class="edge">
<title>Node1&#45;&gt;Node14</title>
<g id="a_edge13_Node000001_Node000014"><a xlink:title=" ">
<path fill="none" stroke="#63b8ff" d="M736.08,-189.94C745.13,-178.58 755.67,-165.36 762.45,-156.84"/>
<polygon fill="#63b8ff" stroke="#63b8ff" points="733.31,-187.79 729.82,-197.8 738.79,-192.16 733.31,-187.79"/>
</a>
</g>
</g>
<!-- Node17 -->
<g id="Node000017" class="node">
<title>Node17</title>
<g id="a_Node000017"><a xlink:href="AnimationSystem_8cpp.html" target="_top" xlink:title=" ">
<polygon fill="white" stroke="#666666" points="1011,-162 862,-162 862,-132 1011,-132 1011,-162"/>
<text text-anchor="start" x="870" y="-150" font-family="Helvetica,sans-Serif" font-size="10.00">GameEngine/src/Animation</text>
<text text-anchor="middle" x="936.5" y="-139" font-family="Helvetica,sans-Serif" font-size="10.00">System.cpp</text>
</a>
</g>
</g>
<!-- Node1&#45;&gt;Node17 -->
<g id="edge18_Node000001_Node000017" class="edge">
<title>Node1&#45;&gt;Node17</title>
<g id="a_edge18_Node000001_Node000017"><a xlink:title=" ">
<path fill="none" stroke="#63b8ff" d="M775.99,-195.12C811.14,-184.8 855.57,-171.76 888.77,-162.01"/>
<polygon fill="#63b8ff" stroke="#63b8ff" points="774.95,-191.78 766.34,-197.95 776.92,-198.5 774.95,-191.78"/>
</a>
</g>
</g>
<!-- Node2&#45;&gt;Node3 -->
<g id="edge2_Node000002_Node000003" class="edge">
<title>Node2&#45;&gt;Node3</title>
<g id="a_edge2_Node000002_Node000003"><a xlink:title=" ">
<path fill="none" stroke="#63b8ff" d="M587.98,-125.58C603.16,-113.87 621.45,-99.77 633.03,-90.84"/>
<polygon fill="#63b8ff" stroke="#63b8ff" points="585.7,-122.92 579.92,-131.8 589.98,-128.46 585.7,-122.92"/>
</a>
</g>
</g>
<!-- Node13 -->
<g id="Node000013" class="node">
<title>Node13</title>
<g id="a_Node000013"><a xlink:href="NetworkEntityMapper_8cpp.html" target="_top" xlink:title=" ">
<polygon fill="white" stroke="#666666" points="559,-96 424,-96 424,-66 559,-66 559,-96"/>
<text text-anchor="start" x="432" y="-84" font-family="Helvetica,sans-Serif" font-size="10.00">Client/src/NetworkEntity</text>
<text text-anchor="middle" x="491.5" y="-73" font-family="Helvetica,sans-Serif" font-size="10.00">Mapper.cpp</text>
</a>
</g>
</g>
<!-- Node2&#45;&gt;Node13 -->
<g id="edge12_Node000002_Node000013" class="edge">
<title>Node2&#45;&gt;Node13</title>
<g id="a_edge12_Node000002_Node000013"><a xlink:title=" ">
<path fill="none" stroke="#63b8ff" d="M538.45,-124.92C528.13,-115.49 516.23,-104.61 506.99,-96.16"/>
<polygon fill="#63b8ff" stroke="#63b8ff" points="536.22,-127.63 545.96,-131.8 540.95,-122.47 536.22,-127.63"/>
</a>
</g>
</g>
<!-- Node4 -->
<g id="Node000004" class="node">
<title>Node4</title>
<g id="a_Node000004"><a xlink:href="client_8cpp.html" target="_top" xlink:title=" ">
<polygon fill="white" stroke="#666666" points="113,-24.5 0,-24.5 0,-5.5 113,-5.5 113,-24.5"/>
<text text-anchor="middle" x="56.5" y="-12.5" font-family="Helvetica,sans-Serif" font-size="10.00">Client/src/client.cpp</text>
</a>
</g>
</g>
<!-- Node3&#45;&gt;Node4 -->
<g id="edge3_Node000003_Node000004" class="edge">
<title>Node3&#45;&gt;Node4</title>
<g id="a_edge3_Node000003_Node000004"><a xlink:title=" ">
<path fill="none" stroke="#63b8ff" d="M591.74,-69.69C583.64,-68.32 575.36,-67.03 567.5,-66 370.32,-40.18 318.24,-59 121.5,-30 111.91,-28.59 101.61,-26.59 92.11,-24.55"/>
<polygon fill="#63b8ff" stroke="#63b8ff" points="591.4,-73.19 601.85,-71.47 592.61,-66.29 591.4,-73.19"/>
</a>
</g>
</g>
<!-- Node5 -->
<g id="Node000005" class="node">
<title>Node5</title>
<g id="a_Node000005"><a xlink:href="client2_8cpp.html" target="_top" xlink:title=" ">
<polygon fill="white" stroke="#666666" points="250,-24.5 131,-24.5 131,-5.5 250,-5.5 250,-24.5"/>
<text text-anchor="middle" x="190.5" y="-12.5" font-family="Helvetica,sans-Serif" font-size="10.00">Client/src/client2.cpp</text>
</a>
</g>
</g>
<!-- Node3&#45;&gt;Node5 -->
<g id="edge4_Node000003_Node000005" class="edge">
<title>Node3&#45;&gt;Node5</title>
<g id="a_edge4_Node000003_Node000005"><a xlink:title=" ">
<path fill="none" stroke="#63b8ff" d="M590.28,-69.7C582.64,-68.37 574.88,-67.1 567.5,-66 431.19,-45.66 395.6,-51.72 259.5,-30 249.84,-28.46 239.48,-26.51 229.8,-24.57"/>
<polygon fill="#63b8ff" stroke="#63b8ff" points="589.74,-73.16 600.2,-71.45 590.96,-66.26 589.74,-73.16"/>
</a>
</g>
</g>
<!-- Node6 -->
<g id="Node000006" class="node">
<title>Node6</title>
<g id="a_Node000006"><a xlink:href="client__init_8cpp.html" target="_top" xlink:title=" ">
<polygon fill="white" stroke="#666666" points="402.5,-24.5 268.5,-24.5 268.5,-5.5 402.5,-5.5 402.5,-24.5"/>
<text text-anchor="middle" x="335.5" y="-12.5" font-family="Helvetica,sans-Serif" font-size="10.00">Client/src/client_init.cpp</text>
</a>
</g>
</g>
<!-- Node3&#45;&gt;Node6 -->
<g id="edge5_Node000003_Node000006" class="edge">
<title>Node3&#45;&gt;Node6</title>
<g id="a_edge5_Node000003_Node000006"><a xlink:title=" ">
<path fill="none" stroke="#63b8ff" d="M593.01,-69.34C532.25,-56.75 432.44,-36.08 376.61,-24.51"/>
<polygon fill="#63b8ff" stroke="#63b8ff" points="592.65,-72.83 603.15,-71.44 594.07,-65.98 592.65,-72.83"/>
</a>
</g>
</g>
<!-- Node7 -->
<g id="Node000007" class="node">
<title>Node7</title>
<g id="a_Node000007"><a xlink:href="client__network__part__one_8cpp.html" target="_top" xlink:title=" ">
<polygon fill="white" stroke="#666666" points="558,-30 421,-30 421,0 558,0 558,-30"/>
<text text-anchor="start" x="429" y="-18" font-family="Helvetica,sans-Serif" font-size="10.00">Client/src/client_network</text>
<text text-anchor="middle" x="489.5" y="-7" font-family="Helvetica,sans-Serif" font-size="10.00">_part_one.cpp</text>
</a>
</g>
</g>
<!-- Node3&#45;&gt;Node7 -->
<g id="edge6_Node000003_Node000007" class="edge">
<title>Node3&#45;&gt;Node7</title>
<g id="a_edge6_Node000003_Node000007"><a xlink:title=" ">
<path fill="none" stroke="#63b8ff" d="M614.24,-67.5C588.24,-56.77 550.77,-41.3 523.69,-30.12"/>
<polygon fill="#63b8ff" stroke="#63b8ff" points="613.02,-70.79 623.6,-71.37 615.69,-64.32 613.02,-70.79"/>
</a>
</g>
</g>
<!-- Node8 -->
<g id="Node000008" class="node">
<title>Node8</title>
<g id="a_Node000008"><a xlink:href="client__network__part__two_8cpp.html" target="_top" xlink:title=" ">
<polygon fill="white" stroke="#666666" points="713,-30 576,-30 576,0 713,0 713,-30"/>
<text text-anchor="start" x="584" y="-18" font-family="Helvetica,sans-Serif" font-size="10.00">Client/src/client_network</text>
<text text-anchor="middle" x="644.5" y="-7" font-family="Helvetica,sans-Serif" font-size="10.00">_part_two.cpp</text>
</a>
</g>
</g>
<!-- Node3&#45;&gt;Node8 -->
<g id="edge7_Node000003_Node000008" class="edge">
<title>Node3&#45;&gt;Node8</title>
<g id="a_edge7_Node000003_Node000008"><a xlink:title=" ">
<path fill="none" stroke="#63b8ff" d="M644.5,-61.35C644.5,-51.47 644.5,-39.51 644.5,-30.36"/>
<polygon fill="#63b8ff" stroke="#63b8ff" points="641,-61.37 644.5,-71.37 648,-61.37 641,-61.37"/>
</a>
</g>
</g>
<!-- Node9 -->
<g id="Node000009" class="node">
<title>Node9</title>
<g id="a_Node000009"><a xlink:href="client__protocol_8cpp.html" target="_top" xlink:title=" ">
<polygon fill="white" stroke="#666666" points="889.5,-24.5 731.5,-24.5 731.5,-5.5 889.5,-5.5 889.5,-24.5"/>
<text text-anchor="middle" x="810.5" y="-12.5" font-family="Helvetica,sans-Serif" font-size="10.00">Client/src/client_protocol.cpp</text>
</a>
</g>
</g>
<!-- Node3&#45;&gt;Node9 -->
<g id="edge8_Node000003_Node000009" class="edge">
<title>Node3&#45;&gt;Node9</title>
<g id="a_edge8_Node000003_Node000009"><a xlink:title=" ">
<path fill="none" stroke="#63b8ff" d="M676.47,-67.68C709.27,-55.03 759.46,-35.68 788.2,-24.6"/>
<polygon fill="#63b8ff" stroke="#63b8ff" points="674.96,-64.51 666.89,-71.37 677.48,-71.04 674.96,-64.51"/>
</a>
</g>
</g>
<!-- Node10 -->
<g id="Node000010" class="node">
<title>Node10</title>
<g id="a_Node000010"><a xlink:href="client__replay_8cpp.html" target="_top" xlink:title=" ">
<polygon fill="white" stroke="#666666" points="1055,-24.5 908,-24.5 908,-5.5 1055,-5.5 1055,-24.5"/>
<text text-anchor="middle" x="981.5" y="-12.5" font-family="Helvetica,sans-Serif" font-size="10.00">Client/src/client_replay.cpp</text>
</a>
</g>
</g>
<!-- Node3&#45;&gt;Node10 -->
<g id="edge9_Node000003_Node000010" class="edge">
<title>Node3&#45;&gt;Node10</title>
<g id="a_edge9_Node000003_Node000010"><a xlink:title=" ">
<path fill="none" stroke="#63b8ff" d="M699.43,-69.57C765.57,-57.01 875.39,-36.15 936.67,-24.51"/>
<polygon fill="#63b8ff" stroke="#63b8ff" points="698.77,-66.13 689.6,-71.44 700.08,-73.01 698.77,-66.13"/>
</a>
</g>
</g>
<!-- Node11 -->
<g id="Node000011" class="node">
<title>Node11</title>
<g id="a_Node000011"><a xlink:href="client__update_8cpp.html" target="_top" xlink:title=" ">
<polygon fill="white" stroke="#666666" points="1225.5,-24.5 1073.5,-24.5 1073.5,-5.5 1225.5,-5.5 1225.5,-24.5"/>
<text text-anchor="middle" x="1149.5" y="-12.5" font-family="Helvetica,sans-Serif" font-size="10.00">Client/src/client_update.cpp</text>
</a>
</g>
</g>
<!-- Node3&#45;&gt;Node11 -->
<g id="edge10_Node000003_Node000011" class="edge">
<title>Node3&#45;&gt;Node11</title>
<g id="a_edge10_Node000003_Node000011"><a xlink:title=" ">
<path fill="none" stroke="#63b8ff" d="M697.43,-69.7C705.15,-68.36 713.02,-67.08 720.5,-66 872.65,-44.06 912.15,-50.5 1064.5,-30 1076.21,-28.42 1088.79,-26.49 1100.58,-24.56"/>
<polygon fill="#63b8ff" stroke="#63b8ff" points="696.64,-66.29 687.41,-71.49 697.87,-73.18 696.64,-66.29"/>
</a>
</g>
</g>
<!-- Node12 -->
<g id="Node000012" class="node">
<title>Node12</title>
<g id="a_Node000012"><a xlink:href="main_8cpp.html" target="_top" xlink:title=" ">
<polygon fill="white" stroke="#666666" points="1353.5,-24.5 1243.5,-24.5 1243.5,-5.5 1353.5,-5.5 1353.5,-24.5"/>
<text text-anchor="middle" x="1298.5" y="-12.5" font-family="Helvetica,sans-Serif" font-size="10.00">Client/src/main.cpp</text>
</a>
</g>
</g>
<!-- Node3&#45;&gt;Node12 -->
<g id="edge11_Node000003_Node000012" class="edge">
<title>Node3&#45;&gt;Node12</title>
<g id="a_edge11_Node000003_Node000012"><a xlink:title=" ">
<path fill="none" stroke="#63b8ff" d="M696.27,-69.66C704.36,-68.28 712.64,-67 720.5,-66 947.69,-37.21 1007.82,-62.55 1234.5,-30 1244.07,-28.63 1254.34,-26.62 1263.79,-24.56"/>
<polygon fill="#63b8ff" stroke="#63b8ff" points="695.42,-66.26 686.18,-71.45 696.64,-73.15 695.42,-66.26"/>
</a>
</g>
</g>
<!-- Node14&#45;&gt;Node3 -->
<g id="edge14_Node000014_Node000003" class="edge">
<title>Node14&#45;&gt;Node3</title>
<g id="a_edge14_Node000014_Node000003"><a xlink:title=" ">
<path fill="none" stroke="#63b8ff" d="M743.51,-132.69C718.89,-120.09 682.61,-101.51 661.49,-90.7"/>
<polygon fill="#63b8ff" stroke="#63b8ff" points="742.15,-135.93 752.64,-137.37 745.34,-129.7 742.15,-135.93"/>
</a>
</g>
</g>
<!-- Node15 -->
<g id="Node000015" class="node">
<title>Node15</title>
<g id="a_Node000015"><a xlink:href="SoloPlay_8cpp.html" target="_top" xlink:title=" ">
<polygon fill="white" stroke="#666666" points="855.5,-90.5 729.5,-90.5 729.5,-71.5 855.5,-71.5 855.5,-90.5"/>
<text text-anchor="middle" x="792.5" y="-78.5" font-family="Helvetica,sans-Serif" font-size="10.00">Client/src/SoloPlay.cpp</text>
</a>
</g>
</g>
<!-- Node14&#45;&gt;Node15 -->
<g id="edge15_Node000014_Node000015" class="edge">
<title>Node14&#45;&gt;Node15</title>
<g id="a_edge15_Node000014_Node000015"><a xlink:title=" ">
<path fill="none" stroke="#63b8ff" d="M776.03,-127.82C780.37,-115.74 785.88,-100.41 789.3,-90.91"/>
<polygon fill="#63b8ff" stroke="#63b8ff" points="772.69,-126.77 772.6,-137.37 779.28,-129.14 772.69,-126.77"/>
</a>
</g>
</g>
<!-- Node16 -->
<g id="Node000016" class="node">
<title>Node16</title>
<g id="a_Node000016"><a xlink:href="solo__play__render_8cpp.html" target="_top" xlink:title=" ">
<polygon fill="white" stroke="#666666" points="985.5,-96 873.5,-96 873.5,-66 985.5,-66 985.5,-96"/>
<text text-anchor="start" x="881.5" y="-84" font-family="Helvetica,sans-Serif" font-size="10.00">Client/src/solo_play</text>
<text text-anchor="middle" x="929.5" y="-73" font-family="Helvetica,sans-Serif" font-size="10.00">_render.cpp</text>
</a>
</g>
</g>
<!-- Node14&#45;&gt;Node16 -->
<g id="edge16_Node000014_Node000016" class="edge">
<title>Node14&#45;&gt;Node16</title>
<g id="a_edge16_Node000014_Node000016"><a xlink:title=" ">
<path fill="none" stroke="#63b8ff" d="M800.38,-133.65C827.24,-122.9 866.14,-107.35 894.21,-96.12"/>
<polygon fill="#63b8ff" stroke="#63b8ff" points="799.06,-130.41 791.08,-137.37 801.66,-136.9 799.06,-130.41"/>
</a>
</g>
</g>
</g>
</svg>
