<?xml version="1.0" encoding="UTF-8" standalone="no"?>
<!DOCTYPE svg PUBLIC "-//W3C//DTD SVG 1.1//EN"
 "http://www.w3.org/Graphics/SVG/1.1/DTD/svg11.dtd">
<!-- Generated by graphviz version 2.43.0 (0)
 -->
<!-- Title: Client/src/AssetManager.cpp Pages: 1 -->
<svg width="2276pt" height="434pt"
 viewBox="0.00 0.00 2276.00 434.00" xmlns="http://www.w3.org/2000/svg" xmlns:xlink="http://www.w3.org/1999/xlink">
<g id="graph0" class="graph" transform="scale(1 1) rotate(0) translate(4 430)">
<title>Client/src/AssetManager.cpp</title>
<!-- Node1 -->
<g id="Node000001" class="node">
<title>Node1</title>
<g id="a_Node000001"><a xlink:title=" ">
<polygon fill="#999999" stroke="#666666" points="1719.5,-426 1564.5,-426 1564.5,-407 1719.5,-407 1719.5,-426"/>
<text text-anchor="middle" x="1642" y="-414" font-family="Helvetica,sans-Serif" font-size="10.00">Client/src/AssetManager.cpp</text>
</a>
</g>
</g>
<!-- Node2 -->
<g id="Node000002" class="node">
<title>Node2</title>
<g id="a_Node000002"><a xlink:href="AssetManager_8hpp.html" target="_top" xlink:title=" ">
<polygon fill="white" stroke="#666666" points="1719,-371 1565,-371 1565,-352 1719,-352 1719,-371"/>
<text text-anchor="middle" x="1642" y="-359" font-family="Helvetica,sans-Serif" font-size="10.00">../include/AssetManager.hpp</text>
</a>
</g>
</g>
<!-- Node1&#45;&gt;Node2 -->
<g id="edge1_Node000001_Node000002" class="edge">
<title>Node1&#45;&gt;Node2</title>
<g id="a_edge1_Node000001_Node000002"><a xlink:title=" ">
<path fill="none" stroke="#63b8ff" d="M1642,-406.75C1642,-399.8 1642,-389.85 1642,-381.13"/>
<polygon fill="#63b8ff" stroke="#63b8ff" points="1645.5,-381.09 1642,-371.09 1638.5,-381.09 1645.5,-381.09"/>
</a>
</g>
</g>
<!-- Node3 -->
<g id="Node000003" class="node">
<title>Node3</title>
<g id="a_Node000003"><a xlink:title=" ">
<polygon fill="#e0e0e0" stroke="#999999" points="104,-310.5 0,-310.5 0,-291.5 104,-291.5 104,-310.5"/>
<text text-anchor="middle" x="52" y="-298.5" font-family="Helvetica,sans-Serif" font-size="10.00">jsoncons/json.hpp</text>
</a>
</g>
</g>
<!-- Node2&#45;&gt;Node3 -->
<g id="edge2_Node000002_Node000003" class="edge">
<title>Node2&#45;&gt;Node3</title>
<g id="a_edge2_Node000002_Node000003"><a xlink:title=" ">
<path fill="none" stroke="#63b8ff" d="M1564.67,-360.08C1295.78,-358.33 402.5,-350.05 118,-316 111.05,-315.17 103.74,-313.96 96.62,-312.6"/>
<polygon fill="#63b8ff" stroke="#63b8ff" points="96.9,-309.08 86.4,-310.52 95.5,-315.94 96.9,-309.08"/>
</a>
</g>
</g>
<!-- Node4 -->
<g id="Node000004" class="node">
<title>Node4</title>
<g id="a_Node000004"><a xlink:title=" ">
<polygon fill="#e0e0e0" stroke="#999999" points="270,-19 210,-19 210,0 270,0 270,-19"/>
<text text-anchor="middle" x="240" y="-7" font-family="Helvetica,sans-Serif" font-size="10.00">iostream</text>
</a>
</g>
</g>
<!-- Node2&#45;&gt;Node4 -->
<g id="edge3_Node000002_Node000004" class="edge">
<title>Node2&#45;&gt;Node4</title>
<g id="a_edge3_Node000002_Node000004"><a xlink:title=" ">
<path fill="none" stroke="#63b8ff" d="M1564.75,-358.92C1346.18,-354.2 726.16,-339.11 524,-316 347.81,-295.86 132,-418.84 132,-241.5 132,-241.5 132,-241.5 132,-124 132,-77.21 180.76,-42.05 212.76,-24.02"/>
<polygon fill="#63b8ff" stroke="#63b8ff" points="214.55,-27.03 221.68,-19.19 211.22,-20.88 214.55,-27.03"/>
</a>
</g>
</g>
<!-- Node5 -->
<g id="Node000005" class="node">
<title>Node5</title>
<g id="a_Node000005"><a xlink:title=" ">
<polygon fill="#e0e0e0" stroke="#999999" points="2211.5,-310.5 2154.5,-310.5 2154.5,-291.5 2211.5,-291.5 2211.5,-310.5"/>
<text text-anchor="middle" x="2183" y="-298.5" font-family="Helvetica,sans-Serif" font-size="10.00">ostream</text>
</a>
</g>
</g>
<!-- Node2&#45;&gt;Node5 -->
<g id="edge4_Node000002_Node000005" class="edge">
<title>Node2&#45;&gt;Node5</title>
<g id="a_edge4_Node000002_Node000005"><a xlink:title=" ">
<path fill="none" stroke="#63b8ff" d="M1719.13,-358.98C1817.68,-355.82 1993.1,-346.08 2140,-316 2143.41,-315.3 2146.93,-314.43 2150.42,-313.45"/>
<polygon fill="#63b8ff" stroke="#63b8ff" points="2151.5,-316.78 2160.05,-310.53 2149.46,-310.09 2151.5,-316.78"/>
</a>
</g>
</g>
<!-- Node6 -->
<g id="Node000006" class="node">
<title>Node6</title>
<g id="a_Node000006"><a xlink:title=" ">
<polygon fill="#e0e0e0" stroke="#999999" points="2002.5,-74 1947.5,-74 1947.5,-55 2002.5,-55 2002.5,-74"/>
<text text-anchor="middle" x="1975" y="-62" font-family="Helvetica,sans-Serif" font-size="10.00">fstream</text>
</a>
</g>
</g>
<!-- Node2&#45;&gt;Node6 -->
<g id="edge5_Node000002_Node000006" class="edge">
<title>Node2&#45;&gt;Node6</title>
<g id="a_edge5_Node000002_Node000006"><a xlink:title=" ">
<path fill="none" stroke="#63b8ff" d="M1719.15,-358.28C1815.7,-354.36 1974.65,-343.79 2026,-316 2063.89,-295.5 2088,-284.58 2088,-241.5 2088,-241.5 2088,-241.5 2088,-184.5 2088,-134.76 2035.44,-97.52 2002.02,-78.86"/>
<polygon fill="#63b8ff" stroke="#63b8ff" points="2003.62,-75.75 1993.16,-74.1 2000.31,-81.91 2003.62,-75.75"/>
</a>
</g>
</g>
<!-- Node7 -->
<g id="Node000007" class="node">
<title>Node7</title>
<g id="a_Node000007"><a xlink:title=" ">
<polygon fill="#e0e0e0" stroke="#999999" points="2268,-310.5 2230,-310.5 2230,-291.5 2268,-291.5 2268,-310.5"/>
<text text-anchor="middle" x="2249" y="-298.5" font-family="Helvetica,sans-Serif" font-size="10.00">map</text>
</a>
</g>
</g>
<!-- Node2&#45;&gt;Node7 -->
<g id="edge6_Node000002_Node000007" class="edge">
<title>Node2&#45;&gt;Node7</title>
<g id="a_edge6_Node000002_Node000007"><a xlink:title=" ">
<path fill="none" stroke="#63b8ff" d="M1719.2,-358.25C1854.47,-353.69 2128.7,-341.56 2221,-316 2222.44,-315.6 2223.89,-315.13 2225.34,-314.6"/>
<polygon fill="#63b8ff" stroke="#63b8ff" points="2226.86,-317.75 2234.61,-310.53 2224.04,-311.34 2226.86,-317.75"/>
</a>
</g>
</g>
<!-- Node8 -->
<g id="Node000008" class="node">
<title>Node8</title>
<g id="a_Node000008"><a xlink:title=" ">
<polygon fill="#e0e0e0" stroke="#999999" points="1924,-19 1838,-19 1838,0 1924,0 1924,-19"/>
<text text-anchor="middle" x="1881" y="-7" font-family="Helvetica,sans-Serif" font-size="10.00">unordered_set</text>
</a>
</g>
</g>
<!-- Node2&#45;&gt;Node8 -->
<g id="edge7_Node000002_Node000008" class="edge">
<title>Node2&#45;&gt;Node8</title>
<g id="a_edge7_Node000002_Node000008"><a xlink:title=" ">
<path fill="none" stroke="#63b8ff" d="M1715.54,-351.99C1823.45,-337.43 2012,-303.16 2012,-241.5 2012,-241.5 2012,-241.5 2012,-184.5 2012,-126.94 2045.52,-101.79 2012,-55 1994.37,-30.39 1962.35,-19.23 1934.38,-14.24"/>
<polygon fill="#63b8ff" stroke="#63b8ff" points="1934.72,-10.75 1924.3,-12.66 1933.64,-17.66 1934.72,-10.75"/>
</a>
</g>
</g>
<!-- Node9 -->
<g id="Node000009" class="node">
<title>Node9</title>
<g id="a_Node000009"><a xlink:title=" ">
<polygon fill="#e0e0e0" stroke="#999999" points="2088,-19 1978,-19 1978,0 2088,0 2088,-19"/>
<text text-anchor="middle" x="2033" y="-7" font-family="Helvetica,sans-Serif" font-size="10.00">SFML/Graphics.hpp</text>
</a>
</g>
</g>
<!-- Node2&#45;&gt;Node9 -->
<g id="edge8_Node000002_Node000009" class="edge">
<title>Node2&#45;&gt;Node9</title>
<g id="a_edge8_Node000002_Node000009"><a xlink:title=" ">
<path fill="none" stroke="#63b8ff" d="M1719.12,-359.07C1823.73,-355.99 2004.22,-346.33 2062,-316 2100.65,-295.71 2126,-285.15 2126,-241.5 2126,-241.5 2126,-241.5 2126,-124 2126,-80.06 2083.77,-43.8 2056.23,-24.82"/>
<polygon fill="#63b8ff" stroke="#63b8ff" points="2057.8,-21.67 2047.53,-19.06 2053.94,-27.5 2057.8,-21.67"/>
</a>
</g>
</g>
<!-- Node10 -->
<g id="Node000010" class="node">
<title>Node10</title>
<g id="a_Node000010"><a xlink:href="GameLogic_8hpp.html" target="_top" xlink:title=" ">
<polygon fill="white" stroke="#666666" points="1340.5,-316 1205.5,-316 1205.5,-286 1340.5,-286 1340.5,-316"/>
<text text-anchor="start" x="1213.5" y="-304" font-family="Helvetica,sans-Serif" font-size="10.00">../../GameEngine/Include</text>
<text text-anchor="middle" x="1273" y="-293" font-family="Helvetica,sans-Serif" font-size="10.00">/GameLogic.hpp</text>
</a>
</g>
</g>
<!-- Node2&#45;&gt;Node10 -->
<g id="edge9_Node000002_Node000010" class="edge">
<title>Node2&#45;&gt;Node10</title>
<g id="a_edge9_Node000002_Node000010"><a xlink:title=" ">
<path fill="none" stroke="#63b8ff" d="M1588.34,-351.99C1525.86,-342.09 1422.11,-325.64 1350.78,-314.33"/>
<polygon fill="#63b8ff" stroke="#63b8ff" points="1350.93,-310.81 1340.51,-312.7 1349.83,-317.72 1350.93,-310.81"/>
</a>
</g>
</g>
<!-- Node11 -->
<g id="Node000011" class="node">
<title>Node11</title>
<g id="a_Node000011"><a xlink:href="Mediator_8hpp.html" target="_top" xlink:title=" ">
<polygon fill="white" stroke="#666666" points="786,-250 706,-250 706,-231 786,-231 786,-250"/>
<text text-anchor="middle" x="746" y="-238" font-family="Helvetica,sans-Serif" font-size="10.00">Mediator.hpp</text>
</a>
</g>
</g>
<!-- Node2&#45;&gt;Node11 -->
<g id="edge67_Node000002_Node000011" class="edge">
<title>Node2&#45;&gt;Node11</title>
<g id="a_edge67_Node000002_Node000011"><a xlink:title=" ">
<path fill="none" stroke="#63b8ff" d="M1564.65,-354.28C1475.75,-346.78 1325.54,-333.03 1197,-316 1050.86,-296.64 879.35,-266.15 796.23,-250.88"/>
<polygon fill="#63b8ff" stroke="#63b8ff" points="796.77,-247.42 786.3,-249.05 795.5,-254.3 796.77,-247.42"/>
</a>
</g>
</g>
<!-- Node46 -->
<g id="Node000046" class="node">
<title>Node46</title>
<g id="a_Node000046"><a xlink:href="RenderSystem_8hpp.html" target="_top" xlink:title=" ">
<polygon fill="white" stroke="#666666" points="668.5,-316 533.5,-316 533.5,-286 668.5,-286 668.5,-316"/>
<text text-anchor="start" x="541.5" y="-304" font-family="Helvetica,sans-Serif" font-size="10.00">../../GameEngine/Include</text>
<text text-anchor="middle" x="601" y="-293" font-family="Helvetica,sans-Serif" font-size="10.00">/RenderSystem.hpp</text>
</a>
</g>
</g>
<!-- Node2&#45;&gt;Node46 -->
<g id="edge68_Node000002_Node000046" class="edge">
<title>Node2&#45;&gt;Node46</title>
<g id="a_edge68_Node000002_Node000046"><a xlink:title=" ">
<path fill="none" stroke="#63b8ff" d="M1564.98,-357.21C1414.21,-350.61 1069.54,-334.79 780,-316 746.74,-313.84 710.03,-311.04 678.57,-308.52"/>
<polygon fill="#63b8ff" stroke="#63b8ff" points="678.79,-305.02 668.54,-307.71 678.23,-312 678.79,-305.02"/>
</a>
</g>
</g>
<!-- Node10&#45;&gt;Node9 -->
<g id="edge66_Node000010_Node000009" class="edge">
<title>Node10&#45;&gt;Node9</title>
<g id="a_edge66_Node000010_Node000009"><a xlink:title=" ">
<path fill="none" stroke="#63b8ff" d="M1340.63,-294.43C1506.29,-279.46 1926.13,-233.03 2026,-140 2054.33,-113.62 2050.08,-93.37 2045,-55 2043.84,-46.27 2041.47,-36.83 2039.13,-28.9"/>
<polygon fill="#63b8ff" stroke="#63b8ff" points="2042.43,-27.72 2036.09,-19.23 2035.75,-29.82 2042.43,-27.72"/>
</a>
</g>
</g>
<!-- Node10&#45;&gt;Node11 -->
<g id="edge10_Node000010_Node000011" class="edge">
<title>Node10&#45;&gt;Node11</title>
<g id="a_edge10_Node000010_Node000011"><a xlink:title=" ">
<path fill="none" stroke="#63b8ff" d="M1205.45,-292.5C1098.13,-280.59 891.09,-257.61 795.99,-247.05"/>
<polygon fill="#63b8ff" stroke="#63b8ff" points="796.38,-243.57 786.05,-245.95 795.61,-250.53 796.38,-243.57"/>
</a>
</g>
</g>
<!-- Node28 -->
<g id="Node000028" class="node">
<title>Node28</title>
<g id="a_Node000028"><a xlink:title=" ">
<polygon fill="#e0e0e0" stroke="#999999" points="191.5,-19 122.5,-19 122.5,0 191.5,0 191.5,-19"/>
<text text-anchor="middle" x="157" y="-7" font-family="Helvetica,sans-Serif" font-size="10.00">sol/sol.hpp</text>
</a>
</g>
</g>
<!-- Node10&#45;&gt;Node28 -->
<g id="edge39_Node000010_Node000028" class="edge">
<title>Node10&#45;&gt;Node28</title>
<g id="a_edge39_Node000010_Node000028"><a xlink:title=" ">
<path fill="none" stroke="#63b8ff" d="M1205.16,-297.62C1097.02,-293.03 879.14,-280.58 697,-250 598.03,-233.39 574.84,-221.32 478,-195 393.99,-172.17 369.07,-176.43 290,-140 241.3,-117.56 224.74,-113.98 189,-74 177.19,-60.78 168.56,-42.41 163.26,-28.83"/>
<polygon fill="#63b8ff" stroke="#63b8ff" points="166.44,-27.34 159.72,-19.15 159.87,-29.74 166.44,-27.34"/>
</a>
</g>
</g>
<!-- Node31 -->
<g id="Node000031" class="node">
<title>Node31</title>
<g id="a_Node000031"><a xlink:href="Quadtree_8hpp.html" target="_top" xlink:title=" ">
<polygon fill="white" stroke="#666666" points="1340.5,-140 1205.5,-140 1205.5,-110 1340.5,-110 1340.5,-140"/>
<text text-anchor="start" x="1213.5" y="-128" font-family="Helvetica,sans-Serif" font-size="10.00">../../GameEngine/Include</text>
<text text-anchor="middle" x="1273" y="-117" font-family="Helvetica,sans-Serif" font-size="10.00">/Quadtree.hpp</text>
</a>
</g>
</g>
<!-- Node10&#45;&gt;Node31 -->
<g id="edge40_Node000010_Node000031" class="edge">
<title>Node10&#45;&gt;Node31</title>
<g id="a_edge40_Node000010_Node000031"><a xlink:title=" ">
<path fill="none" stroke="#63b8ff" d="M1273,-285.76C1273,-256.19 1273,-187.82 1273,-150.83"/>
<polygon fill="#63b8ff" stroke="#63b8ff" points="1276.5,-150.44 1273,-140.44 1269.5,-150.44 1276.5,-150.44"/>
</a>
</g>
</g>
<!-- Node12 -->
<g id="Node000012" class="node">
<title>Node12</title>
<g id="a_Node000012"><a xlink:href="Entity_8hpp.html" target="_top" xlink:title=" ">
<polygon fill="white" stroke="#666666" points="555.5,-74 490.5,-74 490.5,-55 555.5,-55 555.5,-74"/>
<text text-anchor="middle" x="523" y="-62" font-family="Helvetica,sans-Serif" font-size="10.00">Entity.hpp</text>
</a>
</g>
</g>
<!-- Node11&#45;&gt;Node12 -->
<g id="edge11_Node000011_Node000012" class="edge">
<title>Node11&#45;&gt;Node12</title>
<g id="a_edge11_Node000011_Node000012"><a xlink:title=" ">
<path fill="none" stroke="#63b8ff" d="M754.6,-230.79C766.09,-218.07 783.69,-193.98 772,-176 726.15,-105.49 623.86,-79.62 565.65,-70.4"/>
<polygon fill="#63b8ff" stroke="#63b8ff" points="566.07,-66.92 555.67,-68.91 565.04,-73.84 566.07,-66.92"/>
</a>
</g>
</g>
<!-- Node25 -->
<g id="Node000025" class="node">
<title>Node25</title>
<g id="a_Node000025"><a xlink:href="ComponentManager_8hpp.html" target="_top" xlink:title=" ">
<polygon fill="white" stroke="#666666" points="623,-195 487,-195 487,-176 623,-176 623,-195"/>
<text text-anchor="middle" x="555" y="-183" font-family="Helvetica,sans-Serif" font-size="10.00">ComponentManager.hpp</text>
</a>
</g>
</g>
<!-- Node11&#45;&gt;Node25 -->
<g id="edge27_Node000011_Node000025" class="edge">
<title>Node11&#45;&gt;Node25</title>
<g id="a_edge27_Node000011_Node000025"><a xlink:title=" ">
<path fill="none" stroke="#63b8ff" d="M715.31,-230.98C682.83,-221.97 631.4,-207.7 595.59,-197.76"/>
<polygon fill="#63b8ff" stroke="#63b8ff" points="596.5,-194.38 585.93,-195.08 594.63,-201.13 596.5,-194.38"/>
</a>
</g>
</g>
<!-- Node29 -->
<g id="Node000029" class="node">
<title>Node29</title>
<g id="a_Node000029"><a xlink:href="SystemeManager_8hpp.html" target="_top" xlink:title=" ">
<polygon fill="white" stroke="#666666" points="763,-195 641,-195 641,-176 763,-176 763,-195"/>
<text text-anchor="middle" x="702" y="-183" font-family="Helvetica,sans-Serif" font-size="10.00">SystemeManager.hpp</text>
</a>
</g>
</g>
<!-- Node11&#45;&gt;Node29 -->
<g id="edge36_Node000011_Node000029" class="edge">
<title>Node11&#45;&gt;Node29</title>
<g id="a_edge36_Node000011_Node000029"><a xlink:title=" ">
<path fill="none" stroke="#63b8ff" d="M738.73,-230.75C732.46,-223.18 723.21,-212.05 715.57,-202.84"/>
<polygon fill="#63b8ff" stroke="#63b8ff" points="718.21,-200.55 709.13,-195.09 712.83,-205.02 718.21,-200.55"/>
</a>
</g>
</g>
<!-- Node12&#45;&gt;Node4 -->
<g id="edge12_Node000012_Node000004" class="edge">
<title>Node12&#45;&gt;Node4</title>
<g id="a_edge12_Node000012_Node000004"><a xlink:title=" ">
<path fill="none" stroke="#63b8ff" d="M490.18,-57.88C445.09,-50.08 361.25,-35.3 280.09,-19.16"/>
<polygon fill="#63b8ff" stroke="#63b8ff" points="280.7,-15.72 270.21,-17.19 279.33,-22.58 280.7,-15.72"/>
</a>
</g>
</g>
<!-- Node12&#45;&gt;Node8 -->
<g id="edge26_Node000012_Node000008" class="edge">
<title>Node12&#45;&gt;Node8</title>
<g id="a_edge26_Node000012_Node000008"><a xlink:title=" ">
<path fill="none" stroke="#63b8ff" d="M555.65,-59.47C570.13,-57.83 587.39,-56.07 603,-55 1115.82,-19.82 1245.62,-44.87 1759,-19 1781.51,-17.87 1806.32,-16.21 1827.66,-14.66"/>
<polygon fill="#63b8ff" stroke="#63b8ff" points="1828.12,-18.14 1837.83,-13.91 1827.6,-11.16 1828.12,-18.14"/>
</a>
</g>
</g>
<!-- Node12&#45;&gt;Node9 -->
<g id="edge23_Node000012_Node000009" class="edge">
<title>Node12&#45;&gt;Node9</title>
<g id="a_edge23_Node000012_Node000009"><a xlink:title=" ">
<path fill="none" stroke="#63b8ff" d="M555.64,-59.44C570.13,-57.8 587.39,-56.04 603,-55 1193.02,-15.73 1342.6,-52.05 1933,-19 1944.23,-18.37 1956.17,-17.52 1967.73,-16.6"/>
<polygon fill="#63b8ff" stroke="#63b8ff" points="1968.08,-20.08 1977.76,-15.77 1967.51,-13.1 1968.08,-20.08"/>
</a>
</g>
</g>
<!-- Node13 -->
<g id="Node000013" class="node">
<title>Node13</title>
<g id="a_Node000013"><a xlink:title=" ">
<polygon fill="#e0e0e0" stroke="#999999" points="940,-19 890,-19 890,0 940,0 940,-19"/>
<text text-anchor="middle" x="915" y="-7" font-family="Helvetica,sans-Serif" font-size="10.00">cstdint</text>
</a>
</g>
</g>
<!-- Node12&#45;&gt;Node13 -->
<g id="edge13_Node000012_Node000013" class="edge">
<title>Node12&#45;&gt;Node13</title>
<g id="a_edge13_Node000012_Node000013"><a xlink:title=" ">
<path fill="none" stroke="#63b8ff" d="M555.57,-57.33C560.4,-56.5 565.32,-55.69 570,-55 704.85,-35.05 742.98,-44.02 879.83,-19.2"/>
<polygon fill="#63b8ff" stroke="#63b8ff" points="880.65,-22.61 889.86,-17.36 879.39,-15.72 880.65,-22.61"/>
</a>
</g>
</g>
<!-- Node14 -->
<g id="Node000014" class="node">
<title>Node14</title>
<g id="a_Node000014"><a xlink:title=" ">
<polygon fill="#e0e0e0" stroke="#999999" points="332,-19 288,-19 288,0 332,0 332,-19"/>
<text text-anchor="middle" x="310" y="-7" font-family="Helvetica,sans-Serif" font-size="10.00">string</text>
</a>
</g>
</g>
<!-- Node12&#45;&gt;Node14 -->
<g id="edge14_Node000012_Node000014" class="edge">
<title>Node12&#45;&gt;Node14</title>
<g id="a_edge14_Node000012_Node000014"><a xlink:title=" ">
<path fill="none" stroke="#63b8ff" d="M490.38,-55.81C455.9,-47.63 399.69,-34.1 342.3,-19.29"/>
<polygon fill="#63b8ff" stroke="#63b8ff" points="342.89,-15.82 332.33,-16.7 341.13,-22.6 342.89,-15.82"/>
</a>
</g>
</g>
<!-- Node15 -->
<g id="Node000015" class="node">
<title>Node15</title>
<g id="a_Node000015"><a xlink:title=" ">
<polygon fill="#e0e0e0" stroke="#999999" points="506,-19 462,-19 462,0 506,0 506,-19"/>
<text text-anchor="middle" x="484" y="-7" font-family="Helvetica,sans-Serif" font-size="10.00">bitset</text>
</a>
</g>
</g>
<!-- Node12&#45;&gt;Node15 -->
<g id="edge15_Node000012_Node000015" class="edge">
<title>Node12&#45;&gt;Node15</title>
<g id="a_edge15_Node000012_Node000015"><a xlink:title=" ">
<path fill="none" stroke="#63b8ff" d="M516.56,-54.75C511.11,-47.34 503.14,-36.5 496.44,-27.41"/>
<polygon fill="#63b8ff" stroke="#63b8ff" points="499.07,-25.07 490.32,-19.09 493.43,-29.22 499.07,-25.07"/>
</a>
</g>
</g>
<!-- Node16 -->
<g id="Node000016" class="node">
<title>Node16</title>
<g id="a_Node000016"><a xlink:title=" ">
<polygon fill="#e0e0e0" stroke="#999999" points="571.5,-19 524.5,-19 524.5,0 571.5,0 571.5,-19"/>
<text text-anchor="middle" x="548" y="-7" font-family="Helvetica,sans-Serif" font-size="10.00">queue</text>
</a>
</g>
</g>
<!-- Node12&#45;&gt;Node16 -->
<g id="edge16_Node000012_Node000016" class="edge">
<title>Node12&#45;&gt;Node16</title>
<g id="a_edge16_Node000012_Node000016"><a xlink:title=" ">
<path fill="none" stroke="#63b8ff" d="M527.13,-54.75C530.51,-47.57 535.42,-37.18 539.62,-28.27"/>
<polygon fill="#63b8ff" stroke="#63b8ff" points="542.85,-29.63 543.95,-19.09 536.52,-26.64 542.85,-29.63"/>
</a>
</g>
</g>
<!-- Node17 -->
<g id="Node000017" class="node">
<title>Node17</title>
<g id="a_Node000017"><a xlink:title=" ">
<polygon fill="#e0e0e0" stroke="#999999" points="1540,-19 1498,-19 1498,0 1540,0 1540,-19"/>
<text text-anchor="middle" x="1519" y="-7" font-family="Helvetica,sans-Serif" font-size="10.00">array</text>
</a>
</g>
</g>
<!-- Node12&#45;&gt;Node17 -->
<g id="edge17_Node000012_Node000017" class="edge">
<title>Node12&#45;&gt;Node17</title>
<g id="a_edge17_Node000012_Node000017"><a xlink:title=" ">
<path fill="none" stroke="#63b8ff" d="M555.66,-59.6C570.14,-57.98 587.4,-56.21 603,-55 949.35,-28.21 1370.71,-14.76 1487.62,-11.37"/>
<polygon fill="#63b8ff" stroke="#63b8ff" points="1487.77,-14.87 1497.67,-11.08 1487.57,-7.87 1487.77,-14.87"/>
</a>
</g>
</g>
<!-- Node18 -->
<g id="Node000018" class="node">
<title>Node18</title>
<g id="a_Node000018"><a xlink:title=" ">
<polygon fill="#e0e0e0" stroke="#999999" points="1750,-19 1698,-19 1698,0 1750,0 1750,-19"/>
<text text-anchor="middle" x="1724" y="-7" font-family="Helvetica,sans-Serif" font-size="10.00">cassert</text>
</a>
</g>
</g>
<!-- Node12&#45;&gt;Node18 -->
<g id="edge18_Node000012_Node000018" class="edge">
<title>Node12&#45;&gt;Node18</title>
<g id="a_edge18_Node000012_Node000018"><a xlink:title=" ">
<path fill="none" stroke="#63b8ff" d="M555.65,-59.52C570.13,-57.89 587.4,-56.12 603,-55 1022.66,-24.76 1128.65,-37.21 1549,-19 1596.92,-16.92 1652.2,-14.18 1687.6,-12.38"/>
<polygon fill="#63b8ff" stroke="#63b8ff" points="1688.1,-15.86 1697.91,-11.85 1687.75,-8.87 1688.1,-15.86"/>
</a>
</g>
</g>
<!-- Node19 -->
<g id="Node000019" class="node">
<title>Node19</title>
<g id="a_Node000019"><a xlink:title=" ">
<polygon fill="#e0e0e0" stroke="#999999" points="443.5,-19 350.5,-19 350.5,0 443.5,0 443.5,-19"/>
<text text-anchor="middle" x="397" y="-7" font-family="Helvetica,sans-Serif" font-size="10.00">unordered_map</text>
</a>
</g>
</g>
<!-- Node12&#45;&gt;Node19 -->
<g id="edge19_Node000012_Node000019" class="edge">
<title>Node12&#45;&gt;Node19</title>
<g id="a_edge19_Node000012_Node000019"><a xlink:title=" ">
<path fill="none" stroke="#63b8ff" d="M502.76,-54.98C482.3,-46.38 450.47,-32.99 427.07,-23.15"/>
<polygon fill="#63b8ff" stroke="#63b8ff" points="428.19,-19.82 417.61,-19.17 425.47,-26.27 428.19,-19.82"/>
</a>
</g>
</g>
<!-- Node20 -->
<g id="Node000020" class="node">
<title>Node20</title>
<g id="a_Node000020"><a xlink:title=" ">
<polygon fill="#e0e0e0" stroke="#999999" points="1016,-19 958,-19 958,0 1016,0 1016,-19"/>
<text text-anchor="middle" x="987" y="-7" font-family="Helvetica,sans-Serif" font-size="10.00">memory</text>
</a>
</g>
</g>
<!-- Node12&#45;&gt;Node20 -->
<g id="edge20_Node000012_Node000020" class="edge">
<title>Node12&#45;&gt;Node20</title>
<g id="a_edge20_Node000012_Node000020"><a xlink:title=" ">
<path fill="none" stroke="#63b8ff" d="M555.56,-57.25C560.39,-56.42 565.32,-55.64 570,-55 734.43,-32.36 780.16,-45.02 947.71,-19.01"/>
<polygon fill="#63b8ff" stroke="#63b8ff" points="948.28,-22.47 957.61,-17.46 947.19,-15.55 948.28,-22.47"/>
</a>
</g>
</g>
<!-- Node21 -->
<g id="Node000021" class="node">
<title>Node21</title>
<g id="a_Node000021"><a xlink:title=" ">
<polygon fill="#e0e0e0" stroke="#999999" points="622,-19 590,-19 590,0 622,0 622,-19"/>
<text text-anchor="middle" x="606" y="-7" font-family="Helvetica,sans-Serif" font-size="10.00">set</text>
</a>
</g>
</g>
<!-- Node12&#45;&gt;Node21 -->
<g id="edge21_Node000012_Node000021" class="edge">
<title>Node12&#45;&gt;Node21</title>
<g id="a_edge21_Node000012_Node000021"><a xlink:title=" ">
<path fill="none" stroke="#63b8ff" d="M536.34,-54.98C549.09,-46.84 568.55,-34.41 583.67,-24.76"/>
<polygon fill="#63b8ff" stroke="#63b8ff" points="585.88,-27.5 592.42,-19.17 582.11,-21.6 585.88,-27.5"/>
</a>
</g>
</g>
<!-- Node22 -->
<g id="Node000022" class="node">
<title>Node22</title>
<g id="a_Node000022"><a xlink:title=" ">
<polygon fill="#e0e0e0" stroke="#999999" points="705.5,-19 640.5,-19 640.5,0 705.5,0 705.5,-19"/>
<text text-anchor="middle" x="673" y="-7" font-family="Helvetica,sans-Serif" font-size="10.00">typeindex</text>
</a>
</g>
</g>
<!-- Node12&#45;&gt;Node22 -->
<g id="edge22_Node000012_Node000022" class="edge">
<title>Node12&#45;&gt;Node22</title>
<g id="a_edge22_Node000012_Node000022"><a xlink:title=" ">
<path fill="none" stroke="#63b8ff" d="M547.1,-54.98C571.88,-46.23 610.7,-32.51 638.69,-22.62"/>
<polygon fill="#63b8ff" stroke="#63b8ff" points="640.2,-25.8 648.46,-19.17 637.87,-19.2 640.2,-25.8"/>
</a>
</g>
</g>
<!-- Node23 -->
<g id="Node000023" class="node">
<title>Node23</title>
<g id="a_Node000023"><a xlink:title=" ">
<polygon fill="#e0e0e0" stroke="#999999" points="872.5,-19 723.5,-19 723.5,0 872.5,0 872.5,-19"/>
<text text-anchor="middle" x="798" y="-7" font-family="Helvetica,sans-Serif" font-size="10.00">SFML/Graphics/Texture.hpp</text>
</a>
</g>
</g>
<!-- Node12&#45;&gt;Node23 -->
<g id="edge24_Node000012_Node000023" class="edge">
<title>Node12&#45;&gt;Node23</title>
<g id="a_edge24_Node000012_Node000023"><a xlink:title=" ">
<path fill="none" stroke="#63b8ff" d="M555.63,-57.21C601.97,-48.28 687.44,-31.81 743.5,-21"/>
<polygon fill="#63b8ff" stroke="#63b8ff" points="744.45,-24.38 753.61,-19.05 743.13,-17.51 744.45,-24.38"/>
</a>
</g>
</g>
<!-- Node24 -->
<g id="Node000024" class="node">
<title>Node24</title>
<g id="a_Node000024"><a xlink:title=" ">
<polygon fill="#e0e0e0" stroke="#999999" points="1199.5,-19 1104.5,-19 1104.5,0 1199.5,0 1199.5,-19"/>
<text text-anchor="middle" x="1152" y="-7" font-family="Helvetica,sans-Serif" font-size="10.00">SFML/Audio.hpp</text>
</a>
</g>
</g>
<!-- Node12&#45;&gt;Node24 -->
<g id="edge25_Node000012_Node000024" class="edge">
<title>Node12&#45;&gt;Node24</title>
<g id="a_edge25_Node000012_Node000024"><a xlink:title=" ">
<path fill="none" stroke="#63b8ff" d="M555.68,-59.84C570.17,-58.27 587.43,-56.46 603,-55 781.85,-38.25 993.84,-22.12 1094.02,-14.72"/>
<polygon fill="#63b8ff" stroke="#63b8ff" points="1094.52,-18.19 1104.23,-13.97 1094,-11.21 1094.52,-18.19"/>
</a>
</g>
</g>
<!-- Node26 -->
<g id="Node000026" class="node">
<title>Node26</title>
<g id="a_Node000026"><a xlink:href="Component_8hpp.html" target="_top" xlink:title=" ">
<polygon fill="white" stroke="#666666" points="393,-134.5 299,-134.5 299,-115.5 393,-115.5 393,-134.5"/>
<text text-anchor="middle" x="346" y="-122.5" font-family="Helvetica,sans-Serif" font-size="10.00">Component.hpp</text>
</a>
</g>
</g>
<!-- Node25&#45;&gt;Node26 -->
<g id="edge28_Node000025_Node000026" class="edge">
<title>Node25&#45;&gt;Node26</title>
<g id="a_edge28_Node000025_Node000026"><a xlink:title=" ">
<path fill="none" stroke="#63b8ff" d="M524.61,-175.99C488.08,-165.77 426.66,-148.58 386.23,-137.26"/>
<polygon fill="#63b8ff" stroke="#63b8ff" points="387,-133.84 376.43,-134.52 385.11,-140.58 387,-133.84"/>
</a>
</g>
</g>
<!-- Node26&#45;&gt;Node12 -->
<g id="edge29_Node000026_Node000012" class="edge">
<title>Node26&#45;&gt;Node12</title>
<g id="a_edge29_Node000026_Node000012"><a xlink:title=" ">
<path fill="none" stroke="#63b8ff" d="M371.74,-115.49C402.28,-105.4 453.37,-88.51 487.62,-77.19"/>
<polygon fill="#63b8ff" stroke="#63b8ff" points="488.84,-80.48 497.23,-74.02 486.64,-73.83 488.84,-80.48"/>
</a>
</g>
</g>
<!-- Node26&#45;&gt;Node14 -->
<g id="edge30_Node000026_Node000014" class="edge">
<title>Node26&#45;&gt;Node14</title>
<g id="a_edge30_Node000026_Node000014"><a xlink:title=" ">
<path fill="none" stroke="#63b8ff" d="M343.29,-115.47C337.48,-97.15 323.7,-53.68 315.81,-28.81"/>
<polygon fill="#63b8ff" stroke="#63b8ff" points="319.1,-27.6 312.74,-19.13 312.42,-29.72 319.1,-27.6"/>
</a>
</g>
</g>
<!-- Node26&#45;&gt;Node19 -->
<g id="edge35_Node000026_Node000019" class="edge">
<title>Node26&#45;&gt;Node19</title>
<g id="a_edge35_Node000026_Node000019"><a xlink:title=" ">
<path fill="none" stroke="#63b8ff" d="M349.83,-115.47C358.1,-97.06 377.77,-53.29 388.92,-28.48"/>
<polygon fill="#63b8ff" stroke="#63b8ff" points="392.22,-29.69 393.12,-19.13 385.83,-26.82 392.22,-29.69"/>
</a>
</g>
</g>
<!-- Node27 -->
<g id="Node000027" class="node">
<title>Node27</title>
<g id="a_Node000027"><a xlink:href="LuaScript_8hpp.html" target="_top" xlink:title=" ">
<polygon fill="white" stroke="#666666" points="281.5,-74 198.5,-74 198.5,-55 281.5,-55 281.5,-74"/>
<text text-anchor="middle" x="240" y="-62" font-family="Helvetica,sans-Serif" font-size="10.00">LuaScript.hpp</text>
</a>
</g>
</g>
<!-- Node26&#45;&gt;Node27 -->
<g id="edge31_Node000026_Node000027" class="edge">
<title>Node26&#45;&gt;Node27</title>
<g id="a_edge31_Node000026_Node000027"><a xlink:title=" ">
<path fill="none" stroke="#63b8ff" d="M330.36,-115.37C313.06,-105.82 284.95,-90.31 264.67,-79.12"/>
<polygon fill="#63b8ff" stroke="#63b8ff" points="266.15,-75.93 255.7,-74.17 262.77,-82.06 266.15,-75.93"/>
</a>
</g>
</g>
<!-- Node27&#45;&gt;Node4 -->
<g id="edge34_Node000027_Node000004" class="edge">
<title>Node27&#45;&gt;Node4</title>
<g id="a_edge34_Node000027_Node000004"><a xlink:title=" ">
<path fill="none" stroke="#63b8ff" d="M240,-54.75C240,-47.8 240,-37.85 240,-29.13"/>
<polygon fill="#63b8ff" stroke="#63b8ff" points="243.5,-29.09 240,-19.09 236.5,-29.09 243.5,-29.09"/>
</a>
</g>
</g>
<!-- Node27&#45;&gt;Node14 -->
<g id="edge33_Node000027_Node000014" class="edge">
<title>Node27&#45;&gt;Node14</title>
<g id="a_edge33_Node000027_Node000014"><a xlink:title=" ">
<path fill="none" stroke="#63b8ff" d="M251.25,-54.98C261.8,-47 277.8,-34.88 290.44,-25.31"/>
<polygon fill="#63b8ff" stroke="#63b8ff" points="292.69,-28 298.55,-19.17 288.46,-22.42 292.69,-28"/>
</a>
</g>
</g>
<!-- Node27&#45;&gt;Node28 -->
<g id="edge32_Node000027_Node000028" class="edge">
<title>Node27&#45;&gt;Node28</title>
<g id="a_edge32_Node000027_Node000028"><a xlink:title=" ">
<path fill="none" stroke="#63b8ff" d="M226.66,-54.98C213.91,-46.84 194.45,-34.41 179.33,-24.76"/>
<polygon fill="#63b8ff" stroke="#63b8ff" points="180.89,-21.6 170.58,-19.17 177.12,-27.5 180.89,-21.6"/>
</a>
</g>
</g>
<!-- Node30 -->
<g id="Node000030" class="node">
<title>Node30</title>
<g id="a_Node000030"><a xlink:href="Systeme_8hpp.html" target="_top" xlink:title=" ">
<polygon fill="white" stroke="#666666" points="563,-134.5 483,-134.5 483,-115.5 563,-115.5 563,-134.5"/>
<text text-anchor="middle" x="523" y="-122.5" font-family="Helvetica,sans-Serif" font-size="10.00">Systeme.hpp</text>
</a>
</g>
</g>
<!-- Node29&#45;&gt;Node30 -->
<g id="edge37_Node000029_Node000030" class="edge">
<title>Node29&#45;&gt;Node30</title>
<g id="a_edge37_Node000029_Node000030"><a xlink:title=" ">
<path fill="none" stroke="#63b8ff" d="M675.97,-175.99C645.08,-165.9 593.42,-149.01 558.78,-137.69"/>
<polygon fill="#63b8ff" stroke="#63b8ff" points="559.65,-134.3 549.06,-134.52 557.48,-140.95 559.65,-134.3"/>
</a>
</g>
</g>
<!-- Node30&#45;&gt;Node12 -->
<g id="edge38_Node000030_Node000012" class="edge">
<title>Node30&#45;&gt;Node12</title>
<g id="a_edge38_Node000030_Node000012"><a xlink:title=" ">
<path fill="none" stroke="#63b8ff" d="M523,-115.37C523,-107.25 523,-94.81 523,-84.39"/>
<polygon fill="#63b8ff" stroke="#63b8ff" points="526.5,-84.17 523,-74.17 519.5,-84.17 526.5,-84.17"/>
</a>
</g>
</g>
<!-- Node31&#45;&gt;Node4 -->
<g id="edge46_Node000031_Node000004" class="edge">
<title>Node31&#45;&gt;Node4</title>
<g id="a_edge46_Node000031_Node000004"><a xlink:title=" ">
<path fill="none" stroke="#63b8ff" d="M1205.43,-123.14C1026.88,-120.39 545.65,-109.78 391,-74 344.2,-63.17 293.42,-38.99 264.29,-23.79"/>
<polygon fill="#63b8ff" stroke="#63b8ff" points="265.75,-20.6 255.28,-19.01 262.47,-26.79 265.75,-20.6"/>
</a>
</g>
</g>
<!-- Node31&#45;&gt;Node6 -->
<g id="edge55_Node000031_Node000006" class="edge">
<title>Node31&#45;&gt;Node6</title>
<g id="a_edge55_Node000031_Node000006"><a xlink:title=" ">
<path fill="none" stroke="#63b8ff" d="M1340.75,-121.64C1460.65,-116.85 1717.87,-103.8 1933,-74 1934.28,-73.82 1935.59,-73.63 1936.91,-73.42"/>
<polygon fill="#63b8ff" stroke="#63b8ff" points="1937.82,-76.82 1947.07,-71.66 1936.62,-69.92 1937.82,-76.82"/>
</a>
</g>
</g>
<!-- Node31&#45;&gt;Node8 -->
<g id="edge49_Node000031_Node000008" class="edge">
<title>Node31&#45;&gt;Node8</title>
<g id="a_edge49_Node000031_Node000008"><a xlink:title=" ">
<path fill="none" stroke="#63b8ff" d="M1340.5,-122.12C1462.69,-117.97 1715.46,-105.74 1797,-74 1823.98,-63.5 1849.73,-41.68 1865.45,-26.57"/>
<polygon fill="#63b8ff" stroke="#63b8ff" points="1868.06,-28.91 1872.7,-19.38 1863.14,-23.94 1868.06,-28.91"/>
</a>
</g>
</g>
<!-- Node31&#45;&gt;Node9 -->
<g id="edge41_Node000031_Node000009" class="edge">
<title>Node31&#45;&gt;Node9</title>
<g id="a_edge41_Node000031_Node000009"><a xlink:title=" ">
<path fill="none" stroke="#63b8ff" d="M1340.58,-122.44C1445.59,-119 1653.84,-108.11 1827,-74 1890.13,-61.56 1961.38,-37.19 2001.37,-22.52"/>
<polygon fill="#63b8ff" stroke="#63b8ff" points="2002.67,-25.77 2010.84,-19.02 2000.24,-19.21 2002.67,-25.77"/>
</a>
</g>
</g>
<!-- Node31&#45;&gt;Node12 -->
<g id="edge65_Node000031_Node000012" class="edge">
<title>Node31&#45;&gt;Node12</title>
<g id="a_edge65_Node000031_Node000012"><a xlink:title=" ">
<path fill="none" stroke="#63b8ff" d="M1205.39,-121.62C1079.81,-116.66 802.18,-103.17 570,-74 568.53,-73.82 567.05,-73.62 565.54,-73.4"/>
<polygon fill="#63b8ff" stroke="#63b8ff" points="565.96,-69.93 555.55,-71.86 564.89,-76.85 565.96,-69.93"/>
</a>
</g>
</g>
<!-- Node31&#45;&gt;Node14 -->
<g id="edge54_Node000031_Node000014" class="edge">
<title>Node31&#45;&gt;Node14</title>
<g id="a_edge54_Node000031_Node000014"><a xlink:title=" ">
<path fill="none" stroke="#63b8ff" d="M1205.48,-123.2C1034.57,-120.65 588.29,-110.59 445,-74 402.98,-63.27 358.18,-39.41 332.2,-24.19"/>
<polygon fill="#63b8ff" stroke="#63b8ff" points="333.91,-21.13 323.53,-19.01 330.32,-27.14 333.91,-21.13"/>
</a>
</g>
</g>
<!-- Node31&#45;&gt;Node17 -->
<g id="edge64_Node000031_Node000017" class="edge">
<title>Node31&#45;&gt;Node17</title>
<g id="a_edge64_Node000031_Node000017"><a xlink:title=" ">
<path fill="none" stroke="#63b8ff" d="M1340.68,-122.06C1468.93,-117.68 1737.08,-104.9 1765,-74 1770.66,-67.73 1770.41,-61.48 1765,-55 1737.96,-22.63 1610.22,-13.76 1550.24,-11.37"/>
<polygon fill="#63b8ff" stroke="#63b8ff" points="1550.33,-7.87 1540.21,-11 1550.07,-14.86 1550.33,-7.87"/>
</a>
</g>
</g>
<!-- Node31&#45;&gt;Node18 -->
<g id="edge63_Node000031_Node000018" class="edge">
<title>Node31&#45;&gt;Node18</title>
<g id="a_edge63_Node000031_Node000018"><a xlink:title=" ">
<path fill="none" stroke="#63b8ff" d="M1340.59,-122.3C1472.06,-118.28 1751.97,-106.03 1781,-74 1796.5,-56.9 1772.04,-37.11 1750.51,-24.22"/>
<polygon fill="#63b8ff" stroke="#63b8ff" points="1752.01,-21.05 1741.58,-19.15 1748.55,-27.13 1752.01,-21.05"/>
</a>
</g>
</g>
<!-- Node31&#45;&gt;Node19 -->
<g id="edge48_Node000031_Node000019" class="edge">
<title>Node31&#45;&gt;Node19</title>
<g id="a_edge48_Node000031_Node000019"><a xlink:title=" ">
<path fill="none" stroke="#63b8ff" d="M1205.47,-124.69C1039.02,-125.61 613,-122.96 481,-74 453.56,-63.82 427.59,-41.54 411.98,-26.27"/>
<polygon fill="#63b8ff" stroke="#63b8ff" points="414.33,-23.68 404.81,-19.03 409.36,-28.6 414.33,-23.68"/>
</a>
</g>
</g>
<!-- Node31&#45;&gt;Node20 -->
<g id="edge50_Node000031_Node000020" class="edge">
<title>Node31&#45;&gt;Node20</title>
<g id="a_edge50_Node000031_Node000020"><a xlink:title=" ">
<path fill="none" stroke="#63b8ff" d="M1205.33,-121.41C1039.21,-114.72 623.3,-95.87 603,-74 551.95,-19 849.37,-30.58 947.45,-18.85"/>
<polygon fill="#63b8ff" stroke="#63b8ff" points="948.19,-22.28 957.61,-17.43 947.22,-15.35 948.19,-22.28"/>
</a>
</g>
</g>
<!-- Node31&#45;&gt;Node24 -->
<g id="edge44_Node000031_Node000024" class="edge">
<title>Node31&#45;&gt;Node24</title>
<g id="a_edge44_Node000031_Node000024"><a xlink:title=" ">
<path fill="none" stroke="#63b8ff" d="M1340.73,-124.3C1484.89,-123.79 1804.51,-115.89 1748,-55 1729.84,-35.43 1355.67,-18.57 1209.65,-12.7"/>
<polygon fill="#63b8ff" stroke="#63b8ff" points="1209.67,-9.2 1199.54,-12.3 1209.39,-16.2 1209.67,-9.2"/>
</a>
</g>
</g>
<!-- Node32 -->
<g id="Node000032" class="node">
<title>Node32</title>
<g id="a_Node000032"><a xlink:title=" ">
<polygon fill="#e0e0e0" stroke="#999999" points="716,-74 612,-74 612,-55 716,-55 716,-74"/>
<text text-anchor="middle" x="664" y="-62" font-family="Helvetica,sans-Serif" font-size="10.00">SFML/System.hpp</text>
</a>
</g>
</g>
<!-- Node31&#45;&gt;Node32 -->
<g id="edge42_Node000031_Node000032" class="edge">
<title>Node31&#45;&gt;Node32</title>
<g id="a_edge42_Node000031_Node000032"><a xlink:title=" ">
<path fill="none" stroke="#63b8ff" d="M1205.1,-118.78C1103.52,-110.76 905.71,-94.29 726.23,-73.97"/>
<polygon fill="#63b8ff" stroke="#63b8ff" points="726.41,-70.47 716.07,-72.81 725.61,-77.42 726.41,-70.47"/>
</a>
</g>
</g>
<!-- Node33 -->
<g id="Node000033" class="node">
<title>Node33</title>
<g id="a_Node000033"><a xlink:title=" ">
<polygon fill="#e0e0e0" stroke="#999999" points="839.5,-74 734.5,-74 734.5,-55 839.5,-55 839.5,-74"/>
<text text-anchor="middle" x="787" y="-62" font-family="Helvetica,sans-Serif" font-size="10.00">SFML/Window.hpp</text>
</a>
</g>
</g>
<!-- Node31&#45;&gt;Node33 -->
<g id="edge43_Node000031_Node000033" class="edge">
<title>Node31&#45;&gt;Node33</title>
<g id="a_edge43_Node000031_Node000033"><a xlink:title=" ">
<path fill="none" stroke="#63b8ff" d="M1205.39,-116.43C1123.8,-107.19 982.15,-90.88 850.06,-74.11"/>
<polygon fill="#63b8ff" stroke="#63b8ff" points="850.12,-70.59 839.76,-72.8 849.23,-77.54 850.12,-70.59"/>
</a>
</g>
</g>
<!-- Node34 -->
<g id="Node000034" class="node">
<title>Node34</title>
<g id="a_Node000034"><a xlink:title=" ">
<polygon fill="#e0e0e0" stroke="#999999" points="966,-74 858,-74 858,-55 966,-55 966,-74"/>
<text text-anchor="middle" x="912" y="-62" font-family="Helvetica,sans-Serif" font-size="10.00">SFML/Network.hpp</text>
</a>
</g>
</g>
<!-- Node31&#45;&gt;Node34 -->
<g id="edge45_Node000031_Node000034" class="edge">
<title>Node31&#45;&gt;Node34</title>
<g id="a_edge45_Node000031_Node000034"><a xlink:title=" ">
<path fill="none" stroke="#63b8ff" d="M1205.1,-113C1138.89,-102.27 1039.03,-86.09 974.67,-75.66"/>
<polygon fill="#63b8ff" stroke="#63b8ff" points="975.09,-72.18 964.66,-74.03 973.97,-79.09 975.09,-72.18"/>
</a>
</g>
</g>
<!-- Node35 -->
<g id="Node000035" class="node">
<title>Node35</title>
<g id="a_Node000035"><a xlink:title=" ">
<polygon fill="#e0e0e0" stroke="#999999" points="1031.5,-74 984.5,-74 984.5,-55 1031.5,-55 1031.5,-74"/>
<text text-anchor="middle" x="1008" y="-62" font-family="Helvetica,sans-Serif" font-size="10.00">vector</text>
</a>
</g>
</g>
<!-- Node31&#45;&gt;Node35 -->
<g id="edge47_Node000031_Node000035" class="edge">
<title>Node31&#45;&gt;Node35</title>
<g id="a_edge47_Node000031_Node000035"><a xlink:title=" ">
<path fill="none" stroke="#63b8ff" d="M1205.33,-110.16C1161.32,-100.98 1102.47,-88.39 1041.56,-74.06"/>
<polygon fill="#63b8ff" stroke="#63b8ff" points="1042.3,-70.64 1031.77,-71.74 1040.69,-77.45 1042.3,-70.64"/>
</a>
</g>
</g>
<!-- Node36 -->
<g id="Node000036" class="node">
<title>Node36</title>
<g id="a_Node000036"><a xlink:title=" ">
<polygon fill="#e0e0e0" stroke="#999999" points="1096.5,-74 1049.5,-74 1049.5,-55 1096.5,-55 1096.5,-74"/>
<text text-anchor="middle" x="1073" y="-62" font-family="Helvetica,sans-Serif" font-size="10.00">cmath</text>
</a>
</g>
</g>
<!-- Node31&#45;&gt;Node36 -->
<g id="edge51_Node000031_Node000036" class="edge">
<title>Node31&#45;&gt;Node36</title>
<g id="a_edge51_Node000031_Node000036"><a xlink:title=" ">
<path fill="none" stroke="#63b8ff" d="M1225.1,-109.99C1188.49,-99.28 1138.97,-84.8 1106.52,-75.31"/>
<polygon fill="#63b8ff" stroke="#63b8ff" points="1107.21,-71.86 1096.63,-72.41 1105.24,-78.58 1107.21,-71.86"/>
</a>
</g>
</g>
<!-- Node37 -->
<g id="Node000037" class="node">
<title>Node37</title>
<g id="a_Node000037"><a xlink:title=" ">
<polygon fill="#e0e0e0" stroke="#999999" points="1159,-74 1115,-74 1115,-55 1159,-55 1159,-74"/>
<text text-anchor="middle" x="1137" y="-62" font-family="Helvetica,sans-Serif" font-size="10.00">ctime</text>
</a>
</g>
</g>
<!-- Node31&#45;&gt;Node37 -->
<g id="edge52_Node000031_Node000037" class="edge">
<title>Node31&#45;&gt;Node37</title>
<g id="a_edge52_Node000031_Node000037"><a xlink:title=" ">
<path fill="none" stroke="#63b8ff" d="M1240.42,-109.99C1217.94,-100.31 1188.28,-87.56 1166.49,-78.18"/>
<polygon fill="#63b8ff" stroke="#63b8ff" points="1167.65,-74.88 1157.08,-74.14 1164.89,-81.31 1167.65,-74.88"/>
</a>
</g>
</g>
<!-- Node38 -->
<g id="Node000038" class="node">
<title>Node38</title>
<g id="a_Node000038"><a xlink:title=" ">
<polygon fill="#e0e0e0" stroke="#999999" points="1226.5,-74 1177.5,-74 1177.5,-55 1226.5,-55 1226.5,-74"/>
<text text-anchor="middle" x="1202" y="-62" font-family="Helvetica,sans-Serif" font-size="10.00">cstdlib</text>
</a>
</g>
</g>
<!-- Node31&#45;&gt;Node38 -->
<g id="edge53_Node000031_Node000038" class="edge">
<title>Node31&#45;&gt;Node38</title>
<g id="a_edge53_Node000031_Node000038"><a xlink:title=" ">
<path fill="none" stroke="#63b8ff" d="M1255.81,-109.84C1245.19,-101.09 1231.56,-89.85 1220.67,-80.88"/>
<polygon fill="#63b8ff" stroke="#63b8ff" points="1222.58,-77.92 1212.64,-74.27 1218.13,-83.33 1222.58,-77.92"/>
</a>
</g>
</g>
<!-- Node39 -->
<g id="Node000039" class="node">
<title>Node39</title>
<g id="a_Node000039"><a xlink:title=" ">
<polygon fill="#e0e0e0" stroke="#999999" points="1301,-74 1245,-74 1245,-55 1301,-55 1301,-74"/>
<text text-anchor="middle" x="1273" y="-62" font-family="Helvetica,sans-Serif" font-size="10.00">sstream</text>
</a>
</g>
</g>
<!-- Node31&#45;&gt;Node39 -->
<g id="edge56_Node000031_Node000039" class="edge">
<title>Node31&#45;&gt;Node39</title>
<g id="a_edge56_Node000031_Node000039"><a xlink:title=" ">
<path fill="none" stroke="#63b8ff" d="M1273,-109.84C1273,-102.21 1273,-92.7 1273,-84.45"/>
<polygon fill="#63b8ff" stroke="#63b8ff" points="1276.5,-84.27 1273,-74.27 1269.5,-84.27 1276.5,-84.27"/>
</a>
</g>
</g>
<!-- Node40 -->
<g id="Node000040" class="node">
<title>Node40</title>
<g id="a_Node000040"><a xlink:title=" ">
<polygon fill="#e0e0e0" stroke="#999999" points="1383,-74 1319,-74 1319,-55 1383,-55 1383,-74"/>
<text text-anchor="middle" x="1351" y="-62" font-family="Helvetica,sans-Serif" font-size="10.00">algorithm</text>
</a>
</g>
</g>
<!-- Node31&#45;&gt;Node40 -->
<g id="edge57_Node000031_Node000040" class="edge">
<title>Node31&#45;&gt;Node40</title>
<g id="a_edge57_Node000031_Node000040"><a xlink:title=" ">
<path fill="none" stroke="#63b8ff" d="M1291.88,-109.84C1303.78,-100.91 1319.12,-89.41 1331.2,-80.35"/>
<polygon fill="#63b8ff" stroke="#63b8ff" points="1333.41,-83.07 1339.31,-74.27 1329.21,-77.47 1333.41,-83.07"/>
</a>
</g>
</g>
<!-- Node41 -->
<g id="Node000041" class="node">
<title>Node41</title>
<g id="a_Node000041"><a xlink:title=" ">
<polygon fill="#e0e0e0" stroke="#999999" points="1466.5,-74 1401.5,-74 1401.5,-55 1466.5,-55 1466.5,-74"/>
<text text-anchor="middle" x="1434" y="-62" font-family="Helvetica,sans-Serif" font-size="10.00">functional</text>
</a>
</g>
</g>
<!-- Node31&#45;&gt;Node41 -->
<g id="edge58_Node000031_Node000041" class="edge">
<title>Node31&#45;&gt;Node41</title>
<g id="a_edge58_Node000031_Node000041"><a xlink:title=" ">
<path fill="none" stroke="#63b8ff" d="M1311.56,-109.99C1338.79,-100.1 1374.88,-86.98 1400.82,-77.56"/>
<polygon fill="#63b8ff" stroke="#63b8ff" points="1402.02,-80.84 1410.22,-74.14 1399.63,-74.26 1402.02,-80.84"/>
</a>
</g>
</g>
<!-- Node42 -->
<g id="Node000042" class="node">
<title>Node42</title>
<g id="a_Node000042"><a xlink:title=" ">
<polygon fill="#e0e0e0" stroke="#999999" points="1533,-74 1485,-74 1485,-55 1533,-55 1533,-74"/>
<text text-anchor="middle" x="1509" y="-62" font-family="Helvetica,sans-Serif" font-size="10.00">thread</text>
</a>
</g>
</g>
<!-- Node31&#45;&gt;Node42 -->
<g id="edge59_Node000031_Node000042" class="edge">
<title>Node31&#45;&gt;Node42</title>
<g id="a_edge59_Node000031_Node000042"><a xlink:title=" ">
<path fill="none" stroke="#63b8ff" d="M1330.79,-109.94C1369.13,-100.57 1420.82,-87.86 1475.06,-74.22"/>
<polygon fill="#63b8ff" stroke="#63b8ff" points="1476.01,-77.59 1484.86,-71.75 1474.3,-70.8 1476.01,-77.59"/>
</a>
</g>
</g>
<!-- Node43 -->
<g id="Node000043" class="node">
<title>Node43</title>
<g id="a_Node000043"><a xlink:title=" ">
<polygon fill="#e0e0e0" stroke="#999999" points="1599,-74 1551,-74 1551,-55 1599,-55 1599,-74"/>
<text text-anchor="middle" x="1575" y="-62" font-family="Helvetica,sans-Serif" font-size="10.00">mutex</text>
</a>
</g>
</g>
<!-- Node31&#45;&gt;Node43 -->
<g id="edge60_Node000031_Node000043" class="edge">
<title>Node31&#45;&gt;Node43</title>
<g id="a_edge60_Node000031_Node000043"><a xlink:title=" ">
<path fill="none" stroke="#63b8ff" d="M1340.69,-112.74C1392.9,-103.75 1467.12,-90.31 1540.95,-74.11"/>
<polygon fill="#63b8ff" stroke="#63b8ff" points="1541.89,-77.49 1550.9,-71.91 1540.38,-70.65 1541.89,-77.49"/>
</a>
</g>
</g>
<!-- Node44 -->
<g id="Node000044" class="node">
<title>Node44</title>
<g id="a_Node000044"><a xlink:title=" ">
<polygon fill="#e0e0e0" stroke="#999999" points="1667,-74 1617,-74 1617,-55 1667,-55 1667,-74"/>
<text text-anchor="middle" x="1642" y="-62" font-family="Helvetica,sans-Serif" font-size="10.00">chrono</text>
</a>
</g>
</g>
<!-- Node31&#45;&gt;Node44 -->
<g id="edge61_Node000031_Node000044" class="edge">
<title>Node31&#45;&gt;Node44</title>
<g id="a_edge61_Node000031_Node000044"><a xlink:title=" ">
<path fill="none" stroke="#63b8ff" d="M1340.71,-115.85C1406.35,-107.51 1508.93,-93.3 1606.75,-74.08"/>
<polygon fill="#63b8ff" stroke="#63b8ff" points="1607.68,-77.47 1616.81,-72.09 1606.32,-70.6 1607.68,-77.47"/>
</a>
</g>
</g>
<!-- Node45 -->
<g id="Node000045" class="node">
<title>Node45</title>
<g id="a_Node000045"><a xlink:title=" ">
<polygon fill="#e0e0e0" stroke="#999999" points="1739,-74 1685,-74 1685,-55 1739,-55 1739,-74"/>
<text text-anchor="middle" x="1712" y="-62" font-family="Helvetica,sans-Serif" font-size="10.00">random</text>
</a>
</g>
</g>
<!-- Node31&#45;&gt;Node45 -->
<g id="edge62_Node000031_Node000045" class="edge">
<title>Node31&#45;&gt;Node45</title>
<g id="a_edge62_Node000031_Node000045"><a xlink:title=" ">
<path fill="none" stroke="#63b8ff" d="M1340.72,-117.86C1418.95,-110.26 1551.67,-95.81 1674.95,-74.01"/>
<polygon fill="#63b8ff" stroke="#63b8ff" points="1675.71,-77.43 1684.94,-72.22 1674.48,-70.54 1675.71,-77.43"/>
</a>
</g>
</g>
<!-- Node46&#45;&gt;Node11 -->
<g id="edge71_Node000046_Node000011" class="edge">
<title>Node46&#45;&gt;Node11</title>
<g id="a_edge71_Node000046_Node000011"><a xlink:title=" ">
<path fill="none" stroke="#63b8ff" d="M635.73,-285.99C659.92,-276.23 691.9,-263.33 715.19,-253.93"/>
<polygon fill="#63b8ff" stroke="#63b8ff" points="716.62,-257.13 724.59,-250.14 714,-250.63 716.62,-257.13"/>
</a>
</g>
</g>
<!-- Node46&#45;&gt;Node12 -->
<g id="edge69_Node000046_Node000012" class="edge">
<title>Node46&#45;&gt;Node12</title>
<g id="a_edge69_Node000046_Node000012"><a xlink:title=" ">
<path fill="none" stroke="#63b8ff" d="M558.93,-285.83C539.51,-277.69 517.23,-265.88 501,-250 481.25,-230.67 478.64,-221.82 472,-195 467.37,-176.29 460.83,-138.57 474,-110 479.58,-97.89 490.17,-87.62 500.08,-80"/>
<polygon fill="#63b8ff" stroke="#63b8ff" points="502.36,-82.68 508.47,-74.02 498.29,-76.98 502.36,-82.68"/>
</a>
</g>
</g>
<!-- Node46&#45;&gt;Node30 -->
<g id="edge70_Node000046_Node000030" class="edge">
<title>Node46&#45;&gt;Node30</title>
<g id="a_edge70_Node000046_Node000030"><a xlink:title=" ">
<path fill="none" stroke="#63b8ff" d="M573.32,-285.89C543.44,-268.91 497.52,-237.32 478,-195 468.87,-175.2 486.57,-154.52 502.38,-141.02"/>
<polygon fill="#63b8ff" stroke="#63b8ff" points="504.71,-143.64 510.33,-134.66 500.33,-138.18 504.71,-143.64"/>
</a>
</g>
</g>
</g>
</svg>
