<?xml version="1.0" encoding="UTF-8" standalone="no"?>
<!DOCTYPE svg PUBLIC "-//W3C//DTD SVG 1.1//EN"
 "http://www.w3.org/Graphics/SVG/1.1/DTD/svg11.dtd">
<!-- Generated by graphviz version 2.43.0 (0)
 -->
<!-- Title: GameEngine/src/BossSystem.cpp Pages: 1 -->
<svg width="1377pt" height="357pt"
 viewBox="0.00 0.00 1377.00 357.00" xmlns="http://www.w3.org/2000/svg" xmlns:xlink="http://www.w3.org/1999/xlink">
<g id="graph0" class="graph" transform="scale(1 1) rotate(0) translate(4 353)">
<title>GameEngine/src/BossSystem.cpp</title>
<!-- Node1 -->
<g id="Node000001" class="node">
<title>Node1</title>
<g id="a_Node000001"><a xlink:title=" ">
<polygon fill="#999999" stroke="#666666" points="508,-349 329,-349 329,-330 508,-330 508,-349"/>
<text text-anchor="middle" x="418.5" y="-337" font-family="Helvetica,sans-Serif" font-size="10.00">GameEngine/src/BossSystem.cpp</text>
</a>
</g>
</g>
<!-- Node2 -->
<g id="Node000002" class="node">
<title>Node2</title>
<g id="a_Node000002"><a xlink:href="BossSystem_8hpp.html" target="_top" xlink:title=" ">
<polygon fill="white" stroke="#666666" points="491,-294 346,-294 346,-275 491,-275 491,-294"/>
<text text-anchor="middle" x="418.5" y="-282" font-family="Helvetica,sans-Serif" font-size="10.00">../Include/BossSystem.hpp</text>
</a>
</g>
</g>
<!-- Node1&#45;&gt;Node2 -->
<g id="edge1_Node000001_Node000002" class="edge">
<title>Node1&#45;&gt;Node2</title>
<g id="a_edge1_Node000001_Node000002"><a xlink:title=" ">
<path fill="none" stroke="#63b8ff" d="M418.5,-329.75C418.5,-322.8 418.5,-312.85 418.5,-304.13"/>
<polygon fill="#63b8ff" stroke="#63b8ff" points="422,-304.09 418.5,-294.09 415,-304.09 422,-304.09"/>
</a>
</g>
</g>
<!-- Node3 -->
<g id="Node000003" class="node">
<title>Node3</title>
<g id="a_Node000003"><a xlink:href="Entity_8hpp.html" target="_top" xlink:title=" ">
<polygon fill="white" stroke="#666666" points="604,-74 539,-74 539,-55 604,-55 604,-74"/>
<text text-anchor="middle" x="571.5" y="-62" font-family="Helvetica,sans-Serif" font-size="10.00">Entity.hpp</text>
</a>
</g>
</g>
<!-- Node2&#45;&gt;Node3 -->
<g id="edge2_Node000002_Node000003" class="edge">
<title>Node2&#45;&gt;Node3</title>
<g id="a_edge2_Node000002_Node000003"><a xlink:title=" ">
<path fill="none" stroke="#63b8ff" d="M418.13,-274.78C417.79,-262.46 417.79,-239.29 421.5,-220 431.86,-166.13 435.91,-145.78 477.5,-110 494.09,-95.73 516.05,-84.99 534.56,-77.65"/>
<polygon fill="#63b8ff" stroke="#63b8ff" points="536.05,-80.83 544.17,-74.01 533.57,-74.28 536.05,-80.83"/>
</a>
</g>
</g>
<!-- Node11 -->
<g id="Node000011" class="node">
<title>Node11</title>
<g id="a_Node000011"><a xlink:title=" ">
<polygon fill="#e0e0e0" stroke="#999999" points="93,-19 0,-19 0,0 93,0 93,-19"/>
<text text-anchor="middle" x="46.5" y="-7" font-family="Helvetica,sans-Serif" font-size="10.00">unordered_map</text>
</a>
</g>
</g>
<!-- Node2&#45;&gt;Node11 -->
<g id="edge33_Node000002_Node000011" class="edge">
<title>Node2&#45;&gt;Node11</title>
<g id="a_edge33_Node000002_Node000011"><a xlink:title=" ">
<path fill="none" stroke="#63b8ff" d="M356.96,-274.98C300.8,-263.33 226.5,-236.41 226.5,-175.5 226.5,-175.5 226.5,-175.5 226.5,-118.5 226.5,-60.13 156.03,-32.52 103.28,-20.03"/>
<polygon fill="#63b8ff" stroke="#63b8ff" points="103.85,-16.57 93.32,-17.8 102.32,-23.4 103.85,-16.57"/>
</a>
</g>
</g>
<!-- Node19 -->
<g id="Node000019" class="node">
<title>Node19</title>
<g id="a_Node000019"><a xlink:href="Systeme_8hpp.html" target="_top" xlink:title=" ">
<polygon fill="white" stroke="#666666" points="566.5,-129 486.5,-129 486.5,-110 566.5,-110 566.5,-129"/>
<text text-anchor="middle" x="526.5" y="-117" font-family="Helvetica,sans-Serif" font-size="10.00">Systeme.hpp</text>
</a>
</g>
</g>
<!-- Node2&#45;&gt;Node19 -->
<g id="edge18_Node000002_Node000019" class="edge">
<title>Node2&#45;&gt;Node19</title>
<g id="a_edge18_Node000002_Node000019"><a xlink:title=" ">
<path fill="none" stroke="#63b8ff" d="M419.27,-274.83C421.51,-253.89 429.7,-199.72 456.5,-165 466.87,-151.57 482.52,-141.08 496.39,-133.66"/>
<polygon fill="#63b8ff" stroke="#63b8ff" points="498.26,-136.64 505.63,-129.02 495.12,-130.38 498.26,-136.64"/>
</a>
</g>
</g>
<!-- Node20 -->
<g id="Node000020" class="node">
<title>Node20</title>
<g id="a_Node000020"><a xlink:href="Mediator_8hpp.html" target="_top" xlink:title=" ">
<polygon fill="white" stroke="#666666" points="610.5,-239 530.5,-239 530.5,-220 610.5,-220 610.5,-239"/>
<text text-anchor="middle" x="570.5" y="-227" font-family="Helvetica,sans-Serif" font-size="10.00">Mediator.hpp</text>
</a>
</g>
</g>
<!-- Node2&#45;&gt;Node20 -->
<g id="edge20_Node000002_Node000020" class="edge">
<title>Node2&#45;&gt;Node20</title>
<g id="a_edge20_Node000002_Node000020"><a xlink:title=" ">
<path fill="none" stroke="#63b8ff" d="M442.92,-274.98C468.22,-266.16 507.95,-252.31 536.36,-242.41"/>
<polygon fill="#63b8ff" stroke="#63b8ff" points="537.6,-245.68 545.89,-239.08 535.29,-239.07 537.6,-245.68"/>
</a>
</g>
</g>
<!-- Node4 -->
<g id="Node000004" class="node">
<title>Node4</title>
<g id="a_Node000004"><a xlink:title=" ">
<polygon fill="#e0e0e0" stroke="#999999" points="1281.5,-19 1221.5,-19 1221.5,0 1281.5,0 1281.5,-19"/>
<text text-anchor="middle" x="1251.5" y="-7" font-family="Helvetica,sans-Serif" font-size="10.00">iostream</text>
</a>
</g>
</g>
<!-- Node3&#45;&gt;Node4 -->
<g id="edge3_Node000003_Node000004" class="edge">
<title>Node3&#45;&gt;Node4</title>
<g id="a_edge3_Node000003_Node000004"><a xlink:title=" ">
<path fill="none" stroke="#63b8ff" d="M604.03,-62.91C697.16,-60.86 972.91,-52.35 1211.1,-18.98"/>
<polygon fill="#63b8ff" stroke="#63b8ff" points="1211.94,-22.4 1221.34,-17.53 1210.95,-15.47 1211.94,-22.4"/>
</a>
</g>
</g>
<!-- Node5 -->
<g id="Node000005" class="node">
<title>Node5</title>
<g id="a_Node000005"><a xlink:title=" ">
<polygon fill="#e0e0e0" stroke="#999999" points="1079.5,-19 1029.5,-19 1029.5,0 1079.5,0 1079.5,-19"/>
<text text-anchor="middle" x="1054.5" y="-7" font-family="Helvetica,sans-Serif" font-size="10.00">cstdint</text>
</a>
</g>
</g>
<!-- Node3&#45;&gt;Node5 -->
<g id="edge4_Node000003_Node000005" class="edge">
<title>Node3&#45;&gt;Node5</title>
<g id="a_edge4_Node000003_Node000005"><a xlink:title=" ">
<path fill="none" stroke="#63b8ff" d="M604.12,-61.91C676.93,-58 858.31,-46.32 1019.26,-18.97"/>
<polygon fill="#63b8ff" stroke="#63b8ff" points="1020.08,-22.38 1029.34,-17.23 1018.89,-15.48 1020.08,-22.38"/>
</a>
</g>
</g>
<!-- Node6 -->
<g id="Node000006" class="node">
<title>Node6</title>
<g id="a_Node000006"><a xlink:title=" ">
<polygon fill="#e0e0e0" stroke="#999999" points="1203.5,-19 1159.5,-19 1159.5,0 1203.5,0 1203.5,-19"/>
<text text-anchor="middle" x="1181.5" y="-7" font-family="Helvetica,sans-Serif" font-size="10.00">string</text>
</a>
</g>
</g>
<!-- Node3&#45;&gt;Node6 -->
<g id="edge5_Node000003_Node000006" class="edge">
<title>Node3&#45;&gt;Node6</title>
<g id="a_edge5_Node000003_Node000006"><a xlink:title=" ">
<path fill="none" stroke="#63b8ff" d="M604.1,-63.17C691.24,-61.82 936.81,-55.01 1149.18,-18.89"/>
<polygon fill="#63b8ff" stroke="#63b8ff" points="1150.01,-22.29 1159.26,-17.14 1148.81,-15.4 1150.01,-22.29"/>
</a>
</g>
</g>
<!-- Node7 -->
<g id="Node000007" class="node">
<title>Node7</title>
<g id="a_Node000007"><a xlink:title=" ">
<polygon fill="#e0e0e0" stroke="#999999" points="1141.5,-19 1097.5,-19 1097.5,0 1141.5,0 1141.5,-19"/>
<text text-anchor="middle" x="1119.5" y="-7" font-family="Helvetica,sans-Serif" font-size="10.00">bitset</text>
</a>
</g>
</g>
<!-- Node3&#45;&gt;Node7 -->
<g id="edge6_Node000003_Node000007" class="edge">
<title>Node3&#45;&gt;Node7</title>
<g id="a_edge6_Node000003_Node000007"><a xlink:title=" ">
<path fill="none" stroke="#63b8ff" d="M604.13,-62.75C684.72,-60.45 899.63,-51.67 1087.22,-18.9"/>
<polygon fill="#63b8ff" stroke="#63b8ff" points="1088.03,-22.31 1097.26,-17.12 1086.8,-15.42 1088.03,-22.31"/>
</a>
</g>
</g>
<!-- Node8 -->
<g id="Node000008" class="node">
<title>Node8</title>
<g id="a_Node000008"><a xlink:title=" ">
<polygon fill="#e0e0e0" stroke="#999999" points="158,-19 111,-19 111,0 158,0 158,-19"/>
<text text-anchor="middle" x="134.5" y="-7" font-family="Helvetica,sans-Serif" font-size="10.00">queue</text>
</a>
</g>
</g>
<!-- Node3&#45;&gt;Node8 -->
<g id="edge7_Node000003_Node000008" class="edge">
<title>Node3&#45;&gt;Node8</title>
<g id="a_edge7_Node000003_Node000008"><a xlink:title=" ">
<path fill="none" stroke="#63b8ff" d="M538.8,-61.48C471.32,-56.98 311.63,-44.58 168.07,-18.83"/>
<polygon fill="#63b8ff" stroke="#63b8ff" points="168.67,-15.38 158.2,-17.04 167.41,-22.27 168.67,-15.38"/>
</a>
</g>
</g>
<!-- Node9 -->
<g id="Node000009" class="node">
<title>Node9</title>
<g id="a_Node000009"><a xlink:title=" ">
<polygon fill="#e0e0e0" stroke="#999999" points="218.5,-19 176.5,-19 176.5,0 218.5,0 218.5,-19"/>
<text text-anchor="middle" x="197.5" y="-7" font-family="Helvetica,sans-Serif" font-size="10.00">array</text>
</a>
</g>
</g>
<!-- Node3&#45;&gt;Node9 -->
<g id="edge8_Node000003_Node000009" class="edge">
<title>Node3&#45;&gt;Node9</title>
<g id="a_edge8_Node000003_Node000009"><a xlink:title=" ">
<path fill="none" stroke="#63b8ff" d="M538.99,-60.9C479.31,-55.79 348.19,-42.97 228.75,-18.98"/>
<polygon fill="#63b8ff" stroke="#63b8ff" points="229.21,-15.5 218.71,-16.93 227.81,-22.36 229.21,-15.5"/>
</a>
</g>
</g>
<!-- Node10 -->
<g id="Node000010" class="node">
<title>Node10</title>
<g id="a_Node000010"><a xlink:title=" ">
<polygon fill="#e0e0e0" stroke="#999999" points="288.5,-19 236.5,-19 236.5,0 288.5,0 288.5,-19"/>
<text text-anchor="middle" x="262.5" y="-7" font-family="Helvetica,sans-Serif" font-size="10.00">cassert</text>
</a>
</g>
</g>
<!-- Node3&#45;&gt;Node10 -->
<g id="edge9_Node000003_Node000010" class="edge">
<title>Node3&#45;&gt;Node10</title>
<g id="a_edge9_Node000003_Node000010"><a xlink:title=" ">
<path fill="none" stroke="#63b8ff" d="M538.88,-59.03C489.19,-52.05 391.37,-37.6 298.91,-19.16"/>
<polygon fill="#63b8ff" stroke="#63b8ff" points="299.32,-15.67 288.82,-17.12 297.94,-22.53 299.32,-15.67"/>
</a>
</g>
</g>
<!-- Node3&#45;&gt;Node11 -->
<g id="edge10_Node000003_Node000011" class="edge">
<title>Node3&#45;&gt;Node11</title>
<g id="a_edge10_Node000003_Node000011"><a xlink:title=" ">
<path fill="none" stroke="#63b8ff" d="M538.95,-61.08C463.96,-55.37 273.04,-40.02 103.39,-19.17"/>
<polygon fill="#63b8ff" stroke="#63b8ff" points="103.64,-15.68 93.28,-17.92 102.78,-22.62 103.64,-15.68"/>
</a>
</g>
</g>
<!-- Node12 -->
<g id="Node000012" class="node">
<title>Node12</title>
<g id="a_Node000012"><a xlink:title=" ">
<polygon fill="#e0e0e0" stroke="#999999" points="364.5,-19 306.5,-19 306.5,0 364.5,0 364.5,-19"/>
<text text-anchor="middle" x="335.5" y="-7" font-family="Helvetica,sans-Serif" font-size="10.00">memory</text>
</a>
</g>
</g>
<!-- Node3&#45;&gt;Node12 -->
<g id="edge11_Node000003_Node000012" class="edge">
<title>Node3&#45;&gt;Node12</title>
<g id="a_edge11_Node000003_Node000012"><a xlink:title=" ">
<path fill="none" stroke="#63b8ff" d="M538.69,-56.13C495.71,-46.48 420.45,-29.58 374.57,-19.28"/>
<polygon fill="#63b8ff" stroke="#63b8ff" points="375.22,-15.83 364.7,-17.06 373.69,-22.66 375.22,-15.83"/>
</a>
</g>
</g>
<!-- Node13 -->
<g id="Node000013" class="node">
<title>Node13</title>
<g id="a_Node000013"><a xlink:title=" ">
<polygon fill="#e0e0e0" stroke="#999999" points="414.5,-19 382.5,-19 382.5,0 414.5,0 414.5,-19"/>
<text text-anchor="middle" x="398.5" y="-7" font-family="Helvetica,sans-Serif" font-size="10.00">set</text>
</a>
</g>
</g>
<!-- Node3&#45;&gt;Node13 -->
<g id="edge12_Node000003_Node000013" class="edge">
<title>Node3&#45;&gt;Node13</title>
<g id="a_edge12_Node000003_Node000013"><a xlink:title=" ">
<path fill="none" stroke="#63b8ff" d="M541.92,-54.94C513.91,-46.77 470.45,-33.89 424.2,-19.14"/>
<polygon fill="#63b8ff" stroke="#63b8ff" points="425.2,-15.79 414.61,-16.07 423.07,-22.46 425.2,-15.79"/>
</a>
</g>
</g>
<!-- Node14 -->
<g id="Node000014" class="node">
<title>Node14</title>
<g id="a_Node000014"><a xlink:title=" ">
<polygon fill="#e0e0e0" stroke="#999999" points="498,-19 433,-19 433,0 498,0 498,-19"/>
<text text-anchor="middle" x="465.5" y="-7" font-family="Helvetica,sans-Serif" font-size="10.00">typeindex</text>
</a>
</g>
</g>
<!-- Node3&#45;&gt;Node14 -->
<g id="edge13_Node000003_Node000014" class="edge">
<title>Node3&#45;&gt;Node14</title>
<g id="a_edge13_Node000003_Node000014"><a xlink:title=" ">
<path fill="none" stroke="#63b8ff" d="M554.47,-54.98C537.57,-46.54 511.44,-33.47 491.86,-23.68"/>
<polygon fill="#63b8ff" stroke="#63b8ff" points="493.35,-20.51 482.84,-19.17 490.22,-26.77 493.35,-20.51"/>
</a>
</g>
</g>
<!-- Node15 -->
<g id="Node000015" class="node">
<title>Node15</title>
<g id="a_Node000015"><a xlink:title=" ">
<polygon fill="#e0e0e0" stroke="#999999" points="626.5,-19 516.5,-19 516.5,0 626.5,0 626.5,-19"/>
<text text-anchor="middle" x="571.5" y="-7" font-family="Helvetica,sans-Serif" font-size="10.00">SFML/Graphics.hpp</text>
</a>
</g>
</g>
<!-- Node3&#45;&gt;Node15 -->
<g id="edge14_Node000003_Node000015" class="edge">
<title>Node3&#45;&gt;Node15</title>
<g id="a_edge14_Node000003_Node000015"><a xlink:title=" ">
<path fill="none" stroke="#63b8ff" d="M571.5,-54.75C571.5,-47.8 571.5,-37.85 571.5,-29.13"/>
<polygon fill="#63b8ff" stroke="#63b8ff" points="575,-29.09 571.5,-19.09 568,-29.09 575,-29.09"/>
</a>
</g>
</g>
<!-- Node16 -->
<g id="Node000016" class="node">
<title>Node16</title>
<g id="a_Node000016"><a xlink:title=" ">
<polygon fill="#e0e0e0" stroke="#999999" points="794,-19 645,-19 645,0 794,0 794,-19"/>
<text text-anchor="middle" x="719.5" y="-7" font-family="Helvetica,sans-Serif" font-size="10.00">SFML/Graphics/Texture.hpp</text>
</a>
</g>
</g>
<!-- Node3&#45;&gt;Node16 -->
<g id="edge15_Node000003_Node000016" class="edge">
<title>Node3&#45;&gt;Node16</title>
<g id="a_edge15_Node000003_Node000016"><a xlink:title=" ">
<path fill="none" stroke="#63b8ff" d="M595.28,-54.98C619.73,-46.23 658.03,-32.51 685.65,-22.62"/>
<polygon fill="#63b8ff" stroke="#63b8ff" points="687.05,-25.84 695.29,-19.17 684.69,-19.25 687.05,-25.84"/>
</a>
</g>
</g>
<!-- Node17 -->
<g id="Node000017" class="node">
<title>Node17</title>
<g id="a_Node000017"><a xlink:title=" ">
<polygon fill="#e0e0e0" stroke="#999999" points="907,-19 812,-19 812,0 907,0 907,-19"/>
<text text-anchor="middle" x="859.5" y="-7" font-family="Helvetica,sans-Serif" font-size="10.00">SFML/Audio.hpp</text>
</a>
</g>
</g>
<!-- Node3&#45;&gt;Node17 -->
<g id="edge16_Node000003_Node000017" class="edge">
<title>Node3&#45;&gt;Node17</title>
<g id="a_edge16_Node000003_Node000017"><a xlink:title=" ">
<path fill="none" stroke="#63b8ff" d="M604.26,-57.47C652.69,-48.56 744.04,-31.75 803.3,-20.84"/>
<polygon fill="#63b8ff" stroke="#63b8ff" points="804.05,-24.26 813.25,-19.01 802.78,-17.38 804.05,-24.26"/>
</a>
</g>
</g>
<!-- Node18 -->
<g id="Node000018" class="node">
<title>Node18</title>
<g id="a_Node000018"><a xlink:title=" ">
<polygon fill="#e0e0e0" stroke="#999999" points="1011.5,-19 925.5,-19 925.5,0 1011.5,0 1011.5,-19"/>
<text text-anchor="middle" x="968.5" y="-7" font-family="Helvetica,sans-Serif" font-size="10.00">unordered_set</text>
</a>
</g>
</g>
<!-- Node3&#45;&gt;Node18 -->
<g id="edge17_Node000003_Node000018" class="edge">
<title>Node3&#45;&gt;Node18</title>
<g id="a_edge17_Node000003_Node000018"><a xlink:title=" ">
<path fill="none" stroke="#63b8ff" d="M604.37,-59.63C664.1,-52.53 794.67,-36.63 915.24,-19.14"/>
<polygon fill="#63b8ff" stroke="#63b8ff" points="916,-22.57 925.39,-17.66 914.99,-15.64 916,-22.57"/>
</a>
</g>
</g>
<!-- Node19&#45;&gt;Node3 -->
<g id="edge19_Node000019_Node000003" class="edge">
<title>Node19&#45;&gt;Node3</title>
<g id="a_edge19_Node000019_Node000003"><a xlink:title=" ">
<path fill="none" stroke="#63b8ff" d="M533.93,-109.75C540.35,-102.18 549.81,-91.05 557.62,-81.84"/>
<polygon fill="#63b8ff" stroke="#63b8ff" points="560.4,-83.98 564.21,-74.09 555.07,-79.45 560.4,-83.98"/>
</a>
</g>
</g>
<!-- Node20&#45;&gt;Node3 -->
<g id="edge21_Node000020_Node000003" class="edge">
<title>Node20&#45;&gt;Node3</title>
<g id="a_edge21_Node000020_Node000003"><a xlink:title=" ">
<path fill="none" stroke="#63b8ff" d="M577.39,-219.93C583.77,-211.4 592.81,-197.65 596.5,-184 606.07,-148.64 591.04,-106.53 580.45,-83.23"/>
<polygon fill="#63b8ff" stroke="#63b8ff" points="583.61,-81.72 576.14,-74.2 577.3,-84.74 583.61,-81.72"/>
</a>
</g>
</g>
<!-- Node21 -->
<g id="Node000021" class="node">
<title>Node21</title>
<g id="a_Node000021"><a xlink:href="ComponentManager_8hpp.html" target="_top" xlink:title=" ">
<polygon fill="white" stroke="#666666" points="779.5,-184 643.5,-184 643.5,-165 779.5,-165 779.5,-184"/>
<text text-anchor="middle" x="711.5" y="-172" font-family="Helvetica,sans-Serif" font-size="10.00">ComponentManager.hpp</text>
</a>
</g>
</g>
<!-- Node20&#45;&gt;Node21 -->
<g id="edge22_Node000020_Node000021" class="edge">
<title>Node20&#45;&gt;Node21</title>
<g id="a_edge22_Node000020_Node000021"><a xlink:title=" ">
<path fill="none" stroke="#63b8ff" d="M593.15,-219.98C616.35,-211.27 652.62,-197.63 678.9,-187.75"/>
<polygon fill="#63b8ff" stroke="#63b8ff" points="680.3,-190.97 688.43,-184.17 677.84,-184.41 680.3,-190.97"/>
</a>
</g>
</g>
<!-- Node25 -->
<g id="Node000025" class="node">
<title>Node25</title>
<g id="a_Node000025"><a xlink:href="SystemeManager_8hpp.html" target="_top" xlink:title=" ">
<polygon fill="white" stroke="#666666" points="587.5,-184 465.5,-184 465.5,-165 587.5,-165 587.5,-184"/>
<text text-anchor="middle" x="526.5" y="-172" font-family="Helvetica,sans-Serif" font-size="10.00">SystemeManager.hpp</text>
</a>
</g>
</g>
<!-- Node20&#45;&gt;Node25 -->
<g id="edge31_Node000020_Node000025" class="edge">
<title>Node20&#45;&gt;Node25</title>
<g id="a_edge31_Node000020_Node000025"><a xlink:title=" ">
<path fill="none" stroke="#63b8ff" d="M563.23,-219.75C556.96,-212.18 547.71,-201.05 540.07,-191.84"/>
<polygon fill="#63b8ff" stroke="#63b8ff" points="542.71,-189.55 533.63,-184.09 537.33,-194.02 542.71,-189.55"/>
</a>
</g>
</g>
<!-- Node22 -->
<g id="Node000022" class="node">
<title>Node22</title>
<g id="a_Node000022"><a xlink:href="Component_8hpp.html" target="_top" xlink:title=" ">
<polygon fill="white" stroke="#666666" points="758.5,-129 664.5,-129 664.5,-110 758.5,-110 758.5,-129"/>
<text text-anchor="middle" x="711.5" y="-117" font-family="Helvetica,sans-Serif" font-size="10.00">Component.hpp</text>
</a>
</g>
</g>
<!-- Node21&#45;&gt;Node22 -->
<g id="edge23_Node000021_Node000022" class="edge">
<title>Node21&#45;&gt;Node22</title>
<g id="a_edge23_Node000021_Node000022"><a xlink:title=" ">
<path fill="none" stroke="#63b8ff" d="M711.5,-164.75C711.5,-157.8 711.5,-147.85 711.5,-139.13"/>
<polygon fill="#63b8ff" stroke="#63b8ff" points="715,-139.09 711.5,-129.09 708,-139.09 715,-139.09"/>
</a>
</g>
</g>
<!-- Node22&#45;&gt;Node3 -->
<g id="edge24_Node000022_Node000003" class="edge">
<title>Node22&#45;&gt;Node3</title>
<g id="a_edge24_Node000022_Node000003"><a xlink:title=" ">
<path fill="none" stroke="#63b8ff" d="M689.01,-109.98C665.98,-101.27 629.96,-87.63 603.87,-77.75"/>
<polygon fill="#63b8ff" stroke="#63b8ff" points="604.99,-74.44 594.4,-74.17 602.52,-80.98 604.99,-74.44"/>
</a>
</g>
</g>
<!-- Node22&#45;&gt;Node6 -->
<g id="edge25_Node000022_Node000006" class="edge">
<title>Node22&#45;&gt;Node6</title>
<g id="a_edge25_Node000022_Node000006"><a xlink:title=" ">
<path fill="none" stroke="#63b8ff" d="M751.89,-109.98C827.76,-93.83 996.9,-57.19 1149.18,-19.25"/>
<polygon fill="#63b8ff" stroke="#63b8ff" points="1150.33,-22.57 1159.18,-16.75 1148.63,-15.78 1150.33,-22.57"/>
</a>
</g>
</g>
<!-- Node22&#45;&gt;Node11 -->
<g id="edge30_Node000022_Node000011" class="edge">
<title>Node22&#45;&gt;Node11</title>
<g id="a_edge30_Node000022_Node000011"><a xlink:title=" ">
<path fill="none" stroke="#63b8ff" d="M664.47,-110.86C545.37,-91.52 232.18,-40.66 103.22,-19.71"/>
<polygon fill="#63b8ff" stroke="#63b8ff" points="103.59,-16.23 93.16,-18.08 102.47,-23.14 103.59,-16.23"/>
</a>
</g>
</g>
<!-- Node23 -->
<g id="Node000023" class="node">
<title>Node23</title>
<g id="a_Node000023"><a xlink:href="LuaScript_8hpp.html" target="_top" xlink:title=" ">
<polygon fill="white" stroke="#666666" points="1258,-74 1175,-74 1175,-55 1258,-55 1258,-74"/>
<text text-anchor="middle" x="1216.5" y="-62" font-family="Helvetica,sans-Serif" font-size="10.00">LuaScript.hpp</text>
</a>
</g>
</g>
<!-- Node22&#45;&gt;Node23 -->
<g id="edge26_Node000022_Node000023" class="edge">
<title>Node22&#45;&gt;Node23</title>
<g id="a_edge26_Node000022_Node000023"><a xlink:title=" ">
<path fill="none" stroke="#63b8ff" d="M758.56,-113.56C853.27,-103.62 1066.25,-81.27 1164.74,-70.93"/>
<polygon fill="#63b8ff" stroke="#63b8ff" points="1165.18,-74.41 1174.76,-69.88 1164.45,-67.44 1165.18,-74.41"/>
</a>
</g>
</g>
<!-- Node23&#45;&gt;Node4 -->
<g id="edge29_Node000023_Node000004" class="edge">
<title>Node23&#45;&gt;Node4</title>
<g id="a_edge29_Node000023_Node000004"><a xlink:title=" ">
<path fill="none" stroke="#63b8ff" d="M1222.28,-54.75C1227.12,-47.42 1234.18,-36.73 1240.14,-27.7"/>
<polygon fill="#63b8ff" stroke="#63b8ff" points="1243.24,-29.36 1245.83,-19.09 1237.4,-25.5 1243.24,-29.36"/>
</a>
</g>
</g>
<!-- Node23&#45;&gt;Node6 -->
<g id="edge28_Node000023_Node000006" class="edge">
<title>Node23&#45;&gt;Node6</title>
<g id="a_edge28_Node000023_Node000006"><a xlink:title=" ">
<path fill="none" stroke="#63b8ff" d="M1210.72,-54.75C1205.88,-47.42 1198.82,-36.73 1192.86,-27.7"/>
<polygon fill="#63b8ff" stroke="#63b8ff" points="1195.6,-25.5 1187.17,-19.09 1189.76,-29.36 1195.6,-25.5"/>
</a>
</g>
</g>
<!-- Node24 -->
<g id="Node000024" class="node">
<title>Node24</title>
<g id="a_Node000024"><a xlink:title=" ">
<polygon fill="#e0e0e0" stroke="#999999" points="1369,-19 1300,-19 1300,0 1369,0 1369,-19"/>
<text text-anchor="middle" x="1334.5" y="-7" font-family="Helvetica,sans-Serif" font-size="10.00">sol/sol.hpp</text>
</a>
</g>
</g>
<!-- Node23&#45;&gt;Node24 -->
<g id="edge27_Node000023_Node000024" class="edge">
<title>Node23&#45;&gt;Node24</title>
<g id="a_edge27_Node000023_Node000024"><a xlink:title=" ">
<path fill="none" stroke="#63b8ff" d="M1235.46,-54.98C1254.53,-46.42 1284.16,-33.11 1306.05,-23.28"/>
<polygon fill="#63b8ff" stroke="#63b8ff" points="1307.51,-26.46 1315.2,-19.17 1304.64,-20.07 1307.51,-26.46"/>
</a>
</g>
</g>
<!-- Node25&#45;&gt;Node19 -->
<g id="edge32_Node000025_Node000019" class="edge">
<title>Node25&#45;&gt;Node19</title>
<g id="a_edge32_Node000025_Node000019"><a xlink:title=" ">
<path fill="none" stroke="#63b8ff" d="M526.5,-164.75C526.5,-157.8 526.5,-147.85 526.5,-139.13"/>
<polygon fill="#63b8ff" stroke="#63b8ff" points="530,-139.09 526.5,-129.09 523,-139.09 530,-139.09"/>
</a>
</g>
</g>
</g>
</svg>
