<?xml version="1.0" encoding="UTF-8" standalone="no"?>
<!DOCTYPE svg PUBLIC "-//W3C//DTD SVG 1.1//EN"
 "http://www.w3.org/Graphics/SVG/1.1/DTD/svg11.dtd">
<!-- Generated by graphviz version 2.43.0 (0)
 -->
<!-- Title: GameEngine/Include/BossSystem.hpp Pages: 1 -->
<!--zoomable 225 -->

<svg id="main" version="1.1" xmlns="http://www.w3.org/2000/svg" xmlns:xlink="http://www.w3.org/1999/xlink" xml:space="preserve" onload="init(evt)">
<style type="text/css"><![CDATA[
.node, .edge {opacity: 0.7;}
.node.selected, .edge.selected {opacity: 1;}
.edge:hover path { stroke: red; }
.edge:hover polygon { stroke: red; fill: red; }
]]></style>

<defs>
  <circle id="rim" cx="0" cy="0" r="7"/>
  <circle id="rim2" cx="0" cy="0" r="3.5"/>
  <g id="zoomPlus">
    <use xlink:href="#rim" fill="#404040"><set attributeName="fill" to="#808080" begin="zoomplus.mouseover" end="zoomplus.mouseout"/></use>
    <path d="M-4,0h8M0,-4v8" fill="none" stroke="white" stroke-width="1.5" pointer-events="none"/>
  </g>
  <g id="zoomMin">
    <use xlink:href="#rim" fill="#404040"><set attributeName="fill" to="#808080" begin="zoomminus.mouseover" end="zoomminus.mouseout"/></use>
    <path d="M-4,0h8" fill="none" stroke="white" stroke-width="1.5" pointer-events="none"/>
  </g>
  <g id="arrowUp" transform="translate(30 24)">
    <use xlink:href="#rim"/>
    <path pointer-events="none" fill="none" stroke="white" stroke-width="1.5" d="M0,-3.0v7 M-2.5,-0.5L0,-3.0L2.5,-0.5"/>
  </g>
  <g id="arrowRight" transform="rotate(90) translate(36 -43)">
    <use xlink:href="#rim"/>
    <path pointer-events="none" fill="none" stroke="white" stroke-width="1.5" d="M0,-3.0v7 M-2.5,-0.5L0,-3.0L2.5,-0.5"/>
  </g>
  <g id="arrowDown" transform="rotate(180) translate(-30 -48)">
    <use xlink:href="#rim"/>
    <path pointer-events="none" fill="none" stroke="white" stroke-width="1.5" d="M0,-3.0v7 M-2.5,-0.5L0,-3.0L2.5,-0.5"/>
  </g>
  <g id="arrowLeft" transform="rotate(270) translate(-36 17)">
    <use xlink:href="#rim"/>
    <path pointer-events="none" fill="none" stroke="white" stroke-width="1.5" d="M0,-3.0v7 M-2.5,-0.5L0,-3.0L2.5,-0.5"/>
  </g>
  <g id="resetDef">
    <use xlink:href="#rim2" fill="#404040"><set attributeName="fill" to="#808080" begin="reset.mouseover" end="reset.mouseout"/></use>
  </g>
</defs>
<script type="application/ecmascript">
var viewWidth = 2200;
var viewHeight = 225;
var sectionId = 'dynsection-1';
</script>
<script type="application/ecmascript" xlink:href="svg.min.js"/>
<svg id="graph" class="graph">
<g id="viewport">
<title>GameEngine/Include/BossSystem.hpp</title>
<!-- Node1 -->
<g id="Node000001" class="node">
<title>Node1</title>
<g id="a_Node000001"><a xlink:title=" ">
<polygon fill="#999999" stroke="#666666" points="1347,-217 1230,-217 1230,-187 1347,-187 1347,-217"/>
<text text-anchor="start" x="1238" y="-205" font-family="Helvetica,sans-Serif" font-size="10.00">GameEngine/Include</text>
<text text-anchor="middle" x="1288.5" y="-194" font-family="Helvetica,sans-Serif" font-size="10.00">/BossSystem.hpp</text>
</a>
</g>
</g>
<!-- Node2 -->
<g id="Node000002" class="node">
<title>Node2</title>
<g id="a_Node000002"><a xlink:href="SoloPlay_8hpp.html" target="_top" xlink:title=" ">
<polygon fill="white" stroke="#666666" points="1155.5,-151 1007.5,-151 1007.5,-132 1155.5,-132 1155.5,-151"/>
<text text-anchor="middle" x="1081.5" y="-139" font-family="Helvetica,sans-Serif" font-size="10.00">Client/include/SoloPlay.hpp</text>
</a>
</g>
</g>
<!-- Node1&#45;&gt;Node2 -->
<g id="edge1_Node000001_Node000002" class="edge">
<title>Node1&#45;&gt;Node2</title>
<g id="a_edge1_Node000001_Node000002"><a xlink:title=" ">
<path fill="none" stroke="#63b8ff" d="M1228.9,-184.16C1190.58,-173.33 1142.4,-159.71 1111.77,-151.05"/>
<polygon fill="#63b8ff" stroke="#63b8ff" points="1228.34,-187.64 1238.92,-186.99 1230.25,-180.9 1228.34,-187.64"/>
</a>
</g>
</g>
<!-- Node15 -->
<g id="Node000015" class="node">
<title>Node15</title>
<g id="a_Node000015"><a xlink:href="BossSystem_8cpp.html" target="_top" xlink:title=" ">
<polygon fill="white" stroke="#666666" points="1378,-151 1199,-151 1199,-132 1378,-132 1378,-151"/>
<text text-anchor="middle" x="1288.5" y="-139" font-family="Helvetica,sans-Serif" font-size="10.00">GameEngine/src/BossSystem.cpp</text>
</a>
</g>
</g>
<!-- Node1&#45;&gt;Node15 -->
<g id="edge14_Node000001_Node000015" class="edge">
<title>Node1&#45;&gt;Node15</title>
<g id="a_edge14_Node000001_Node000015"><a xlink:title=" ">
<path fill="none" stroke="#63b8ff" d="M1288.5,-176.75C1288.5,-167.72 1288.5,-158.03 1288.5,-151.27"/>
<polygon fill="#63b8ff" stroke="#63b8ff" points="1285,-176.84 1288.5,-186.84 1292,-176.84 1285,-176.84"/>
</a>
</g>
</g>
<!-- Node16 -->
<g id="Node000016" class="node">
<title>Node16</title>
<g id="a_Node000016"><a xlink:href="network_8hpp.html" target="_top" xlink:title=" ">
<polygon fill="white" stroke="#666666" points="1771.5,-151 1621.5,-151 1621.5,-132 1771.5,-132 1771.5,-151"/>
<text text-anchor="middle" x="1696.5" y="-139" font-family="Helvetica,sans-Serif" font-size="10.00">Server/include/network.hpp</text>
</a>
</g>
</g>
<!-- Node1&#45;&gt;Node16 -->
<g id="edge15_Node000001_Node000016" class="edge">
<title>Node1&#45;&gt;Node16</title>
<g id="a_edge15_Node000001_Node000016"><a xlink:title=" ">
<path fill="none" stroke="#63b8ff" d="M1357.66,-191.08C1436.11,-179.84 1562.74,-161.68 1636.96,-151.04"/>
<polygon fill="#63b8ff" stroke="#63b8ff" points="1356.79,-187.67 1347.39,-192.56 1357.79,-194.6 1356.79,-187.67"/>
</a>
</g>
</g>
<!-- Node3 -->
<g id="Node000003" class="node">
<title>Node3</title>
<g id="a_Node000003"><a xlink:href="client_8hpp.html" target="_top" xlink:title=" ">
<polygon fill="white" stroke="#666666" points="794.5,-90.5 660.5,-90.5 660.5,-71.5 794.5,-71.5 794.5,-90.5"/>
<text text-anchor="middle" x="727.5" y="-78.5" font-family="Helvetica,sans-Serif" font-size="10.00">Client/include/client.hpp</text>
</a>
</g>
</g>
<!-- Node2&#45;&gt;Node3 -->
<g id="edge2_Node000002_Node000003" class="edge">
<title>Node2&#45;&gt;Node3</title>
<g id="a_edge2_Node000002_Node000003"><a xlink:title=" ">
<path fill="none" stroke="#63b8ff" d="M1019.85,-130.31C951.63,-119.04 842.9,-101.07 779.04,-90.52"/>
<polygon fill="#63b8ff" stroke="#63b8ff" points="1019.59,-133.82 1030.03,-131.99 1020.73,-126.91 1019.59,-133.82"/>
</a>
</g>
</g>
<!-- Node13 -->
<g id="Node000013" class="node">
<title>Node13</title>
<g id="a_Node000013"><a xlink:href="SoloPlay_8cpp.html" target="_top" xlink:title=" ">
<polygon fill="white" stroke="#666666" points="1075.5,-90.5 949.5,-90.5 949.5,-71.5 1075.5,-71.5 1075.5,-90.5"/>
<text text-anchor="middle" x="1012.5" y="-78.5" font-family="Helvetica,sans-Serif" font-size="10.00">Client/src/SoloPlay.cpp</text>
</a>
</g>
</g>
<!-- Node2&#45;&gt;Node13 -->
<g id="edge12_Node000002_Node000013" class="edge">
<title>Node2&#45;&gt;Node13</title>
<g id="a_edge12_Node000002_Node000013"><a xlink:title=" ">
<path fill="none" stroke="#63b8ff" d="M1063.48,-125.22C1050.5,-114.21 1033.44,-99.75 1022.72,-90.67"/>
<polygon fill="#63b8ff" stroke="#63b8ff" points="1061.43,-128.07 1071.32,-131.87 1065.95,-122.73 1061.43,-128.07"/>
</a>
</g>
</g>
<!-- Node14 -->
<g id="Node000014" class="node">
<title>Node14</title>
<g id="a_Node000014"><a xlink:href="solo__play__render_8cpp.html" target="_top" xlink:title=" ">
<polygon fill="white" stroke="#666666" points="1205.5,-96 1093.5,-96 1093.5,-66 1205.5,-66 1205.5,-96"/>
<text text-anchor="start" x="1101.5" y="-84" font-family="Helvetica,sans-Serif" font-size="10.00">Client/src/solo_play</text>
<text text-anchor="middle" x="1149.5" y="-73" font-family="Helvetica,sans-Serif" font-size="10.00">_render.cpp</text>
</a>
</g>
</g>
<!-- Node2&#45;&gt;Node14 -->
<g id="edge13_Node000002_Node000014" class="edge">
<title>Node2&#45;&gt;Node14</title>
<g id="a_edge13_Node000002_Node000014"><a xlink:title=" ">
<path fill="none" stroke="#63b8ff" d="M1099.24,-125.23C1109.71,-116.23 1122.87,-104.91 1133.09,-96.11"/>
<polygon fill="#63b8ff" stroke="#63b8ff" points="1096.83,-122.69 1091.53,-131.87 1101.4,-128 1096.83,-122.69"/>
</a>
</g>
</g>
<!-- Node4 -->
<g id="Node000004" class="node">
<title>Node4</title>
<g id="a_Node000004"><a xlink:href="client_8cpp.html" target="_top" xlink:title=" ">
<polygon fill="white" stroke="#666666" points="113,-24.5 0,-24.5 0,-5.5 113,-5.5 113,-24.5"/>
<text text-anchor="middle" x="56.5" y="-12.5" font-family="Helvetica,sans-Serif" font-size="10.00">Client/src/client.cpp</text>
</a>
</g>
</g>
<!-- Node3&#45;&gt;Node4 -->
<g id="edge3_Node000003_Node000004" class="edge">
<title>Node3&#45;&gt;Node4</title>
<g id="a_edge3_Node000003_Node000004"><a xlink:title=" ">
<path fill="none" stroke="#63b8ff" d="M650.21,-76.84C534.67,-71.39 310.29,-58 121.5,-30 111.91,-28.58 101.61,-26.58 92.11,-24.54"/>
<polygon fill="#63b8ff" stroke="#63b8ff" points="650.22,-80.34 660.37,-77.31 650.54,-73.35 650.22,-80.34"/>
</a>
</g>
</g>
<!-- Node5 -->
<g id="Node000005" class="node">
<title>Node5</title>
<g id="a_Node000005"><a xlink:href="client2_8cpp.html" target="_top" xlink:title=" ">
<polygon fill="white" stroke="#666666" points="250,-24.5 131,-24.5 131,-5.5 250,-5.5 250,-24.5"/>
<text text-anchor="middle" x="190.5" y="-12.5" font-family="Helvetica,sans-Serif" font-size="10.00">Client/src/client2.cpp</text>
</a>
</g>
</g>
<!-- Node3&#45;&gt;Node5 -->
<g id="edge4_Node000003_Node000005" class="edge">
<title>Node3&#45;&gt;Node5</title>
<g id="a_edge4_Node000003_Node000005"><a xlink:title=" ">
<path fill="none" stroke="#63b8ff" d="M650.03,-73.96C556.98,-66.19 396.3,-51.14 259.5,-30 249.72,-28.49 239.21,-26.53 229.43,-24.56"/>
<polygon fill="#63b8ff" stroke="#63b8ff" points="649.95,-77.47 660.21,-74.81 650.53,-70.49 649.95,-77.47"/>
</a>
</g>
</g>
<!-- Node6 -->
<g id="Node000006" class="node">
<title>Node6</title>
<g id="a_Node000006"><a xlink:href="client__init_8cpp.html" target="_top" xlink:title=" ">
<polygon fill="white" stroke="#666666" points="402.5,-24.5 268.5,-24.5 268.5,-5.5 402.5,-5.5 402.5,-24.5"/>
<text text-anchor="middle" x="335.5" y="-12.5" font-family="Helvetica,sans-Serif" font-size="10.00">Client/src/client_init.cpp</text>
</a>
</g>
</g>
<!-- Node3&#45;&gt;Node6 -->
<g id="edge5_Node000003_Node000006" class="edge">
<title>Node3&#45;&gt;Node6</title>
<g id="a_edge5_Node000003_Node000006"><a xlink:title=" ">
<path fill="none" stroke="#63b8ff" d="M660.96,-69.97C596.95,-60.21 497.51,-44.72 411.5,-30 401.58,-28.3 390.95,-26.4 380.88,-24.55"/>
<polygon fill="#63b8ff" stroke="#63b8ff" points="660.5,-73.44 670.92,-71.49 661.56,-66.52 660.5,-73.44"/>
</a>
</g>
</g>
<!-- Node7 -->
<g id="Node000007" class="node">
<title>Node7</title>
<g id="a_Node000007"><a xlink:href="client__network__part__one_8cpp.html" target="_top" xlink:title=" ">
<polygon fill="white" stroke="#666666" points="558,-30 421,-30 421,0 558,0 558,-30"/>
<text text-anchor="start" x="429" y="-18" font-family="Helvetica,sans-Serif" font-size="10.00">Client/src/client_network</text>
<text text-anchor="middle" x="489.5" y="-7" font-family="Helvetica,sans-Serif" font-size="10.00">_part_one.cpp</text>
</a>
</g>
</g>
<!-- Node3&#45;&gt;Node7 -->
<g id="edge6_Node000003_Node000007" class="edge">
<title>Node3&#45;&gt;Node7</title>
<g id="a_edge6_Node000003_Node000007"><a xlink:title=" ">
<path fill="none" stroke="#63b8ff" d="M685.7,-68.76C645.69,-58 585.22,-41.74 541.99,-30.12"/>
<polygon fill="#63b8ff" stroke="#63b8ff" points="684.84,-72.15 695.4,-71.37 686.65,-65.39 684.84,-72.15"/>
</a>
</g>
</g>
<!-- Node8 -->
<g id="Node000008" class="node">
<title>Node8</title>
<g id="a_Node000008"><a xlink:href="client__network__part__two_8cpp.html" target="_top" xlink:title=" ">
<polygon fill="white" stroke="#666666" points="713,-30 576,-30 576,0 713,0 713,-30"/>
<text text-anchor="start" x="584" y="-18" font-family="Helvetica,sans-Serif" font-size="10.00">Client/src/client_network</text>
<text text-anchor="middle" x="644.5" y="-7" font-family="Helvetica,sans-Serif" font-size="10.00">_part_two.cpp</text>
</a>
</g>
</g>
<!-- Node3&#45;&gt;Node8 -->
<g id="edge7_Node000003_Node000008" class="edge">
<title>Node3&#45;&gt;Node8</title>
<g id="a_edge7_Node000003_Node000008"><a xlink:title=" ">
<path fill="none" stroke="#63b8ff" d="M708.07,-65.02C694.4,-54.48 676.22,-40.46 662.81,-30.12"/>
<polygon fill="#63b8ff" stroke="#63b8ff" points="706.25,-68.03 716.31,-71.37 710.52,-62.49 706.25,-68.03"/>
</a>
</g>
</g>
<!-- Node9 -->
<g id="Node000009" class="node">
<title>Node9</title>
<g id="a_Node000009"><a xlink:href="client__protocol_8cpp.html" target="_top" xlink:title=" ">
<polygon fill="white" stroke="#666666" points="889.5,-24.5 731.5,-24.5 731.5,-5.5 889.5,-5.5 889.5,-24.5"/>
<text text-anchor="middle" x="810.5" y="-12.5" font-family="Helvetica,sans-Serif" font-size="10.00">Client/src/client_protocol.cpp</text>
</a>
</g>
</g>
<!-- Node3&#45;&gt;Node9 -->
<g id="edge8_Node000003_Node000009" class="edge">
<title>Node3&#45;&gt;Node9</title>
<g id="a_edge8_Node000003_Node000009"><a xlink:title=" ">
<path fill="none" stroke="#63b8ff" d="M746.97,-64.99C763.22,-52.46 785.81,-35.04 799.22,-24.7"/>
<polygon fill="#63b8ff" stroke="#63b8ff" points="744.48,-62.49 738.69,-71.37 748.75,-68.03 744.48,-62.49"/>
</a>
</g>
</g>
<!-- Node10 -->
<g id="Node000010" class="node">
<title>Node10</title>
<g id="a_Node000010"><a xlink:href="client__replay_8cpp.html" target="_top" xlink:title=" ">
<polygon fill="white" stroke="#666666" points="1055,-24.5 908,-24.5 908,-5.5 1055,-5.5 1055,-24.5"/>
<text text-anchor="middle" x="981.5" y="-12.5" font-family="Helvetica,sans-Serif" font-size="10.00">Client/src/client_replay.cpp</text>
</a>
</g>
</g>
<!-- Node3&#45;&gt;Node10 -->
<g id="edge9_Node000003_Node000010" class="edge">
<title>Node3&#45;&gt;Node10</title>
<g id="a_edge9_Node000003_Node000010"><a xlink:title=" ">
<path fill="none" stroke="#63b8ff" d="M771.38,-68.94C821.46,-56.32 902.28,-35.96 947.71,-24.51"/>
<polygon fill="#63b8ff" stroke="#63b8ff" points="770.33,-65.6 761.49,-71.44 772.04,-72.39 770.33,-65.6"/>
</a>
</g>
</g>
<!-- Node11 -->
<g id="Node000011" class="node">
<title>Node11</title>
<g id="a_Node000011"><a xlink:href="client__update_8cpp.html" target="_top" xlink:title=" ">
<polygon fill="white" stroke="#666666" points="1225.5,-24.5 1073.5,-24.5 1073.5,-5.5 1225.5,-5.5 1225.5,-24.5"/>
<text text-anchor="middle" x="1149.5" y="-12.5" font-family="Helvetica,sans-Serif" font-size="10.00">Client/src/client_update.cpp</text>
</a>
</g>
</g>
<!-- Node3&#45;&gt;Node11 -->
<g id="edge10_Node000003_Node000011" class="edge">
<title>Node3&#45;&gt;Node11</title>
<g id="a_edge10_Node000003_Node000011"><a xlink:title=" ">
<path fill="none" stroke="#63b8ff" d="M796.56,-70C864.52,-60.1 971.21,-44.38 1063.5,-30 1074.56,-28.28 1086.41,-26.38 1097.67,-24.55"/>
<polygon fill="#63b8ff" stroke="#63b8ff" points="795.8,-66.58 786.41,-71.48 796.81,-73.5 795.8,-66.58"/>
</a>
</g>
</g>
<!-- Node12 -->
<g id="Node000012" class="node">
<title>Node12</title>
<g id="a_Node000012"><a xlink:href="main_8cpp.html" target="_top" xlink:title=" ">
<polygon fill="white" stroke="#666666" points="1353.5,-24.5 1243.5,-24.5 1243.5,-5.5 1353.5,-5.5 1353.5,-24.5"/>
<text text-anchor="middle" x="1298.5" y="-12.5" font-family="Helvetica,sans-Serif" font-size="10.00">Client/src/main.cpp</text>
</a>
</g>
</g>
<!-- Node3&#45;&gt;Node12 -->
<g id="edge11_Node000003_Node000012" class="edge">
<title>Node3&#45;&gt;Node12</title>
<g id="a_edge11_Node000003_Node000012"><a xlink:title=" ">
<path fill="none" stroke="#63b8ff" d="M804.65,-75.21C904.34,-68.38 1083.1,-53.94 1234.5,-30 1243.82,-28.53 1253.83,-26.54 1263.1,-24.52"/>
<polygon fill="#63b8ff" stroke="#63b8ff" points="804.4,-71.72 794.66,-75.89 804.87,-78.71 804.4,-71.72"/>
</a>
</g>
</g>
<!-- Node17 -->
<g id="Node000017" class="node">
<title>Node17</title>
<g id="a_Node000017"><a xlink:href="Core_8hpp.html" target="_top" xlink:title=" ">
<polygon fill="white" stroke="#666666" points="1415.5,-90.5 1291.5,-90.5 1291.5,-71.5 1415.5,-71.5 1415.5,-90.5"/>
<text text-anchor="middle" x="1353.5" y="-78.5" font-family="Helvetica,sans-Serif" font-size="10.00">Core/include/Core.hpp</text>
</a>
</g>
</g>
<!-- Node16&#45;&gt;Node17 -->
<g id="edge16_Node000016_Node000017" class="edge">
<title>Node16&#45;&gt;Node17</title>
<g id="a_edge16_Node000016_Node000017"><a xlink:title=" ">
<path fill="none" stroke="#63b8ff" d="M1631.2,-130.43C1576.04,-121.77 1494.99,-108.71 1424.5,-96 1415.1,-94.31 1405.03,-92.38 1395.51,-90.52"/>
<polygon fill="#63b8ff" stroke="#63b8ff" points="1630.77,-133.9 1641.19,-131.99 1631.85,-126.99 1630.77,-133.9"/>
</a>
</g>
</g>
<!-- Node19 -->
<g id="Node000019" class="node">
<title>Node19</title>
<g id="a_Node000019"><a xlink:href="network_8cpp.html" target="_top" xlink:title=" ">
<polygon fill="white" stroke="#666666" points="1561.5,-90.5 1433.5,-90.5 1433.5,-71.5 1561.5,-71.5 1561.5,-90.5"/>
<text text-anchor="middle" x="1497.5" y="-78.5" font-family="Helvetica,sans-Serif" font-size="10.00">Server/src/network.cpp</text>
</a>
</g>
</g>
<!-- Node16&#45;&gt;Node19 -->
<g id="edge18_Node000016_Node000019" class="edge">
<title>Node16&#45;&gt;Node19</title>
<g id="a_edge18_Node000016_Node000019"><a xlink:title=" ">
<path fill="none" stroke="#63b8ff" d="M1657.75,-129.11C1619.26,-117.79 1561.12,-100.7 1526.47,-90.52"/>
<polygon fill="#63b8ff" stroke="#63b8ff" points="1656.98,-132.53 1667.56,-131.99 1658.96,-125.82 1656.98,-132.53"/>
</a>
</g>
</g>
<!-- Node20 -->
<g id="Node000020" class="node">
<title>Node20</title>
<g id="a_Node000020"><a xlink:href="network__client__info_8cpp.html" target="_top" xlink:title=" ">
<polygon fill="white" stroke="#666666" points="1687.5,-96 1579.5,-96 1579.5,-66 1687.5,-66 1687.5,-96"/>
<text text-anchor="start" x="1587.5" y="-84" font-family="Helvetica,sans-Serif" font-size="10.00">Server/src/network</text>
<text text-anchor="middle" x="1633.5" y="-73" font-family="Helvetica,sans-Serif" font-size="10.00">_client_info.cpp</text>
</a>
</g>
</g>
<!-- Node16&#45;&gt;Node20 -->
<g id="edge19_Node000016_Node000020" class="edge">
<title>Node16&#45;&gt;Node20</title>
<g id="a_edge19_Node000016_Node000020"><a xlink:title=" ">
<path fill="none" stroke="#63b8ff" d="M1679.77,-124.97C1670.12,-116.01 1658.08,-104.82 1648.7,-96.11"/>
<polygon fill="#63b8ff" stroke="#63b8ff" points="1677.49,-127.63 1687.2,-131.87 1682.26,-122.5 1677.49,-127.63"/>
</a>
</g>
</g>
<!-- Node21 -->
<g id="Node000021" class="node">
<title>Node21</title>
<g id="a_Node000021"><a xlink:href="network__generate_8cpp.html" target="_top" xlink:title=" ">
<polygon fill="white" stroke="#666666" points="1813.5,-96 1705.5,-96 1705.5,-66 1813.5,-66 1813.5,-96"/>
<text text-anchor="start" x="1713.5" y="-84" font-family="Helvetica,sans-Serif" font-size="10.00">Server/src/network</text>
<text text-anchor="middle" x="1759.5" y="-73" font-family="Helvetica,sans-Serif" font-size="10.00">_generate.cpp</text>
</a>
</g>
</g>
<!-- Node16&#45;&gt;Node21 -->
<g id="edge20_Node000016_Node000021" class="edge">
<title>Node16&#45;&gt;Node21</title>
<g id="a_edge20_Node000016_Node000021"><a xlink:title=" ">
<path fill="none" stroke="#63b8ff" d="M1713.23,-124.97C1722.88,-116.01 1734.92,-104.82 1744.3,-96.11"/>
<polygon fill="#63b8ff" stroke="#63b8ff" points="1710.74,-122.5 1705.8,-131.87 1715.51,-127.63 1710.74,-122.5"/>
</a>
</g>
</g>
<!-- Node22 -->
<g id="Node000022" class="node">
<title>Node22</title>
<g id="a_Node000022"><a xlink:href="network__lobby_8cpp.html" target="_top" xlink:title=" ">
<polygon fill="white" stroke="#666666" points="1939.5,-96 1831.5,-96 1831.5,-66 1939.5,-66 1939.5,-96"/>
<text text-anchor="start" x="1839.5" y="-84" font-family="Helvetica,sans-Serif" font-size="10.00">Server/src/network</text>
<text text-anchor="middle" x="1885.5" y="-73" font-family="Helvetica,sans-Serif" font-size="10.00">_lobby.cpp</text>
</a>
</g>
</g>
<!-- Node16&#45;&gt;Node22 -->
<g id="edge21_Node000016_Node000022" class="edge">
<title>Node16&#45;&gt;Node22</title>
<g id="a_edge21_Node000016_Node000022"><a xlink:title=" ">
<path fill="none" stroke="#63b8ff" d="M1733.8,-128.95C1764.3,-119.51 1807.54,-106.13 1840.06,-96.06"/>
<polygon fill="#63b8ff" stroke="#63b8ff" points="1732.5,-125.69 1723.98,-131.99 1734.57,-132.38 1732.5,-125.69"/>
</a>
</g>
</g>
<!-- Node23 -->
<g id="Node000023" class="node">
<title>Node23</title>
<g id="a_Node000023"><a xlink:href="network__server_8cpp.html" target="_top" xlink:title=" ">
<polygon fill="white" stroke="#666666" points="2065.5,-96 1957.5,-96 1957.5,-66 2065.5,-66 2065.5,-96"/>
<text text-anchor="start" x="1965.5" y="-84" font-family="Helvetica,sans-Serif" font-size="10.00">Server/src/network</text>
<text text-anchor="middle" x="2011.5" y="-73" font-family="Helvetica,sans-Serif" font-size="10.00">_server.cpp</text>
</a>
</g>
</g>
<!-- Node16&#45;&gt;Node23 -->
<g id="edge22_Node000016_Node000023" class="edge">
<title>Node16&#45;&gt;Node23</title>
<g id="a_edge22_Node000016_Node000023"><a xlink:title=" ">
<path fill="none" stroke="#63b8ff" d="M1758.65,-130.31C1809.74,-121.74 1883.96,-108.86 1948.5,-96 1951.36,-95.43 1954.28,-94.83 1957.24,-94.22"/>
<polygon fill="#63b8ff" stroke="#63b8ff" points="1758.04,-126.86 1748.75,-131.96 1759.19,-133.76 1758.04,-126.86"/>
</a>
</g>
</g>
<!-- Node24 -->
<g id="Node000024" class="node">
<title>Node24</title>
<g id="a_Node000024"><a xlink:href="network__update_8cpp.html" target="_top" xlink:title=" ">
<polygon fill="white" stroke="#666666" points="2191.5,-96 2083.5,-96 2083.5,-66 2191.5,-66 2191.5,-96"/>
<text text-anchor="start" x="2091.5" y="-84" font-family="Helvetica,sans-Serif" font-size="10.00">Server/src/network</text>
<text text-anchor="middle" x="2137.5" y="-73" font-family="Helvetica,sans-Serif" font-size="10.00">_update.cpp</text>
</a>
</g>
</g>
<!-- Node16&#45;&gt;Node24 -->
<g id="edge23_Node000016_Node000024" class="edge">
<title>Node16&#45;&gt;Node24</title>
<g id="a_edge23_Node000016_Node000024"><a xlink:title=" ">
<path fill="none" stroke="#63b8ff" d="M1781.88,-132.94C1858.72,-125.55 1974.59,-112.94 2074.5,-96 2077.37,-95.51 2080.31,-94.98 2083.27,-94.42"/>
<polygon fill="#63b8ff" stroke="#63b8ff" points="1781.39,-129.48 1771.77,-133.91 1782.05,-136.44 1781.39,-129.48"/>
</a>
</g>
</g>
<!-- Node18 -->
<g id="Node000018" class="node">
<title>Node18</title>
<g id="a_Node000018"><a xlink:href="Core_8cpp.html" target="_top" xlink:title=" ">
<polygon fill="white" stroke="#666666" points="1473.5,-24.5 1371.5,-24.5 1371.5,-5.5 1473.5,-5.5 1473.5,-24.5"/>
<text text-anchor="middle" x="1422.5" y="-12.5" font-family="Helvetica,sans-Serif" font-size="10.00">Core/src/Core.cpp</text>
</a>
</g>
</g>
<!-- Node17&#45;&gt;Node18 -->
<g id="edge17_Node000017_Node000018" class="edge">
<title>Node17&#45;&gt;Node18</title>
<g id="a_edge17_Node000017_Node000018"><a xlink:title=" ">
<path fill="none" stroke="#63b8ff" d="M1370.39,-64.33C1383.75,-51.94 1401.92,-35.09 1412.9,-24.91"/>
<polygon fill="#63b8ff" stroke="#63b8ff" points="1367.76,-62 1362.81,-71.37 1372.52,-67.13 1367.76,-62"/>
</a>
</g>
</g>
</g>
</svg>

<g id="navigator" transform="translate(0 0)" fill="#404254">
  <rect fill="#f2f5e9" fill-opacity="0.5" stroke="#606060" stroke-width=".5" x="0" y="0" width="60" height="60"/>
  <use id="zoomplus" xlink:href="#zoomPlus" x="17" y="9" onmousedown="handleZoom(evt,'in')"/>
  <use id="zoomminus" xlink:href="#zoomMin" x="42" y="9" onmousedown="handleZoom(evt,'out')"/>
  <use id="reset" xlink:href="#resetDef" x="30" y="36" onmousedown="handleReset()"/>
   <use id="arrowup" xlink:href="#arrowUp" x="0" y="0" onmousedown="handlePan(0,-1)"/>
  <use id="arrowright" xlink:href="#arrowRight" x="0" y="0" onmousedown="handlePan(1,0)"/>
  <use id="arrowdown" xlink:href="#arrowDown" x="0" y="0" onmousedown="handlePan(0,1)"/>
  <use id="arrowleft" xlink:href="#arrowLeft" x="0" y="0" onmousedown="handlePan(-1,0)"/>
</g>
<svg viewBox="0 0 15 15" width="100%" height="30px" preserveAspectRatio="xMaxYMin meet">
 <g id="arrow_out" transform="scale(0.3 0.3)">
  <a xlink:href="BossSystem_8hpp__dep__incl_org.svg" target="_base">
   <rect id="button" ry="5" rx="5" y="6" x="6" height="38" width="38"
        fill="#f2f5e9" fill-opacity="0.5" stroke="#606060" stroke-width="1.0"/>
   <path id="arrow"
     d="M 11.500037,31.436501 C 11.940474,20.09759 22.043105,11.32322 32.158766,21.979434 L 37.068811,17.246167 C 37.068811,17.246167 37.088388,32 37.088388,32 L 22.160133,31.978069 C 22.160133,31.978069 26.997745,27.140456 26.997745,27.140456 C 18.528582,18.264221 13.291696,25.230495 11.500037,31.436501 z"
     style="fill:#404040;"/>
  </a>
 </g>
</svg>

<style type='text/css'>
<![CDATA[
[data-mouse-over-selected='false'] { opacity: 0.7; }
[data-mouse-over-selected='true']  { opacity: 1.0; }
]]>
</style>
<script type="application/ecmascript"><![CDATA[
document.addEventListener('DOMContentLoaded', (event) => {
  highlightEdges();
  highlightAdjacentNodes();
});
]]></script>
</svg>
