<?xml version="1.0" encoding="UTF-8" standalone="no"?>
<!DOCTYPE svg PUBLIC "-//W3C//DTD SVG 1.1//EN"
 "http://www.w3.org/Graphics/SVG/1.1/DTD/svg11.dtd">
<!-- Generated by graphviz version 2.43.0 (0)
 -->
<!-- Title: GameEngine/Include/CollectableSystem.hpp Pages: 1 -->
<svg width="2200pt" height="236pt"
 viewBox="0.00 0.00 2199.50 236.00" xmlns="http://www.w3.org/2000/svg" xmlns:xlink="http://www.w3.org/1999/xlink">
<g id="graph0" class="graph" transform="scale(1 1) rotate(0) translate(4 232)">
<title>GameEngine/Include/CollectableSystem.hpp</title>
<!-- Node1 -->
<g id="Node000001" class="node">
<title>Node1</title>
<g id="a_Node000001"><a xlink:title=" ">
<polygon fill="#999999" stroke="#666666" points="1354.5,-228 1222.5,-228 1222.5,-198 1354.5,-198 1354.5,-228"/>
<text text-anchor="start" x="1230.5" y="-216" font-family="Helvetica,sans-Serif" font-size="10.00">GameEngine/Include</text>
<text text-anchor="middle" x="1288.5" y="-205" font-family="Helvetica,sans-Serif" font-size="10.00">/CollectableSystem.hpp</text>
</a>
</g>
</g>
<!-- Node2 -->
<g id="Node000002" class="node">
<title>Node2</title>
<g id="a_Node000002"><a xlink:href="SoloPlay_8hpp.html" target="_top" xlink:title=" ">
<polygon fill="white" stroke="#666666" points="1155.5,-156.5 1007.5,-156.5 1007.5,-137.5 1155.5,-137.5 1155.5,-156.5"/>
<text text-anchor="middle" x="1081.5" y="-144.5" font-family="Helvetica,sans-Serif" font-size="10.00">Client/include/SoloPlay.hpp</text>
</a>
</g>
</g>
<!-- Node1&#45;&gt;Node2 -->
<g id="edge1_Node000001_Node000002" class="edge">
<title>Node1&#45;&gt;Node2</title>
<g id="a_edge1_Node000001_Node000002"><a xlink:title=" ">
<path fill="none" stroke="#63b8ff" d="M1233.42,-194.97C1193.31,-182.57 1140.66,-166.29 1109.05,-156.52"/>
<polygon fill="#63b8ff" stroke="#63b8ff" points="1232.49,-198.34 1243.07,-197.95 1234.55,-191.66 1232.49,-198.34"/>
</a>
</g>
</g>
<!-- Node15 -->
<g id="Node000015" class="node">
<title>Node15</title>
<g id="a_Node000015"><a xlink:href="CollectableSystem_8cpp.html" target="_top" xlink:title=" ">
<polygon fill="white" stroke="#666666" points="1365.5,-162 1211.5,-162 1211.5,-132 1365.5,-132 1365.5,-162"/>
<text text-anchor="start" x="1219.5" y="-150" font-family="Helvetica,sans-Serif" font-size="10.00">GameEngine/src/Collectable</text>
<text text-anchor="middle" x="1288.5" y="-139" font-family="Helvetica,sans-Serif" font-size="10.00">System.cpp</text>
</a>
</g>
</g>
<!-- Node1&#45;&gt;Node15 -->
<g id="edge14_Node000001_Node000015" class="edge">
<title>Node1&#45;&gt;Node15</title>
<g id="a_edge14_Node000001_Node000015"><a xlink:title=" ">
<path fill="none" stroke="#63b8ff" d="M1288.5,-187.54C1288.5,-178.96 1288.5,-169.61 1288.5,-162.16"/>
<polygon fill="#63b8ff" stroke="#63b8ff" points="1285,-187.8 1288.5,-197.8 1292,-187.8 1285,-187.8"/>
</a>
</g>
</g>
<!-- Node16 -->
<g id="Node000016" class="node">
<title>Node16</title>
<g id="a_Node000016"><a xlink:href="network_8hpp.html" target="_top" xlink:title=" ">
<polygon fill="white" stroke="#666666" points="1771.5,-156.5 1621.5,-156.5 1621.5,-137.5 1771.5,-137.5 1771.5,-156.5"/>
<text text-anchor="middle" x="1696.5" y="-144.5" font-family="Helvetica,sans-Serif" font-size="10.00">Server/include/network.hpp</text>
</a>
</g>
</g>
<!-- Node1&#45;&gt;Node16 -->
<g id="edge15_Node000001_Node000016" class="edge">
<title>Node1&#45;&gt;Node16</title>
<g id="a_edge15_Node000001_Node000016"><a xlink:title=" ">
<path fill="none" stroke="#63b8ff" d="M1364.6,-200.06C1445.28,-187.41 1570.7,-167.73 1642.02,-156.55"/>
<polygon fill="#63b8ff" stroke="#63b8ff" points="1363.84,-196.64 1354.51,-201.65 1364.93,-203.55 1363.84,-196.64"/>
</a>
</g>
</g>
<!-- Node3 -->
<g id="Node000003" class="node">
<title>Node3</title>
<g id="a_Node000003"><a xlink:href="client_8hpp.html" target="_top" xlink:title=" ">
<polygon fill="white" stroke="#666666" points="794.5,-90.5 660.5,-90.5 660.5,-71.5 794.5,-71.5 794.5,-90.5"/>
<text text-anchor="middle" x="727.5" y="-78.5" font-family="Helvetica,sans-Serif" font-size="10.00">Client/include/client.hpp</text>
</a>
</g>
</g>
<!-- Node2&#45;&gt;Node3 -->
<g id="edge2_Node000002_Node000003" class="edge">
<title>Node2&#45;&gt;Node3</title>
<g id="a_edge2_Node000002_Node000003"><a xlink:title=" ">
<path fill="none" stroke="#63b8ff" d="M1024.23,-135.65C954.8,-123.09 839.09,-102.17 774.59,-90.51"/>
<polygon fill="#63b8ff" stroke="#63b8ff" points="1023.66,-139.1 1034.13,-137.44 1024.91,-132.21 1023.66,-139.1"/>
</a>
</g>
</g>
<!-- Node13 -->
<g id="Node000013" class="node">
<title>Node13</title>
<g id="a_Node000013"><a xlink:href="SoloPlay_8cpp.html" target="_top" xlink:title=" ">
<polygon fill="white" stroke="#666666" points="1075.5,-90.5 949.5,-90.5 949.5,-71.5 1075.5,-71.5 1075.5,-90.5"/>
<text text-anchor="middle" x="1012.5" y="-78.5" font-family="Helvetica,sans-Serif" font-size="10.00">Client/src/SoloPlay.cpp</text>
</a>
</g>
</g>
<!-- Node2&#45;&gt;Node13 -->
<g id="edge12_Node000002_Node000013" class="edge">
<title>Node2&#45;&gt;Node13</title>
<g id="a_edge12_Node000002_Node000013"><a xlink:title=" ">
<path fill="none" stroke="#63b8ff" d="M1064.61,-130.33C1051.25,-117.94 1033.08,-101.09 1022.1,-90.91"/>
<polygon fill="#63b8ff" stroke="#63b8ff" points="1062.48,-133.13 1072.19,-137.37 1067.24,-128 1062.48,-133.13"/>
</a>
</g>
</g>
<!-- Node14 -->
<g id="Node000014" class="node">
<title>Node14</title>
<g id="a_Node000014"><a xlink:href="solo__play__render_8cpp.html" target="_top" xlink:title=" ">
<polygon fill="white" stroke="#666666" points="1205.5,-96 1093.5,-96 1093.5,-66 1205.5,-66 1205.5,-96"/>
<text text-anchor="start" x="1101.5" y="-84" font-family="Helvetica,sans-Serif" font-size="10.00">Client/src/solo_play</text>
<text text-anchor="middle" x="1149.5" y="-73" font-family="Helvetica,sans-Serif" font-size="10.00">_render.cpp</text>
</a>
</g>
</g>
<!-- Node2&#45;&gt;Node14 -->
<g id="edge13_Node000002_Node000014" class="edge">
<title>Node2&#45;&gt;Node14</title>
<g id="a_edge13_Node000002_Node000014"><a xlink:title=" ">
<path fill="none" stroke="#63b8ff" d="M1098.06,-130.41C1109.19,-119.94 1123.72,-106.26 1134.5,-96.12"/>
<polygon fill="#63b8ff" stroke="#63b8ff" points="1095.55,-127.97 1090.67,-137.37 1100.35,-133.06 1095.55,-127.97"/>
</a>
</g>
</g>
<!-- Node4 -->
<g id="Node000004" class="node">
<title>Node4</title>
<g id="a_Node000004"><a xlink:href="client_8cpp.html" target="_top" xlink:title=" ">
<polygon fill="white" stroke="#666666" points="113,-24.5 0,-24.5 0,-5.5 113,-5.5 113,-24.5"/>
<text text-anchor="middle" x="56.5" y="-12.5" font-family="Helvetica,sans-Serif" font-size="10.00">Client/src/client.cpp</text>
</a>
</g>
</g>
<!-- Node3&#45;&gt;Node4 -->
<g id="edge3_Node000003_Node000004" class="edge">
<title>Node3&#45;&gt;Node4</title>
<g id="a_edge3_Node000003_Node000004"><a xlink:title=" ">
<path fill="none" stroke="#63b8ff" d="M650.21,-76.84C534.67,-71.39 310.29,-58 121.5,-30 111.91,-28.58 101.61,-26.58 92.11,-24.54"/>
<polygon fill="#63b8ff" stroke="#63b8ff" points="650.22,-80.34 660.37,-77.31 650.54,-73.35 650.22,-80.34"/>
</a>
</g>
</g>
<!-- Node5 -->
<g id="Node000005" class="node">
<title>Node5</title>
<g id="a_Node000005"><a xlink:href="client2_8cpp.html" target="_top" xlink:title=" ">
<polygon fill="white" stroke="#666666" points="250,-24.5 131,-24.5 131,-5.5 250,-5.5 250,-24.5"/>
<text text-anchor="middle" x="190.5" y="-12.5" font-family="Helvetica,sans-Serif" font-size="10.00">Client/src/client2.cpp</text>
</a>
</g>
</g>
<!-- Node3&#45;&gt;Node5 -->
<g id="edge4_Node000003_Node000005" class="edge">
<title>Node3&#45;&gt;Node5</title>
<g id="a_edge4_Node000003_Node000005"><a xlink:title=" ">
<path fill="none" stroke="#63b8ff" d="M650.03,-73.96C556.98,-66.19 396.3,-51.14 259.5,-30 249.72,-28.49 239.21,-26.53 229.43,-24.56"/>
<polygon fill="#63b8ff" stroke="#63b8ff" points="649.95,-77.47 660.21,-74.81 650.53,-70.49 649.95,-77.47"/>
</a>
</g>
</g>
<!-- Node6 -->
<g id="Node000006" class="node">
<title>Node6</title>
<g id="a_Node000006"><a xlink:href="client__init_8cpp.html" target="_top" xlink:title=" ">
<polygon fill="white" stroke="#666666" points="402.5,-24.5 268.5,-24.5 268.5,-5.5 402.5,-5.5 402.5,-24.5"/>
<text text-anchor="middle" x="335.5" y="-12.5" font-family="Helvetica,sans-Serif" font-size="10.00">Client/src/client_init.cpp</text>
</a>
</g>
</g>
<!-- Node3&#45;&gt;Node6 -->
<g id="edge5_Node000003_Node000006" class="edge">
<title>Node3&#45;&gt;Node6</title>
<g id="a_edge5_Node000003_Node000006"><a xlink:title=" ">
<path fill="none" stroke="#63b8ff" d="M660.96,-69.97C596.95,-60.21 497.51,-44.72 411.5,-30 401.58,-28.3 390.95,-26.4 380.88,-24.55"/>
<polygon fill="#63b8ff" stroke="#63b8ff" points="660.5,-73.44 670.92,-71.49 661.56,-66.52 660.5,-73.44"/>
</a>
</g>
</g>
<!-- Node7 -->
<g id="Node000007" class="node">
<title>Node7</title>
<g id="a_Node000007"><a xlink:href="client__network__part__one_8cpp.html" target="_top" xlink:title=" ">
<polygon fill="white" stroke="#666666" points="558,-30 421,-30 421,0 558,0 558,-30"/>
<text text-anchor="start" x="429" y="-18" font-family="Helvetica,sans-Serif" font-size="10.00">Client/src/client_network</text>
<text text-anchor="middle" x="489.5" y="-7" font-family="Helvetica,sans-Serif" font-size="10.00">_part_one.cpp</text>
</a>
</g>
</g>
<!-- Node3&#45;&gt;Node7 -->
<g id="edge6_Node000003_Node000007" class="edge">
<title>Node3&#45;&gt;Node7</title>
<g id="a_edge6_Node000003_Node000007"><a xlink:title=" ">
<path fill="none" stroke="#63b8ff" d="M685.7,-68.76C645.69,-58 585.22,-41.74 541.99,-30.12"/>
<polygon fill="#63b8ff" stroke="#63b8ff" points="684.84,-72.15 695.4,-71.37 686.65,-65.39 684.84,-72.15"/>
</a>
</g>
</g>
<!-- Node8 -->
<g id="Node000008" class="node">
<title>Node8</title>
<g id="a_Node000008"><a xlink:href="client__network__part__two_8cpp.html" target="_top" xlink:title=" ">
<polygon fill="white" stroke="#666666" points="713,-30 576,-30 576,0 713,0 713,-30"/>
<text text-anchor="start" x="584" y="-18" font-family="Helvetica,sans-Serif" font-size="10.00">Client/src/client_network</text>
<text text-anchor="middle" x="644.5" y="-7" font-family="Helvetica,sans-Serif" font-size="10.00">_part_two.cpp</text>
</a>
</g>
</g>
<!-- Node3&#45;&gt;Node8 -->
<g id="edge7_Node000003_Node000008" class="edge">
<title>Node3&#45;&gt;Node8</title>
<g id="a_edge7_Node000003_Node000008"><a xlink:title=" ">
<path fill="none" stroke="#63b8ff" d="M708.07,-65.02C694.4,-54.48 676.22,-40.46 662.81,-30.12"/>
<polygon fill="#63b8ff" stroke="#63b8ff" points="706.25,-68.03 716.31,-71.37 710.52,-62.49 706.25,-68.03"/>
</a>
</g>
</g>
<!-- Node9 -->
<g id="Node000009" class="node">
<title>Node9</title>
<g id="a_Node000009"><a xlink:href="client__protocol_8cpp.html" target="_top" xlink:title=" ">
<polygon fill="white" stroke="#666666" points="889.5,-24.5 731.5,-24.5 731.5,-5.5 889.5,-5.5 889.5,-24.5"/>
<text text-anchor="middle" x="810.5" y="-12.5" font-family="Helvetica,sans-Serif" font-size="10.00">Client/src/client_protocol.cpp</text>
</a>
</g>
</g>
<!-- Node3&#45;&gt;Node9 -->
<g id="edge8_Node000003_Node000009" class="edge">
<title>Node3&#45;&gt;Node9</title>
<g id="a_edge8_Node000003_Node000009"><a xlink:title=" ">
<path fill="none" stroke="#63b8ff" d="M746.97,-64.99C763.22,-52.46 785.81,-35.04 799.22,-24.7"/>
<polygon fill="#63b8ff" stroke="#63b8ff" points="744.48,-62.49 738.69,-71.37 748.75,-68.03 744.48,-62.49"/>
</a>
</g>
</g>
<!-- Node10 -->
<g id="Node000010" class="node">
<title>Node10</title>
<g id="a_Node000010"><a xlink:href="client__replay_8cpp.html" target="_top" xlink:title=" ">
<polygon fill="white" stroke="#666666" points="1055,-24.5 908,-24.5 908,-5.5 1055,-5.5 1055,-24.5"/>
<text text-anchor="middle" x="981.5" y="-12.5" font-family="Helvetica,sans-Serif" font-size="10.00">Client/src/client_replay.cpp</text>
</a>
</g>
</g>
<!-- Node3&#45;&gt;Node10 -->
<g id="edge9_Node000003_Node000010" class="edge">
<title>Node3&#45;&gt;Node10</title>
<g id="a_edge9_Node000003_Node000010"><a xlink:title=" ">
<path fill="none" stroke="#63b8ff" d="M771.38,-68.94C821.46,-56.32 902.28,-35.96 947.71,-24.51"/>
<polygon fill="#63b8ff" stroke="#63b8ff" points="770.33,-65.6 761.49,-71.44 772.04,-72.39 770.33,-65.6"/>
</a>
</g>
</g>
<!-- Node11 -->
<g id="Node000011" class="node">
<title>Node11</title>
<g id="a_Node000011"><a xlink:href="client__update_8cpp.html" target="_top" xlink:title=" ">
<polygon fill="white" stroke="#666666" points="1225.5,-24.5 1073.5,-24.5 1073.5,-5.5 1225.5,-5.5 1225.5,-24.5"/>
<text text-anchor="middle" x="1149.5" y="-12.5" font-family="Helvetica,sans-Serif" font-size="10.00">Client/src/client_update.cpp</text>
</a>
</g>
</g>
<!-- Node3&#45;&gt;Node11 -->
<g id="edge10_Node000003_Node000011" class="edge">
<title>Node3&#45;&gt;Node11</title>
<g id="a_edge10_Node000003_Node000011"><a xlink:title=" ">
<path fill="none" stroke="#63b8ff" d="M796.56,-70C864.52,-60.1 971.21,-44.38 1063.5,-30 1074.56,-28.28 1086.41,-26.38 1097.67,-24.55"/>
<polygon fill="#63b8ff" stroke="#63b8ff" points="795.8,-66.58 786.41,-71.48 796.81,-73.5 795.8,-66.58"/>
</a>
</g>
</g>
<!-- Node12 -->
<g id="Node000012" class="node">
<title>Node12</title>
<g id="a_Node000012"><a xlink:href="main_8cpp.html" target="_top" xlink:title=" ">
<polygon fill="white" stroke="#666666" points="1353.5,-24.5 1243.5,-24.5 1243.5,-5.5 1353.5,-5.5 1353.5,-24.5"/>
<text text-anchor="middle" x="1298.5" y="-12.5" font-family="Helvetica,sans-Serif" font-size="10.00">Client/src/main.cpp</text>
</a>
</g>
</g>
<!-- Node3&#45;&gt;Node12 -->
<g id="edge11_Node000003_Node000012" class="edge">
<title>Node3&#45;&gt;Node12</title>
<g id="a_edge11_Node000003_Node000012"><a xlink:title=" ">
<path fill="none" stroke="#63b8ff" d="M804.65,-75.21C904.34,-68.38 1083.1,-53.94 1234.5,-30 1243.82,-28.53 1253.83,-26.54 1263.1,-24.52"/>
<polygon fill="#63b8ff" stroke="#63b8ff" points="804.4,-71.72 794.66,-75.89 804.87,-78.71 804.4,-71.72"/>
</a>
</g>
</g>
<!-- Node17 -->
<g id="Node000017" class="node">
<title>Node17</title>
<g id="a_Node000017"><a xlink:href="Core_8hpp.html" target="_top" xlink:title=" ">
<polygon fill="white" stroke="#666666" points="1415.5,-90.5 1291.5,-90.5 1291.5,-71.5 1415.5,-71.5 1415.5,-90.5"/>
<text text-anchor="middle" x="1353.5" y="-78.5" font-family="Helvetica,sans-Serif" font-size="10.00">Core/include/Core.hpp</text>
</a>
</g>
</g>
<!-- Node16&#45;&gt;Node17 -->
<g id="edge16_Node000016_Node000017" class="edge">
<title>Node16&#45;&gt;Node17</title>
<g id="a_edge16_Node000016_Node000017"><a xlink:title=" ">
<path fill="none" stroke="#63b8ff" d="M1638.88,-135.63C1583.8,-125.66 1498.43,-110.08 1424.5,-96 1415.37,-94.26 1405.58,-92.36 1396.28,-90.53"/>
<polygon fill="#63b8ff" stroke="#63b8ff" points="1638.34,-139.09 1648.8,-137.42 1639.59,-132.2 1638.34,-139.09"/>
</a>
</g>
</g>
<!-- Node19 -->
<g id="Node000019" class="node">
<title>Node19</title>
<g id="a_Node000019"><a xlink:href="network_8cpp.html" target="_top" xlink:title=" ">
<polygon fill="white" stroke="#666666" points="1561.5,-90.5 1433.5,-90.5 1433.5,-71.5 1561.5,-71.5 1561.5,-90.5"/>
<text text-anchor="middle" x="1497.5" y="-78.5" font-family="Helvetica,sans-Serif" font-size="10.00">Server/src/network.cpp</text>
</a>
</g>
</g>
<!-- Node16&#45;&gt;Node19 -->
<g id="edge18_Node000016_Node000019" class="edge">
<title>Node16&#45;&gt;Node19</title>
<g id="a_edge18_Node000016_Node000019"><a xlink:title=" ">
<path fill="none" stroke="#63b8ff" d="M1659.94,-134.24C1620.67,-121.61 1559.21,-101.85 1524.23,-90.6"/>
<polygon fill="#63b8ff" stroke="#63b8ff" points="1659.07,-137.64 1669.66,-137.37 1661.21,-130.98 1659.07,-137.64"/>
</a>
</g>
</g>
<!-- Node20 -->
<g id="Node000020" class="node">
<title>Node20</title>
<g id="a_Node000020"><a xlink:href="network__client__info_8cpp.html" target="_top" xlink:title=" ">
<polygon fill="white" stroke="#666666" points="1687.5,-96 1579.5,-96 1579.5,-66 1687.5,-66 1687.5,-96"/>
<text text-anchor="start" x="1587.5" y="-84" font-family="Helvetica,sans-Serif" font-size="10.00">Server/src/network</text>
<text text-anchor="middle" x="1633.5" y="-73" font-family="Helvetica,sans-Serif" font-size="10.00">_client_info.cpp</text>
</a>
</g>
</g>
<!-- Node16&#45;&gt;Node20 -->
<g id="edge19_Node000016_Node000020" class="edge">
<title>Node16&#45;&gt;Node20</title>
<g id="a_edge19_Node000016_Node000020"><a xlink:title=" ">
<path fill="none" stroke="#63b8ff" d="M1680.9,-130.16C1670.72,-119.81 1657.52,-106.4 1647.64,-96.36"/>
<polygon fill="#63b8ff" stroke="#63b8ff" points="1678.49,-132.7 1688,-137.37 1683.48,-127.79 1678.49,-132.7"/>
</a>
</g>
</g>
<!-- Node21 -->
<g id="Node000021" class="node">
<title>Node21</title>
<g id="a_Node000021"><a xlink:href="network__generate_8cpp.html" target="_top" xlink:title=" ">
<polygon fill="white" stroke="#666666" points="1813.5,-96 1705.5,-96 1705.5,-66 1813.5,-66 1813.5,-96"/>
<text text-anchor="start" x="1713.5" y="-84" font-family="Helvetica,sans-Serif" font-size="10.00">Server/src/network</text>
<text text-anchor="middle" x="1759.5" y="-73" font-family="Helvetica,sans-Serif" font-size="10.00">_generate.cpp</text>
</a>
</g>
</g>
<!-- Node16&#45;&gt;Node21 -->
<g id="edge20_Node000016_Node000021" class="edge">
<title>Node16&#45;&gt;Node21</title>
<g id="a_edge20_Node000016_Node000021"><a xlink:title=" ">
<path fill="none" stroke="#63b8ff" d="M1712.1,-130.16C1722.28,-119.81 1735.48,-106.4 1745.36,-96.36"/>
<polygon fill="#63b8ff" stroke="#63b8ff" points="1709.52,-127.79 1705,-137.37 1714.51,-132.7 1709.52,-127.79"/>
</a>
</g>
</g>
<!-- Node22 -->
<g id="Node000022" class="node">
<title>Node22</title>
<g id="a_Node000022"><a xlink:href="network__lobby_8cpp.html" target="_top" xlink:title=" ">
<polygon fill="white" stroke="#666666" points="1939.5,-96 1831.5,-96 1831.5,-66 1939.5,-66 1939.5,-96"/>
<text text-anchor="start" x="1839.5" y="-84" font-family="Helvetica,sans-Serif" font-size="10.00">Server/src/network</text>
<text text-anchor="middle" x="1885.5" y="-73" font-family="Helvetica,sans-Serif" font-size="10.00">_lobby.cpp</text>
</a>
</g>
</g>
<!-- Node16&#45;&gt;Node22 -->
<g id="edge21_Node000016_Node000022" class="edge">
<title>Node16&#45;&gt;Node22</title>
<g id="a_edge21_Node000016_Node000022"><a xlink:title=" ">
<path fill="none" stroke="#63b8ff" d="M1731.74,-134.07C1763.49,-123.31 1810.21,-107.49 1843.81,-96.12"/>
<polygon fill="#63b8ff" stroke="#63b8ff" points="1730.34,-130.85 1721.99,-137.37 1732.58,-137.48 1730.34,-130.85"/>
</a>
</g>
</g>
<!-- Node23 -->
<g id="Node000023" class="node">
<title>Node23</title>
<g id="a_Node000023"><a xlink:href="network__server_8cpp.html" target="_top" xlink:title=" ">
<polygon fill="white" stroke="#666666" points="2065.5,-96 1957.5,-96 1957.5,-66 2065.5,-66 2065.5,-96"/>
<text text-anchor="start" x="1965.5" y="-84" font-family="Helvetica,sans-Serif" font-size="10.00">Server/src/network</text>
<text text-anchor="middle" x="2011.5" y="-73" font-family="Helvetica,sans-Serif" font-size="10.00">_server.cpp</text>
</a>
</g>
</g>
<!-- Node16&#45;&gt;Node23 -->
<g id="edge22_Node000016_Node000023" class="edge">
<title>Node16&#45;&gt;Node23</title>
<g id="a_edge22_Node000016_Node000023"><a xlink:title=" ">
<path fill="none" stroke="#63b8ff" d="M1751.01,-135.56C1802.1,-125.68 1880.57,-110.28 1948.5,-96 1951.35,-95.4 1954.27,-94.78 1957.22,-94.14"/>
<polygon fill="#63b8ff" stroke="#63b8ff" points="1750.33,-132.12 1741.17,-137.46 1751.66,-139 1750.33,-132.12"/>
</a>
</g>
</g>
<!-- Node24 -->
<g id="Node000024" class="node">
<title>Node24</title>
<g id="a_Node000024"><a xlink:href="network__update_8cpp.html" target="_top" xlink:title=" ">
<polygon fill="white" stroke="#666666" points="2191.5,-96 2083.5,-96 2083.5,-66 2191.5,-66 2191.5,-96"/>
<text text-anchor="start" x="2091.5" y="-84" font-family="Helvetica,sans-Serif" font-size="10.00">Server/src/network</text>
<text text-anchor="middle" x="2137.5" y="-73" font-family="Helvetica,sans-Serif" font-size="10.00">_update.cpp</text>
</a>
</g>
</g>
<!-- Node16&#45;&gt;Node24 -->
<g id="edge23_Node000016_Node000024" class="edge">
<title>Node16&#45;&gt;Node24</title>
<g id="a_edge23_Node000016_Node000024"><a xlink:title=" ">
<path fill="none" stroke="#63b8ff" d="M1781.85,-136.86C1858.68,-128.13 1974.53,-113.68 2074.5,-96 2077.37,-95.49 2080.3,-94.94 2083.26,-94.37"/>
<polygon fill="#63b8ff" stroke="#63b8ff" points="1781.29,-133.4 1771.74,-138 1782.07,-140.36 1781.29,-133.4"/>
</a>
</g>
</g>
<!-- Node18 -->
<g id="Node000018" class="node">
<title>Node18</title>
<g id="a_Node000018"><a xlink:href="Core_8cpp.html" target="_top" xlink:title=" ">
<polygon fill="white" stroke="#666666" points="1473.5,-24.5 1371.5,-24.5 1371.5,-5.5 1473.5,-5.5 1473.5,-24.5"/>
<text text-anchor="middle" x="1422.5" y="-12.5" font-family="Helvetica,sans-Serif" font-size="10.00">Core/src/Core.cpp</text>
</a>
</g>
</g>
<!-- Node17&#45;&gt;Node18 -->
<g id="edge17_Node000017_Node000018" class="edge">
<title>Node17&#45;&gt;Node18</title>
<g id="a_edge17_Node000017_Node000018"><a xlink:title=" ">
<path fill="none" stroke="#63b8ff" d="M1370.39,-64.33C1383.75,-51.94 1401.92,-35.09 1412.9,-24.91"/>
<polygon fill="#63b8ff" stroke="#63b8ff" points="1367.76,-62 1362.81,-71.37 1372.52,-67.13 1367.76,-62"/>
</a>
</g>
</g>
</g>
</svg>
