<?xml version="1.0" encoding="UTF-8" standalone="no"?>
<!DOCTYPE svg PUBLIC "-//W3C//DTD SVG 1.1//EN"
 "http://www.w3.org/Graphics/SVG/1.1/DTD/svg11.dtd">
<!-- Generated by graphviz version 2.43.0 (0)
 -->
<!-- Title: GameEngine/Include/CollisionSystem.hpp Pages: 1 -->
<!--zoomable 313 -->

<svg id="main" version="1.1" xmlns="http://www.w3.org/2000/svg" xmlns:xlink="http://www.w3.org/1999/xlink" xml:space="preserve" onload="init(evt)">
<style type="text/css"><![CDATA[
.node, .edge {opacity: 0.7;}
.node.selected, .edge.selected {opacity: 1;}
.edge:hover path { stroke: red; }
.edge:hover polygon { stroke: red; fill: red; }
]]></style>

<defs>
  <circle id="rim" cx="0" cy="0" r="7"/>
  <circle id="rim2" cx="0" cy="0" r="3.5"/>
  <g id="zoomPlus">
    <use xlink:href="#rim" fill="#404040"><set attributeName="fill" to="#808080" begin="zoomplus.mouseover" end="zoomplus.mouseout"/></use>
    <path d="M-4,0h8M0,-4v8" fill="none" stroke="white" stroke-width="1.5" pointer-events="none"/>
  </g>
  <g id="zoomMin">
    <use xlink:href="#rim" fill="#404040"><set attributeName="fill" to="#808080" begin="zoomminus.mouseover" end="zoomminus.mouseout"/></use>
    <path d="M-4,0h8" fill="none" stroke="white" stroke-width="1.5" pointer-events="none"/>
  </g>
  <g id="arrowUp" transform="translate(30 24)">
    <use xlink:href="#rim"/>
    <path pointer-events="none" fill="none" stroke="white" stroke-width="1.5" d="M0,-3.0v7 M-2.5,-0.5L0,-3.0L2.5,-0.5"/>
  </g>
  <g id="arrowRight" transform="rotate(90) translate(36 -43)">
    <use xlink:href="#rim"/>
    <path pointer-events="none" fill="none" stroke="white" stroke-width="1.5" d="M0,-3.0v7 M-2.5,-0.5L0,-3.0L2.5,-0.5"/>
  </g>
  <g id="arrowDown" transform="rotate(180) translate(-30 -48)">
    <use xlink:href="#rim"/>
    <path pointer-events="none" fill="none" stroke="white" stroke-width="1.5" d="M0,-3.0v7 M-2.5,-0.5L0,-3.0L2.5,-0.5"/>
  </g>
  <g id="arrowLeft" transform="rotate(270) translate(-36 17)">
    <use xlink:href="#rim"/>
    <path pointer-events="none" fill="none" stroke="white" stroke-width="1.5" d="M0,-3.0v7 M-2.5,-0.5L0,-3.0L2.5,-0.5"/>
  </g>
  <g id="resetDef">
    <use xlink:href="#rim2" fill="#404040"><set attributeName="fill" to="#808080" begin="reset.mouseover" end="reset.mouseout"/></use>
  </g>
</defs>
<script type="application/ecmascript">
var viewWidth = 1898;
var viewHeight = 313;
var sectionId = 'dynsection-0';
</script>
<script type="application/ecmascript" xlink:href="svg.min.js"/>
<svg id="graph" class="graph">
<g id="viewport">
<title>GameEngine/Include/CollisionSystem.hpp</title>
<!-- Node1 -->
<g id="Node000001" class="node">
<title>Node1</title>
<g id="a_Node000001"><a xlink:title=" ">
<polygon fill="#999999" stroke="#666666" points="597,-305 478,-305 478,-275 597,-275 597,-305"/>
<text text-anchor="start" x="486" y="-293" font-family="Helvetica,sans-Serif" font-size="10.00">GameEngine/Include</text>
<text text-anchor="middle" x="537.5" y="-282" font-family="Helvetica,sans-Serif" font-size="10.00">/CollisionSystem.hpp</text>
</a>
</g>
</g>
<!-- Node2 -->
<g id="Node000002" class="node">
<title>Node2</title>
<g id="a_Node000002"><a xlink:href="Entity_8hpp.html" target="_top" xlink:title=" ">
<polygon fill="white" stroke="#666666" points="462,-74 397,-74 397,-55 462,-55 462,-74"/>
<text text-anchor="middle" x="429.5" y="-62" font-family="Helvetica,sans-Serif" font-size="10.00">Entity.hpp</text>
</a>
</g>
</g>
<!-- Node1&#45;&gt;Node2 -->
<g id="edge1_Node000001_Node000002" class="edge">
<title>Node1&#45;&gt;Node2</title>
<g id="a_edge1_Node000001_Node000002"><a xlink:title=" ">
<path fill="none" stroke="#63b8ff" d="M540.73,-274.85C543.42,-260.81 546.26,-238.72 542.5,-220 531.37,-164.54 516.51,-151.88 478.5,-110 469.06,-99.6 457.47,-88.99 447.93,-80.74"/>
<polygon fill="#63b8ff" stroke="#63b8ff" points="450.07,-77.96 440.18,-74.16 445.54,-83.3 450.07,-77.96"/>
</a>
</g>
</g>
<!-- Node18 -->
<g id="Node000018" class="node">
<title>Node18</title>
<g id="a_Node000018"><a xlink:href="Systeme_8hpp.html" target="_top" xlink:title=" ">
<polygon fill="white" stroke="#666666" points="469.5,-129 389.5,-129 389.5,-110 469.5,-110 469.5,-129"/>
<text text-anchor="middle" x="429.5" y="-117" font-family="Helvetica,sans-Serif" font-size="10.00">Systeme.hpp</text>
</a>
</g>
</g>
<!-- Node1&#45;&gt;Node18 -->
<g id="edge17_Node000001_Node000018" class="edge">
<title>Node1&#45;&gt;Node18</title>
<g id="a_edge17_Node000001_Node000018"><a xlink:title=" ">
<path fill="none" stroke="#63b8ff" d="M536.35,-274.92C533.71,-250.31 525.29,-198.85 499.5,-165 489.29,-151.6 473.79,-141.15 459.97,-133.76"/>
<polygon fill="#63b8ff" stroke="#63b8ff" points="461.26,-130.49 450.76,-129.13 458.12,-136.74 461.26,-130.49"/>
</a>
</g>
</g>
<!-- Node19 -->
<g id="Node000019" class="node">
<title>Node19</title>
<g id="a_Node000019"><a xlink:href="Mediator_8hpp.html" target="_top" xlink:title=" ">
<polygon fill="white" stroke="#666666" points="425.5,-239 345.5,-239 345.5,-220 425.5,-220 425.5,-239"/>
<text text-anchor="middle" x="385.5" y="-227" font-family="Helvetica,sans-Serif" font-size="10.00">Mediator.hpp</text>
</a>
</g>
</g>
<!-- Node1&#45;&gt;Node19 -->
<g id="edge19_Node000001_Node000019" class="edge">
<title>Node1&#45;&gt;Node19</title>
<g id="a_edge19_Node000001_Node000019"><a xlink:title=" ">
<path fill="none" stroke="#63b8ff" d="M501.09,-274.99C475.62,-265.18 441.91,-252.21 417.47,-242.81"/>
<polygon fill="#63b8ff" stroke="#63b8ff" points="418.54,-239.46 407.95,-239.14 416.02,-246 418.54,-239.46"/>
</a>
</g>
</g>
<!-- Node25 -->
<g id="Node000025" class="node">
<title>Node25</title>
<g id="a_Node000025"><a xlink:href="Quadtree_8hpp.html" target="_top" xlink:title=" ">
<polygon fill="white" stroke="#666666" points="1155,-129 1072,-129 1072,-110 1155,-110 1155,-129"/>
<text text-anchor="middle" x="1113.5" y="-117" font-family="Helvetica,sans-Serif" font-size="10.00">Quadtree.hpp</text>
</a>
</g>
</g>
<!-- Node1&#45;&gt;Node25 -->
<g id="edge32_Node000001_Node000025" class="edge">
<title>Node1&#45;&gt;Node25</title>
<g id="a_edge32_Node000001_Node000025"><a xlink:title=" ">
<path fill="none" stroke="#63b8ff" d="M585.62,-274.92C697.35,-242.24 972.6,-161.72 1074.63,-131.87"/>
<polygon fill="#63b8ff" stroke="#63b8ff" points="1075.61,-135.23 1084.23,-129.06 1073.65,-128.51 1075.61,-135.23"/>
</a>
</g>
</g>
<!-- Node3 -->
<g id="Node000003" class="node">
<title>Node3</title>
<g id="a_Node000003"><a xlink:title=" ">
<polygon fill="#e0e0e0" stroke="#999999" points="209.5,-19 149.5,-19 149.5,0 209.5,0 209.5,-19"/>
<text text-anchor="middle" x="179.5" y="-7" font-family="Helvetica,sans-Serif" font-size="10.00">iostream</text>
</a>
</g>
</g>
<!-- Node2&#45;&gt;Node3 -->
<g id="edge2_Node000002_Node000003" class="edge">
<title>Node2&#45;&gt;Node3</title>
<g id="a_edge2_Node000002_Node000003"><a xlink:title=" ">
<path fill="none" stroke="#63b8ff" d="M396.95,-56.71C357.44,-48.44 288.5,-33.98 219.85,-19.28"/>
<polygon fill="#63b8ff" stroke="#63b8ff" points="220.24,-15.78 209.73,-17.11 218.77,-22.63 220.24,-15.78"/>
</a>
</g>
</g>
<!-- Node4 -->
<g id="Node000004" class="node">
<title>Node4</title>
<g id="a_Node000004"><a xlink:title=" ">
<polygon fill="#e0e0e0" stroke="#999999" points="454.5,-19 404.5,-19 404.5,0 454.5,0 454.5,-19"/>
<text text-anchor="middle" x="429.5" y="-7" font-family="Helvetica,sans-Serif" font-size="10.00">cstdint</text>
</a>
</g>
</g>
<!-- Node2&#45;&gt;Node4 -->
<g id="edge3_Node000002_Node000004" class="edge">
<title>Node2&#45;&gt;Node4</title>
<g id="a_edge3_Node000002_Node000004"><a xlink:title=" ">
<path fill="none" stroke="#63b8ff" d="M429.5,-54.75C429.5,-47.8 429.5,-37.85 429.5,-29.13"/>
<polygon fill="#63b8ff" stroke="#63b8ff" points="433,-29.09 429.5,-19.09 426,-29.09 433,-29.09"/>
</a>
</g>
</g>
<!-- Node5 -->
<g id="Node000005" class="node">
<title>Node5</title>
<g id="a_Node000005"><a xlink:title=" ">
<polygon fill="#e0e0e0" stroke="#999999" points="131.5,-19 87.5,-19 87.5,0 131.5,0 131.5,-19"/>
<text text-anchor="middle" x="109.5" y="-7" font-family="Helvetica,sans-Serif" font-size="10.00">string</text>
</a>
</g>
</g>
<!-- Node2&#45;&gt;Node5 -->
<g id="edge4_Node000002_Node000005" class="edge">
<title>Node2&#45;&gt;Node5</title>
<g id="a_edge4_Node000002_Node000005"><a xlink:title=" ">
<path fill="none" stroke="#63b8ff" d="M396.77,-59.7C344.75,-53.4 239.86,-39.61 141.85,-19.08"/>
<polygon fill="#63b8ff" stroke="#63b8ff" points="142.28,-15.59 131.78,-16.94 140.83,-22.44 142.28,-15.59"/>
</a>
</g>
</g>
<!-- Node6 -->
<g id="Node000006" class="node">
<title>Node6</title>
<g id="a_Node000006"><a xlink:title=" ">
<polygon fill="#e0e0e0" stroke="#999999" points="816.5,-19 772.5,-19 772.5,0 816.5,0 816.5,-19"/>
<text text-anchor="middle" x="794.5" y="-7" font-family="Helvetica,sans-Serif" font-size="10.00">bitset</text>
</a>
</g>
</g>
<!-- Node2&#45;&gt;Node6 -->
<g id="edge5_Node000002_Node000006" class="edge">
<title>Node2&#45;&gt;Node6</title>
<g id="a_edge5_Node000002_Node000006"><a xlink:title=" ">
<path fill="none" stroke="#63b8ff" d="M462.08,-57.37C466.91,-56.53 471.83,-55.71 476.5,-55 600.78,-36.01 636.29,-44.21 762.28,-19.21"/>
<polygon fill="#63b8ff" stroke="#63b8ff" points="763.2,-22.6 772.31,-17.19 761.82,-15.74 763.2,-22.6"/>
</a>
</g>
</g>
<!-- Node7 -->
<g id="Node000007" class="node">
<title>Node7</title>
<g id="a_Node000007"><a xlink:title=" ">
<polygon fill="#e0e0e0" stroke="#999999" points="386,-19 339,-19 339,0 386,0 386,-19"/>
<text text-anchor="middle" x="362.5" y="-7" font-family="Helvetica,sans-Serif" font-size="10.00">queue</text>
</a>
</g>
</g>
<!-- Node2&#45;&gt;Node7 -->
<g id="edge6_Node000002_Node000007" class="edge">
<title>Node2&#45;&gt;Node7</title>
<g id="a_edge6_Node000002_Node000007"><a xlink:title=" ">
<path fill="none" stroke="#63b8ff" d="M418.74,-54.98C408.73,-47.07 393.61,-35.11 381.57,-25.58"/>
<polygon fill="#63b8ff" stroke="#63b8ff" points="383.47,-22.63 373.46,-19.17 379.13,-28.12 383.47,-22.63"/>
</a>
</g>
</g>
<!-- Node8 -->
<g id="Node000008" class="node">
<title>Node8</title>
<g id="a_Node000008"><a xlink:title=" ">
<polygon fill="#e0e0e0" stroke="#999999" points="1784.5,-19 1742.5,-19 1742.5,0 1784.5,0 1784.5,-19"/>
<text text-anchor="middle" x="1763.5" y="-7" font-family="Helvetica,sans-Serif" font-size="10.00">array</text>
</a>
</g>
</g>
<!-- Node2&#45;&gt;Node8 -->
<g id="edge7_Node000002_Node000008" class="edge">
<title>Node2&#45;&gt;Node8</title>
<g id="a_edge7_Node000002_Node000008"><a xlink:title=" ">
<path fill="none" stroke="#63b8ff" d="M462.03,-60.81C485.72,-58.93 518.58,-56.51 547.5,-55 1043.53,-29.15 1168.66,-48.26 1664.5,-19 1687.17,-17.66 1712.7,-15.45 1732.15,-13.62"/>
<polygon fill="#63b8ff" stroke="#63b8ff" points="1732.66,-17.09 1742.28,-12.65 1731.99,-10.12 1732.66,-17.09"/>
</a>
</g>
</g>
<!-- Node9 -->
<g id="Node000009" class="node">
<title>Node9</title>
<g id="a_Node000009"><a xlink:title=" ">
<polygon fill="#e0e0e0" stroke="#999999" points="1889.5,-19 1837.5,-19 1837.5,0 1889.5,0 1889.5,-19"/>
<text text-anchor="middle" x="1863.5" y="-7" font-family="Helvetica,sans-Serif" font-size="10.00">cassert</text>
</a>
</g>
</g>
<!-- Node2&#45;&gt;Node9 -->
<g id="edge8_Node000002_Node000009" class="edge">
<title>Node2&#45;&gt;Node9</title>
<g id="a_edge8_Node000002_Node000009"><a xlink:title=" ">
<path fill="none" stroke="#63b8ff" d="M462.03,-60.78C485.72,-58.89 518.58,-56.46 547.5,-55 1100.81,-27.09 1241.04,-60.43 1793.5,-19 1804.51,-18.17 1816.45,-16.88 1827.3,-15.54"/>
<polygon fill="#63b8ff" stroke="#63b8ff" points="1827.82,-19 1837.3,-14.26 1826.93,-12.06 1827.82,-19"/>
</a>
</g>
</g>
<!-- Node10 -->
<g id="Node000010" class="node">
<title>Node10</title>
<g id="a_Node000010"><a xlink:title=" ">
<polygon fill="#e0e0e0" stroke="#999999" points="321,-19 228,-19 228,0 321,0 321,-19"/>
<text text-anchor="middle" x="274.5" y="-7" font-family="Helvetica,sans-Serif" font-size="10.00">unordered_map</text>
</a>
</g>
</g>
<!-- Node2&#45;&gt;Node10 -->
<g id="edge9_Node000002_Node000010" class="edge">
<title>Node2&#45;&gt;Node10</title>
<g id="a_edge9_Node000002_Node000010"><a xlink:title=" ">
<path fill="none" stroke="#63b8ff" d="M404.6,-54.98C378.8,-46.16 338.28,-32.31 309.32,-22.41"/>
<polygon fill="#63b8ff" stroke="#63b8ff" points="310.19,-19.01 299.6,-19.08 307.93,-25.63 310.19,-19.01"/>
</a>
</g>
</g>
<!-- Node11 -->
<g id="Node000011" class="node">
<title>Node11</title>
<g id="a_Node000011"><a xlink:title=" ">
<polygon fill="#e0e0e0" stroke="#999999" points="892.5,-19 834.5,-19 834.5,0 892.5,0 892.5,-19"/>
<text text-anchor="middle" x="863.5" y="-7" font-family="Helvetica,sans-Serif" font-size="10.00">memory</text>
</a>
</g>
</g>
<!-- Node2&#45;&gt;Node11 -->
<g id="edge10_Node000002_Node000011" class="edge">
<title>Node2&#45;&gt;Node11</title>
<g id="a_edge10_Node000002_Node000011"><a xlink:title=" ">
<path fill="none" stroke="#63b8ff" d="M462.06,-57.28C466.89,-56.45 471.82,-55.66 476.5,-55 627.57,-33.58 669.79,-43.61 823.8,-19.1"/>
<polygon fill="#63b8ff" stroke="#63b8ff" points="824.79,-22.48 834.11,-17.43 823.68,-15.57 824.79,-22.48"/>
</a>
</g>
</g>
<!-- Node12 -->
<g id="Node000012" class="node">
<title>Node12</title>
<g id="a_Node000012"><a xlink:title=" ">
<polygon fill="#e0e0e0" stroke="#999999" points="504.5,-19 472.5,-19 472.5,0 504.5,0 504.5,-19"/>
<text text-anchor="middle" x="488.5" y="-7" font-family="Helvetica,sans-Serif" font-size="10.00">set</text>
</a>
</g>
</g>
<!-- Node2&#45;&gt;Node12 -->
<g id="edge11_Node000002_Node000012" class="edge">
<title>Node2&#45;&gt;Node12</title>
<g id="a_edge11_Node000002_Node000012"><a xlink:title=" ">
<path fill="none" stroke="#63b8ff" d="M438.98,-54.98C447.7,-47.15 460.84,-35.34 471.4,-25.86"/>
<polygon fill="#63b8ff" stroke="#63b8ff" points="473.75,-28.46 478.85,-19.17 469.07,-23.25 473.75,-28.46"/>
</a>
</g>
</g>
<!-- Node13 -->
<g id="Node000013" class="node">
<title>Node13</title>
<g id="a_Node000013"><a xlink:title=" ">
<polygon fill="#e0e0e0" stroke="#999999" points="588,-19 523,-19 523,0 588,0 588,-19"/>
<text text-anchor="middle" x="555.5" y="-7" font-family="Helvetica,sans-Serif" font-size="10.00">typeindex</text>
</a>
</g>
</g>
<!-- Node2&#45;&gt;Node13 -->
<g id="edge12_Node000002_Node000013" class="edge">
<title>Node2&#45;&gt;Node13</title>
<g id="a_edge12_Node000002_Node000013"><a xlink:title=" ">
<path fill="none" stroke="#63b8ff" d="M449.74,-54.98C470.2,-46.38 502.03,-32.99 525.43,-23.15"/>
<polygon fill="#63b8ff" stroke="#63b8ff" points="527.03,-26.27 534.89,-19.17 524.31,-19.82 527.03,-26.27"/>
</a>
</g>
</g>
<!-- Node14 -->
<g id="Node000014" class="node">
<title>Node14</title>
<g id="a_Node000014"><a xlink:title=" ">
<polygon fill="#e0e0e0" stroke="#999999" points="1020.5,-19 910.5,-19 910.5,0 1020.5,0 1020.5,-19"/>
<text text-anchor="middle" x="965.5" y="-7" font-family="Helvetica,sans-Serif" font-size="10.00">SFML/Graphics.hpp</text>
</a>
</g>
</g>
<!-- Node2&#45;&gt;Node14 -->
<g id="edge13_Node000002_Node000014" class="edge">
<title>Node2&#45;&gt;Node14</title>
<g id="a_edge13_Node000002_Node000014"><a xlink:title=" ">
<path fill="none" stroke="#63b8ff" d="M462.19,-60.18C477.99,-58.59 497.23,-56.67 514.5,-55 683.17,-38.72 728.15,-38.38 900.19,-19.11"/>
<polygon fill="#63b8ff" stroke="#63b8ff" points="900.81,-22.56 910.36,-17.96 900.03,-15.6 900.81,-22.56"/>
</a>
</g>
</g>
<!-- Node15 -->
<g id="Node000015" class="node">
<title>Node15</title>
<g id="a_Node000015"><a xlink:title=" ">
<polygon fill="#e0e0e0" stroke="#999999" points="755,-19 606,-19 606,0 755,0 755,-19"/>
<text text-anchor="middle" x="680.5" y="-7" font-family="Helvetica,sans-Serif" font-size="10.00">SFML/Graphics/Texture.hpp</text>
</a>
</g>
</g>
<!-- Node2&#45;&gt;Node15 -->
<g id="edge14_Node000002_Node000015" class="edge">
<title>Node2&#45;&gt;Node15</title>
<g id="a_edge14_Node000002_Node000015"><a xlink:title=" ">
<path fill="none" stroke="#63b8ff" d="M462.06,-56.63C504.75,-47.61 580.08,-31.71 630.15,-21.13"/>
<polygon fill="#63b8ff" stroke="#63b8ff" points="631.05,-24.52 640.12,-19.03 629.61,-17.67 631.05,-24.52"/>
</a>
</g>
</g>
<!-- Node16 -->
<g id="Node000016" class="node">
<title>Node16</title>
<g id="a_Node000016"><a xlink:title=" ">
<polygon fill="#e0e0e0" stroke="#999999" points="1412,-19 1317,-19 1317,0 1412,0 1412,-19"/>
<text text-anchor="middle" x="1364.5" y="-7" font-family="Helvetica,sans-Serif" font-size="10.00">SFML/Audio.hpp</text>
</a>
</g>
</g>
<!-- Node2&#45;&gt;Node16 -->
<g id="edge15_Node000002_Node000016" class="edge">
<title>Node2&#45;&gt;Node16</title>
<g id="a_edge15_Node000002_Node000016"><a xlink:title=" ">
<path fill="none" stroke="#63b8ff" d="M462.05,-61C485.74,-59.22 518.6,-56.83 547.5,-55 832.13,-37 1172.81,-19.86 1306.57,-13.31"/>
<polygon fill="#63b8ff" stroke="#63b8ff" points="1306.78,-16.8 1316.6,-12.82 1306.44,-9.81 1306.78,-16.8"/>
</a>
</g>
</g>
<!-- Node17 -->
<g id="Node000017" class="node">
<title>Node17</title>
<g id="a_Node000017"><a xlink:title=" ">
<polygon fill="#e0e0e0" stroke="#999999" points="1655.5,-19 1569.5,-19 1569.5,0 1655.5,0 1655.5,-19"/>
<text text-anchor="middle" x="1612.5" y="-7" font-family="Helvetica,sans-Serif" font-size="10.00">unordered_set</text>
</a>
</g>
</g>
<!-- Node2&#45;&gt;Node17 -->
<g id="edge16_Node000002_Node000017" class="edge">
<title>Node2&#45;&gt;Node17</title>
<g id="a_edge16_Node000002_Node000017"><a xlink:title=" ">
<path fill="none" stroke="#63b8ff" d="M462.04,-60.89C485.73,-59.05 518.59,-56.64 547.5,-55 935.65,-33.03 1033.08,-35.64 1421.5,-19 1467.88,-17.01 1520.59,-14.66 1558.87,-12.93"/>
<polygon fill="#63b8ff" stroke="#63b8ff" points="1559.43,-16.41 1569.26,-12.46 1559.12,-9.42 1559.43,-16.41"/>
</a>
</g>
</g>
<!-- Node18&#45;&gt;Node2 -->
<g id="edge18_Node000018_Node000002" class="edge">
<title>Node18&#45;&gt;Node2</title>
<g id="a_edge18_Node000018_Node000002"><a xlink:title=" ">
<path fill="none" stroke="#63b8ff" d="M429.5,-109.75C429.5,-102.8 429.5,-92.85 429.5,-84.13"/>
<polygon fill="#63b8ff" stroke="#63b8ff" points="433,-84.09 429.5,-74.09 426,-84.09 433,-84.09"/>
</a>
</g>
</g>
<!-- Node19&#45;&gt;Node2 -->
<g id="edge20_Node000019_Node000002" class="edge">
<title>Node19&#45;&gt;Node2</title>
<g id="a_edge20_Node000019_Node000002"><a xlink:title=" ">
<path fill="none" stroke="#63b8ff" d="M378.61,-219.93C372.23,-211.4 363.19,-197.65 359.5,-184 357.29,-175.85 357.97,-173.3 359.5,-165 364.25,-139.27 365.74,-131.61 380.5,-110 388.22,-98.7 399.36,-88.28 409.07,-80.37"/>
<polygon fill="#63b8ff" stroke="#63b8ff" points="411.38,-83.01 417.11,-74.1 407.08,-77.49 411.38,-83.01"/>
</a>
</g>
</g>
<!-- Node20 -->
<g id="Node000020" class="node">
<title>Node20</title>
<g id="a_Node000020"><a xlink:href="ComponentManager_8hpp.html" target="_top" xlink:title=" ">
<polygon fill="white" stroke="#666666" points="312.5,-184 176.5,-184 176.5,-165 312.5,-165 312.5,-184"/>
<text text-anchor="middle" x="244.5" y="-172" font-family="Helvetica,sans-Serif" font-size="10.00">ComponentManager.hpp</text>
</a>
</g>
</g>
<!-- Node19&#45;&gt;Node20 -->
<g id="edge21_Node000019_Node000020" class="edge">
<title>Node19&#45;&gt;Node20</title>
<g id="a_edge21_Node000019_Node000020"><a xlink:title=" ">
<path fill="none" stroke="#63b8ff" d="M362.85,-219.98C339.65,-211.27 303.38,-197.63 277.1,-187.75"/>
<polygon fill="#63b8ff" stroke="#63b8ff" points="278.16,-184.41 267.57,-184.17 275.7,-190.97 278.16,-184.41"/>
</a>
</g>
</g>
<!-- Node24 -->
<g id="Node000024" class="node">
<title>Node24</title>
<g id="a_Node000024"><a xlink:href="SystemeManager_8hpp.html" target="_top" xlink:title=" ">
<polygon fill="white" stroke="#666666" points="490.5,-184 368.5,-184 368.5,-165 490.5,-165 490.5,-184"/>
<text text-anchor="middle" x="429.5" y="-172" font-family="Helvetica,sans-Serif" font-size="10.00">SystemeManager.hpp</text>
</a>
</g>
</g>
<!-- Node19&#45;&gt;Node24 -->
<g id="edge30_Node000019_Node000024" class="edge">
<title>Node19&#45;&gt;Node24</title>
<g id="a_edge30_Node000019_Node000024"><a xlink:title=" ">
<path fill="none" stroke="#63b8ff" d="M392.77,-219.75C399.04,-212.18 408.29,-201.05 415.93,-191.84"/>
<polygon fill="#63b8ff" stroke="#63b8ff" points="418.67,-194.02 422.37,-184.09 413.29,-189.55 418.67,-194.02"/>
</a>
</g>
</g>
<!-- Node21 -->
<g id="Node000021" class="node">
<title>Node21</title>
<g id="a_Node000021"><a xlink:href="Component_8hpp.html" target="_top" xlink:title=" ">
<polygon fill="white" stroke="#666666" points="291.5,-129 197.5,-129 197.5,-110 291.5,-110 291.5,-129"/>
<text text-anchor="middle" x="244.5" y="-117" font-family="Helvetica,sans-Serif" font-size="10.00">Component.hpp</text>
</a>
</g>
</g>
<!-- Node20&#45;&gt;Node21 -->
<g id="edge22_Node000020_Node000021" class="edge">
<title>Node20&#45;&gt;Node21</title>
<g id="a_edge22_Node000020_Node000021"><a xlink:title=" ">
<path fill="none" stroke="#63b8ff" d="M244.5,-164.75C244.5,-157.8 244.5,-147.85 244.5,-139.13"/>
<polygon fill="#63b8ff" stroke="#63b8ff" points="248,-139.09 244.5,-129.09 241,-139.09 248,-139.09"/>
</a>
</g>
</g>
<!-- Node21&#45;&gt;Node2 -->
<g id="edge23_Node000021_Node000002" class="edge">
<title>Node21&#45;&gt;Node2</title>
<g id="a_edge23_Node000021_Node000002"><a xlink:title=" ">
<path fill="none" stroke="#63b8ff" d="M274.22,-109.98C305.55,-101.01 355.07,-86.82 389.74,-76.89"/>
<polygon fill="#63b8ff" stroke="#63b8ff" points="390.89,-80.2 399.54,-74.08 388.97,-73.47 390.89,-80.2"/>
</a>
</g>
</g>
<!-- Node21&#45;&gt;Node5 -->
<g id="edge24_Node000021_Node000005" class="edge">
<title>Node21&#45;&gt;Node5</title>
<g id="a_edge24_Node000021_Node000005"><a xlink:title=" ">
<path fill="none" stroke="#63b8ff" d="M233.45,-109.66C210.4,-91.22 156.93,-48.45 128.34,-25.57"/>
<polygon fill="#63b8ff" stroke="#63b8ff" points="130.32,-22.67 120.32,-19.16 125.95,-28.14 130.32,-22.67"/>
</a>
</g>
</g>
<!-- Node21&#45;&gt;Node10 -->
<g id="edge29_Node000021_Node000010" class="edge">
<title>Node21&#45;&gt;Node10</title>
<g id="a_edge29_Node000021_Node000010"><a xlink:title=" ">
<path fill="none" stroke="#63b8ff" d="M246.96,-109.66C251.84,-92.09 262.85,-52.45 269.37,-28.95"/>
<polygon fill="#63b8ff" stroke="#63b8ff" points="272.79,-29.73 272.09,-19.16 266.05,-27.86 272.79,-29.73"/>
</a>
</g>
</g>
<!-- Node22 -->
<g id="Node000022" class="node">
<title>Node22</title>
<g id="a_Node000022"><a xlink:href="LuaScript_8hpp.html" target="_top" xlink:title=" ">
<polygon fill="white" stroke="#666666" points="152,-74 69,-74 69,-55 152,-55 152,-74"/>
<text text-anchor="middle" x="110.5" y="-62" font-family="Helvetica,sans-Serif" font-size="10.00">LuaScript.hpp</text>
</a>
</g>
</g>
<!-- Node21&#45;&gt;Node22 -->
<g id="edge25_Node000021_Node000022" class="edge">
<title>Node21&#45;&gt;Node22</title>
<g id="a_edge25_Node000021_Node000022"><a xlink:title=" ">
<path fill="none" stroke="#63b8ff" d="M222.97,-109.98C201.03,-101.3 166.76,-87.75 141.81,-77.88"/>
<polygon fill="#63b8ff" stroke="#63b8ff" points="143.01,-74.59 132.42,-74.17 140.43,-81.1 143.01,-74.59"/>
</a>
</g>
</g>
<!-- Node22&#45;&gt;Node3 -->
<g id="edge28_Node000022_Node000003" class="edge">
<title>Node22&#45;&gt;Node3</title>
<g id="a_edge28_Node000022_Node000003"><a xlink:title=" ">
<path fill="none" stroke="#63b8ff" d="M121.59,-54.98C131.99,-47 147.76,-34.88 160.22,-25.31"/>
<polygon fill="#63b8ff" stroke="#63b8ff" points="162.41,-28.04 168.21,-19.17 158.15,-22.49 162.41,-28.04"/>
</a>
</g>
</g>
<!-- Node22&#45;&gt;Node5 -->
<g id="edge27_Node000022_Node000005" class="edge">
<title>Node22&#45;&gt;Node5</title>
<g id="a_edge27_Node000022_Node000005"><a xlink:title=" ">
<path fill="none" stroke="#63b8ff" d="M110.33,-54.75C110.2,-47.8 110.02,-37.85 109.85,-29.13"/>
<polygon fill="#63b8ff" stroke="#63b8ff" points="113.35,-29.02 109.66,-19.09 106.35,-29.15 113.35,-29.02"/>
</a>
</g>
</g>
<!-- Node23 -->
<g id="Node000023" class="node">
<title>Node23</title>
<g id="a_Node000023"><a xlink:title=" ">
<polygon fill="#e0e0e0" stroke="#999999" points="69,-19 0,-19 0,0 69,0 69,-19"/>
<text text-anchor="middle" x="34.5" y="-7" font-family="Helvetica,sans-Serif" font-size="10.00">sol/sol.hpp</text>
</a>
</g>
</g>
<!-- Node22&#45;&gt;Node23 -->
<g id="edge26_Node000022_Node000023" class="edge">
<title>Node22&#45;&gt;Node23</title>
<g id="a_edge26_Node000022_Node000023"><a xlink:title=" ">
<path fill="none" stroke="#63b8ff" d="M98.29,-54.98C86.72,-46.92 69.12,-34.65 55.34,-25.03"/>
<polygon fill="#63b8ff" stroke="#63b8ff" points="57.14,-22.02 46.93,-19.17 53.13,-27.76 57.14,-22.02"/>
</a>
</g>
</g>
<!-- Node24&#45;&gt;Node18 -->
<g id="edge31_Node000024_Node000018" class="edge">
<title>Node24&#45;&gt;Node18</title>
<g id="a_edge31_Node000024_Node000018"><a xlink:title=" ">
<path fill="none" stroke="#63b8ff" d="M429.5,-164.75C429.5,-157.8 429.5,-147.85 429.5,-139.13"/>
<polygon fill="#63b8ff" stroke="#63b8ff" points="433,-139.09 429.5,-129.09 426,-139.09 433,-139.09"/>
</a>
</g>
</g>
<!-- Node25&#45;&gt;Node2 -->
<g id="edge57_Node000025_Node000002" class="edge">
<title>Node25&#45;&gt;Node2</title>
<g id="a_edge57_Node000025_Node000002"><a xlink:title=" ">
<path fill="none" stroke="#63b8ff" d="M1071.99,-117.17C970.17,-113.57 700.08,-101.94 476.5,-74 475.03,-73.82 473.55,-73.62 472.04,-73.41"/>
<polygon fill="#63b8ff" stroke="#63b8ff" points="472.46,-69.93 462.05,-71.86 471.39,-76.85 472.46,-69.93"/>
</a>
</g>
</g>
<!-- Node25&#45;&gt;Node3 -->
<g id="edge38_Node000025_Node000003" class="edge">
<title>Node25&#45;&gt;Node3</title>
<g id="a_edge38_Node000025_Node000003"><a xlink:title=" ">
<path fill="none" stroke="#63b8ff" d="M1071.87,-118.09C932.66,-116.41 484.26,-108.4 344.5,-74 324.61,-69.1 321.48,-62.71 302.5,-55 273.29,-43.13 239.57,-31.04 214.84,-22.47"/>
<polygon fill="#63b8ff" stroke="#63b8ff" points="215.76,-19.08 205.16,-19.13 213.48,-25.7 215.76,-19.08"/>
</a>
</g>
</g>
<!-- Node25&#45;&gt;Node5 -->
<g id="edge46_Node000025_Node000005" class="edge">
<title>Node25&#45;&gt;Node5</title>
<g id="a_edge46_Node000025_Node000005"><a xlink:title=" ">
<path fill="none" stroke="#63b8ff" d="M1071.75,-117.66C927.73,-114.53 452.33,-102.25 302.5,-74 242.84,-62.75 176.16,-37.92 138.87,-22.86"/>
<polygon fill="#63b8ff" stroke="#63b8ff" points="140.18,-19.62 129.6,-19.07 137.53,-26.1 140.18,-19.62"/>
</a>
</g>
</g>
<!-- Node25&#45;&gt;Node8 -->
<g id="edge56_Node000025_Node000008" class="edge">
<title>Node25&#45;&gt;Node8</title>
<g id="a_edge56_Node000025_Node000008"><a xlink:title=" ">
<path fill="none" stroke="#63b8ff" d="M1155.28,-119.02C1297.35,-120.37 1755.43,-121.02 1799.5,-74 1812.81,-59.8 1797.2,-39.79 1782.57,-26.04"/>
<polygon fill="#63b8ff" stroke="#63b8ff" points="1784.55,-23.12 1774.74,-19.13 1779.92,-28.37 1784.55,-23.12"/>
</a>
</g>
</g>
<!-- Node25&#45;&gt;Node9 -->
<g id="edge55_Node000025_Node000009" class="edge">
<title>Node25&#45;&gt;Node9</title>
<g id="a_edge55_Node000025_Node000009"><a xlink:title=" ">
<path fill="none" stroke="#63b8ff" d="M1155.31,-117.87C1297.59,-115.44 1757.42,-105.23 1815.5,-74 1833.89,-64.11 1847.3,-43.77 1855.19,-28.76"/>
<polygon fill="#63b8ff" stroke="#63b8ff" points="1858.52,-29.94 1859.77,-19.42 1852.23,-26.85 1858.52,-29.94"/>
</a>
</g>
</g>
<!-- Node25&#45;&gt;Node10 -->
<g id="edge40_Node000025_Node000010" class="edge">
<title>Node25&#45;&gt;Node10</title>
<g id="a_edge40_Node000025_Node000010"><a xlink:title=" ">
<path fill="none" stroke="#63b8ff" d="M1071.75,-118.38C937.35,-117.63 517.11,-112.2 387.5,-74 368.79,-68.48 323.58,-41.31 296.36,-24.34"/>
<polygon fill="#63b8ff" stroke="#63b8ff" points="298.21,-21.38 287.88,-19.03 294.49,-27.31 298.21,-21.38"/>
</a>
</g>
</g>
<!-- Node25&#45;&gt;Node11 -->
<g id="edge42_Node000025_Node000011" class="edge">
<title>Node25&#45;&gt;Node11</title>
<g id="a_edge42_Node000025_Node000011"><a xlink:title=" ">
<path fill="none" stroke="#63b8ff" d="M1071.58,-118.46C945.22,-117.9 574.55,-112.94 538.5,-74 532.76,-67.8 532.91,-61.33 538.5,-55 579.12,-8.97 746.18,-28.09 823.77,-18.87"/>
<polygon fill="#63b8ff" stroke="#63b8ff" points="824.7,-22.27 834.1,-17.37 823.7,-15.34 824.7,-22.27"/>
</a>
</g>
</g>
<!-- Node25&#45;&gt;Node14 -->
<g id="edge33_Node000025_Node000014" class="edge">
<title>Node25&#45;&gt;Node14</title>
<g id="a_edge33_Node000025_Node000014"><a xlink:title=" ">
<path fill="none" stroke="#63b8ff" d="M1071.79,-118.41C946.99,-117.69 582.92,-112.31 547.5,-74 495.36,-17.6 799.77,-27.46 900.22,-18.94"/>
<polygon fill="#63b8ff" stroke="#63b8ff" points="900.75,-22.41 910.36,-17.93 900.06,-15.44 900.75,-22.41"/>
</a>
</g>
</g>
<!-- Node25&#45;&gt;Node16 -->
<g id="edge36_Node000025_Node000016" class="edge">
<title>Node25&#45;&gt;Node16</title>
<g id="a_edge36_Node000025_Node000016"><a xlink:title=" ">
<path fill="none" stroke="#63b8ff" d="M1155.11,-118.87C1292.29,-119.66 1723.87,-118.57 1765.5,-74 1771.26,-67.83 1771.13,-61.29 1765.5,-55 1743.03,-29.9 1527.95,-17.4 1422.38,-12.73"/>
<polygon fill="#63b8ff" stroke="#63b8ff" points="1422.35,-9.23 1412.21,-12.29 1422.05,-16.22 1422.35,-9.23"/>
</a>
</g>
</g>
<!-- Node25&#45;&gt;Node17 -->
<g id="edge41_Node000025_Node000017" class="edge">
<title>Node25&#45;&gt;Node17</title>
<g id="a_edge41_Node000025_Node000017"><a xlink:title=" ">
<path fill="none" stroke="#63b8ff" d="M1155.15,-118.94C1294.6,-120 1738.72,-119.73 1781.5,-74 1818.57,-34.38 1728.23,-19.31 1665.84,-13.7"/>
<polygon fill="#63b8ff" stroke="#63b8ff" points="1665.96,-10.2 1655.7,-12.85 1665.37,-17.17 1665.96,-10.2"/>
</a>
</g>
</g>
<!-- Node26 -->
<g id="Node000026" class="node">
<title>Node26</title>
<g id="a_Node000026"><a xlink:title=" ">
<polygon fill="#e0e0e0" stroke="#999999" points="660.5,-74 556.5,-74 556.5,-55 660.5,-55 660.5,-74"/>
<text text-anchor="middle" x="608.5" y="-62" font-family="Helvetica,sans-Serif" font-size="10.00">SFML/System.hpp</text>
</a>
</g>
</g>
<!-- Node25&#45;&gt;Node26 -->
<g id="edge34_Node000025_Node000026" class="edge">
<title>Node25&#45;&gt;Node26</title>
<g id="a_edge34_Node000025_Node000026"><a xlink:title=" ">
<path fill="none" stroke="#63b8ff" d="M1071.91,-114.83C995.06,-107.93 825.37,-92.19 670.74,-73.98"/>
<polygon fill="#63b8ff" stroke="#63b8ff" points="670.92,-70.48 660.58,-72.78 670.1,-77.43 670.92,-70.48"/>
</a>
</g>
</g>
<!-- Node27 -->
<g id="Node000027" class="node">
<title>Node27</title>
<g id="a_Node000027"><a xlink:title=" ">
<polygon fill="#e0e0e0" stroke="#999999" points="784,-74 679,-74 679,-55 784,-55 784,-74"/>
<text text-anchor="middle" x="731.5" y="-62" font-family="Helvetica,sans-Serif" font-size="10.00">SFML/Window.hpp</text>
</a>
</g>
</g>
<!-- Node25&#45;&gt;Node27 -->
<g id="edge35_Node000025_Node000027" class="edge">
<title>Node25&#45;&gt;Node27</title>
<g id="a_edge35_Node000025_Node000027"><a xlink:title=" ">
<path fill="none" stroke="#63b8ff" d="M1071.89,-112.73C1004.9,-103.43 872.72,-85.09 794.24,-74.2"/>
<polygon fill="#63b8ff" stroke="#63b8ff" points="794.39,-70.69 784,-72.78 793.43,-77.63 794.39,-70.69"/>
</a>
</g>
</g>
<!-- Node28 -->
<g id="Node000028" class="node">
<title>Node28</title>
<g id="a_Node000028"><a xlink:title=" ">
<polygon fill="#e0e0e0" stroke="#999999" points="910.5,-74 802.5,-74 802.5,-55 910.5,-55 910.5,-74"/>
<text text-anchor="middle" x="856.5" y="-62" font-family="Helvetica,sans-Serif" font-size="10.00">SFML/Network.hpp</text>
</a>
</g>
</g>
<!-- Node25&#45;&gt;Node28 -->
<g id="edge37_Node000025_Node000028" class="edge">
<title>Node25&#45;&gt;Node28</title>
<g id="a_edge37_Node000025_Node000028"><a xlink:title=" ">
<path fill="none" stroke="#63b8ff" d="M1072.21,-109.98C1027.57,-100.78 956.34,-86.09 908.05,-76.13"/>
<polygon fill="#63b8ff" stroke="#63b8ff" points="908.62,-72.67 898.12,-74.08 907.2,-79.53 908.62,-72.67"/>
</a>
</g>
</g>
<!-- Node29 -->
<g id="Node000029" class="node">
<title>Node29</title>
<g id="a_Node000029"><a xlink:title=" ">
<polygon fill="#e0e0e0" stroke="#999999" points="976,-74 929,-74 929,-55 976,-55 976,-74"/>
<text text-anchor="middle" x="952.5" y="-62" font-family="Helvetica,sans-Serif" font-size="10.00">vector</text>
</a>
</g>
</g>
<!-- Node25&#45;&gt;Node29 -->
<g id="edge39_Node000025_Node000029" class="edge">
<title>Node25&#45;&gt;Node29</title>
<g id="a_edge39_Node000025_Node000029"><a xlink:title=" ">
<path fill="none" stroke="#63b8ff" d="M1087.63,-109.98C1060,-100.89 1016.11,-86.44 985.89,-76.49"/>
<polygon fill="#63b8ff" stroke="#63b8ff" points="986.8,-73.11 976.2,-73.3 984.61,-79.75 986.8,-73.11"/>
</a>
</g>
</g>
<!-- Node30 -->
<g id="Node000030" class="node">
<title>Node30</title>
<g id="a_Node000030"><a xlink:title=" ">
<polygon fill="#e0e0e0" stroke="#999999" points="1041,-74 994,-74 994,-55 1041,-55 1041,-74"/>
<text text-anchor="middle" x="1017.5" y="-62" font-family="Helvetica,sans-Serif" font-size="10.00">cmath</text>
</a>
</g>
</g>
<!-- Node25&#45;&gt;Node30 -->
<g id="edge43_Node000025_Node000030" class="edge">
<title>Node25&#45;&gt;Node30</title>
<g id="a_edge43_Node000025_Node000030"><a xlink:title=" ">
<path fill="none" stroke="#63b8ff" d="M1098.08,-109.98C1083.05,-101.69 1059.96,-88.94 1042.34,-79.22"/>
<polygon fill="#63b8ff" stroke="#63b8ff" points="1043.65,-75.94 1033.2,-74.17 1040.27,-82.07 1043.65,-75.94"/>
</a>
</g>
</g>
<!-- Node31 -->
<g id="Node000031" class="node">
<title>Node31</title>
<g id="a_Node000031"><a xlink:title=" ">
<polygon fill="#e0e0e0" stroke="#999999" points="1103.5,-74 1059.5,-74 1059.5,-55 1103.5,-55 1103.5,-74"/>
<text text-anchor="middle" x="1081.5" y="-62" font-family="Helvetica,sans-Serif" font-size="10.00">ctime</text>
</a>
</g>
</g>
<!-- Node25&#45;&gt;Node31 -->
<g id="edge44_Node000025_Node000031" class="edge">
<title>Node25&#45;&gt;Node31</title>
<g id="a_edge44_Node000025_Node000031"><a xlink:title=" ">
<path fill="none" stroke="#63b8ff" d="M1108.22,-109.75C1103.79,-102.42 1097.34,-91.73 1091.88,-82.7"/>
<polygon fill="#63b8ff" stroke="#63b8ff" points="1094.85,-80.84 1086.69,-74.09 1088.86,-84.46 1094.85,-80.84"/>
</a>
</g>
</g>
<!-- Node32 -->
<g id="Node000032" class="node">
<title>Node32</title>
<g id="a_Node000032"><a xlink:title=" ">
<polygon fill="#e0e0e0" stroke="#999999" points="1171,-74 1122,-74 1122,-55 1171,-55 1171,-74"/>
<text text-anchor="middle" x="1146.5" y="-62" font-family="Helvetica,sans-Serif" font-size="10.00">cstdlib</text>
</a>
</g>
</g>
<!-- Node25&#45;&gt;Node32 -->
<g id="edge45_Node000025_Node000032" class="edge">
<title>Node25&#45;&gt;Node32</title>
<g id="a_edge45_Node000025_Node000032"><a xlink:title=" ">
<path fill="none" stroke="#63b8ff" d="M1118.95,-109.75C1123.51,-102.42 1130.17,-91.73 1135.79,-82.7"/>
<polygon fill="#63b8ff" stroke="#63b8ff" points="1138.84,-84.43 1141.15,-74.09 1132.9,-80.73 1138.84,-84.43"/>
</a>
</g>
</g>
<!-- Node33 -->
<g id="Node000033" class="node">
<title>Node33</title>
<g id="a_Node000033"><a xlink:title=" ">
<polygon fill="#e0e0e0" stroke="#999999" points="1244,-74 1189,-74 1189,-55 1244,-55 1244,-74"/>
<text text-anchor="middle" x="1216.5" y="-62" font-family="Helvetica,sans-Serif" font-size="10.00">fstream</text>
</a>
</g>
</g>
<!-- Node25&#45;&gt;Node33 -->
<g id="edge47_Node000025_Node000033" class="edge">
<title>Node25&#45;&gt;Node33</title>
<g id="a_edge47_Node000025_Node000033"><a xlink:title=" ">
<path fill="none" stroke="#63b8ff" d="M1130.05,-109.98C1146.39,-101.57 1171.63,-88.59 1190.63,-78.81"/>
<polygon fill="#63b8ff" stroke="#63b8ff" points="1192.36,-81.86 1199.65,-74.17 1189.16,-75.63 1192.36,-81.86"/>
</a>
</g>
</g>
<!-- Node34 -->
<g id="Node000034" class="node">
<title>Node34</title>
<g id="a_Node000034"><a xlink:title=" ">
<polygon fill="#e0e0e0" stroke="#999999" points="1318.5,-74 1262.5,-74 1262.5,-55 1318.5,-55 1318.5,-74"/>
<text text-anchor="middle" x="1290.5" y="-62" font-family="Helvetica,sans-Serif" font-size="10.00">sstream</text>
</a>
</g>
</g>
<!-- Node25&#45;&gt;Node34 -->
<g id="edge48_Node000025_Node000034" class="edge">
<title>Node25&#45;&gt;Node34</title>
<g id="a_edge48_Node000025_Node000034"><a xlink:title=" ">
<path fill="none" stroke="#63b8ff" d="M1141.94,-109.98C1171.96,-100.99 1219.44,-86.78 1252.62,-76.84"/>
<polygon fill="#63b8ff" stroke="#63b8ff" points="1253.85,-80.13 1262.42,-73.91 1251.84,-73.42 1253.85,-80.13"/>
</a>
</g>
</g>
<!-- Node35 -->
<g id="Node000035" class="node">
<title>Node35</title>
<g id="a_Node000035"><a xlink:title=" ">
<polygon fill="#e0e0e0" stroke="#999999" points="1400.5,-74 1336.5,-74 1336.5,-55 1400.5,-55 1400.5,-74"/>
<text text-anchor="middle" x="1368.5" y="-62" font-family="Helvetica,sans-Serif" font-size="10.00">algorithm</text>
</a>
</g>
</g>
<!-- Node25&#45;&gt;Node35 -->
<g id="edge49_Node000025_Node000035" class="edge">
<title>Node25&#45;&gt;Node35</title>
<g id="a_edge49_Node000025_Node000035"><a xlink:title=" ">
<path fill="none" stroke="#63b8ff" d="M1154.47,-109.98C1201.56,-100.2 1278.46,-84.21 1326.13,-74.31"/>
<polygon fill="#63b8ff" stroke="#63b8ff" points="1327.05,-77.69 1336.13,-72.23 1325.62,-70.84 1327.05,-77.69"/>
</a>
</g>
</g>
<!-- Node36 -->
<g id="Node000036" class="node">
<title>Node36</title>
<g id="a_Node000036"><a xlink:title=" ">
<polygon fill="#e0e0e0" stroke="#999999" points="1484,-74 1419,-74 1419,-55 1484,-55 1484,-74"/>
<text text-anchor="middle" x="1451.5" y="-62" font-family="Helvetica,sans-Serif" font-size="10.00">functional</text>
</a>
</g>
</g>
<!-- Node25&#45;&gt;Node36 -->
<g id="edge50_Node000025_Node000036" class="edge">
<title>Node25&#45;&gt;Node36</title>
<g id="a_edge50_Node000025_Node000036"><a xlink:title=" ">
<path fill="none" stroke="#63b8ff" d="M1155.27,-112.9C1210.79,-105.3 1312.15,-90.92 1409.01,-74"/>
<polygon fill="#63b8ff" stroke="#63b8ff" points="1409.73,-77.43 1418.97,-72.25 1408.52,-70.54 1409.73,-77.43"/>
</a>
</g>
</g>
<!-- Node37 -->
<g id="Node000037" class="node">
<title>Node37</title>
<g id="a_Node000037"><a xlink:title=" ">
<polygon fill="#e0e0e0" stroke="#999999" points="1550.5,-74 1502.5,-74 1502.5,-55 1550.5,-55 1550.5,-74"/>
<text text-anchor="middle" x="1526.5" y="-62" font-family="Helvetica,sans-Serif" font-size="10.00">thread</text>
</a>
</g>
</g>
<!-- Node25&#45;&gt;Node37 -->
<g id="edge51_Node000025_Node000037" class="edge">
<title>Node25&#45;&gt;Node37</title>
<g id="a_edge51_Node000025_Node000037"><a xlink:title=" ">
<path fill="none" stroke="#63b8ff" d="M1155.11,-115.48C1223.52,-110.12 1364.18,-97.4 1492.44,-73.96"/>
<polygon fill="#63b8ff" stroke="#63b8ff" points="1493.24,-77.37 1502.43,-72.1 1491.96,-70.48 1493.24,-77.37"/>
</a>
</g>
</g>
<!-- Node38 -->
<g id="Node000038" class="node">
<title>Node38</title>
<g id="a_Node000038"><a xlink:title=" ">
<polygon fill="#e0e0e0" stroke="#999999" points="1616.5,-74 1568.5,-74 1568.5,-55 1616.5,-55 1616.5,-74"/>
<text text-anchor="middle" x="1592.5" y="-62" font-family="Helvetica,sans-Serif" font-size="10.00">mutex</text>
</a>
</g>
</g>
<!-- Node25&#45;&gt;Node38 -->
<g id="edge52_Node000025_Node000038" class="edge">
<title>Node25&#45;&gt;Node38</title>
<g id="a_edge52_Node000025_Node000038"><a xlink:title=" ">
<path fill="none" stroke="#63b8ff" d="M1155.3,-116.46C1232.91,-112.22 1404.62,-100.67 1558.34,-73.93"/>
<polygon fill="#63b8ff" stroke="#63b8ff" points="1559.2,-77.33 1568.44,-72.15 1557.99,-70.44 1559.2,-77.33"/>
</a>
</g>
</g>
<!-- Node39 -->
<g id="Node000039" class="node">
<title>Node39</title>
<g id="a_Node000039"><a xlink:title=" ">
<polygon fill="#e0e0e0" stroke="#999999" points="1684.5,-74 1634.5,-74 1634.5,-55 1684.5,-55 1684.5,-74"/>
<text text-anchor="middle" x="1659.5" y="-62" font-family="Helvetica,sans-Serif" font-size="10.00">chrono</text>
</a>
</g>
</g>
<!-- Node25&#45;&gt;Node39 -->
<g id="edge53_Node000025_Node000039" class="edge">
<title>Node25&#45;&gt;Node39</title>
<g id="a_edge53_Node000025_Node000039"><a xlink:title=" ">
<path fill="none" stroke="#63b8ff" d="M1155.26,-117.11C1241.35,-113.76 1444.83,-103.36 1624.45,-73.91"/>
<polygon fill="#63b8ff" stroke="#63b8ff" points="1625.05,-77.35 1634.34,-72.26 1623.9,-70.45 1625.05,-77.35"/>
</a>
</g>
</g>
<!-- Node40 -->
<g id="Node000040" class="node">
<title>Node40</title>
<g id="a_Node000040"><a xlink:title=" ">
<polygon fill="#e0e0e0" stroke="#999999" points="1756.5,-74 1702.5,-74 1702.5,-55 1756.5,-55 1756.5,-74"/>
<text text-anchor="middle" x="1729.5" y="-62" font-family="Helvetica,sans-Serif" font-size="10.00">random</text>
</a>
</g>
</g>
<!-- Node25&#45;&gt;Node40 -->
<g id="edge54_Node000025_Node000040" class="edge">
<title>Node25&#45;&gt;Node40</title>
<g id="a_edge54_Node000025_Node000040"><a xlink:title=" ">
<path fill="none" stroke="#63b8ff" d="M1155.25,-117.52C1249.43,-114.83 1485.64,-105.41 1692.33,-73.92"/>
<polygon fill="#63b8ff" stroke="#63b8ff" points="1693.11,-77.35 1702.46,-72.36 1692.04,-70.43 1693.11,-77.35"/>
</a>
</g>
</g>
</g>
</svg>

<g id="navigator" transform="translate(0 0)" fill="#404254">
  <rect fill="#f2f5e9" fill-opacity="0.5" stroke="#606060" stroke-width=".5" x="0" y="0" width="60" height="60"/>
  <use id="zoomplus" xlink:href="#zoomPlus" x="17" y="9" onmousedown="handleZoom(evt,'in')"/>
  <use id="zoomminus" xlink:href="#zoomMin" x="42" y="9" onmousedown="handleZoom(evt,'out')"/>
  <use id="reset" xlink:href="#resetDef" x="30" y="36" onmousedown="handleReset()"/>
   <use id="arrowup" xlink:href="#arrowUp" x="0" y="0" onmousedown="handlePan(0,-1)"/>
  <use id="arrowright" xlink:href="#arrowRight" x="0" y="0" onmousedown="handlePan(1,0)"/>
  <use id="arrowdown" xlink:href="#arrowDown" x="0" y="0" onmousedown="handlePan(0,1)"/>
  <use id="arrowleft" xlink:href="#arrowLeft" x="0" y="0" onmousedown="handlePan(-1,0)"/>
</g>
<svg viewBox="0 0 15 15" width="100%" height="30px" preserveAspectRatio="xMaxYMin meet">
 <g id="arrow_out" transform="scale(0.3 0.3)">
  <a xlink:href="CollisionSystem_8hpp__incl_org.svg" target="_base">
   <rect id="button" ry="5" rx="5" y="6" x="6" height="38" width="38"
        fill="#f2f5e9" fill-opacity="0.5" stroke="#606060" stroke-width="1.0"/>
   <path id="arrow"
     d="M 11.500037,31.436501 C 11.940474,20.09759 22.043105,11.32322 32.158766,21.979434 L 37.068811,17.246167 C 37.068811,17.246167 37.088388,32 37.088388,32 L 22.160133,31.978069 C 22.160133,31.978069 26.997745,27.140456 26.997745,27.140456 C 18.528582,18.264221 13.291696,25.230495 11.500037,31.436501 z"
     style="fill:#404040;"/>
  </a>
 </g>
</svg>

<style type='text/css'>
<![CDATA[
[data-mouse-over-selected='false'] { opacity: 0.7; }
[data-mouse-over-selected='true']  { opacity: 1.0; }
]]>
</style>
<script type="application/ecmascript"><![CDATA[
document.addEventListener('DOMContentLoaded', (event) => {
  highlightEdges();
  highlightAdjacentNodes();
});
]]></script>
</svg>
