<?xml version="1.0" encoding="UTF-8" standalone="no"?>
<!DOCTYPE svg PUBLIC "-//W3C//DTD SVG 1.1//EN"
 "http://www.w3.org/Graphics/SVG/1.1/DTD/svg11.dtd">
<!-- Generated by graphviz version 2.43.0 (0)
 -->
<!-- Title: GameEngine/src/GameLogic.cpp Pages: 1 -->
<!--zoomable 368 -->

<svg id="main" version="1.1" xmlns="http://www.w3.org/2000/svg" xmlns:xlink="http://www.w3.org/1999/xlink" xml:space="preserve" onload="init(evt)">
<style type="text/css"><![CDATA[
.node, .edge {opacity: 0.7;}
.node.selected, .edge.selected {opacity: 1;}
.edge:hover path { stroke: red; }
.edge:hover polygon { stroke: red; fill: red; }
]]></style>

<defs>
  <circle id="rim" cx="0" cy="0" r="7"/>
  <circle id="rim2" cx="0" cy="0" r="3.5"/>
  <g id="zoomPlus">
    <use xlink:href="#rim" fill="#404040"><set attributeName="fill" to="#808080" begin="zoomplus.mouseover" end="zoomplus.mouseout"/></use>
    <path d="M-4,0h8M0,-4v8" fill="none" stroke="white" stroke-width="1.5" pointer-events="none"/>
  </g>
  <g id="zoomMin">
    <use xlink:href="#rim" fill="#404040"><set attributeName="fill" to="#808080" begin="zoomminus.mouseover" end="zoomminus.mouseout"/></use>
    <path d="M-4,0h8" fill="none" stroke="white" stroke-width="1.5" pointer-events="none"/>
  </g>
  <g id="arrowUp" transform="translate(30 24)">
    <use xlink:href="#rim"/>
    <path pointer-events="none" fill="none" stroke="white" stroke-width="1.5" d="M0,-3.0v7 M-2.5,-0.5L0,-3.0L2.5,-0.5"/>
  </g>
  <g id="arrowRight" transform="rotate(90) translate(36 -43)">
    <use xlink:href="#rim"/>
    <path pointer-events="none" fill="none" stroke="white" stroke-width="1.5" d="M0,-3.0v7 M-2.5,-0.5L0,-3.0L2.5,-0.5"/>
  </g>
  <g id="arrowDown" transform="rotate(180) translate(-30 -48)">
    <use xlink:href="#rim"/>
    <path pointer-events="none" fill="none" stroke="white" stroke-width="1.5" d="M0,-3.0v7 M-2.5,-0.5L0,-3.0L2.5,-0.5"/>
  </g>
  <g id="arrowLeft" transform="rotate(270) translate(-36 17)">
    <use xlink:href="#rim"/>
    <path pointer-events="none" fill="none" stroke="white" stroke-width="1.5" d="M0,-3.0v7 M-2.5,-0.5L0,-3.0L2.5,-0.5"/>
  </g>
  <g id="resetDef">
    <use xlink:href="#rim2" fill="#404040"><set attributeName="fill" to="#808080" begin="reset.mouseover" end="reset.mouseout"/></use>
  </g>
</defs>
<script type="application/ecmascript">
var viewWidth = 1882;
var viewHeight = 368;
var sectionId = 'dynsection-0';
</script>
<script type="application/ecmascript" xlink:href="svg.min.js"/>
<svg id="graph" class="graph">
<g id="viewport">
<title>GameEngine/src/GameLogic.cpp</title>
<!-- Node1 -->
<g id="Node000001" class="node">
<title>Node1</title>
<g id="a_Node000001"><a xlink:title=" ">
<polygon fill="#999999" stroke="#666666" points="1639,-360 1465,-360 1465,-341 1639,-341 1639,-360"/>
<text text-anchor="middle" x="1552" y="-348" font-family="Helvetica,sans-Serif" font-size="10.00">GameEngine/src/GameLogic.cpp</text>
</a>
</g>
</g>
<!-- Node2 -->
<g id="Node000002" class="node">
<title>Node2</title>
<g id="a_Node000002"><a xlink:href="GameLogic_8hpp.html" target="_top" xlink:title=" ">
<polygon fill="white" stroke="#666666" points="1622,-305 1482,-305 1482,-286 1622,-286 1622,-305"/>
<text text-anchor="middle" x="1552" y="-293" font-family="Helvetica,sans-Serif" font-size="10.00">../Include/GameLogic.hpp</text>
</a>
</g>
</g>
<!-- Node1&#45;&gt;Node2 -->
<g id="edge1_Node000001_Node000002" class="edge">
<title>Node1&#45;&gt;Node2</title>
<g id="a_edge1_Node000001_Node000002"><a xlink:title=" ">
<path fill="none" stroke="#63b8ff" d="M1552,-340.75C1552,-333.8 1552,-323.85 1552,-315.13"/>
<polygon fill="#63b8ff" stroke="#63b8ff" points="1555.5,-315.09 1552,-305.09 1548.5,-315.09 1555.5,-315.09"/>
</a>
</g>
</g>
<!-- Node3 -->
<g id="Node000003" class="node">
<title>Node3</title>
<g id="a_Node000003"><a xlink:href="Mediator_8hpp.html" target="_top" xlink:title=" ">
<polygon fill="white" stroke="#666666" points="387,-250 307,-250 307,-231 387,-231 387,-250"/>
<text text-anchor="middle" x="347" y="-238" font-family="Helvetica,sans-Serif" font-size="10.00">Mediator.hpp</text>
</a>
</g>
</g>
<!-- Node2&#45;&gt;Node3 -->
<g id="edge2_Node000002_Node000003" class="edge">
<title>Node2&#45;&gt;Node3</title>
<g id="a_edge2_Node000002_Node000003"><a xlink:title=" ">
<path fill="none" stroke="#63b8ff" d="M1481.56,-291.4C1261.09,-281.7 587.62,-252.08 397.47,-243.72"/>
<polygon fill="#63b8ff" stroke="#63b8ff" points="397.36,-240.21 387.21,-243.27 397.05,-247.2 397.36,-240.21"/>
</a>
</g>
</g>
<!-- Node16 -->
<g id="Node000016" class="node">
<title>Node16</title>
<g id="a_Node000016"><a xlink:title=" ">
<polygon fill="#e0e0e0" stroke="#999999" points="1874,-19 1764,-19 1764,0 1874,0 1874,-19"/>
<text text-anchor="middle" x="1819" y="-7" font-family="Helvetica,sans-Serif" font-size="10.00">SFML/Graphics.hpp</text>
</a>
</g>
</g>
<!-- Node2&#45;&gt;Node16 -->
<g id="edge58_Node000002_Node000016" class="edge">
<title>Node2&#45;&gt;Node16</title>
<g id="a_edge58_Node000002_Node000016"><a xlink:title=" ">
<path fill="none" stroke="#63b8ff" d="M1610.45,-286C1699.01,-271.45 1857,-238.25 1857,-186.5 1857,-186.5 1857,-186.5 1857,-124 1857,-88.48 1840.06,-49.79 1828.8,-28"/>
<polygon fill="#63b8ff" stroke="#63b8ff" points="1831.78,-26.16 1823.97,-19 1825.61,-29.47 1831.78,-26.16"/>
</a>
</g>
</g>
<!-- Node23 -->
<g id="Node000023" class="node">
<title>Node23</title>
<g id="a_Node000023"><a xlink:title=" ">
<polygon fill="#e0e0e0" stroke="#999999" points="451.5,-19 382.5,-19 382.5,0 451.5,0 451.5,-19"/>
<text text-anchor="middle" x="417" y="-7" font-family="Helvetica,sans-Serif" font-size="10.00">sol/sol.hpp</text>
</a>
</g>
</g>
<!-- Node2&#45;&gt;Node23 -->
<g id="edge31_Node000002_Node000023" class="edge">
<title>Node2&#45;&gt;Node23</title>
<g id="a_edge31_Node000002_Node000023"><a xlink:title=" ">
<path fill="none" stroke="#63b8ff" d="M1573.36,-286C1606.62,-271.19 1667,-237.31 1667,-186.5 1667,-186.5 1667,-186.5 1667,-124 1667,-84.22 1645.72,-72.51 1610,-55 1497.89,-0.03 628.3,-31.66 461.85,-18.67"/>
<polygon fill="#63b8ff" stroke="#63b8ff" points="461.79,-15.15 451.51,-17.71 461.14,-22.12 461.79,-15.15"/>
</a>
</g>
</g>
<!-- Node26 -->
<g id="Node000026" class="node">
<title>Node26</title>
<g id="a_Node000026"><a xlink:href="Quadtree_8hpp.html" target="_top" xlink:title=" ">
<polygon fill="white" stroke="#666666" points="1165.5,-140 1030.5,-140 1030.5,-110 1165.5,-110 1165.5,-140"/>
<text text-anchor="start" x="1038.5" y="-128" font-family="Helvetica,sans-Serif" font-size="10.00">../../GameEngine/Include</text>
<text text-anchor="middle" x="1098" y="-117" font-family="Helvetica,sans-Serif" font-size="10.00">/Quadtree.hpp</text>
</a>
</g>
</g>
<!-- Node2&#45;&gt;Node26 -->
<g id="edge32_Node000002_Node000026" class="edge">
<title>Node2&#45;&gt;Node26</title>
<g id="a_edge32_Node000002_Node000026"><a xlink:title=" ">
<path fill="none" stroke="#63b8ff" d="M1528.86,-285.91C1457.85,-259.56 1241.99,-179.44 1145.5,-143.63"/>
<polygon fill="#63b8ff" stroke="#63b8ff" points="1146.58,-140.3 1135.99,-140.1 1144.14,-146.86 1146.58,-140.3"/>
</a>
</g>
</g>
<!-- Node4 -->
<g id="Node000004" class="node">
<title>Node4</title>
<g id="a_Node000004"><a xlink:href="Entity_8hpp.html" target="_top" xlink:title=" ">
<polygon fill="white" stroke="#666666" points="344.5,-74 279.5,-74 279.5,-55 344.5,-55 344.5,-74"/>
<text text-anchor="middle" x="312" y="-62" font-family="Helvetica,sans-Serif" font-size="10.00">Entity.hpp</text>
</a>
</g>
</g>
<!-- Node3&#45;&gt;Node4 -->
<g id="edge3_Node000003_Node000004" class="edge">
<title>Node3&#45;&gt;Node4</title>
<g id="a_edge3_Node000003_Node000004"><a xlink:title=" ">
<path fill="none" stroke="#63b8ff" d="M340.32,-230.87C334.09,-222.29 325.17,-208.51 321,-195 309.31,-157.09 309.44,-110.08 310.66,-84.41"/>
<polygon fill="#63b8ff" stroke="#63b8ff" points="314.17,-84.42 311.26,-74.23 307.18,-84.01 314.17,-84.42"/>
</a>
</g>
</g>
<!-- Node20 -->
<g id="Node000020" class="node">
<title>Node20</title>
<g id="a_Node000020"><a xlink:href="ComponentManager_8hpp.html" target="_top" xlink:title=" ">
<polygon fill="white" stroke="#666666" points="263,-195 127,-195 127,-176 263,-176 263,-195"/>
<text text-anchor="middle" x="195" y="-183" font-family="Helvetica,sans-Serif" font-size="10.00">ComponentManager.hpp</text>
</a>
</g>
</g>
<!-- Node3&#45;&gt;Node20 -->
<g id="edge19_Node000003_Node000020" class="edge">
<title>Node3&#45;&gt;Node20</title>
<g id="a_edge19_Node000003_Node000020"><a xlink:title=" ">
<path fill="none" stroke="#63b8ff" d="M322.58,-230.98C297.28,-222.16 257.55,-208.31 229.14,-198.41"/>
<polygon fill="#63b8ff" stroke="#63b8ff" points="230.21,-195.07 219.61,-195.08 227.9,-201.68 230.21,-195.07"/>
</a>
</g>
</g>
<!-- Node24 -->
<g id="Node000024" class="node">
<title>Node24</title>
<g id="a_Node000024"><a xlink:href="SystemeManager_8hpp.html" target="_top" xlink:title=" ">
<polygon fill="white" stroke="#666666" points="452,-195 330,-195 330,-176 452,-176 452,-195"/>
<text text-anchor="middle" x="391" y="-183" font-family="Helvetica,sans-Serif" font-size="10.00">SystemeManager.hpp</text>
</a>
</g>
</g>
<!-- Node3&#45;&gt;Node24 -->
<g id="edge28_Node000003_Node000024" class="edge">
<title>Node3&#45;&gt;Node24</title>
<g id="a_edge28_Node000003_Node000024"><a xlink:title=" ">
<path fill="none" stroke="#63b8ff" d="M354.27,-230.75C360.54,-223.18 369.79,-212.05 377.43,-202.84"/>
<polygon fill="#63b8ff" stroke="#63b8ff" points="380.17,-205.02 383.87,-195.09 374.79,-200.55 380.17,-205.02"/>
</a>
</g>
</g>
<!-- Node5 -->
<g id="Node000005" class="node">
<title>Node5</title>
<g id="a_Node000005"><a xlink:title=" ">
<polygon fill="#e0e0e0" stroke="#999999" points="122,-19 62,-19 62,0 122,0 122,-19"/>
<text text-anchor="middle" x="92" y="-7" font-family="Helvetica,sans-Serif" font-size="10.00">iostream</text>
</a>
</g>
</g>
<!-- Node4&#45;&gt;Node5 -->
<g id="edge4_Node000004_Node000005" class="edge">
<title>Node4&#45;&gt;Node5</title>
<g id="a_edge4_Node000004_Node000005"><a xlink:title=" ">
<path fill="none" stroke="#63b8ff" d="M279.06,-55.57C239.86,-46.12 174.42,-30.36 132.25,-20.2"/>
<polygon fill="#63b8ff" stroke="#63b8ff" points="132.87,-16.75 122.32,-17.81 131.23,-23.55 132.87,-16.75"/>
</a>
</g>
</g>
<!-- Node6 -->
<g id="Node000006" class="node">
<title>Node6</title>
<g id="a_Node000006"><a xlink:title=" ">
<polygon fill="#e0e0e0" stroke="#999999" points="302,-19 252,-19 252,0 302,0 302,-19"/>
<text text-anchor="middle" x="277" y="-7" font-family="Helvetica,sans-Serif" font-size="10.00">cstdint</text>
</a>
</g>
</g>
<!-- Node4&#45;&gt;Node6 -->
<g id="edge5_Node000004_Node000006" class="edge">
<title>Node4&#45;&gt;Node6</title>
<g id="a_edge5_Node000004_Node000006"><a xlink:title=" ">
<path fill="none" stroke="#63b8ff" d="M306.22,-54.75C301.38,-47.42 294.32,-36.73 288.36,-27.7"/>
<polygon fill="#63b8ff" stroke="#63b8ff" points="291.1,-25.5 282.67,-19.09 285.26,-29.36 291.1,-25.5"/>
</a>
</g>
</g>
<!-- Node7 -->
<g id="Node000007" class="node">
<title>Node7</title>
<g id="a_Node000007"><a xlink:title=" ">
<polygon fill="#e0e0e0" stroke="#999999" points="44,-19 0,-19 0,0 44,0 44,-19"/>
<text text-anchor="middle" x="22" y="-7" font-family="Helvetica,sans-Serif" font-size="10.00">string</text>
</a>
</g>
</g>
<!-- Node4&#45;&gt;Node7 -->
<g id="edge6_Node000004_Node000007" class="edge">
<title>Node4&#45;&gt;Node7</title>
<g id="a_edge6_Node000004_Node000007"><a xlink:title=" ">
<path fill="none" stroke="#63b8ff" d="M279.5,-58.96C232.06,-52.1 140.92,-38.07 54.28,-19.1"/>
<polygon fill="#63b8ff" stroke="#63b8ff" points="54.81,-15.64 44.29,-16.89 53.29,-22.47 54.81,-15.64"/>
</a>
</g>
</g>
<!-- Node8 -->
<g id="Node000008" class="node">
<title>Node8</title>
<g id="a_Node000008"><a xlink:title=" ">
<polygon fill="#e0e0e0" stroke="#999999" points="364,-19 320,-19 320,0 364,0 364,-19"/>
<text text-anchor="middle" x="342" y="-7" font-family="Helvetica,sans-Serif" font-size="10.00">bitset</text>
</a>
</g>
</g>
<!-- Node4&#45;&gt;Node8 -->
<g id="edge7_Node000004_Node000008" class="edge">
<title>Node4&#45;&gt;Node8</title>
<g id="a_edge7_Node000004_Node000008"><a xlink:title=" ">
<path fill="none" stroke="#63b8ff" d="M316.95,-54.75C321.06,-47.49 327.03,-36.95 332.1,-27.98"/>
<polygon fill="#63b8ff" stroke="#63b8ff" points="335.26,-29.52 337.14,-19.09 329.17,-26.07 335.26,-29.52"/>
</a>
</g>
</g>
<!-- Node9 -->
<g id="Node000009" class="node">
<title>Node9</title>
<g id="a_Node000009"><a xlink:title=" ">
<polygon fill="#e0e0e0" stroke="#999999" points="516.5,-19 469.5,-19 469.5,0 516.5,0 516.5,-19"/>
<text text-anchor="middle" x="493" y="-7" font-family="Helvetica,sans-Serif" font-size="10.00">queue</text>
</a>
</g>
</g>
<!-- Node4&#45;&gt;Node9 -->
<g id="edge8_Node000004_Node000009" class="edge">
<title>Node4&#45;&gt;Node9</title>
<g id="a_edge8_Node000004_Node000009"><a xlink:title=" ">
<path fill="none" stroke="#63b8ff" d="M341.08,-54.98C373.41,-45.52 425.54,-30.25 459.54,-20.3"/>
<polygon fill="#63b8ff" stroke="#63b8ff" points="460.86,-23.56 469.47,-17.39 458.89,-16.84 460.86,-23.56"/>
</a>
</g>
</g>
<!-- Node10 -->
<g id="Node000010" class="node">
<title>Node10</title>
<g id="a_Node000010"><a xlink:title=" ">
<polygon fill="#e0e0e0" stroke="#999999" points="1374,-19 1332,-19 1332,0 1374,0 1374,-19"/>
<text text-anchor="middle" x="1353" y="-7" font-family="Helvetica,sans-Serif" font-size="10.00">array</text>
</a>
</g>
</g>
<!-- Node4&#45;&gt;Node10 -->
<g id="edge9_Node000004_Node000010" class="edge">
<title>Node4&#45;&gt;Node10</title>
<g id="a_edge9_Node000004_Node000010"><a xlink:title=" ">
<path fill="none" stroke="#63b8ff" d="M344.66,-59.59C359.14,-57.96 376.4,-56.19 392,-55 756.94,-27.19 1201.26,-14.38 1321.66,-11.27"/>
<polygon fill="#63b8ff" stroke="#63b8ff" points="1321.76,-14.77 1331.66,-11.02 1321.58,-7.77 1321.76,-14.77"/>
</a>
</g>
</g>
<!-- Node11 -->
<g id="Node000011" class="node">
<title>Node11</title>
<g id="a_Node000011"><a xlink:title=" ">
<polygon fill="#e0e0e0" stroke="#999999" points="1573,-19 1521,-19 1521,0 1573,0 1573,-19"/>
<text text-anchor="middle" x="1547" y="-7" font-family="Helvetica,sans-Serif" font-size="10.00">cassert</text>
</a>
</g>
</g>
<!-- Node4&#45;&gt;Node11 -->
<g id="edge10_Node000004_Node000011" class="edge">
<title>Node4&#45;&gt;Node11</title>
<g id="a_edge10_Node000004_Node000011"><a xlink:title=" ">
<path fill="none" stroke="#63b8ff" d="M344.65,-59.51C359.13,-57.88 376.4,-56.11 392,-55 831.62,-23.7 942.69,-38.41 1383,-19 1426.95,-17.06 1477.5,-14.37 1510.73,-12.54"/>
<polygon fill="#63b8ff" stroke="#63b8ff" points="1511.08,-16.03 1520.87,-11.98 1510.7,-9.04 1511.08,-16.03"/>
</a>
</g>
</g>
<!-- Node12 -->
<g id="Node000012" class="node">
<title>Node12</title>
<g id="a_Node000012"><a xlink:title=" ">
<polygon fill="#e0e0e0" stroke="#999999" points="233.5,-19 140.5,-19 140.5,0 233.5,0 233.5,-19"/>
<text text-anchor="middle" x="187" y="-7" font-family="Helvetica,sans-Serif" font-size="10.00">unordered_map</text>
</a>
</g>
</g>
<!-- Node4&#45;&gt;Node12 -->
<g id="edge11_Node000004_Node000012" class="edge">
<title>Node4&#45;&gt;Node12</title>
<g id="a_edge11_Node000004_Node000012"><a xlink:title=" ">
<path fill="none" stroke="#63b8ff" d="M291.92,-54.98C271.63,-46.38 240.04,-32.99 216.83,-23.15"/>
<polygon fill="#63b8ff" stroke="#63b8ff" points="218.02,-19.85 207.45,-19.17 215.29,-26.3 218.02,-19.85"/>
</a>
</g>
</g>
<!-- Node13 -->
<g id="Node000013" class="node">
<title>Node13</title>
<g id="a_Node000013"><a xlink:title=" ">
<polygon fill="#e0e0e0" stroke="#999999" points="1714,-19 1656,-19 1656,0 1714,0 1714,-19"/>
<text text-anchor="middle" x="1685" y="-7" font-family="Helvetica,sans-Serif" font-size="10.00">memory</text>
</a>
</g>
</g>
<!-- Node4&#45;&gt;Node13 -->
<g id="edge12_Node000004_Node000013" class="edge">
<title>Node4&#45;&gt;Node13</title>
<g id="a_edge12_Node000004_Node000013"><a xlink:title=" ">
<path fill="none" stroke="#63b8ff" d="M344.65,-59.47C359.13,-57.82 376.39,-56.06 392,-55 919.91,-19.02 1053.71,-48.77 1582,-19 1603.01,-17.82 1626.39,-15.93 1645.55,-14.24"/>
<polygon fill="#63b8ff" stroke="#63b8ff" points="1646.08,-17.71 1655.73,-13.32 1645.45,-10.73 1646.08,-17.71"/>
</a>
</g>
</g>
<!-- Node14 -->
<g id="Node000014" class="node">
<title>Node14</title>
<g id="a_Node000014"><a xlink:title=" ">
<polygon fill="#e0e0e0" stroke="#999999" points="567,-19 535,-19 535,0 567,0 567,-19"/>
<text text-anchor="middle" x="551" y="-7" font-family="Helvetica,sans-Serif" font-size="10.00">set</text>
</a>
</g>
</g>
<!-- Node4&#45;&gt;Node14 -->
<g id="edge13_Node000004_Node000014" class="edge">
<title>Node4&#45;&gt;Node14</title>
<g id="a_edge13_Node000004_Node000014"><a xlink:title=" ">
<path fill="none" stroke="#63b8ff" d="M344.85,-57.18C392.39,-47.96 478.92,-30.85 525.18,-18.9"/>
<polygon fill="#63b8ff" stroke="#63b8ff" points="526.2,-22.25 534.95,-16.28 524.39,-15.49 526.2,-22.25"/>
</a>
</g>
</g>
<!-- Node15 -->
<g id="Node000015" class="node">
<title>Node15</title>
<g id="a_Node000015"><a xlink:title=" ">
<polygon fill="#e0e0e0" stroke="#999999" points="650.5,-19 585.5,-19 585.5,0 650.5,0 650.5,-19"/>
<text text-anchor="middle" x="618" y="-7" font-family="Helvetica,sans-Serif" font-size="10.00">typeindex</text>
</a>
</g>
</g>
<!-- Node4&#45;&gt;Node15 -->
<g id="edge14_Node000004_Node000015" class="edge">
<title>Node4&#45;&gt;Node15</title>
<g id="a_edge14_Node000004_Node000015"><a xlink:title=" ">
<path fill="none" stroke="#63b8ff" d="M344.61,-57.54C349.43,-56.68 354.34,-55.81 359,-55 452.22,-38.84 478.2,-36.82 575.5,-19.03"/>
<polygon fill="#63b8ff" stroke="#63b8ff" points="576.26,-22.45 585.46,-17.2 574.99,-15.57 576.26,-22.45"/>
</a>
</g>
</g>
<!-- Node4&#45;&gt;Node16 -->
<g id="edge15_Node000004_Node000016" class="edge">
<title>Node4&#45;&gt;Node16</title>
<g id="a_edge15_Node000004_Node000016"><a xlink:title=" ">
<path fill="none" stroke="#63b8ff" d="M344.64,-59.44C359.13,-57.8 376.39,-56.04 392,-55 982.47,-15.71 1132.21,-53.11 1723,-19 1732.96,-18.42 1743.49,-17.66 1753.78,-16.82"/>
<polygon fill="#63b8ff" stroke="#63b8ff" points="1754.29,-20.29 1763.96,-15.96 1753.7,-13.31 1754.29,-20.29"/>
</a>
</g>
</g>
<!-- Node17 -->
<g id="Node000017" class="node">
<title>Node17</title>
<g id="a_Node000017"><a xlink:title=" ">
<polygon fill="#e0e0e0" stroke="#999999" points="817.5,-19 668.5,-19 668.5,0 817.5,0 817.5,-19"/>
<text text-anchor="middle" x="743" y="-7" font-family="Helvetica,sans-Serif" font-size="10.00">SFML/Graphics/Texture.hpp</text>
</a>
</g>
</g>
<!-- Node4&#45;&gt;Node17 -->
<g id="edge16_Node000004_Node000017" class="edge">
<title>Node4&#45;&gt;Node17</title>
<g id="a_edge16_Node000004_Node000017"><a xlink:title=" ">
<path fill="none" stroke="#63b8ff" d="M344.57,-57.33C349.4,-56.5 354.32,-55.69 359,-55 414.81,-46.73 562.93,-30.13 658.05,-19.71"/>
<polygon fill="#63b8ff" stroke="#63b8ff" points="658.67,-23.16 668.23,-18.59 657.91,-16.2 658.67,-23.16"/>
</a>
</g>
</g>
<!-- Node18 -->
<g id="Node000018" class="node">
<title>Node18</title>
<g id="a_Node000018"><a xlink:title=" ">
<polygon fill="#e0e0e0" stroke="#999999" points="930.5,-19 835.5,-19 835.5,0 930.5,0 930.5,-19"/>
<text text-anchor="middle" x="883" y="-7" font-family="Helvetica,sans-Serif" font-size="10.00">SFML/Audio.hpp</text>
</a>
</g>
</g>
<!-- Node4&#45;&gt;Node18 -->
<g id="edge17_Node000004_Node000018" class="edge">
<title>Node4&#45;&gt;Node18</title>
<g id="a_edge17_Node000004_Node000018"><a xlink:title=" ">
<path fill="none" stroke="#63b8ff" d="M344.55,-57.17C349.38,-56.36 354.31,-55.6 359,-55 562.68,-28.82 618.01,-42.23 825.38,-19.1"/>
<polygon fill="#63b8ff" stroke="#63b8ff" points="825.83,-22.57 835.37,-17.97 825.04,-15.62 825.83,-22.57"/>
</a>
</g>
</g>
<!-- Node19 -->
<g id="Node000019" class="node">
<title>Node19</title>
<g id="a_Node000019"><a xlink:title=" ">
<polygon fill="#e0e0e0" stroke="#999999" points="1056,-19 970,-19 970,0 1056,0 1056,-19"/>
<text text-anchor="middle" x="1013" y="-7" font-family="Helvetica,sans-Serif" font-size="10.00">unordered_set</text>
</a>
</g>
</g>
<!-- Node4&#45;&gt;Node19 -->
<g id="edge18_Node000004_Node000019" class="edge">
<title>Node4&#45;&gt;Node19</title>
<g id="a_edge18_Node000004_Node000019"><a xlink:title=" ">
<path fill="none" stroke="#63b8ff" d="M344.67,-59.73C359.15,-58.13 376.41,-56.34 392,-55 635.18,-34.1 696.92,-41.12 940,-19 946.34,-18.42 952.98,-17.75 959.56,-17.04"/>
<polygon fill="#63b8ff" stroke="#63b8ff" points="960.25,-20.48 969.8,-15.89 959.48,-13.52 960.25,-20.48"/>
</a>
</g>
</g>
<!-- Node21 -->
<g id="Node000021" class="node">
<title>Node21</title>
<g id="a_Node000021"><a xlink:href="Component_8hpp.html" target="_top" xlink:title=" ">
<polygon fill="white" stroke="#666666" points="222,-134.5 128,-134.5 128,-115.5 222,-115.5 222,-134.5"/>
<text text-anchor="middle" x="175" y="-122.5" font-family="Helvetica,sans-Serif" font-size="10.00">Component.hpp</text>
</a>
</g>
</g>
<!-- Node20&#45;&gt;Node21 -->
<g id="edge20_Node000020_Node000021" class="edge">
<title>Node20&#45;&gt;Node21</title>
<g id="a_edge20_Node000020_Node000021"><a xlink:title=" ">
<path fill="none" stroke="#63b8ff" d="M192.05,-175.87C189.21,-167.57 184.84,-154.78 181.23,-144.22"/>
<polygon fill="#63b8ff" stroke="#63b8ff" points="184.51,-143 177.96,-134.67 177.89,-145.26 184.51,-143"/>
</a>
</g>
</g>
<!-- Node21&#45;&gt;Node4 -->
<g id="edge21_Node000021_Node000004" class="edge">
<title>Node21&#45;&gt;Node4</title>
<g id="a_edge21_Node000021_Node000004"><a xlink:title=" ">
<path fill="none" stroke="#63b8ff" d="M194.92,-115.49C217.95,-105.66 256.08,-89.38 282.54,-78.08"/>
<polygon fill="#63b8ff" stroke="#63b8ff" points="284.23,-81.16 292.05,-74.02 281.48,-74.72 284.23,-81.16"/>
</a>
</g>
</g>
<!-- Node21&#45;&gt;Node7 -->
<g id="edge22_Node000021_Node000007" class="edge">
<title>Node21&#45;&gt;Node7</title>
<g id="a_edge22_Node000021_Node000007"><a xlink:title=" ">
<path fill="none" stroke="#63b8ff" d="M127.86,-122.67C92.14,-118.87 45.21,-107.31 21,-74 11.69,-61.19 13.14,-42.77 16.21,-29.06"/>
<polygon fill="#63b8ff" stroke="#63b8ff" points="19.62,-29.85 18.84,-19.28 12.86,-28.03 19.62,-29.85"/>
</a>
</g>
</g>
<!-- Node21&#45;&gt;Node12 -->
<g id="edge27_Node000021_Node000012" class="edge">
<title>Node21&#45;&gt;Node12</title>
<g id="a_edge27_Node000021_Node000012"><a xlink:title=" ">
<path fill="none" stroke="#63b8ff" d="M175.9,-115.47C177.83,-97.23 182.39,-54.07 185.03,-29.14"/>
<polygon fill="#63b8ff" stroke="#63b8ff" points="188.52,-29.44 186.09,-19.13 181.56,-28.71 188.52,-29.44"/>
</a>
</g>
</g>
<!-- Node22 -->
<g id="Node000022" class="node">
<title>Node22</title>
<g id="a_Node000022"><a xlink:href="LuaScript_8hpp.html" target="_top" xlink:title=" ">
<polygon fill="white" stroke="#666666" points="146.5,-74 63.5,-74 63.5,-55 146.5,-55 146.5,-74"/>
<text text-anchor="middle" x="105" y="-62" font-family="Helvetica,sans-Serif" font-size="10.00">LuaScript.hpp</text>
</a>
</g>
</g>
<!-- Node21&#45;&gt;Node22 -->
<g id="edge23_Node000021_Node000022" class="edge">
<title>Node21&#45;&gt;Node22</title>
<g id="a_edge23_Node000021_Node000022"><a xlink:title=" ">
<path fill="none" stroke="#63b8ff" d="M164.67,-115.37C153.81,-106.3 136.51,-91.84 123.33,-80.82"/>
<polygon fill="#63b8ff" stroke="#63b8ff" points="125.29,-77.89 115.37,-74.17 120.8,-83.27 125.29,-77.89"/>
</a>
</g>
</g>
<!-- Node22&#45;&gt;Node5 -->
<g id="edge26_Node000022_Node000005" class="edge">
<title>Node22&#45;&gt;Node5</title>
<g id="a_edge26_Node000022_Node000005"><a xlink:title=" ">
<path fill="none" stroke="#63b8ff" d="M102.85,-54.75C101.13,-47.72 98.65,-37.62 96.5,-28.84"/>
<polygon fill="#63b8ff" stroke="#63b8ff" points="99.89,-27.97 94.11,-19.09 93.09,-29.63 99.89,-27.97"/>
</a>
</g>
</g>
<!-- Node22&#45;&gt;Node7 -->
<g id="edge25_Node000022_Node000007" class="edge">
<title>Node22&#45;&gt;Node7</title>
<g id="a_edge25_Node000022_Node000007"><a xlink:title=" ">
<path fill="none" stroke="#63b8ff" d="M91.66,-54.98C78.91,-46.84 59.45,-34.41 44.33,-24.76"/>
<polygon fill="#63b8ff" stroke="#63b8ff" points="45.89,-21.6 35.58,-19.17 42.12,-27.5 45.89,-21.6"/>
</a>
</g>
</g>
<!-- Node22&#45;&gt;Node23 -->
<g id="edge24_Node000022_Node000023" class="edge">
<title>Node22&#45;&gt;Node23</title>
<g id="a_edge24_Node000022_Node000023"><a xlink:title=" ">
<path fill="none" stroke="#63b8ff" d="M146.84,-56.9C197.66,-48.81 286.27,-34.45 372.47,-19.05"/>
<polygon fill="#63b8ff" stroke="#63b8ff" points="373.2,-22.48 382.43,-17.27 371.97,-15.59 373.2,-22.48"/>
</a>
</g>
</g>
<!-- Node25 -->
<g id="Node000025" class="node">
<title>Node25</title>
<g id="a_Node000025"><a xlink:href="Systeme_8hpp.html" target="_top" xlink:title=" ">
<polygon fill="white" stroke="#666666" points="421,-134.5 341,-134.5 341,-115.5 421,-115.5 421,-134.5"/>
<text text-anchor="middle" x="381" y="-122.5" font-family="Helvetica,sans-Serif" font-size="10.00">Systeme.hpp</text>
</a>
</g>
</g>
<!-- Node24&#45;&gt;Node25 -->
<g id="edge29_Node000024_Node000025" class="edge">
<title>Node24&#45;&gt;Node25</title>
<g id="a_edge29_Node000024_Node000025"><a xlink:title=" ">
<path fill="none" stroke="#63b8ff" d="M389.52,-175.87C388.12,-167.66 385.96,-155.04 384.17,-144.55"/>
<polygon fill="#63b8ff" stroke="#63b8ff" points="387.62,-143.93 382.48,-134.67 380.72,-145.11 387.62,-143.93"/>
</a>
</g>
</g>
<!-- Node25&#45;&gt;Node4 -->
<g id="edge30_Node000025_Node000004" class="edge">
<title>Node25&#45;&gt;Node4</title>
<g id="a_edge30_Node000025_Node000004"><a xlink:title=" ">
<path fill="none" stroke="#63b8ff" d="M370.82,-115.37C360.12,-106.3 343.06,-91.84 330.07,-80.82"/>
<polygon fill="#63b8ff" stroke="#63b8ff" points="332.11,-77.96 322.22,-74.17 327.59,-83.3 332.11,-77.96"/>
</a>
</g>
</g>
<!-- Node26&#45;&gt;Node4 -->
<g id="edge57_Node000026_Node000004" class="edge">
<title>Node26&#45;&gt;Node4</title>
<g id="a_edge57_Node000026_Node000004"><a xlink:title=" ">
<path fill="none" stroke="#63b8ff" d="M1030.26,-121.94C899.87,-117.42 605.14,-104.49 359,-74 357.53,-73.82 356.04,-73.62 354.54,-73.41"/>
<polygon fill="#63b8ff" stroke="#63b8ff" points="354.96,-69.93 344.54,-71.87 353.89,-76.85 354.96,-69.93"/>
</a>
</g>
</g>
<!-- Node26&#45;&gt;Node5 -->
<g id="edge38_Node000026_Node000005" class="edge">
<title>Node26&#45;&gt;Node5</title>
<g id="a_edge38_Node000026_Node000005"><a xlink:title=" ">
<path fill="none" stroke="#63b8ff" d="M1030.49,-123.24C854.46,-120.74 384.72,-110.75 234,-74 189.88,-63.24 142.45,-39.22 115.09,-24"/>
<polygon fill="#63b8ff" stroke="#63b8ff" points="116.72,-20.89 106.29,-19.02 113.27,-26.99 116.72,-20.89"/>
</a>
</g>
</g>
<!-- Node26&#45;&gt;Node7 -->
<g id="edge46_Node000026_Node000007" class="edge">
<title>Node26&#45;&gt;Node7</title>
<g id="a_edge46_Node000026_Node000007"><a xlink:title=" ">
<path fill="none" stroke="#63b8ff" d="M1030.18,-122.62C805.12,-117.81 94.95,-100.59 54,-74 38.5,-63.94 30.19,-43.94 25.96,-29.06"/>
<polygon fill="#63b8ff" stroke="#63b8ff" points="29.35,-28.21 23.55,-19.34 22.56,-29.89 29.35,-28.21"/>
</a>
</g>
</g>
<!-- Node26&#45;&gt;Node10 -->
<g id="edge56_Node000026_Node000010" class="edge">
<title>Node26&#45;&gt;Node10</title>
<g id="a_edge56_Node000026_Node000010"><a xlink:title=" ">
<path fill="none" stroke="#63b8ff" d="M1165.63,-122.57C1301.14,-119 1595.58,-107.44 1626,-74 1631.68,-67.75 1631.47,-61.43 1626,-55 1595.28,-18.87 1449.47,-12 1384.44,-10.75"/>
<polygon fill="#63b8ff" stroke="#63b8ff" points="1384.41,-7.25 1374.36,-10.59 1384.3,-14.25 1384.41,-7.25"/>
</a>
</g>
</g>
<!-- Node26&#45;&gt;Node11 -->
<g id="edge55_Node000026_Node000011" class="edge">
<title>Node26&#45;&gt;Node11</title>
<g id="a_edge55_Node000026_Node000011"><a xlink:title=" ">
<path fill="none" stroke="#63b8ff" d="M1165.56,-122.77C1304.18,-119.56 1610.46,-108.57 1642,-74 1664.06,-49.82 1618.23,-30.43 1582.85,-19.7"/>
<polygon fill="#63b8ff" stroke="#63b8ff" points="1583.79,-16.33 1573.21,-16.91 1581.84,-23.06 1583.79,-16.33"/>
</a>
</g>
</g>
<!-- Node26&#45;&gt;Node12 -->
<g id="edge40_Node000026_Node000012" class="edge">
<title>Node26&#45;&gt;Node12</title>
<g id="a_edge40_Node000026_Node000012"><a xlink:title=" ">
<path fill="none" stroke="#63b8ff" d="M1030.33,-122.18C845.34,-116.89 340.34,-100.21 270,-74 242.78,-63.86 217.15,-41.57 201.76,-26.29"/>
<polygon fill="#63b8ff" stroke="#63b8ff" points="204.18,-23.76 194.69,-19.04 199.17,-28.64 204.18,-23.76"/>
</a>
</g>
</g>
<!-- Node26&#45;&gt;Node13 -->
<g id="edge42_Node000026_Node000013" class="edge">
<title>Node26&#45;&gt;Node13</title>
<g id="a_edge42_Node000026_Node000013"><a xlink:title=" ">
<path fill="none" stroke="#63b8ff" d="M1165.72,-121.82C1306.09,-116.75 1618.98,-102.39 1658,-74 1672.36,-63.55 1679.14,-43.92 1682.31,-29.24"/>
<polygon fill="#63b8ff" stroke="#63b8ff" points="1685.79,-29.66 1684.09,-19.21 1678.89,-28.44 1685.79,-29.66"/>
</a>
</g>
</g>
<!-- Node26&#45;&gt;Node16 -->
<g id="edge33_Node000026_Node000016" class="edge">
<title>Node26&#45;&gt;Node16</title>
<g id="a_edge33_Node000026_Node000016"><a xlink:title=" ">
<path fill="none" stroke="#63b8ff" d="M1165.74,-121.06C1297.49,-114.85 1583.69,-98.93 1679,-74 1722.19,-62.7 1768.71,-39.06 1795.77,-24.02"/>
<polygon fill="#63b8ff" stroke="#63b8ff" points="1797.51,-27.06 1804.49,-19.1 1794.07,-20.97 1797.51,-27.06"/>
</a>
</g>
</g>
<!-- Node26&#45;&gt;Node18 -->
<g id="edge36_Node000026_Node000018" class="edge">
<title>Node26&#45;&gt;Node18</title>
<g id="a_edge36_Node000026_Node000018"><a xlink:title=" ">
<path fill="none" stroke="#63b8ff" d="M1030.22,-124.32C861.83,-124.42 434.93,-120.08 392,-74 327.53,-4.8 706.92,-28.8 825.38,-18.94"/>
<polygon fill="#63b8ff" stroke="#63b8ff" points="825.76,-22.42 835.37,-17.95 825.07,-15.46 825.76,-22.42"/>
</a>
</g>
</g>
<!-- Node26&#45;&gt;Node19 -->
<g id="edge41_Node000026_Node000019" class="edge">
<title>Node26&#45;&gt;Node19</title>
<g id="a_edge41_Node000026_Node000019"><a xlink:title=" ">
<path fill="none" stroke="#63b8ff" d="M1165.61,-122.35C1297.9,-118.43 1580.69,-106.31 1610,-74 1615.67,-67.75 1615.74,-61.19 1610,-55 1591.63,-35.21 1209.73,-18.23 1066.57,-12.53"/>
<polygon fill="#63b8ff" stroke="#63b8ff" points="1066.41,-9.03 1056.28,-12.13 1066.13,-16.02 1066.41,-9.03"/>
</a>
</g>
</g>
<!-- Node27 -->
<g id="Node000027" class="node">
<title>Node27</title>
<g id="a_Node000027"><a xlink:title=" ">
<polygon fill="#e0e0e0" stroke="#999999" points="505,-74 401,-74 401,-55 505,-55 505,-74"/>
<text text-anchor="middle" x="453" y="-62" font-family="Helvetica,sans-Serif" font-size="10.00">SFML/System.hpp</text>
</a>
</g>
</g>
<!-- Node26&#45;&gt;Node27 -->
<g id="edge34_Node000026_Node000027" class="edge">
<title>Node26&#45;&gt;Node27</title>
<g id="a_edge34_Node000026_Node000027"><a xlink:title=" ">
<path fill="none" stroke="#63b8ff" d="M1030.12,-119.3C923.13,-111.65 708.52,-95.29 515.14,-73.95"/>
<polygon fill="#63b8ff" stroke="#63b8ff" points="515.4,-70.46 505.07,-72.83 514.62,-77.42 515.4,-70.46"/>
</a>
</g>
</g>
<!-- Node28 -->
<g id="Node000028" class="node">
<title>Node28</title>
<g id="a_Node000028"><a xlink:title=" ">
<polygon fill="#e0e0e0" stroke="#999999" points="628.5,-74 523.5,-74 523.5,-55 628.5,-55 628.5,-74"/>
<text text-anchor="middle" x="576" y="-62" font-family="Helvetica,sans-Serif" font-size="10.00">SFML/Window.hpp</text>
</a>
</g>
</g>
<!-- Node26&#45;&gt;Node28 -->
<g id="edge35_Node000026_Node000028" class="edge">
<title>Node26&#45;&gt;Node28</title>
<g id="a_edge35_Node000026_Node000028"><a xlink:title=" ">
<path fill="none" stroke="#63b8ff" d="M1030.12,-117.22C942.34,-108.32 784.43,-91.86 638.77,-74.06"/>
<polygon fill="#63b8ff" stroke="#63b8ff" points="639.1,-70.58 628.75,-72.83 638.25,-77.53 639.1,-70.58"/>
</a>
</g>
</g>
<!-- Node29 -->
<g id="Node000029" class="node">
<title>Node29</title>
<g id="a_Node000029"><a xlink:title=" ">
<polygon fill="#e0e0e0" stroke="#999999" points="755,-74 647,-74 647,-55 755,-55 755,-74"/>
<text text-anchor="middle" x="701" y="-62" font-family="Helvetica,sans-Serif" font-size="10.00">SFML/Network.hpp</text>
</a>
</g>
</g>
<!-- Node26&#45;&gt;Node29 -->
<g id="edge37_Node000026_Node000029" class="edge">
<title>Node26&#45;&gt;Node29</title>
<g id="a_edge37_Node000026_Node000029"><a xlink:title=" ">
<path fill="none" stroke="#63b8ff" d="M1030.2,-114.01C955.96,-103.07 837.81,-85.66 765.08,-74.94"/>
<polygon fill="#63b8ff" stroke="#63b8ff" points="765.53,-71.47 755.12,-73.48 764.51,-78.4 765.53,-71.47"/>
</a>
</g>
</g>
<!-- Node30 -->
<g id="Node000030" class="node">
<title>Node30</title>
<g id="a_Node000030"><a xlink:title=" ">
<polygon fill="#e0e0e0" stroke="#999999" points="820.5,-74 773.5,-74 773.5,-55 820.5,-55 820.5,-74"/>
<text text-anchor="middle" x="797" y="-62" font-family="Helvetica,sans-Serif" font-size="10.00">vector</text>
</a>
</g>
</g>
<!-- Node26&#45;&gt;Node30 -->
<g id="edge39_Node000026_Node000030" class="edge">
<title>Node26&#45;&gt;Node30</title>
<g id="a_edge39_Node000026_Node000030"><a xlink:title=" ">
<path fill="none" stroke="#63b8ff" d="M1030.28,-112.67C978.28,-103.67 904.48,-90.25 830.68,-74.02"/>
<polygon fill="#63b8ff" stroke="#63b8ff" points="831.27,-70.57 820.75,-71.82 829.75,-77.4 831.27,-70.57"/>
</a>
</g>
</g>
<!-- Node31 -->
<g id="Node000031" class="node">
<title>Node31</title>
<g id="a_Node000031"><a xlink:title=" ">
<polygon fill="#e0e0e0" stroke="#999999" points="885.5,-74 838.5,-74 838.5,-55 885.5,-55 885.5,-74"/>
<text text-anchor="middle" x="862" y="-62" font-family="Helvetica,sans-Serif" font-size="10.00">cmath</text>
</a>
</g>
</g>
<!-- Node26&#45;&gt;Node31 -->
<g id="edge43_Node000026_Node000031" class="edge">
<title>Node26&#45;&gt;Node31</title>
<g id="a_edge43_Node000026_Node000031"><a xlink:title=" ">
<path fill="none" stroke="#63b8ff" d="M1040.21,-109.94C1001.87,-100.57 950.18,-87.86 895.64,-74.14"/>
<polygon fill="#63b8ff" stroke="#63b8ff" points="896.34,-70.71 885.79,-71.66 894.63,-77.5 896.34,-70.71"/>
</a>
</g>
</g>
<!-- Node32 -->
<g id="Node000032" class="node">
<title>Node32</title>
<g id="a_Node000032"><a xlink:title=" ">
<polygon fill="#e0e0e0" stroke="#999999" points="948,-74 904,-74 904,-55 948,-55 948,-74"/>
<text text-anchor="middle" x="926" y="-62" font-family="Helvetica,sans-Serif" font-size="10.00">ctime</text>
</a>
</g>
</g>
<!-- Node26&#45;&gt;Node32 -->
<g id="edge44_Node000026_Node000032" class="edge">
<title>Node26&#45;&gt;Node32</title>
<g id="a_edge44_Node000026_Node000032"><a xlink:title=" ">
<path fill="none" stroke="#63b8ff" d="M1056.8,-109.99C1026.53,-99.69 985.98,-85.9 958.1,-76.42"/>
<polygon fill="#63b8ff" stroke="#63b8ff" points="959.04,-73.04 948.44,-73.13 956.78,-79.67 959.04,-73.04"/>
</a>
</g>
</g>
<!-- Node33 -->
<g id="Node000033" class="node">
<title>Node33</title>
<g id="a_Node000033"><a xlink:title=" ">
<polygon fill="#e0e0e0" stroke="#999999" points="1015.5,-74 966.5,-74 966.5,-55 1015.5,-55 1015.5,-74"/>
<text text-anchor="middle" x="991" y="-62" font-family="Helvetica,sans-Serif" font-size="10.00">cstdlib</text>
</a>
</g>
</g>
<!-- Node26&#45;&gt;Node33 -->
<g id="edge45_Node000026_Node000033" class="edge">
<title>Node26&#45;&gt;Node33</title>
<g id="a_edge45_Node000026_Node000033"><a xlink:title=" ">
<path fill="none" stroke="#63b8ff" d="M1072.37,-109.99C1055.16,-100.58 1032.6,-88.24 1015.6,-78.95"/>
<polygon fill="#63b8ff" stroke="#63b8ff" points="1017.25,-75.87 1006.8,-74.14 1013.9,-82.01 1017.25,-75.87"/>
</a>
</g>
</g>
<!-- Node34 -->
<g id="Node000034" class="node">
<title>Node34</title>
<g id="a_Node000034"><a xlink:title=" ">
<polygon fill="#e0e0e0" stroke="#999999" points="1088.5,-74 1033.5,-74 1033.5,-55 1088.5,-55 1088.5,-74"/>
<text text-anchor="middle" x="1061" y="-62" font-family="Helvetica,sans-Serif" font-size="10.00">fstream</text>
</a>
</g>
</g>
<!-- Node26&#45;&gt;Node34 -->
<g id="edge47_Node000026_Node000034" class="edge">
<title>Node26&#45;&gt;Node34</title>
<g id="a_edge47_Node000026_Node000034"><a xlink:title=" ">
<path fill="none" stroke="#63b8ff" d="M1089.04,-109.84C1083.89,-101.69 1077.38,-91.4 1071.93,-82.78"/>
<polygon fill="#63b8ff" stroke="#63b8ff" points="1074.85,-80.85 1066.54,-74.27 1068.93,-84.59 1074.85,-80.85"/>
</a>
</g>
</g>
<!-- Node35 -->
<g id="Node000035" class="node">
<title>Node35</title>
<g id="a_Node000035"><a xlink:title=" ">
<polygon fill="#e0e0e0" stroke="#999999" points="1163,-74 1107,-74 1107,-55 1163,-55 1163,-74"/>
<text text-anchor="middle" x="1135" y="-62" font-family="Helvetica,sans-Serif" font-size="10.00">sstream</text>
</a>
</g>
</g>
<!-- Node26&#45;&gt;Node35 -->
<g id="edge48_Node000026_Node000035" class="edge">
<title>Node26&#45;&gt;Node35</title>
<g id="a_edge48_Node000026_Node000035"><a xlink:title=" ">
<path fill="none" stroke="#63b8ff" d="M1106.96,-109.84C1112.11,-101.69 1118.62,-91.4 1124.07,-82.78"/>
<polygon fill="#63b8ff" stroke="#63b8ff" points="1127.07,-84.59 1129.46,-74.27 1121.15,-80.85 1127.07,-84.59"/>
</a>
</g>
</g>
<!-- Node36 -->
<g id="Node000036" class="node">
<title>Node36</title>
<g id="a_Node000036"><a xlink:title=" ">
<polygon fill="#e0e0e0" stroke="#999999" points="1245,-74 1181,-74 1181,-55 1245,-55 1245,-74"/>
<text text-anchor="middle" x="1213" y="-62" font-family="Helvetica,sans-Serif" font-size="10.00">algorithm</text>
</a>
</g>
</g>
<!-- Node26&#45;&gt;Node36 -->
<g id="edge49_Node000026_Node000036" class="edge">
<title>Node26&#45;&gt;Node36</title>
<g id="a_edge49_Node000026_Node000036"><a xlink:title=" ">
<path fill="none" stroke="#63b8ff" d="M1125.55,-109.99C1144.22,-100.49 1168.74,-88.02 1187.06,-78.69"/>
<polygon fill="#63b8ff" stroke="#63b8ff" points="1188.69,-81.79 1196.02,-74.14 1185.52,-75.55 1188.69,-81.79"/>
</a>
</g>
</g>
<!-- Node37 -->
<g id="Node000037" class="node">
<title>Node37</title>
<g id="a_Node000037"><a xlink:title=" ">
<polygon fill="#e0e0e0" stroke="#999999" points="1328.5,-74 1263.5,-74 1263.5,-55 1328.5,-55 1328.5,-74"/>
<text text-anchor="middle" x="1296" y="-62" font-family="Helvetica,sans-Serif" font-size="10.00">functional</text>
</a>
</g>
</g>
<!-- Node26&#45;&gt;Node37 -->
<g id="edge50_Node000026_Node000037" class="edge">
<title>Node26&#45;&gt;Node37</title>
<g id="a_edge50_Node000026_Node000037"><a xlink:title=" ">
<path fill="none" stroke="#63b8ff" d="M1145.43,-109.99C1179.6,-99.89 1225.14,-86.44 1257.16,-76.98"/>
<polygon fill="#63b8ff" stroke="#63b8ff" points="1258.45,-80.24 1267.05,-74.05 1256.47,-73.53 1258.45,-80.24"/>
</a>
</g>
</g>
<!-- Node38 -->
<g id="Node000038" class="node">
<title>Node38</title>
<g id="a_Node000038"><a xlink:title=" ">
<polygon fill="#e0e0e0" stroke="#999999" points="1395,-74 1347,-74 1347,-55 1395,-55 1395,-74"/>
<text text-anchor="middle" x="1371" y="-62" font-family="Helvetica,sans-Serif" font-size="10.00">thread</text>
</a>
</g>
</g>
<!-- Node26&#45;&gt;Node38 -->
<g id="edge51_Node000026_Node000038" class="edge">
<title>Node26&#45;&gt;Node38</title>
<g id="a_edge51_Node000026_Node000038"><a xlink:title=" ">
<path fill="none" stroke="#63b8ff" d="M1165.69,-110.78C1211.51,-101.62 1273.65,-88.81 1337.1,-74.13"/>
<polygon fill="#63b8ff" stroke="#63b8ff" points="1337.94,-77.53 1346.88,-71.85 1336.35,-70.71 1337.94,-77.53"/>
</a>
</g>
</g>
<!-- Node39 -->
<g id="Node000039" class="node">
<title>Node39</title>
<g id="a_Node000039"><a xlink:title=" ">
<polygon fill="#e0e0e0" stroke="#999999" points="1461,-74 1413,-74 1413,-55 1461,-55 1461,-74"/>
<text text-anchor="middle" x="1437" y="-62" font-family="Helvetica,sans-Serif" font-size="10.00">mutex</text>
</a>
</g>
</g>
<!-- Node26&#45;&gt;Node39 -->
<g id="edge52_Node000026_Node000039" class="edge">
<title>Node26&#45;&gt;Node39</title>
<g id="a_edge52_Node000026_Node000039"><a xlink:title=" ">
<path fill="none" stroke="#63b8ff" d="M1165.78,-114.71C1225.76,-106.09 1315.82,-92.15 1403.1,-74.03"/>
<polygon fill="#63b8ff" stroke="#63b8ff" points="1403.84,-77.45 1412.91,-71.97 1402.4,-70.6 1403.84,-77.45"/>
</a>
</g>
</g>
<!-- Node40 -->
<g id="Node000040" class="node">
<title>Node40</title>
<g id="a_Node000040"><a xlink:title=" ">
<polygon fill="#e0e0e0" stroke="#999999" points="1529,-74 1479,-74 1479,-55 1529,-55 1529,-74"/>
<text text-anchor="middle" x="1504" y="-62" font-family="Helvetica,sans-Serif" font-size="10.00">chrono</text>
</a>
</g>
</g>
<!-- Node26&#45;&gt;Node40 -->
<g id="edge53_Node000026_Node000040" class="edge">
<title>Node26&#45;&gt;Node40</title>
<g id="a_edge53_Node000026_Node000040"><a xlink:title=" ">
<path fill="none" stroke="#63b8ff" d="M1165.57,-117.21C1238.2,-109.39 1357.18,-95.1 1468.74,-74.05"/>
<polygon fill="#63b8ff" stroke="#63b8ff" points="1469.65,-77.44 1478.82,-72.13 1468.34,-70.56 1469.65,-77.44"/>
</a>
</g>
</g>
<!-- Node41 -->
<g id="Node000041" class="node">
<title>Node41</title>
<g id="a_Node000041"><a xlink:title=" ">
<polygon fill="#e0e0e0" stroke="#999999" points="1601,-74 1547,-74 1547,-55 1601,-55 1601,-74"/>
<text text-anchor="middle" x="1574" y="-62" font-family="Helvetica,sans-Serif" font-size="10.00">random</text>
</a>
</g>
</g>
<!-- Node26&#45;&gt;Node41 -->
<g id="edge54_Node000026_Node000041" class="edge">
<title>Node26&#45;&gt;Node41</title>
<g id="a_edge54_Node000026_Node000041"><a xlink:title=" ">
<path fill="none" stroke="#63b8ff" d="M1165.82,-118.81C1250.43,-111.77 1399.65,-97.52 1536.68,-74.03"/>
<polygon fill="#63b8ff" stroke="#63b8ff" points="1537.69,-77.41 1546.94,-72.25 1536.49,-70.51 1537.69,-77.41"/>
</a>
</g>
</g>
</g>
</svg>

<g id="navigator" transform="translate(0 0)" fill="#404254">
  <rect fill="#f2f5e9" fill-opacity="0.5" stroke="#606060" stroke-width=".5" x="0" y="0" width="60" height="60"/>
  <use id="zoomplus" xlink:href="#zoomPlus" x="17" y="9" onmousedown="handleZoom(evt,'in')"/>
  <use id="zoomminus" xlink:href="#zoomMin" x="42" y="9" onmousedown="handleZoom(evt,'out')"/>
  <use id="reset" xlink:href="#resetDef" x="30" y="36" onmousedown="handleReset()"/>
   <use id="arrowup" xlink:href="#arrowUp" x="0" y="0" onmousedown="handlePan(0,-1)"/>
  <use id="arrowright" xlink:href="#arrowRight" x="0" y="0" onmousedown="handlePan(1,0)"/>
  <use id="arrowdown" xlink:href="#arrowDown" x="0" y="0" onmousedown="handlePan(0,1)"/>
  <use id="arrowleft" xlink:href="#arrowLeft" x="0" y="0" onmousedown="handlePan(-1,0)"/>
</g>
<svg viewBox="0 0 15 15" width="100%" height="30px" preserveAspectRatio="xMaxYMin meet">
 <g id="arrow_out" transform="scale(0.3 0.3)">
  <a xlink:href="GameLogic_8cpp__incl_org.svg" target="_base">
   <rect id="button" ry="5" rx="5" y="6" x="6" height="38" width="38"
        fill="#f2f5e9" fill-opacity="0.5" stroke="#606060" stroke-width="1.0"/>
   <path id="arrow"
     d="M 11.500037,31.436501 C 11.940474,20.09759 22.043105,11.32322 32.158766,21.979434 L 37.068811,17.246167 C 37.068811,17.246167 37.088388,32 37.088388,32 L 22.160133,31.978069 C 22.160133,31.978069 26.997745,27.140456 26.997745,27.140456 C 18.528582,18.264221 13.291696,25.230495 11.500037,31.436501 z"
     style="fill:#404040;"/>
  </a>
 </g>
</svg>

<style type='text/css'>
<![CDATA[
[data-mouse-over-selected='false'] { opacity: 0.7; }
[data-mouse-over-selected='true']  { opacity: 1.0; }
]]>
</style>
<script type="application/ecmascript"><![CDATA[
document.addEventListener('DOMContentLoaded', (event) => {
  highlightEdges();
  highlightAdjacentNodes();
});
]]></script>
</svg>
