<?xml version="1.0" encoding="UTF-8" standalone="no"?>
<!DOCTYPE svg PUBLIC "-//W3C//DTD SVG 1.1//EN"
 "http://www.w3.org/Graphics/SVG/1.1/DTD/svg11.dtd">
<!-- Generated by graphviz version 2.43.0 (0)
 -->
<!-- Title: Graphical Class Hierarchy Pages: 1 -->
<svg width="223pt" height="360pt"
 viewBox="0.00 0.00 223.00 360.00" xmlns="http://www.w3.org/2000/svg" xmlns:xlink="http://www.w3.org/1999/xlink">
<g id="graph0" class="graph" transform="scale(1 1) rotate(0) translate(4 356)">
<title>Graphical Class Hierarchy</title>
<!-- Node0 -->
<g id="Node000000" class="node">
<title>Node0</title>
<g id="a_Node000000"><a xlink:href="classSystem.html" target="_top" xlink:title=" ">
<polygon fill="white" stroke="#666666" points="53,-185 0,-185 0,-166 53,-166 53,-185"/>
<text text-anchor="middle" x="26.5" y="-173" font-family="Helvetica,sans-Serif" font-size="10.00">System</text>
</a>
</g>
</g>
<!-- Node1 -->
<g id="Node000001" class="node">
<title>Node1</title>
<g id="a_Node000001"><a xlink:href="classAnimationSystem.html" target="_top" xlink:title=" ">
<polygon fill="white" stroke="#666666" points="204,-352 100,-352 100,-333 204,-333 204,-352"/>
<text text-anchor="middle" x="152" y="-340" font-family="Helvetica,sans-Serif" font-size="10.00">AnimationSystem</text>
</a>
</g>
</g>
<!-- Node0&#45;&gt;Node1 -->
<g id="edge2_Node000000_Node000001" class="edge">
<title>Node0&#45;&gt;Node1</title>
<g id="a_edge2_Node000000_Node000001"><a xlink:title=" ">
<path fill="none" stroke="#63b8ff" d="M30.15,-195.42C35.46,-227.35 50.4,-289.89 89,-324.5 92.84,-327.94 97.3,-330.73 102.04,-332.98"/>
<polygon fill="#63b8ff" stroke="#63b8ff" points="33.55,-194.52 28.6,-185.15 26.63,-195.56 33.55,-194.52"/>
</a>
</g>
</g>
<!-- Node2 -->
<g id="Node000002" class="node">
<title>Node2</title>
<g id="a_Node000002"><a xlink:href="classBossSystem.html" target="_top" xlink:title=" ">
<polygon fill="white" stroke="#666666" points="190.5,-315 113.5,-315 113.5,-296 190.5,-296 190.5,-315"/>
<text text-anchor="middle" x="152" y="-303" font-family="Helvetica,sans-Serif" font-size="10.00">BossSystem</text>
</a>
</g>
</g>
<!-- Node0&#45;&gt;Node2 -->
<g id="edge3_Node000000_Node000002" class="edge">
<title>Node0&#45;&gt;Node2</title>
<g id="a_edge3_Node000000_Node000002"><a xlink:title=" ">
<path fill="none" stroke="#63b8ff" d="M33.09,-195.09C41.25,-220.19 58.84,-263.33 89,-287.5 96,-293.11 104.68,-296.97 113.3,-299.63"/>
<polygon fill="#63b8ff" stroke="#63b8ff" points="36.35,-193.79 30.07,-185.25 29.65,-195.84 36.35,-193.79"/>
</a>
</g>
</g>
<!-- Node3 -->
<g id="Node000003" class="node">
<title>Node3</title>
<g id="a_Node000003"><a xlink:href="classCollectableSystem.html" target="_top" xlink:title=" ">
<polygon fill="white" stroke="#666666" points="206,-278 98,-278 98,-259 206,-259 206,-278"/>
<text text-anchor="middle" x="152" y="-266" font-family="Helvetica,sans-Serif" font-size="10.00">CollectableSystem</text>
</a>
</g>
</g>
<!-- Node0&#45;&gt;Node3 -->
<g id="edge4_Node000000_Node000003" class="edge">
<title>Node0&#45;&gt;Node3</title>
<g id="a_edge4_Node000000_Node000003"><a xlink:title=" ">
<path fill="none" stroke="#63b8ff" d="M38.22,-194.16C48.96,-211.25 67.03,-236 89,-250.5 94.15,-253.9 99.94,-256.66 105.87,-258.91"/>
<polygon fill="#63b8ff" stroke="#63b8ff" points="40.93,-191.88 32.77,-185.13 34.94,-195.5 40.93,-191.88"/>
</a>
</g>
</g>
<!-- Node4 -->
<g id="Node000004" class="node">
<title>Node4</title>
<g id="a_Node000004"><a xlink:href="classCollisionSystem.html" target="_top" xlink:title=" ">
<polygon fill="white" stroke="#666666" points="199.5,-241 104.5,-241 104.5,-222 199.5,-222 199.5,-241"/>
<text text-anchor="middle" x="152" y="-229" font-family="Helvetica,sans-Serif" font-size="10.00">CollisionSystem</text>
</a>
</g>
</g>
<!-- Node0&#45;&gt;Node4 -->
<g id="edge5_Node000000_Node000004" class="edge">
<title>Node0&#45;&gt;Node4</title>
<g id="a_edge5_Node000000_Node000004"><a xlink:title=" ">
<path fill="none" stroke="#63b8ff" d="M49.05,-190.82C60.5,-198.43 75.06,-207.31 89,-213.5 96.27,-216.73 104.28,-219.55 112.06,-221.95"/>
<polygon fill="#63b8ff" stroke="#63b8ff" points="50.83,-187.8 40.6,-185.05 46.89,-193.58 50.83,-187.8"/>
</a>
</g>
</g>
<!-- Node5 -->
<g id="Node000005" class="node">
<title>Node5</title>
<g id="a_Node000005"><a xlink:href="classEnemySystem.html" target="_top" xlink:title=" ">
<polygon fill="white" stroke="#666666" points="195.5,-204 108.5,-204 108.5,-185 195.5,-185 195.5,-204"/>
<text text-anchor="middle" x="152" y="-192" font-family="Helvetica,sans-Serif" font-size="10.00">EnemySystem</text>
</a>
</g>
</g>
<!-- Node0&#45;&gt;Node5 -->
<g id="edge6_Node000000_Node000005" class="edge">
<title>Node0&#45;&gt;Node5</title>
<g id="a_edge6_Node000000_Node000005"><a xlink:title=" ">
<path fill="none" stroke="#63b8ff" d="M63.37,-181.02C77.46,-183.19 93.75,-185.69 108.43,-187.95"/>
<polygon fill="#63b8ff" stroke="#63b8ff" points="63.51,-177.5 53.09,-179.44 62.44,-184.42 63.51,-177.5"/>
</a>
</g>
</g>
<!-- Node6 -->
<g id="Node000006" class="node">
<title>Node6</title>
<g id="a_Node000006"><a xlink:href="classEnemy__Bullet__System.html" target="_top" xlink:title=" ">
<polygon fill="white" stroke="#666666" points="215,-167 89,-167 89,-148 215,-148 215,-167"/>
<text text-anchor="middle" x="152" y="-155" font-family="Helvetica,sans-Serif" font-size="10.00">Enemy_Bullet_System</text>
</a>
</g>
</g>
<!-- Node0&#45;&gt;Node6 -->
<g id="edge7_Node000000_Node000006" class="edge">
<title>Node0&#45;&gt;Node6</title>
<g id="a_edge7_Node000000_Node000006"><a xlink:title=" ">
<path fill="none" stroke="#63b8ff" d="M63.18,-170.3C71.22,-169.13 79.98,-167.85 88.76,-166.57"/>
<polygon fill="#63b8ff" stroke="#63b8ff" points="62.48,-166.86 53.09,-171.77 63.49,-173.79 62.48,-166.86"/>
</a>
</g>
</g>
<!-- Node7 -->
<g id="Node000007" class="node">
<title>Node7</title>
<g id="a_Node000007"><a xlink:href="classMovementSystem.html" target="_top" xlink:title=" ">
<polygon fill="white" stroke="#666666" points="205,-130 99,-130 99,-111 205,-111 205,-130"/>
<text text-anchor="middle" x="152" y="-118" font-family="Helvetica,sans-Serif" font-size="10.00">MovementSystem</text>
</a>
</g>
</g>
<!-- Node0&#45;&gt;Node7 -->
<g id="edge8_Node000000_Node000007" class="edge">
<title>Node0&#45;&gt;Node7</title>
<g id="a_edge8_Node000000_Node000007"><a xlink:title=" ">
<path fill="none" stroke="#63b8ff" d="M50.43,-160.36C61.71,-153.36 75.72,-145.33 89,-139.5 97.14,-135.93 106.17,-132.75 114.75,-130.06"/>
<polygon fill="#63b8ff" stroke="#63b8ff" points="48.23,-157.61 41.66,-165.93 51.98,-163.52 48.23,-157.61"/>
</a>
</g>
</g>
<!-- Node8 -->
<g id="Node000008" class="node">
<title>Node8</title>
<g id="a_Node000008"><a xlink:href="classObstacleSystem.html" target="_top" xlink:title=" ">
<polygon fill="white" stroke="#666666" points="200,-93 104,-93 104,-74 200,-74 200,-93"/>
<text text-anchor="middle" x="152" y="-81" font-family="Helvetica,sans-Serif" font-size="10.00">ObstacleSystem</text>
</a>
</g>
</g>
<!-- Node0&#45;&gt;Node8 -->
<g id="edge9_Node000000_Node000008" class="edge">
<title>Node0&#45;&gt;Node8</title>
<g id="a_edge9_Node000000_Node000008"><a xlink:title=" ">
<path fill="none" stroke="#63b8ff" d="M38.56,-157.15C49.43,-140.59 67.5,-116.71 89,-102.5 94.82,-98.65 101.46,-95.55 108.18,-93.07"/>
<polygon fill="#63b8ff" stroke="#63b8ff" points="35.39,-155.6 33.01,-165.92 41.31,-159.34 35.39,-155.6"/>
</a>
</g>
</g>
<!-- Node9 -->
<g id="Node000009" class="node">
<title>Node9</title>
<g id="a_Node000009"><a xlink:href="classProjectileSystem.html" target="_top" xlink:title=" ">
<polygon fill="white" stroke="#666666" points="201.5,-56 102.5,-56 102.5,-37 201.5,-37 201.5,-56"/>
<text text-anchor="middle" x="152" y="-44" font-family="Helvetica,sans-Serif" font-size="10.00">ProjectileSystem</text>
</a>
</g>
</g>
<!-- Node0&#45;&gt;Node9 -->
<g id="edge10_Node000000_Node000009" class="edge">
<title>Node0&#45;&gt;Node9</title>
<g id="a_edge10_Node000000_Node000009"><a xlink:title=" ">
<path fill="none" stroke="#63b8ff" d="M33.24,-156.33C41.57,-131.74 59.34,-89.44 89,-65.5 93.82,-61.61 99.43,-58.52 105.27,-56.05"/>
<polygon fill="#63b8ff" stroke="#63b8ff" points="29.87,-155.37 30.15,-165.96 36.54,-157.5 29.87,-155.37"/>
</a>
</g>
</g>
<!-- Node10 -->
<g id="Node000010" class="node">
<title>Node10</title>
<g id="a_Node000010"><a xlink:href="classRenderSystem.html" target="_top" xlink:title=" ">
<polygon fill="white" stroke="#666666" points="196,-19 108,-19 108,0 196,0 196,-19"/>
<text text-anchor="middle" x="152" y="-7" font-family="Helvetica,sans-Serif" font-size="10.00">RenderSystem</text>
</a>
</g>
</g>
<!-- Node0&#45;&gt;Node10 -->
<g id="edge11_Node000000_Node000010" class="edge">
<title>Node0&#45;&gt;Node10</title>
<g id="a_edge11_Node000000_Node000010"><a xlink:title=" ">
<path fill="none" stroke="#63b8ff" d="M30.37,-155.45C35.95,-123.9 51.2,-62.74 89,-28.5 94.34,-23.66 100.89,-20.06 107.7,-17.37"/>
<polygon fill="#63b8ff" stroke="#63b8ff" points="26.87,-155.2 28.73,-165.63 33.78,-156.31 26.87,-155.2"/>
</a>
</g>
</g>
</g>
</svg>
