<?xml version="1.0" encoding="UTF-8" standalone="no"?>
<!DOCTYPE svg PUBLIC "-//W3C//DTD SVG 1.1//EN"
 "http://www.w3.org/Graphics/SVG/1.1/DTD/svg11.dtd">
<!-- Generated by graphviz version 2.43.0 (0)
 -->
<!-- Title: GameEngine/src/Mediator.cpp Pages: 1 -->
<svg width="1379pt" height="302pt"
 viewBox="0.00 0.00 1378.50 302.00" xmlns="http://www.w3.org/2000/svg" xmlns:xlink="http://www.w3.org/1999/xlink">
<g id="graph0" class="graph" transform="scale(1 1) rotate(0) translate(4 298)">
<title>GameEngine/src/Mediator.cpp</title>
<!-- Node1 -->
<g id="Node000001" class="node">
<title>Node1</title>
<g id="a_Node000001"><a xlink:title=" ">
<polygon fill="#999999" stroke="#666666" points="548.5,-294 386.5,-294 386.5,-275 548.5,-275 548.5,-294"/>
<text text-anchor="middle" x="467.5" y="-282" font-family="Helvetica,sans-Serif" font-size="10.00">GameEngine/src/Mediator.cpp</text>
</a>
</g>
</g>
<!-- Node2 -->
<g id="Node000002" class="node">
<title>Node2</title>
<g id="a_Node000002"><a xlink:href="Mediator_8hpp.html" target="_top" xlink:title=" ">
<polygon fill="white" stroke="#666666" points="531.5,-239 403.5,-239 403.5,-220 531.5,-220 531.5,-239"/>
<text text-anchor="middle" x="467.5" y="-227" font-family="Helvetica,sans-Serif" font-size="10.00">../Include/Mediator.hpp</text>
</a>
</g>
</g>
<!-- Node1&#45;&gt;Node2 -->
<g id="edge1_Node000001_Node000002" class="edge">
<title>Node1&#45;&gt;Node2</title>
<g id="a_edge1_Node000001_Node000002"><a xlink:title=" ">
<path fill="none" stroke="#63b8ff" d="M467.5,-274.75C467.5,-267.8 467.5,-257.85 467.5,-249.13"/>
<polygon fill="#63b8ff" stroke="#63b8ff" points="471,-249.09 467.5,-239.09 464,-249.09 471,-249.09"/>
</a>
</g>
</g>
<!-- Node3 -->
<g id="Node000003" class="node">
<title>Node3</title>
<g id="a_Node000003"><a xlink:href="Entity_8hpp.html" target="_top" xlink:title=" ">
<polygon fill="white" stroke="#666666" points="589,-74 524,-74 524,-55 589,-55 589,-74"/>
<text text-anchor="middle" x="556.5" y="-62" font-family="Helvetica,sans-Serif" font-size="10.00">Entity.hpp</text>
</a>
</g>
</g>
<!-- Node2&#45;&gt;Node3 -->
<g id="edge2_Node000002_Node000003" class="edge">
<title>Node2&#45;&gt;Node3</title>
<g id="a_edge2_Node000002_Node000003"><a xlink:title=" ">
<path fill="none" stroke="#63b8ff" d="M490.43,-219.9C506.24,-212.74 526.34,-200.96 537.5,-184 557.56,-153.49 559.06,-109.22 558.01,-84.33"/>
<polygon fill="#63b8ff" stroke="#63b8ff" points="561.49,-83.86 557.38,-74.09 554.5,-84.29 561.49,-83.86"/>
</a>
</g>
</g>
<!-- Node19 -->
<g id="Node000019" class="node">
<title>Node19</title>
<g id="a_Node000019"><a xlink:href="ComponentManager_8hpp.html" target="_top" xlink:title=" ">
<polygon fill="white" stroke="#666666" points="365.5,-184 229.5,-184 229.5,-165 365.5,-165 365.5,-184"/>
<text text-anchor="middle" x="297.5" y="-172" font-family="Helvetica,sans-Serif" font-size="10.00">ComponentManager.hpp</text>
</a>
</g>
</g>
<!-- Node2&#45;&gt;Node19 -->
<g id="edge18_Node000002_Node000019" class="edge">
<title>Node2&#45;&gt;Node19</title>
<g id="a_edge18_Node000002_Node000019"><a xlink:title=" ">
<path fill="none" stroke="#63b8ff" d="M440.19,-219.98C411.65,-211.09 366.67,-197.07 334.86,-187.15"/>
<polygon fill="#63b8ff" stroke="#63b8ff" points="335.62,-183.72 325.03,-184.08 333.53,-190.4 335.62,-183.72"/>
</a>
</g>
</g>
<!-- Node23 -->
<g id="Node000023" class="node">
<title>Node23</title>
<g id="a_Node000023"><a xlink:href="SystemeManager_8hpp.html" target="_top" xlink:title=" ">
<polygon fill="white" stroke="#666666" points="528.5,-184 406.5,-184 406.5,-165 528.5,-165 528.5,-184"/>
<text text-anchor="middle" x="467.5" y="-172" font-family="Helvetica,sans-Serif" font-size="10.00">SystemeManager.hpp</text>
</a>
</g>
</g>
<!-- Node2&#45;&gt;Node23 -->
<g id="edge27_Node000002_Node000023" class="edge">
<title>Node2&#45;&gt;Node23</title>
<g id="a_edge27_Node000002_Node000023"><a xlink:title=" ">
<path fill="none" stroke="#63b8ff" d="M467.5,-219.75C467.5,-212.8 467.5,-202.85 467.5,-194.13"/>
<polygon fill="#63b8ff" stroke="#63b8ff" points="471,-194.09 467.5,-184.09 464,-194.09 471,-194.09"/>
</a>
</g>
</g>
<!-- Node4 -->
<g id="Node000004" class="node">
<title>Node4</title>
<g id="a_Node000004"><a xlink:title=" ">
<polygon fill="#e0e0e0" stroke="#999999" points="209.5,-19 149.5,-19 149.5,0 209.5,0 209.5,-19"/>
<text text-anchor="middle" x="179.5" y="-7" font-family="Helvetica,sans-Serif" font-size="10.00">iostream</text>
</a>
</g>
</g>
<!-- Node3&#45;&gt;Node4 -->
<g id="edge3_Node000003_Node000004" class="edge">
<title>Node3&#45;&gt;Node4</title>
<g id="a_edge3_Node000003_Node000004"><a xlink:title=" ">
<path fill="none" stroke="#63b8ff" d="M523.73,-60.11C464.86,-53.82 337.1,-39.26 219.57,-19.06"/>
<polygon fill="#63b8ff" stroke="#63b8ff" points="220.14,-15.6 209.68,-17.34 218.94,-22.5 220.14,-15.6"/>
</a>
</g>
</g>
<!-- Node5 -->
<g id="Node000005" class="node">
<title>Node5</title>
<g id="a_Node000005"><a xlink:title=" ">
<polygon fill="#e0e0e0" stroke="#999999" points="389.5,-19 339.5,-19 339.5,0 389.5,0 389.5,-19"/>
<text text-anchor="middle" x="364.5" y="-7" font-family="Helvetica,sans-Serif" font-size="10.00">cstdint</text>
</a>
</g>
</g>
<!-- Node3&#45;&gt;Node5 -->
<g id="edge4_Node000003_Node000005" class="edge">
<title>Node3&#45;&gt;Node5</title>
<g id="a_edge4_Node000003_Node000005"><a xlink:title=" ">
<path fill="none" stroke="#63b8ff" d="M525.65,-54.98C491.3,-45.5 435.89,-30.21 399.83,-20.25"/>
<polygon fill="#63b8ff" stroke="#63b8ff" points="400.33,-16.76 389.75,-17.47 398.46,-23.51 400.33,-16.76"/>
</a>
</g>
</g>
<!-- Node6 -->
<g id="Node000006" class="node">
<title>Node6</title>
<g id="a_Node000006"><a xlink:title=" ">
<polygon fill="#e0e0e0" stroke="#999999" points="131.5,-19 87.5,-19 87.5,0 131.5,0 131.5,-19"/>
<text text-anchor="middle" x="109.5" y="-7" font-family="Helvetica,sans-Serif" font-size="10.00">string</text>
</a>
</g>
</g>
<!-- Node3&#45;&gt;Node6 -->
<g id="edge5_Node000003_Node000006" class="edge">
<title>Node3&#45;&gt;Node6</title>
<g id="a_edge5_Node000003_Node000006"><a xlink:title=" ">
<path fill="none" stroke="#63b8ff" d="M523.88,-61.8C454.97,-57.83 289.46,-46.28 141.89,-18.97"/>
<polygon fill="#63b8ff" stroke="#63b8ff" points="142.23,-15.47 131.75,-17.06 140.93,-22.35 142.23,-15.47"/>
</a>
</g>
</g>
<!-- Node7 -->
<g id="Node000007" class="node">
<title>Node7</title>
<g id="a_Node000007"><a xlink:title=" ">
<polygon fill="#e0e0e0" stroke="#999999" points="451.5,-19 407.5,-19 407.5,0 451.5,0 451.5,-19"/>
<text text-anchor="middle" x="429.5" y="-7" font-family="Helvetica,sans-Serif" font-size="10.00">bitset</text>
</a>
</g>
</g>
<!-- Node3&#45;&gt;Node7 -->
<g id="edge6_Node000003_Node000007" class="edge">
<title>Node3&#45;&gt;Node7</title>
<g id="a_edge6_Node000003_Node000007"><a xlink:title=" ">
<path fill="none" stroke="#63b8ff" d="M536.1,-54.98C515.48,-46.38 483.39,-32.99 459.81,-23.15"/>
<polygon fill="#63b8ff" stroke="#63b8ff" points="460.85,-19.79 450.28,-19.17 458.16,-26.25 460.85,-19.79"/>
</a>
</g>
</g>
<!-- Node8 -->
<g id="Node000008" class="node">
<title>Node8</title>
<g id="a_Node000008"><a xlink:title=" ">
<polygon fill="#e0e0e0" stroke="#999999" points="517,-19 470,-19 470,0 517,0 517,-19"/>
<text text-anchor="middle" x="493.5" y="-7" font-family="Helvetica,sans-Serif" font-size="10.00">queue</text>
</a>
</g>
</g>
<!-- Node3&#45;&gt;Node8 -->
<g id="edge7_Node000003_Node000008" class="edge">
<title>Node3&#45;&gt;Node8</title>
<g id="a_edge7_Node000003_Node000008"><a xlink:title=" ">
<path fill="none" stroke="#63b8ff" d="M546.38,-54.98C537.06,-47.15 523.03,-35.34 511.76,-25.86"/>
<polygon fill="#63b8ff" stroke="#63b8ff" points="513.71,-22.93 503.81,-19.17 509.21,-28.29 513.71,-22.93"/>
</a>
</g>
</g>
<!-- Node9 -->
<g id="Node000009" class="node">
<title>Node9</title>
<g id="a_Node000009"><a xlink:title=" ">
<polygon fill="#e0e0e0" stroke="#999999" points="577.5,-19 535.5,-19 535.5,0 577.5,0 577.5,-19"/>
<text text-anchor="middle" x="556.5" y="-7" font-family="Helvetica,sans-Serif" font-size="10.00">array</text>
</a>
</g>
</g>
<!-- Node3&#45;&gt;Node9 -->
<g id="edge8_Node000003_Node000009" class="edge">
<title>Node3&#45;&gt;Node9</title>
<g id="a_edge8_Node000003_Node000009"><a xlink:title=" ">
<path fill="none" stroke="#63b8ff" d="M556.5,-54.75C556.5,-47.8 556.5,-37.85 556.5,-29.13"/>
<polygon fill="#63b8ff" stroke="#63b8ff" points="560,-29.09 556.5,-19.09 553,-29.09 560,-29.09"/>
</a>
</g>
</g>
<!-- Node10 -->
<g id="Node000010" class="node">
<title>Node10</title>
<g id="a_Node000010"><a xlink:title=" ">
<polygon fill="#e0e0e0" stroke="#999999" points="647.5,-19 595.5,-19 595.5,0 647.5,0 647.5,-19"/>
<text text-anchor="middle" x="621.5" y="-7" font-family="Helvetica,sans-Serif" font-size="10.00">cassert</text>
</a>
</g>
</g>
<!-- Node3&#45;&gt;Node10 -->
<g id="edge9_Node000003_Node000010" class="edge">
<title>Node3&#45;&gt;Node10</title>
<g id="a_edge9_Node000003_Node000010"><a xlink:title=" ">
<path fill="none" stroke="#63b8ff" d="M566.94,-54.98C576.65,-47.07 591.32,-35.11 603,-25.58"/>
<polygon fill="#63b8ff" stroke="#63b8ff" points="605.33,-28.2 610.87,-19.17 600.9,-22.78 605.33,-28.2"/>
</a>
</g>
</g>
<!-- Node11 -->
<g id="Node000011" class="node">
<title>Node11</title>
<g id="a_Node000011"><a xlink:title=" ">
<polygon fill="#e0e0e0" stroke="#999999" points="321,-19 228,-19 228,0 321,0 321,-19"/>
<text text-anchor="middle" x="274.5" y="-7" font-family="Helvetica,sans-Serif" font-size="10.00">unordered_map</text>
</a>
</g>
</g>
<!-- Node3&#45;&gt;Node11 -->
<g id="edge10_Node000003_Node000011" class="edge">
<title>Node3&#45;&gt;Node11</title>
<g id="a_edge10_Node000003_Node000011"><a xlink:title=" ">
<path fill="none" stroke="#63b8ff" d="M523.88,-57.37C476.42,-48.45 387.71,-31.78 329.89,-20.91"/>
<polygon fill="#63b8ff" stroke="#63b8ff" points="330.3,-17.43 319.83,-19.02 329.01,-24.31 330.3,-17.43"/>
</a>
</g>
</g>
<!-- Node12 -->
<g id="Node000012" class="node">
<title>Node12</title>
<g id="a_Node000012"><a xlink:title=" ">
<polygon fill="#e0e0e0" stroke="#999999" points="723.5,-19 665.5,-19 665.5,0 723.5,0 723.5,-19"/>
<text text-anchor="middle" x="694.5" y="-7" font-family="Helvetica,sans-Serif" font-size="10.00">memory</text>
</a>
</g>
</g>
<!-- Node3&#45;&gt;Node12 -->
<g id="edge11_Node000003_Node000012" class="edge">
<title>Node3&#45;&gt;Node12</title>
<g id="a_edge11_Node000003_Node000012"><a xlink:title=" ">
<path fill="none" stroke="#63b8ff" d="M578.67,-54.98C601.27,-46.3 636.56,-32.75 662.25,-22.88"/>
<polygon fill="#63b8ff" stroke="#63b8ff" points="663.84,-26.02 671.92,-19.17 661.33,-19.49 663.84,-26.02"/>
</a>
</g>
</g>
<!-- Node13 -->
<g id="Node000013" class="node">
<title>Node13</title>
<g id="a_Node000013"><a xlink:title=" ">
<polygon fill="#e0e0e0" stroke="#999999" points="773.5,-19 741.5,-19 741.5,0 773.5,0 773.5,-19"/>
<text text-anchor="middle" x="757.5" y="-7" font-family="Helvetica,sans-Serif" font-size="10.00">set</text>
</a>
</g>
</g>
<!-- Node3&#45;&gt;Node13 -->
<g id="edge12_Node000003_Node000013" class="edge">
<title>Node3&#45;&gt;Node13</title>
<g id="a_edge12_Node000003_Node000013"><a xlink:title=" ">
<path fill="none" stroke="#63b8ff" d="M589.15,-56.07C622.7,-48.26 676.63,-35.19 731.83,-19.02"/>
<polygon fill="#63b8ff" stroke="#63b8ff" points="732.83,-22.37 741.42,-16.18 730.84,-15.66 732.83,-22.37"/>
</a>
</g>
</g>
<!-- Node14 -->
<g id="Node000014" class="node">
<title>Node14</title>
<g id="a_Node000014"><a xlink:title=" ">
<polygon fill="#e0e0e0" stroke="#999999" points="857,-19 792,-19 792,0 857,0 857,-19"/>
<text text-anchor="middle" x="824.5" y="-7" font-family="Helvetica,sans-Serif" font-size="10.00">typeindex</text>
</a>
</g>
</g>
<!-- Node3&#45;&gt;Node14 -->
<g id="edge13_Node000003_Node000014" class="edge">
<title>Node3&#45;&gt;Node14</title>
<g id="a_edge13_Node000003_Node000014"><a xlink:title=" ">
<path fill="none" stroke="#63b8ff" d="M589.07,-57.14C631.11,-48.92 706.81,-34.09 781.84,-19.12"/>
<polygon fill="#63b8ff" stroke="#63b8ff" points="782.82,-22.5 791.94,-17.11 781.45,-15.63 782.82,-22.5"/>
</a>
</g>
</g>
<!-- Node15 -->
<g id="Node000015" class="node">
<title>Node15</title>
<g id="a_Node000015"><a xlink:title=" ">
<polygon fill="#e0e0e0" stroke="#999999" points="985.5,-19 875.5,-19 875.5,0 985.5,0 985.5,-19"/>
<text text-anchor="middle" x="930.5" y="-7" font-family="Helvetica,sans-Serif" font-size="10.00">SFML/Graphics.hpp</text>
</a>
</g>
</g>
<!-- Node3&#45;&gt;Node15 -->
<g id="edge14_Node000003_Node000015" class="edge">
<title>Node3&#45;&gt;Node15</title>
<g id="a_edge14_Node000003_Node000015"><a xlink:title=" ">
<path fill="none" stroke="#63b8ff" d="M589.04,-58.89C650.48,-50.18 784.63,-31.17 865.28,-19.74"/>
<polygon fill="#63b8ff" stroke="#63b8ff" points="865.92,-23.19 875.33,-18.32 864.94,-16.26 865.92,-23.19"/>
</a>
</g>
</g>
<!-- Node16 -->
<g id="Node000016" class="node">
<title>Node16</title>
<g id="a_Node000016"><a xlink:title=" ">
<polygon fill="#e0e0e0" stroke="#999999" points="1153,-19 1004,-19 1004,0 1153,0 1153,-19"/>
<text text-anchor="middle" x="1078.5" y="-7" font-family="Helvetica,sans-Serif" font-size="10.00">SFML/Graphics/Texture.hpp</text>
</a>
</g>
</g>
<!-- Node3&#45;&gt;Node16 -->
<g id="edge15_Node000003_Node000016" class="edge">
<title>Node3&#45;&gt;Node16</title>
<g id="a_edge15_Node000003_Node000016"><a xlink:title=" ">
<path fill="none" stroke="#63b8ff" d="M589.15,-60.18C668.96,-52.08 875.98,-31.06 993.59,-19.12"/>
<polygon fill="#63b8ff" stroke="#63b8ff" points="994.05,-22.59 1003.64,-18.1 993.34,-15.63 994.05,-22.59"/>
</a>
</g>
</g>
<!-- Node17 -->
<g id="Node000017" class="node">
<title>Node17</title>
<g id="a_Node000017"><a xlink:title=" ">
<polygon fill="#e0e0e0" stroke="#999999" points="1266,-19 1171,-19 1171,0 1266,0 1266,-19"/>
<text text-anchor="middle" x="1218.5" y="-7" font-family="Helvetica,sans-Serif" font-size="10.00">SFML/Audio.hpp</text>
</a>
</g>
</g>
<!-- Node3&#45;&gt;Node17 -->
<g id="edge16_Node000003_Node000017" class="edge">
<title>Node3&#45;&gt;Node17</title>
<g id="a_edge16_Node000003_Node000017"><a xlink:title=" ">
<path fill="none" stroke="#63b8ff" d="M589.1,-61.99C678.71,-57.67 936.49,-43.96 1160.89,-19.1"/>
<polygon fill="#63b8ff" stroke="#63b8ff" points="1161.32,-22.57 1170.87,-17.99 1160.55,-15.62 1161.32,-22.57"/>
</a>
</g>
</g>
<!-- Node18 -->
<g id="Node000018" class="node">
<title>Node18</title>
<g id="a_Node000018"><a xlink:title=" ">
<polygon fill="#e0e0e0" stroke="#999999" points="1370.5,-19 1284.5,-19 1284.5,0 1370.5,0 1370.5,-19"/>
<text text-anchor="middle" x="1327.5" y="-7" font-family="Helvetica,sans-Serif" font-size="10.00">unordered_set</text>
</a>
</g>
</g>
<!-- Node3&#45;&gt;Node18 -->
<g id="edge17_Node000003_Node000018" class="edge">
<title>Node3&#45;&gt;Node18</title>
<g id="a_edge17_Node000003_Node000018"><a xlink:title=" ">
<path fill="none" stroke="#63b8ff" d="M589.21,-62.64C689.85,-59.76 1003.91,-48.92 1274.41,-19"/>
<polygon fill="#63b8ff" stroke="#63b8ff" points="1274.87,-22.47 1284.42,-17.88 1274.09,-15.52 1274.87,-22.47"/>
</a>
</g>
</g>
<!-- Node20 -->
<g id="Node000020" class="node">
<title>Node20</title>
<g id="a_Node000020"><a xlink:href="Component_8hpp.html" target="_top" xlink:title=" ">
<polygon fill="white" stroke="#666666" points="321.5,-129 227.5,-129 227.5,-110 321.5,-110 321.5,-129"/>
<text text-anchor="middle" x="274.5" y="-117" font-family="Helvetica,sans-Serif" font-size="10.00">Component.hpp</text>
</a>
</g>
</g>
<!-- Node19&#45;&gt;Node20 -->
<g id="edge19_Node000019_Node000020" class="edge">
<title>Node19&#45;&gt;Node20</title>
<g id="a_edge19_Node000019_Node000020"><a xlink:title=" ">
<path fill="none" stroke="#63b8ff" d="M293.7,-164.75C290.59,-157.57 286.08,-147.18 282.21,-138.27"/>
<polygon fill="#63b8ff" stroke="#63b8ff" points="285.42,-136.87 278.23,-129.09 279,-139.66 285.42,-136.87"/>
</a>
</g>
</g>
<!-- Node20&#45;&gt;Node3 -->
<g id="edge20_Node000020_Node000003" class="edge">
<title>Node20&#45;&gt;Node3</title>
<g id="a_edge20_Node000020_Node000003"><a xlink:title=" ">
<path fill="none" stroke="#63b8ff" d="M319.81,-109.98C373.23,-99.94 461.35,-83.38 513.67,-73.55"/>
<polygon fill="#63b8ff" stroke="#63b8ff" points="514.46,-76.96 523.64,-71.68 513.16,-70.08 514.46,-76.96"/>
</a>
</g>
</g>
<!-- Node20&#45;&gt;Node6 -->
<g id="edge21_Node000020_Node000006" class="edge">
<title>Node20&#45;&gt;Node6</title>
<g id="a_edge21_Node000020_Node000006"><a xlink:title=" ">
<path fill="none" stroke="#63b8ff" d="M261.28,-109.84C232.92,-91.28 166.01,-47.49 131.28,-24.75"/>
<polygon fill="#63b8ff" stroke="#63b8ff" points="133.07,-21.74 122.79,-19.2 129.24,-27.6 133.07,-21.74"/>
</a>
</g>
</g>
<!-- Node20&#45;&gt;Node11 -->
<g id="edge26_Node000020_Node000011" class="edge">
<title>Node20&#45;&gt;Node11</title>
<g id="a_edge26_Node000020_Node000011"><a xlink:title=" ">
<path fill="none" stroke="#63b8ff" d="M274.5,-109.66C274.5,-92.17 274.5,-52.8 274.5,-29.27"/>
<polygon fill="#63b8ff" stroke="#63b8ff" points="278,-29.16 274.5,-19.16 271,-29.16 278,-29.16"/>
</a>
</g>
</g>
<!-- Node21 -->
<g id="Node000021" class="node">
<title>Node21</title>
<g id="a_Node000021"><a xlink:href="LuaScript_8hpp.html" target="_top" xlink:title=" ">
<polygon fill="white" stroke="#666666" points="166,-74 83,-74 83,-55 166,-55 166,-74"/>
<text text-anchor="middle" x="124.5" y="-62" font-family="Helvetica,sans-Serif" font-size="10.00">LuaScript.hpp</text>
</a>
</g>
</g>
<!-- Node20&#45;&gt;Node21 -->
<g id="edge22_Node000020_Node000021" class="edge">
<title>Node20&#45;&gt;Node21</title>
<g id="a_edge22_Node000020_Node000021"><a xlink:title=" ">
<path fill="none" stroke="#63b8ff" d="M250.4,-109.98C225.62,-101.23 186.8,-87.51 158.81,-77.62"/>
<polygon fill="#63b8ff" stroke="#63b8ff" points="159.63,-74.2 149.04,-74.17 157.3,-80.8 159.63,-74.2"/>
</a>
</g>
</g>
<!-- Node21&#45;&gt;Node4 -->
<g id="edge25_Node000021_Node000004" class="edge">
<title>Node21&#45;&gt;Node4</title>
<g id="a_edge25_Node000021_Node000004"><a xlink:title=" ">
<path fill="none" stroke="#63b8ff" d="M133.58,-54.75C141.59,-47.03 153.46,-35.6 163.12,-26.28"/>
<polygon fill="#63b8ff" stroke="#63b8ff" points="165.81,-28.55 170.59,-19.09 160.96,-23.51 165.81,-28.55"/>
</a>
</g>
</g>
<!-- Node21&#45;&gt;Node6 -->
<g id="edge24_Node000021_Node000006" class="edge">
<title>Node21&#45;&gt;Node6</title>
<g id="a_edge24_Node000021_Node000006"><a xlink:title=" ">
<path fill="none" stroke="#63b8ff" d="M122.02,-54.75C120.04,-47.72 117.18,-37.62 114.69,-28.84"/>
<polygon fill="#63b8ff" stroke="#63b8ff" points="118.02,-27.76 111.93,-19.09 111.29,-29.66 118.02,-27.76"/>
</a>
</g>
</g>
<!-- Node22 -->
<g id="Node000022" class="node">
<title>Node22</title>
<g id="a_Node000022"><a xlink:title=" ">
<polygon fill="#e0e0e0" stroke="#999999" points="69,-19 0,-19 0,0 69,0 69,-19"/>
<text text-anchor="middle" x="34.5" y="-7" font-family="Helvetica,sans-Serif" font-size="10.00">sol/sol.hpp</text>
</a>
</g>
</g>
<!-- Node21&#45;&gt;Node22 -->
<g id="edge23_Node000021_Node000022" class="edge">
<title>Node21&#45;&gt;Node22</title>
<g id="a_edge23_Node000021_Node000022"><a xlink:title=" ">
<path fill="none" stroke="#63b8ff" d="M110.04,-54.98C96.08,-46.77 74.71,-34.18 58.25,-24.49"/>
<polygon fill="#63b8ff" stroke="#63b8ff" points="59.62,-21.23 49.22,-19.17 56.06,-27.26 59.62,-21.23"/>
</a>
</g>
</g>
<!-- Node24 -->
<g id="Node000024" class="node">
<title>Node24</title>
<g id="a_Node000024"><a xlink:href="Systeme_8hpp.html" target="_top" xlink:title=" ">
<polygon fill="white" stroke="#666666" points="517.5,-129 437.5,-129 437.5,-110 517.5,-110 517.5,-129"/>
<text text-anchor="middle" x="477.5" y="-117" font-family="Helvetica,sans-Serif" font-size="10.00">Systeme.hpp</text>
</a>
</g>
</g>
<!-- Node23&#45;&gt;Node24 -->
<g id="edge28_Node000023_Node000024" class="edge">
<title>Node23&#45;&gt;Node24</title>
<g id="a_edge28_Node000023_Node000024"><a xlink:title=" ">
<path fill="none" stroke="#63b8ff" d="M469.15,-164.75C470.46,-157.8 472.34,-147.85 473.98,-139.13"/>
<polygon fill="#63b8ff" stroke="#63b8ff" points="477.46,-139.56 475.88,-129.09 470.59,-138.27 477.46,-139.56"/>
</a>
</g>
</g>
<!-- Node24&#45;&gt;Node3 -->
<g id="edge29_Node000024_Node000003" class="edge">
<title>Node24&#45;&gt;Node3</title>
<g id="a_edge29_Node000024_Node000003"><a xlink:title=" ">
<path fill="none" stroke="#63b8ff" d="M490.19,-109.98C502.33,-101.84 520.86,-89.41 535.25,-79.76"/>
<polygon fill="#63b8ff" stroke="#63b8ff" points="537.22,-82.65 543.58,-74.17 533.32,-76.84 537.22,-82.65"/>
</a>
</g>
</g>
</g>
</svg>
