<?xml version="1.0" encoding="UTF-8" standalone="no"?>
<!DOCTYPE svg PUBLIC "-//W3C//DTD SVG 1.1//EN"
 "http://www.w3.org/Graphics/SVG/1.1/DTD/svg11.dtd">
<!-- Generated by graphviz version 2.43.0 (0)
 -->
<!-- Title: Client/include/NameEntryScreen.hpp Pages: 1 -->
<svg width="1362pt" height="159pt"
 viewBox="0.00 0.00 1361.50 159.00" xmlns="http://www.w3.org/2000/svg" xmlns:xlink="http://www.w3.org/1999/xlink">
<g id="graph0" class="graph" transform="scale(1 1) rotate(0) translate(4 155)">
<title>Client/include/NameEntryScreen.hpp</title>
<!-- Node1 -->
<g id="Node000001" class="node">
<title>Node1</title>
<g id="a_Node000001"><a xlink:title=" ">
<polygon fill="#999999" stroke="#666666" points="801,-151 660,-151 660,-121 801,-121 801,-151"/>
<text text-anchor="start" x="668" y="-139" font-family="Helvetica,sans-Serif" font-size="10.00">Client/include/NameEntry</text>
<text text-anchor="middle" x="730.5" y="-128" font-family="Helvetica,sans-Serif" font-size="10.00">Screen.hpp</text>
</a>
</g>
</g>
<!-- Node2 -->
<g id="Node000002" class="node">
<title>Node2</title>
<g id="a_Node000002"><a xlink:href="client_8hpp.html" target="_top" xlink:title=" ">
<polygon fill="white" stroke="#666666" points="711.5,-85 577.5,-85 577.5,-66 711.5,-66 711.5,-85"/>
<text text-anchor="middle" x="644.5" y="-73" font-family="Helvetica,sans-Serif" font-size="10.00">Client/include/client.hpp</text>
</a>
</g>
</g>
<!-- Node1&#45;&gt;Node2 -->
<g id="edge1_Node000001_Node000002" class="edge">
<title>Node1&#45;&gt;Node2</title>
<g id="a_edge1_Node000001_Node000002"><a xlink:title=" ">
<path fill="none" stroke="#63b8ff" d="M701.19,-115.06C686.18,-104.85 668.68,-92.95 657.13,-85.09"/>
<polygon fill="#63b8ff" stroke="#63b8ff" points="699.44,-118.11 709.68,-120.84 703.38,-112.32 699.44,-118.11"/>
</a>
</g>
</g>
<!-- Node12 -->
<g id="Node000012" class="node">
<title>Node12</title>
<g id="a_Node000012"><a xlink:href="NameEntryScreen_8cpp.html" target="_top" xlink:title=" ">
<polygon fill="white" stroke="#666666" points="903,-85 730,-85 730,-66 903,-66 903,-85"/>
<text text-anchor="middle" x="816.5" y="-73" font-family="Helvetica,sans-Serif" font-size="10.00">Client/src/NameEntryScreen.cpp</text>
</a>
</g>
</g>
<!-- Node1&#45;&gt;Node12 -->
<g id="edge11_Node000001_Node000012" class="edge">
<title>Node1&#45;&gt;Node12</title>
<g id="a_edge11_Node000001_Node000012"><a xlink:title=" ">
<path fill="none" stroke="#63b8ff" d="M759.81,-115.06C774.82,-104.85 792.32,-92.95 803.87,-85.09"/>
<polygon fill="#63b8ff" stroke="#63b8ff" points="757.62,-112.32 751.32,-120.84 761.56,-118.11 757.62,-112.32"/>
</a>
</g>
</g>
<!-- Node3 -->
<g id="Node000003" class="node">
<title>Node3</title>
<g id="a_Node000003"><a xlink:href="client_8cpp.html" target="_top" xlink:title=" ">
<polygon fill="white" stroke="#666666" points="113,-24.5 0,-24.5 0,-5.5 113,-5.5 113,-24.5"/>
<text text-anchor="middle" x="56.5" y="-12.5" font-family="Helvetica,sans-Serif" font-size="10.00">Client/src/client.cpp</text>
</a>
</g>
</g>
<!-- Node2&#45;&gt;Node3 -->
<g id="edge2_Node000002_Node000003" class="edge">
<title>Node2&#45;&gt;Node3</title>
<g id="a_edge2_Node000002_Node000003"><a xlink:title=" ">
<path fill="none" stroke="#63b8ff" d="M567.06,-71C464.65,-65.66 278.77,-53.53 121.5,-30 111.91,-28.57 101.62,-26.56 92.11,-24.52"/>
<polygon fill="#63b8ff" stroke="#63b8ff" points="567.14,-74.5 577.31,-71.52 567.5,-67.51 567.14,-74.5"/>
</a>
</g>
</g>
<!-- Node4 -->
<g id="Node000004" class="node">
<title>Node4</title>
<g id="a_Node000004"><a xlink:href="client2_8cpp.html" target="_top" xlink:title=" ">
<polygon fill="white" stroke="#666666" points="250,-24.5 131,-24.5 131,-5.5 250,-5.5 250,-24.5"/>
<text text-anchor="middle" x="190.5" y="-12.5" font-family="Helvetica,sans-Serif" font-size="10.00">Client/src/client2.cpp</text>
</a>
</g>
</g>
<!-- Node2&#45;&gt;Node4 -->
<g id="edge3_Node000002_Node000004" class="edge">
<title>Node2&#45;&gt;Node4</title>
<g id="a_edge3_Node000002_Node000004"><a xlink:title=" ">
<path fill="none" stroke="#63b8ff" d="M567.28,-67.52C489.36,-60.03 365.7,-46.88 259.5,-30 249.72,-28.45 239.22,-26.47 229.44,-24.5"/>
<polygon fill="#63b8ff" stroke="#63b8ff" points="567.21,-71.03 577.49,-68.5 567.87,-64.07 567.21,-71.03"/>
</a>
</g>
</g>
<!-- Node5 -->
<g id="Node000005" class="node">
<title>Node5</title>
<g id="a_Node000005"><a xlink:href="client__init_8cpp.html" target="_top" xlink:title=" ">
<polygon fill="white" stroke="#666666" points="402.5,-24.5 268.5,-24.5 268.5,-5.5 402.5,-5.5 402.5,-24.5"/>
<text text-anchor="middle" x="335.5" y="-12.5" font-family="Helvetica,sans-Serif" font-size="10.00">Client/src/client_init.cpp</text>
</a>
</g>
</g>
<!-- Node2&#45;&gt;Node5 -->
<g id="edge4_Node000002_Node000005" class="edge">
<title>Node2&#45;&gt;Node5</title>
<g id="a_edge4_Node000002_Node000005"><a xlink:title=" ">
<path fill="none" stroke="#63b8ff" d="M589.58,-64.1C529.97,-52.82 435.89,-35.01 380.49,-24.52"/>
<polygon fill="#63b8ff" stroke="#63b8ff" points="589.09,-67.57 599.57,-65.99 590.39,-60.69 589.09,-67.57"/>
</a>
</g>
</g>
<!-- Node6 -->
<g id="Node000006" class="node">
<title>Node6</title>
<g id="a_Node000006"><a xlink:href="client__network__part__one_8cpp.html" target="_top" xlink:title=" ">
<polygon fill="white" stroke="#666666" points="558,-30 421,-30 421,0 558,0 558,-30"/>
<text text-anchor="start" x="429" y="-18" font-family="Helvetica,sans-Serif" font-size="10.00">Client/src/client_network</text>
<text text-anchor="middle" x="489.5" y="-7" font-family="Helvetica,sans-Serif" font-size="10.00">_part_one.cpp</text>
</a>
</g>
</g>
<!-- Node2&#45;&gt;Node6 -->
<g id="edge5_Node000002_Node000006" class="edge">
<title>Node2&#45;&gt;Node6</title>
<g id="a_edge5_Node000002_Node000006"><a xlink:title=" ">
<path fill="none" stroke="#63b8ff" d="M612.59,-62.46C587.66,-53.05 552.97,-39.95 526.76,-30.06"/>
<polygon fill="#63b8ff" stroke="#63b8ff" points="611.37,-65.74 621.96,-65.99 613.84,-59.19 611.37,-65.74"/>
</a>
</g>
</g>
<!-- Node7 -->
<g id="Node000007" class="node">
<title>Node7</title>
<g id="a_Node000007"><a xlink:href="client__network__part__two_8cpp.html" target="_top" xlink:title=" ">
<polygon fill="white" stroke="#666666" points="713,-30 576,-30 576,0 713,0 713,-30"/>
<text text-anchor="start" x="584" y="-18" font-family="Helvetica,sans-Serif" font-size="10.00">Client/src/client_network</text>
<text text-anchor="middle" x="644.5" y="-7" font-family="Helvetica,sans-Serif" font-size="10.00">_part_two.cpp</text>
</a>
</g>
</g>
<!-- Node2&#45;&gt;Node7 -->
<g id="edge6_Node000002_Node000007" class="edge">
<title>Node2&#45;&gt;Node7</title>
<g id="a_edge6_Node000002_Node000007"><a xlink:title=" ">
<path fill="none" stroke="#63b8ff" d="M644.5,-55.65C644.5,-47.36 644.5,-37.78 644.5,-30.11"/>
<polygon fill="#63b8ff" stroke="#63b8ff" points="641,-55.87 644.5,-65.87 648,-55.87 641,-55.87"/>
</a>
</g>
</g>
<!-- Node8 -->
<g id="Node000008" class="node">
<title>Node8</title>
<g id="a_Node000008"><a xlink:href="client__protocol_8cpp.html" target="_top" xlink:title=" ">
<polygon fill="white" stroke="#666666" points="889.5,-24.5 731.5,-24.5 731.5,-5.5 889.5,-5.5 889.5,-24.5"/>
<text text-anchor="middle" x="810.5" y="-12.5" font-family="Helvetica,sans-Serif" font-size="10.00">Client/src/client_protocol.cpp</text>
</a>
</g>
</g>
<!-- Node2&#45;&gt;Node8 -->
<g id="edge7_Node000002_Node000008" class="edge">
<title>Node2&#45;&gt;Node8</title>
<g id="a_edge7_Node000002_Node000008"><a xlink:title=" ">
<path fill="none" stroke="#63b8ff" d="M678.48,-62.52C710.58,-51.21 757.92,-34.53 786.33,-24.52"/>
<polygon fill="#63b8ff" stroke="#63b8ff" points="676.91,-59.37 668.64,-65.99 679.23,-65.97 676.91,-59.37"/>
</a>
</g>
</g>
<!-- Node9 -->
<g id="Node000009" class="node">
<title>Node9</title>
<g id="a_Node000009"><a xlink:href="client__replay_8cpp.html" target="_top" xlink:title=" ">
<polygon fill="white" stroke="#666666" points="1055,-24.5 908,-24.5 908,-5.5 1055,-5.5 1055,-24.5"/>
<text text-anchor="middle" x="981.5" y="-12.5" font-family="Helvetica,sans-Serif" font-size="10.00">Client/src/client_replay.cpp</text>
</a>
</g>
</g>
<!-- Node2&#45;&gt;Node9 -->
<g id="edge8_Node000002_Node000009" class="edge">
<title>Node2&#45;&gt;Node9</title>
<g id="a_edge8_Node000002_Node000009"><a xlink:title=" ">
<path fill="none" stroke="#63b8ff" d="M703.59,-64.24C768.56,-52.96 871.76,-35.05 932.44,-24.52"/>
<polygon fill="#63b8ff" stroke="#63b8ff" points="702.76,-60.83 693.5,-65.99 703.95,-67.73 702.76,-60.83"/>
</a>
</g>
</g>
<!-- Node10 -->
<g id="Node000010" class="node">
<title>Node10</title>
<g id="a_Node000010"><a xlink:href="client__update_8cpp.html" target="_top" xlink:title=" ">
<polygon fill="white" stroke="#666666" points="1225.5,-24.5 1073.5,-24.5 1073.5,-5.5 1225.5,-5.5 1225.5,-24.5"/>
<text text-anchor="middle" x="1149.5" y="-12.5" font-family="Helvetica,sans-Serif" font-size="10.00">Client/src/client_update.cpp</text>
</a>
</g>
</g>
<!-- Node2&#45;&gt;Node10 -->
<g id="edge9_Node000002_Node000010" class="edge">
<title>Node2&#45;&gt;Node10</title>
<g id="a_edge9_Node000002_Node000010"><a xlink:title=" ">
<path fill="none" stroke="#63b8ff" d="M721.98,-65.96C875.62,-49.62 915.85,-50.02 1064.5,-30 1076.21,-28.42 1088.79,-26.49 1100.58,-24.56"/>
<polygon fill="#63b8ff" stroke="#63b8ff" points="721.26,-62.52 711.69,-67.06 722.01,-69.48 721.26,-62.52"/>
</a>
</g>
</g>
<!-- Node11 -->
<g id="Node000011" class="node">
<title>Node11</title>
<g id="a_Node000011"><a xlink:href="main_8cpp.html" target="_top" xlink:title=" ">
<polygon fill="white" stroke="#666666" points="1353.5,-24.5 1243.5,-24.5 1243.5,-5.5 1353.5,-5.5 1353.5,-24.5"/>
<text text-anchor="middle" x="1298.5" y="-12.5" font-family="Helvetica,sans-Serif" font-size="10.00">Client/src/main.cpp</text>
</a>
</g>
</g>
<!-- Node2&#45;&gt;Node11 -->
<g id="edge10_Node000002_Node000011" class="edge">
<title>Node2&#45;&gt;Node11</title>
<g id="a_edge10_Node000002_Node000011"><a xlink:title=" ">
<path fill="none" stroke="#63b8ff" d="M721.66,-66.04C950.84,-45.93 1011.47,-62.05 1234.5,-30 1244.07,-28.62 1254.34,-26.62 1263.79,-24.55"/>
<polygon fill="#63b8ff" stroke="#63b8ff" points="721.33,-62.55 711.68,-66.92 721.95,-69.52 721.33,-62.55"/>
</a>
</g>
</g>
</g>
</svg>
