<?xml version="1.0" encoding="UTF-8" standalone="no"?>
<!DOCTYPE svg PUBLIC "-//W3C//DTD SVG 1.1//EN"
 "http://www.w3.org/Graphics/SVG/1.1/DTD/svg11.dtd">
<!-- Generated by graphviz version 2.43.0 (0)
 -->
<!-- Title: Server/include/network.hpp Pages: 1 -->
<svg width="908pt" height="148pt"
 viewBox="0.00 0.00 908.00 148.00" xmlns="http://www.w3.org/2000/svg" xmlns:xlink="http://www.w3.org/1999/xlink">
<g id="graph0" class="graph" transform="scale(1 1) rotate(0) translate(4 144)">
<title>Server/include/network.hpp</title>
<!-- Node1 -->
<g id="Node000001" class="node">
<title>Node1</title>
<g id="a_Node000001"><a xlink:title=" ">
<polygon fill="#999999" stroke="#666666" points="543,-140 393,-140 393,-121 543,-121 543,-140"/>
<text text-anchor="middle" x="468" y="-128" font-family="Helvetica,sans-Serif" font-size="10.00">Server/include/network.hpp</text>
</a>
</g>
</g>
<!-- Node2 -->
<g id="Node000002" class="node">
<title>Node2</title>
<g id="a_Node000002"><a xlink:href="Core_8hpp.html" target="_top" xlink:title=" ">
<polygon fill="white" stroke="#666666" points="124,-79.5 0,-79.5 0,-60.5 124,-60.5 124,-79.5"/>
<text text-anchor="middle" x="62" y="-67.5" font-family="Helvetica,sans-Serif" font-size="10.00">Core/include/Core.hpp</text>
</a>
</g>
</g>
<!-- Node1&#45;&gt;Node2 -->
<g id="edge1_Node000001_Node000002" class="edge">
<title>Node1&#45;&gt;Node2</title>
<g id="a_edge1_Node000001_Node000002"><a xlink:title=" ">
<path fill="none" stroke="#63b8ff" d="M383.41,-119.75C315.55,-111.57 217.93,-99 133,-85 123.21,-83.39 112.7,-81.43 102.84,-79.51"/>
<polygon fill="#63b8ff" stroke="#63b8ff" points="383.28,-123.26 393.62,-120.97 384.11,-116.31 383.28,-123.26"/>
</a>
</g>
</g>
<!-- Node4 -->
<g id="Node000004" class="node">
<title>Node4</title>
<g id="a_Node000004"><a xlink:href="network_8cpp.html" target="_top" xlink:title=" ">
<polygon fill="white" stroke="#666666" points="270,-79.5 142,-79.5 142,-60.5 270,-60.5 270,-79.5"/>
<text text-anchor="middle" x="206" y="-67.5" font-family="Helvetica,sans-Serif" font-size="10.00">Server/src/network.cpp</text>
</a>
</g>
</g>
<!-- Node1&#45;&gt;Node4 -->
<g id="edge3_Node000001_Node000004" class="edge">
<title>Node1&#45;&gt;Node4</title>
<g id="a_edge3_Node000001_Node000004"><a xlink:title=" ">
<path fill="none" stroke="#63b8ff" d="M419.86,-118.75C369.25,-107.45 290.64,-89.9 244.14,-79.52"/>
<polygon fill="#63b8ff" stroke="#63b8ff" points="419.38,-122.23 429.9,-120.99 420.91,-115.4 419.38,-122.23"/>
</a>
</g>
</g>
<!-- Node5 -->
<g id="Node000005" class="node">
<title>Node5</title>
<g id="a_Node000005"><a xlink:href="network__client__info_8cpp.html" target="_top" xlink:title=" ">
<polygon fill="white" stroke="#666666" points="396,-85 288,-85 288,-55 396,-55 396,-85"/>
<text text-anchor="start" x="296" y="-73" font-family="Helvetica,sans-Serif" font-size="10.00">Server/src/network</text>
<text text-anchor="middle" x="342" y="-62" font-family="Helvetica,sans-Serif" font-size="10.00">_client_info.cpp</text>
</a>
</g>
</g>
<!-- Node1&#45;&gt;Node5 -->
<g id="edge4_Node000001_Node000005" class="edge">
<title>Node1&#45;&gt;Node5</title>
<g id="a_edge4_Node000001_Node000005"><a xlink:title=" ">
<path fill="none" stroke="#63b8ff" d="M440.47,-116.72C420.41,-107.41 393.25,-94.8 372.54,-85.18"/>
<polygon fill="#63b8ff" stroke="#63b8ff" points="439.13,-119.96 449.68,-120.99 442.08,-113.61 439.13,-119.96"/>
</a>
</g>
</g>
<!-- Node6 -->
<g id="Node000006" class="node">
<title>Node6</title>
<g id="a_Node000006"><a xlink:href="network__generate_8cpp.html" target="_top" xlink:title=" ">
<polygon fill="white" stroke="#666666" points="522,-85 414,-85 414,-55 522,-55 522,-85"/>
<text text-anchor="start" x="422" y="-73" font-family="Helvetica,sans-Serif" font-size="10.00">Server/src/network</text>
<text text-anchor="middle" x="468" y="-62" font-family="Helvetica,sans-Serif" font-size="10.00">_generate.cpp</text>
</a>
</g>
</g>
<!-- Node1&#45;&gt;Node6 -->
<g id="edge5_Node000001_Node000006" class="edge">
<title>Node1&#45;&gt;Node6</title>
<g id="a_edge5_Node000001_Node000006"><a xlink:title=" ">
<path fill="none" stroke="#63b8ff" d="M468,-110.65C468,-102.36 468,-92.78 468,-85.11"/>
<polygon fill="#63b8ff" stroke="#63b8ff" points="464.5,-110.87 468,-120.87 471.5,-110.87 464.5,-110.87"/>
</a>
</g>
</g>
<!-- Node7 -->
<g id="Node000007" class="node">
<title>Node7</title>
<g id="a_Node000007"><a xlink:href="network__lobby_8cpp.html" target="_top" xlink:title=" ">
<polygon fill="white" stroke="#666666" points="648,-85 540,-85 540,-55 648,-55 648,-85"/>
<text text-anchor="start" x="548" y="-73" font-family="Helvetica,sans-Serif" font-size="10.00">Server/src/network</text>
<text text-anchor="middle" x="594" y="-62" font-family="Helvetica,sans-Serif" font-size="10.00">_lobby.cpp</text>
</a>
</g>
</g>
<!-- Node1&#45;&gt;Node7 -->
<g id="edge6_Node000001_Node000007" class="edge">
<title>Node1&#45;&gt;Node7</title>
<g id="a_edge6_Node000001_Node000007"><a xlink:title=" ">
<path fill="none" stroke="#63b8ff" d="M495.53,-116.72C515.59,-107.41 542.75,-94.8 563.46,-85.18"/>
<polygon fill="#63b8ff" stroke="#63b8ff" points="493.92,-113.61 486.32,-120.99 496.87,-119.96 493.92,-113.61"/>
</a>
</g>
</g>
<!-- Node8 -->
<g id="Node000008" class="node">
<title>Node8</title>
<g id="a_Node000008"><a xlink:href="network__server_8cpp.html" target="_top" xlink:title=" ">
<polygon fill="white" stroke="#666666" points="774,-85 666,-85 666,-55 774,-55 774,-85"/>
<text text-anchor="start" x="674" y="-73" font-family="Helvetica,sans-Serif" font-size="10.00">Server/src/network</text>
<text text-anchor="middle" x="720" y="-62" font-family="Helvetica,sans-Serif" font-size="10.00">_server.cpp</text>
</a>
</g>
</g>
<!-- Node1&#45;&gt;Node8 -->
<g id="edge7_Node000001_Node000008" class="edge">
<title>Node1&#45;&gt;Node8</title>
<g id="a_edge7_Node000001_Node000008"><a xlink:title=" ">
<path fill="none" stroke="#63b8ff" d="M514.5,-118.7C557.24,-108.78 620.59,-94.08 665.65,-83.62"/>
<polygon fill="#63b8ff" stroke="#63b8ff" points="513.59,-115.32 504.64,-120.99 515.18,-122.14 513.59,-115.32"/>
</a>
</g>
</g>
<!-- Node9 -->
<g id="Node000009" class="node">
<title>Node9</title>
<g id="a_Node000009"><a xlink:href="network__update_8cpp.html" target="_top" xlink:title=" ">
<polygon fill="white" stroke="#666666" points="900,-85 792,-85 792,-55 900,-55 900,-85"/>
<text text-anchor="start" x="800" y="-73" font-family="Helvetica,sans-Serif" font-size="10.00">Server/src/network</text>
<text text-anchor="middle" x="846" y="-62" font-family="Helvetica,sans-Serif" font-size="10.00">_update.cpp</text>
</a>
</g>
</g>
<!-- Node1&#45;&gt;Node9 -->
<g id="edge8_Node000001_Node000009" class="edge">
<title>Node1&#45;&gt;Node9</title>
<g id="a_edge8_Node000001_Node000009"><a xlink:title=" ">
<path fill="none" stroke="#63b8ff" d="M549.87,-119.72C613.62,-111.67 704.21,-99.3 783,-85 785.87,-84.48 788.8,-83.92 791.76,-83.34"/>
<polygon fill="#63b8ff" stroke="#63b8ff" points="549.37,-116.26 539.88,-120.97 550.24,-123.2 549.37,-116.26"/>
</a>
</g>
</g>
<!-- Node3 -->
<g id="Node000003" class="node">
<title>Node3</title>
<g id="a_Node000003"><a xlink:href="Core_8cpp.html" target="_top" xlink:title=" ">
<polygon fill="white" stroke="#666666" points="113,-19 11,-19 11,0 113,0 113,-19"/>
<text text-anchor="middle" x="62" y="-7" font-family="Helvetica,sans-Serif" font-size="10.00">Core/src/Core.cpp</text>
</a>
</g>
</g>
<!-- Node2&#45;&gt;Node3 -->
<g id="edge2_Node000002_Node000003" class="edge">
<title>Node2&#45;&gt;Node3</title>
<g id="a_edge2_Node000002_Node000003"><a xlink:title=" ">
<path fill="none" stroke="#63b8ff" d="M62,-50.16C62,-39.74 62,-27.3 62,-19.17"/>
<polygon fill="#63b8ff" stroke="#63b8ff" points="58.5,-50.37 62,-60.37 65.5,-50.37 58.5,-50.37"/>
</a>
</g>
</g>
</g>
</svg>
