<?xml version="1.0" encoding="UTF-8" standalone="no"?>
<!DOCTYPE svg PUBLIC "-//W3C//DTD SVG 1.1//EN"
 "http://www.w3.org/Graphics/SVG/1.1/DTD/svg11.dtd">
<!-- Generated by graphviz version 2.43.0 (0)
 -->
<!-- Title: Server/include/protocol.hpp Pages: 1 -->
<!--zoomable 225 -->

<svg id="main" version="1.1" xmlns="http://www.w3.org/2000/svg" xmlns:xlink="http://www.w3.org/1999/xlink" xml:space="preserve" onload="init(evt)">
<style type="text/css"><![CDATA[
.node, .edge {opacity: 0.7;}
.node.selected, .edge.selected {opacity: 1;}
.edge:hover path { stroke: red; }
.edge:hover polygon { stroke: red; fill: red; }
]]></style>

<defs>
  <circle id="rim" cx="0" cy="0" r="7"/>
  <circle id="rim2" cx="0" cy="0" r="3.5"/>
  <g id="zoomPlus">
    <use xlink:href="#rim" fill="#404040"><set attributeName="fill" to="#808080" begin="zoomplus.mouseover" end="zoomplus.mouseout"/></use>
    <path d="M-4,0h8M0,-4v8" fill="none" stroke="white" stroke-width="1.5" pointer-events="none"/>
  </g>
  <g id="zoomMin">
    <use xlink:href="#rim" fill="#404040"><set attributeName="fill" to="#808080" begin="zoomminus.mouseover" end="zoomminus.mouseout"/></use>
    <path d="M-4,0h8" fill="none" stroke="white" stroke-width="1.5" pointer-events="none"/>
  </g>
  <g id="arrowUp" transform="translate(30 24)">
    <use xlink:href="#rim"/>
    <path pointer-events="none" fill="none" stroke="white" stroke-width="1.5" d="M0,-3.0v7 M-2.5,-0.5L0,-3.0L2.5,-0.5"/>
  </g>
  <g id="arrowRight" transform="rotate(90) translate(36 -43)">
    <use xlink:href="#rim"/>
    <path pointer-events="none" fill="none" stroke="white" stroke-width="1.5" d="M0,-3.0v7 M-2.5,-0.5L0,-3.0L2.5,-0.5"/>
  </g>
  <g id="arrowDown" transform="rotate(180) translate(-30 -48)">
    <use xlink:href="#rim"/>
    <path pointer-events="none" fill="none" stroke="white" stroke-width="1.5" d="M0,-3.0v7 M-2.5,-0.5L0,-3.0L2.5,-0.5"/>
  </g>
  <g id="arrowLeft" transform="rotate(270) translate(-36 17)">
    <use xlink:href="#rim"/>
    <path pointer-events="none" fill="none" stroke="white" stroke-width="1.5" d="M0,-3.0v7 M-2.5,-0.5L0,-3.0L2.5,-0.5"/>
  </g>
  <g id="resetDef">
    <use xlink:href="#rim2" fill="#404040"><set attributeName="fill" to="#808080" begin="reset.mouseover" end="reset.mouseout"/></use>
  </g>
</defs>
<script type="application/ecmascript">
var viewWidth = 1947;
var viewHeight = 225;
var sectionId = 'dynsection-1';
</script>
<script type="application/ecmascript" xlink:href="svg.min.js"/>
<svg id="graph" class="graph">
<g id="viewport">
<title>Server/include/protocol.hpp</title>
<!-- Node1 -->
<g id="Node000001" class="node">
<title>Node1</title>
<g id="a_Node000001"><a xlink:title=" ">
<polygon fill="#999999" stroke="#666666" points="928.5,-217 778.5,-217 778.5,-198 928.5,-198 928.5,-217"/>
<text text-anchor="middle" x="853.5" y="-205" font-family="Helvetica,sans-Serif" font-size="10.00">Server/include/protocol.hpp</text>
</a>
</g>
</g>
<!-- Node2 -->
<g id="Node000002" class="node">
<title>Node2</title>
<g id="a_Node000002"><a xlink:href="NetworkEntityMapper_8hpp.html" target="_top" xlink:title=" ">
<polygon fill="white" stroke="#666666" points="723.5,-162 567.5,-162 567.5,-132 723.5,-132 723.5,-162"/>
<text text-anchor="start" x="575.5" y="-150" font-family="Helvetica,sans-Serif" font-size="10.00">Client/include/NetworkEntity</text>
<text text-anchor="middle" x="645.5" y="-139" font-family="Helvetica,sans-Serif" font-size="10.00">Mapper.hpp</text>
</a>
</g>
</g>
<!-- Node1&#45;&gt;Node2 -->
<g id="edge1_Node000001_Node000002" class="edge">
<title>Node1&#45;&gt;Node2</title>
<g id="a_edge1_Node000001_Node000002"><a xlink:title=" ">
<path fill="none" stroke="#63b8ff" d="M813.32,-195.2C779.71,-185.75 731.6,-172.22 695.51,-162.06"/>
<polygon fill="#63b8ff" stroke="#63b8ff" points="812.68,-198.66 823.26,-197.99 814.58,-191.92 812.68,-198.66"/>
</a>
</g>
</g>
<!-- Node3 -->
<g id="Node000003" class="node">
<title>Node3</title>
<g id="a_Node000003"><a xlink:href="client_8hpp.html" target="_top" xlink:title=" ">
<polygon fill="white" stroke="#666666" points="746.5,-90.5 612.5,-90.5 612.5,-71.5 746.5,-71.5 746.5,-90.5"/>
<text text-anchor="middle" x="679.5" y="-78.5" font-family="Helvetica,sans-Serif" font-size="10.00">Client/include/client.hpp</text>
</a>
</g>
</g>
<!-- Node1&#45;&gt;Node3 -->
<g id="edge17_Node000001_Node000003" class="edge">
<title>Node1&#45;&gt;Node3</title>
<g id="a_edge17_Node000001_Node000003"><a xlink:title=" ">
<path fill="none" stroke="#63b8ff" d="M825.5,-193.5C808.95,-185.33 787.9,-174.08 770.5,-162 753.39,-150.13 708.31,-108.76 688.76,-90.63"/>
<polygon fill="#63b8ff" stroke="#63b8ff" points="824.13,-196.72 834.66,-197.93 827.18,-190.42 824.13,-196.72"/>
</a>
</g>
</g>
<!-- Node14 -->
<g id="Node000014" class="node">
<title>Node14</title>
<g id="a_Node000014"><a xlink:href="SoloPlay_8hpp.html" target="_top" xlink:title=" ">
<polygon fill="white" stroke="#666666" points="927.5,-156.5 779.5,-156.5 779.5,-137.5 927.5,-137.5 927.5,-156.5"/>
<text text-anchor="middle" x="853.5" y="-144.5" font-family="Helvetica,sans-Serif" font-size="10.00">Client/include/SoloPlay.hpp</text>
</a>
</g>
</g>
<!-- Node1&#45;&gt;Node14 -->
<g id="edge13_Node000001_Node000014" class="edge">
<title>Node1&#45;&gt;Node14</title>
<g id="a_edge13_Node000001_Node000014"><a xlink:title=" ">
<path fill="none" stroke="#63b8ff" d="M853.5,-187.66C853.5,-177.24 853.5,-164.8 853.5,-156.67"/>
<polygon fill="#63b8ff" stroke="#63b8ff" points="850,-187.87 853.5,-197.87 857,-187.87 850,-187.87"/>
</a>
</g>
</g>
<!-- Node17 -->
<g id="Node000017" class="node">
<title>Node17</title>
<g id="a_Node000017"><a xlink:href="network_8hpp.html" target="_top" xlink:title=" ">
<polygon fill="white" stroke="#666666" points="1419.5,-156.5 1269.5,-156.5 1269.5,-137.5 1419.5,-137.5 1419.5,-156.5"/>
<text text-anchor="middle" x="1344.5" y="-144.5" font-family="Helvetica,sans-Serif" font-size="10.00">Server/include/network.hpp</text>
</a>
</g>
</g>
<!-- Node1&#45;&gt;Node17 -->
<g id="edge18_Node000001_Node000017" class="edge">
<title>Node1&#45;&gt;Node17</title>
<g id="a_edge18_Node000001_Node000017"><a xlink:title=" ">
<path fill="none" stroke="#63b8ff" d="M934.96,-196.79C1029.28,-185.56 1183.16,-167.22 1273.02,-156.52"/>
<polygon fill="#63b8ff" stroke="#63b8ff" points="934.41,-193.34 924.9,-197.99 935.24,-200.29 934.41,-193.34"/>
</a>
</g>
</g>
<!-- Node26 -->
<g id="Node000026" class="node">
<title>Node26</title>
<g id="a_Node000026"><a xlink:href="protocol_8cpp.html" target="_top" xlink:title=" ">
<polygon fill="white" stroke="#666666" points="1565.5,-156.5 1437.5,-156.5 1437.5,-137.5 1565.5,-137.5 1565.5,-156.5"/>
<text text-anchor="middle" x="1501.5" y="-144.5" font-family="Helvetica,sans-Serif" font-size="10.00">Server/src/protocol.cpp</text>
</a>
</g>
</g>
<!-- Node1&#45;&gt;Node26 -->
<g id="edge27_Node000001_Node000026" class="edge">
<title>Node1&#45;&gt;Node26</title>
<g id="a_edge27_Node000001_Node000026"><a xlink:title=" ">
<path fill="none" stroke="#63b8ff" d="M938.95,-202.89C1051.53,-197.44 1255.52,-185.21 1428.5,-162 1439.24,-160.56 1450.8,-158.56 1461.47,-156.52"/>
<polygon fill="#63b8ff" stroke="#63b8ff" points="938.49,-199.4 928.67,-203.38 938.83,-206.4 938.49,-199.4"/>
</a>
</g>
</g>
<!-- Node2&#45;&gt;Node3 -->
<g id="edge2_Node000002_Node000003" class="edge">
<title>Node2&#45;&gt;Node3</title>
<g id="a_edge2_Node000002_Node000003"><a xlink:title=" ">
<path fill="none" stroke="#63b8ff" d="M657.75,-122.95C663.66,-111.81 670.41,-99.11 674.8,-90.84"/>
<polygon fill="#63b8ff" stroke="#63b8ff" points="654.65,-121.32 653.05,-131.8 660.83,-124.61 654.65,-121.32"/>
</a>
</g>
</g>
<!-- Node13 -->
<g id="Node000013" class="node">
<title>Node13</title>
<g id="a_Node000013"><a xlink:href="NetworkEntityMapper_8cpp.html" target="_top" xlink:title=" ">
<polygon fill="white" stroke="#666666" points="594,-96 459,-96 459,-66 594,-66 594,-96"/>
<text text-anchor="start" x="467" y="-84" font-family="Helvetica,sans-Serif" font-size="10.00">Client/src/NetworkEntity</text>
<text text-anchor="middle" x="526.5" y="-73" font-family="Helvetica,sans-Serif" font-size="10.00">Mapper.cpp</text>
</a>
</g>
</g>
<!-- Node2&#45;&gt;Node13 -->
<g id="edge12_Node000002_Node000013" class="edge">
<title>Node2&#45;&gt;Node13</title>
<g id="a_edge12_Node000002_Node000013"><a xlink:title=" ">
<path fill="none" stroke="#63b8ff" d="M610.37,-127.11C591.85,-117.14 569.51,-105.13 552.55,-96.01"/>
<polygon fill="#63b8ff" stroke="#63b8ff" points="608.92,-130.3 619.38,-131.95 612.24,-124.14 608.92,-130.3"/>
</a>
</g>
</g>
<!-- Node4 -->
<g id="Node000004" class="node">
<title>Node4</title>
<g id="a_Node000004"><a xlink:href="client_8cpp.html" target="_top" xlink:title=" ">
<polygon fill="white" stroke="#666666" points="1354,-24.5 1241,-24.5 1241,-5.5 1354,-5.5 1354,-24.5"/>
<text text-anchor="middle" x="1297.5" y="-12.5" font-family="Helvetica,sans-Serif" font-size="10.00">Client/src/client.cpp</text>
</a>
</g>
</g>
<!-- Node3&#45;&gt;Node4 -->
<g id="edge3_Node000003_Node000004" class="edge">
<title>Node3&#45;&gt;Node4</title>
<g id="a_edge3_Node000003_Node000004"><a xlink:title=" ">
<path fill="none" stroke="#63b8ff" d="M731.28,-69.7C739.36,-68.31 747.64,-67.02 755.5,-66 965.9,-38.74 1021.48,-60.08 1231.5,-30 1241.36,-28.59 1251.94,-26.57 1261.69,-24.51"/>
<polygon fill="#63b8ff" stroke="#63b8ff" points="730.42,-66.3 721.19,-71.49 731.64,-73.19 730.42,-66.3"/>
</a>
</g>
</g>
<!-- Node5 -->
<g id="Node000005" class="node">
<title>Node5</title>
<g id="a_Node000005"><a xlink:href="client2_8cpp.html" target="_top" xlink:title=" ">
<polygon fill="white" stroke="#666666" points="119,-24.5 0,-24.5 0,-5.5 119,-5.5 119,-24.5"/>
<text text-anchor="middle" x="59.5" y="-12.5" font-family="Helvetica,sans-Serif" font-size="10.00">Client/src/client2.cpp</text>
</a>
</g>
</g>
<!-- Node3&#45;&gt;Node5 -->
<g id="edge4_Node000003_Node000005" class="edge">
<title>Node3&#45;&gt;Node5</title>
<g id="a_edge4_Node000003_Node000005"><a xlink:title=" ">
<path fill="none" stroke="#63b8ff" d="M626.74,-69.66C618.65,-68.29 610.36,-67.01 602.5,-66 392.95,-39.07 337.77,-59.06 128.5,-30 118.33,-28.59 107.41,-26.59 97.32,-24.55"/>
<polygon fill="#63b8ff" stroke="#63b8ff" points="626.4,-73.15 636.86,-71.43 627.61,-66.26 626.4,-73.15"/>
</a>
</g>
</g>
<!-- Node6 -->
<g id="Node000006" class="node">
<title>Node6</title>
<g id="a_Node000006"><a xlink:href="client__init_8cpp.html" target="_top" xlink:title=" ">
<polygon fill="white" stroke="#666666" points="271.5,-24.5 137.5,-24.5 137.5,-5.5 271.5,-5.5 271.5,-24.5"/>
<text text-anchor="middle" x="204.5" y="-12.5" font-family="Helvetica,sans-Serif" font-size="10.00">Client/src/client_init.cpp</text>
</a>
</g>
</g>
<!-- Node3&#45;&gt;Node6 -->
<g id="edge5_Node000003_Node000006" class="edge">
<title>Node3&#45;&gt;Node6</title>
<g id="a_edge5_Node000003_Node000006"><a xlink:title=" ">
<path fill="none" stroke="#63b8ff" d="M625.57,-69.71C617.84,-68.38 609.98,-67.1 602.5,-66 460.02,-45.11 422.95,-51.06 280.5,-30 269.88,-28.43 258.48,-26.47 247.82,-24.53"/>
<polygon fill="#63b8ff" stroke="#63b8ff" points="625.15,-73.19 635.61,-71.48 626.37,-66.3 625.15,-73.19"/>
</a>
</g>
</g>
<!-- Node7 -->
<g id="Node000007" class="node">
<title>Node7</title>
<g id="a_Node000007"><a xlink:href="client__network__part__one_8cpp.html" target="_top" xlink:title=" ">
<polygon fill="white" stroke="#666666" points="427,-30 290,-30 290,0 427,0 427,-30"/>
<text text-anchor="start" x="298" y="-18" font-family="Helvetica,sans-Serif" font-size="10.00">Client/src/client_network</text>
<text text-anchor="middle" x="358.5" y="-7" font-family="Helvetica,sans-Serif" font-size="10.00">_part_one.cpp</text>
</a>
</g>
</g>
<!-- Node3&#45;&gt;Node7 -->
<g id="edge6_Node000003_Node000007" class="edge">
<title>Node3&#45;&gt;Node7</title>
<g id="a_edge6_Node000003_Node000007"><a xlink:title=" ">
<path fill="none" stroke="#63b8ff" d="M626.73,-69.48C572.17,-58.6 486.76,-41.57 427.02,-29.66"/>
<polygon fill="#63b8ff" stroke="#63b8ff" points="626.05,-72.91 636.54,-71.44 627.42,-66.05 626.05,-72.91"/>
</a>
</g>
</g>
<!-- Node8 -->
<g id="Node000008" class="node">
<title>Node8</title>
<g id="a_Node000008"><a xlink:href="client__network__part__two_8cpp.html" target="_top" xlink:title=" ">
<polygon fill="white" stroke="#666666" points="582,-30 445,-30 445,0 582,0 582,-30"/>
<text text-anchor="start" x="453" y="-18" font-family="Helvetica,sans-Serif" font-size="10.00">Client/src/client_network</text>
<text text-anchor="middle" x="513.5" y="-7" font-family="Helvetica,sans-Serif" font-size="10.00">_part_two.cpp</text>
</a>
</g>
</g>
<!-- Node3&#45;&gt;Node8 -->
<g id="edge7_Node000003_Node000008" class="edge">
<title>Node3&#45;&gt;Node8</title>
<g id="a_edge7_Node000003_Node000008"><a xlink:title=" ">
<path fill="none" stroke="#63b8ff" d="M647.46,-67.65C619.6,-56.9 579.24,-41.35 550.11,-30.12"/>
<polygon fill="#63b8ff" stroke="#63b8ff" points="646.52,-71.04 657.11,-71.37 649.04,-64.51 646.52,-71.04"/>
</a>
</g>
</g>
<!-- Node9 -->
<g id="Node000009" class="node">
<title>Node9</title>
<g id="a_Node000009"><a xlink:href="client__protocol_8cpp.html" target="_top" xlink:title=" ">
<polygon fill="white" stroke="#666666" points="758.5,-24.5 600.5,-24.5 600.5,-5.5 758.5,-5.5 758.5,-24.5"/>
<text text-anchor="middle" x="679.5" y="-12.5" font-family="Helvetica,sans-Serif" font-size="10.00">Client/src/client_protocol.cpp</text>
</a>
</g>
</g>
<!-- Node3&#45;&gt;Node9 -->
<g id="edge8_Node000003_Node000009" class="edge">
<title>Node3&#45;&gt;Node9</title>
<g id="a_edge8_Node000003_Node000009"><a xlink:title=" ">
<path fill="none" stroke="#63b8ff" d="M679.5,-61.08C679.5,-49.13 679.5,-34.22 679.5,-24.91"/>
<polygon fill="#63b8ff" stroke="#63b8ff" points="676,-61.37 679.5,-71.37 683,-61.37 676,-61.37"/>
</a>
</g>
</g>
<!-- Node10 -->
<g id="Node000010" class="node">
<title>Node10</title>
<g id="a_Node000010"><a xlink:href="client__replay_8cpp.html" target="_top" xlink:title=" ">
<polygon fill="white" stroke="#666666" points="924,-24.5 777,-24.5 777,-5.5 924,-5.5 924,-24.5"/>
<text text-anchor="middle" x="850.5" y="-12.5" font-family="Helvetica,sans-Serif" font-size="10.00">Client/src/client_replay.cpp</text>
</a>
</g>
</g>
<!-- Node3&#45;&gt;Node10 -->
<g id="edge9_Node000003_Node000010" class="edge">
<title>Node3&#45;&gt;Node10</title>
<g id="a_edge9_Node000003_Node000010"><a xlink:title=" ">
<path fill="none" stroke="#63b8ff" d="M711.99,-67.84C745.78,-55.2 797.79,-35.73 827.53,-24.6"/>
<polygon fill="#63b8ff" stroke="#63b8ff" points="710.7,-64.59 702.56,-71.37 713.15,-71.14 710.7,-64.59"/>
</a>
</g>
</g>
<!-- Node11 -->
<g id="Node000011" class="node">
<title>Node11</title>
<g id="a_Node000011"><a xlink:href="client__update_8cpp.html" target="_top" xlink:title=" ">
<polygon fill="white" stroke="#666666" points="1094.5,-24.5 942.5,-24.5 942.5,-5.5 1094.5,-5.5 1094.5,-24.5"/>
<text text-anchor="middle" x="1018.5" y="-12.5" font-family="Helvetica,sans-Serif" font-size="10.00">Client/src/client_update.cpp</text>
</a>
</g>
</g>
<!-- Node3&#45;&gt;Node11 -->
<g id="edge10_Node000003_Node000011" class="edge">
<title>Node3&#45;&gt;Node11</title>
<g id="a_edge10_Node000003_Node000011"><a xlink:title=" ">
<path fill="none" stroke="#63b8ff" d="M734.75,-69.57C801.29,-57.01 911.76,-36.15 973.4,-24.51"/>
<polygon fill="#63b8ff" stroke="#63b8ff" points="734.04,-66.14 724.87,-71.44 735.34,-73.02 734.04,-66.14"/>
</a>
</g>
</g>
<!-- Node12 -->
<g id="Node000012" class="node">
<title>Node12</title>
<g id="a_Node000012"><a xlink:href="main_8cpp.html" target="_top" xlink:title=" ">
<polygon fill="white" stroke="#666666" points="1222.5,-24.5 1112.5,-24.5 1112.5,-5.5 1222.5,-5.5 1222.5,-24.5"/>
<text text-anchor="middle" x="1167.5" y="-12.5" font-family="Helvetica,sans-Serif" font-size="10.00">Client/src/main.cpp</text>
</a>
</g>
</g>
<!-- Node3&#45;&gt;Node12 -->
<g id="edge11_Node000003_Node000012" class="edge">
<title>Node3&#45;&gt;Node12</title>
<g id="a_edge11_Node000003_Node000012"><a xlink:title=" ">
<path fill="none" stroke="#63b8ff" d="M732.43,-69.7C740.15,-68.35 748.02,-67.07 755.5,-66 909.41,-43.9 949.97,-54.65 1103.5,-30 1112.71,-28.52 1122.58,-26.55 1131.76,-24.56"/>
<polygon fill="#63b8ff" stroke="#63b8ff" points="731.64,-66.28 722.41,-71.48 732.87,-73.17 731.64,-66.28"/>
</a>
</g>
</g>
<!-- Node14&#45;&gt;Node3 -->
<g id="edge14_Node000014_Node000003" class="edge">
<title>Node14&#45;&gt;Node3</title>
<g id="a_edge14_Node000014_Node000003"><a xlink:title=" ">
<path fill="none" stroke="#63b8ff" d="M820.44,-133.84C786.06,-121.2 733.13,-101.73 702.87,-90.6"/>
<polygon fill="#63b8ff" stroke="#63b8ff" points="819.44,-137.2 830.03,-137.37 821.86,-130.63 819.44,-137.2"/>
</a>
</g>
</g>
<!-- Node15 -->
<g id="Node000015" class="node">
<title>Node15</title>
<g id="a_Node000015"><a xlink:href="SoloPlay_8cpp.html" target="_top" xlink:title=" ">
<polygon fill="white" stroke="#666666" points="1020.5,-90.5 894.5,-90.5 894.5,-71.5 1020.5,-71.5 1020.5,-90.5"/>
<text text-anchor="middle" x="957.5" y="-78.5" font-family="Helvetica,sans-Serif" font-size="10.00">Client/src/SoloPlay.cpp</text>
</a>
</g>
</g>
<!-- Node14&#45;&gt;Node15 -->
<g id="edge15_Node000014_Node000015" class="edge">
<title>Node14&#45;&gt;Node15</title>
<g id="a_edge15_Node000014_Node000015"><a xlink:title=" ">
<path fill="none" stroke="#63b8ff" d="M876.22,-132.02C896.67,-119.43 926.1,-101.32 943.36,-90.7"/>
<polygon fill="#63b8ff" stroke="#63b8ff" points="874.21,-129.15 867.53,-137.37 877.88,-135.11 874.21,-129.15"/>
</a>
</g>
</g>
<!-- Node16 -->
<g id="Node000016" class="node">
<title>Node16</title>
<g id="a_Node000016"><a xlink:href="solo__play__render_8cpp.html" target="_top" xlink:title=" ">
<polygon fill="white" stroke="#666666" points="876.5,-96 764.5,-96 764.5,-66 876.5,-66 876.5,-96"/>
<text text-anchor="start" x="772.5" y="-84" font-family="Helvetica,sans-Serif" font-size="10.00">Client/src/solo_play</text>
<text text-anchor="middle" x="820.5" y="-73" font-family="Helvetica,sans-Serif" font-size="10.00">_render.cpp</text>
</a>
</g>
</g>
<!-- Node14&#45;&gt;Node16 -->
<g id="edge16_Node000014_Node000016" class="edge">
<title>Node14&#45;&gt;Node16</title>
<g id="a_edge16_Node000014_Node000016"><a xlink:title=" ">
<path fill="none" stroke="#63b8ff" d="M844.37,-128.3C839.19,-118.24 832.78,-105.81 827.9,-96.36"/>
<polygon fill="#63b8ff" stroke="#63b8ff" points="841.36,-130.08 849.05,-137.37 847.58,-126.88 841.36,-130.08"/>
</a>
</g>
</g>
<!-- Node18 -->
<g id="Node000018" class="node">
<title>Node18</title>
<g id="a_Node000018"><a xlink:href="Core_8hpp.html" target="_top" xlink:title=" ">
<polygon fill="white" stroke="#666666" points="1540.5,-90.5 1416.5,-90.5 1416.5,-71.5 1540.5,-71.5 1540.5,-90.5"/>
<text text-anchor="middle" x="1478.5" y="-78.5" font-family="Helvetica,sans-Serif" font-size="10.00">Core/include/Core.hpp</text>
</a>
</g>
</g>
<!-- Node17&#45;&gt;Node18 -->
<g id="edge19_Node000017_Node000018" class="edge">
<title>Node17&#45;&gt;Node18</title>
<g id="a_edge19_Node000017_Node000018"><a xlink:title=" ">
<path fill="none" stroke="#63b8ff" d="M1371.66,-133.03C1398.07,-120.42 1437.44,-101.61 1460.29,-90.7"/>
<polygon fill="#63b8ff" stroke="#63b8ff" points="1370.09,-129.9 1362.57,-137.37 1373.1,-136.22 1370.09,-129.9"/>
</a>
</g>
</g>
<!-- Node20 -->
<g id="Node000020" class="node">
<title>Node20</title>
<g id="a_Node000020"><a xlink:href="network_8cpp.html" target="_top" xlink:title=" ">
<polygon fill="white" stroke="#666666" points="1686.5,-90.5 1558.5,-90.5 1558.5,-71.5 1686.5,-71.5 1686.5,-90.5"/>
<text text-anchor="middle" x="1622.5" y="-78.5" font-family="Helvetica,sans-Serif" font-size="10.00">Server/src/network.cpp</text>
</a>
</g>
</g>
<!-- Node17&#45;&gt;Node20 -->
<g id="edge21_Node000017_Node000020" class="edge">
<title>Node17&#45;&gt;Node20</title>
<g id="a_edge21_Node000017_Node000020"><a xlink:title=" ">
<path fill="none" stroke="#63b8ff" d="M1391.5,-135.18C1446.23,-122.58 1535.49,-102.03 1585.52,-90.51"/>
<polygon fill="#63b8ff" stroke="#63b8ff" points="1390.66,-131.78 1381.7,-137.44 1392.23,-138.6 1390.66,-131.78"/>
</a>
</g>
</g>
<!-- Node21 -->
<g id="Node000021" class="node">
<title>Node21</title>
<g id="a_Node000021"><a xlink:href="network__client__info_8cpp.html" target="_top" xlink:title=" ">
<polygon fill="white" stroke="#666666" points="1812.5,-96 1704.5,-96 1704.5,-66 1812.5,-66 1812.5,-96"/>
<text text-anchor="start" x="1712.5" y="-84" font-family="Helvetica,sans-Serif" font-size="10.00">Server/src/network</text>
<text text-anchor="middle" x="1758.5" y="-73" font-family="Helvetica,sans-Serif" font-size="10.00">_client_info.cpp</text>
</a>
</g>
</g>
<!-- Node17&#45;&gt;Node21 -->
<g id="edge22_Node000017_Node000021" class="edge">
<title>Node17&#45;&gt;Node21</title>
<g id="a_edge22_Node000017_Node000021"><a xlink:title=" ">
<path fill="none" stroke="#63b8ff" d="M1404.1,-135.83C1412.29,-134.5 1420.6,-133.19 1428.5,-132 1546.9,-114.16 1577.62,-117.01 1695.5,-96 1698.37,-95.49 1701.3,-94.94 1704.26,-94.36"/>
<polygon fill="#63b8ff" stroke="#63b8ff" points="1403.51,-132.38 1394.21,-137.45 1404.64,-139.29 1403.51,-132.38"/>
</a>
</g>
</g>
<!-- Node22 -->
<g id="Node000022" class="node">
<title>Node22</title>
<g id="a_Node000022"><a xlink:href="network__generate_8cpp.html" target="_top" xlink:title=" ">
<polygon fill="white" stroke="#666666" points="1938.5,-96 1830.5,-96 1830.5,-66 1938.5,-66 1938.5,-96"/>
<text text-anchor="start" x="1838.5" y="-84" font-family="Helvetica,sans-Serif" font-size="10.00">Server/src/network</text>
<text text-anchor="middle" x="1884.5" y="-73" font-family="Helvetica,sans-Serif" font-size="10.00">_generate.cpp</text>
</a>
</g>
</g>
<!-- Node17&#45;&gt;Node22 -->
<g id="edge23_Node000017_Node000022" class="edge">
<title>Node17&#45;&gt;Node22</title>
<g id="a_edge23_Node000017_Node000022"><a xlink:title=" ">
<path fill="none" stroke="#63b8ff" d="M1401.87,-135.86C1410.77,-134.45 1419.87,-133.11 1428.5,-132 1602.46,-109.57 1648.21,-123.08 1821.5,-96 1824.38,-95.55 1827.32,-95.05 1830.29,-94.51"/>
<polygon fill="#63b8ff" stroke="#63b8ff" points="1401.26,-132.41 1391.94,-137.46 1402.37,-139.32 1401.26,-132.41"/>
</a>
</g>
</g>
<!-- Node23 -->
<g id="Node000023" class="node">
<title>Node23</title>
<g id="a_Node000023"><a xlink:href="network__lobby_8cpp.html" target="_top" xlink:title=" ">
<polygon fill="white" stroke="#666666" points="1146.5,-96 1038.5,-96 1038.5,-66 1146.5,-66 1146.5,-96"/>
<text text-anchor="start" x="1046.5" y="-84" font-family="Helvetica,sans-Serif" font-size="10.00">Server/src/network</text>
<text text-anchor="middle" x="1092.5" y="-73" font-family="Helvetica,sans-Serif" font-size="10.00">_lobby.cpp</text>
</a>
</g>
</g>
<!-- Node17&#45;&gt;Node23 -->
<g id="edge24_Node000017_Node000023" class="edge">
<title>Node17&#45;&gt;Node23</title>
<g id="a_edge24_Node000017_Node000023"><a xlink:title=" ">
<path fill="none" stroke="#63b8ff" d="M1300.95,-134.94C1258.2,-124.08 1192.87,-107.49 1146.77,-95.78"/>
<polygon fill="#63b8ff" stroke="#63b8ff" points="1300.22,-138.37 1310.78,-137.44 1301.94,-131.58 1300.22,-138.37"/>
</a>
</g>
</g>
<!-- Node24 -->
<g id="Node000024" class="node">
<title>Node24</title>
<g id="a_Node000024"><a xlink:href="network__server_8cpp.html" target="_top" xlink:title=" ">
<polygon fill="white" stroke="#666666" points="1272.5,-96 1164.5,-96 1164.5,-66 1272.5,-66 1272.5,-96"/>
<text text-anchor="start" x="1172.5" y="-84" font-family="Helvetica,sans-Serif" font-size="10.00">Server/src/network</text>
<text text-anchor="middle" x="1218.5" y="-73" font-family="Helvetica,sans-Serif" font-size="10.00">_server.cpp</text>
</a>
</g>
</g>
<!-- Node17&#45;&gt;Node24 -->
<g id="edge25_Node000017_Node000024" class="edge">
<title>Node17&#45;&gt;Node24</title>
<g id="a_edge25_Node000017_Node000024"><a xlink:title=" ">
<path fill="none" stroke="#63b8ff" d="M1318.49,-132.79C1297.43,-122.09 1267.82,-107.05 1246.29,-96.12"/>
<polygon fill="#63b8ff" stroke="#63b8ff" points="1317.01,-135.96 1327.51,-137.37 1320.18,-129.72 1317.01,-135.96"/>
</a>
</g>
</g>
<!-- Node25 -->
<g id="Node000025" class="node">
<title>Node25</title>
<g id="a_Node000025"><a xlink:href="network__update_8cpp.html" target="_top" xlink:title=" ">
<polygon fill="white" stroke="#666666" points="1398.5,-96 1290.5,-96 1290.5,-66 1398.5,-66 1398.5,-96"/>
<text text-anchor="start" x="1298.5" y="-84" font-family="Helvetica,sans-Serif" font-size="10.00">Server/src/network</text>
<text text-anchor="middle" x="1344.5" y="-73" font-family="Helvetica,sans-Serif" font-size="10.00">_update.cpp</text>
</a>
</g>
</g>
<!-- Node17&#45;&gt;Node25 -->
<g id="edge26_Node000017_Node000025" class="edge">
<title>Node17&#45;&gt;Node25</title>
<g id="a_edge26_Node000017_Node000025"><a xlink:title=" ">
<path fill="none" stroke="#63b8ff" d="M1344.5,-127.35C1344.5,-117.47 1344.5,-105.51 1344.5,-96.36"/>
<polygon fill="#63b8ff" stroke="#63b8ff" points="1341,-127.37 1344.5,-137.37 1348,-127.37 1341,-127.37"/>
</a>
</g>
</g>
<!-- Node19 -->
<g id="Node000019" class="node">
<title>Node19</title>
<g id="a_Node000019"><a xlink:href="Core_8cpp.html" target="_top" xlink:title=" ">
<polygon fill="white" stroke="#666666" points="1529.5,-24.5 1427.5,-24.5 1427.5,-5.5 1529.5,-5.5 1529.5,-24.5"/>
<text text-anchor="middle" x="1478.5" y="-12.5" font-family="Helvetica,sans-Serif" font-size="10.00">Core/src/Core.cpp</text>
</a>
</g>
</g>
<!-- Node18&#45;&gt;Node19 -->
<g id="edge20_Node000018_Node000019" class="edge">
<title>Node18&#45;&gt;Node19</title>
<g id="a_edge20_Node000018_Node000019"><a xlink:title=" ">
<path fill="none" stroke="#63b8ff" d="M1478.5,-61.08C1478.5,-49.13 1478.5,-34.22 1478.5,-24.91"/>
<polygon fill="#63b8ff" stroke="#63b8ff" points="1475,-61.37 1478.5,-71.37 1482,-61.37 1475,-61.37"/>
</a>
</g>
</g>
</g>
</svg>

<g id="navigator" transform="translate(0 0)" fill="#404254">
  <rect fill="#f2f5e9" fill-opacity="0.5" stroke="#606060" stroke-width=".5" x="0" y="0" width="60" height="60"/>
  <use id="zoomplus" xlink:href="#zoomPlus" x="17" y="9" onmousedown="handleZoom(evt,'in')"/>
  <use id="zoomminus" xlink:href="#zoomMin" x="42" y="9" onmousedown="handleZoom(evt,'out')"/>
  <use id="reset" xlink:href="#resetDef" x="30" y="36" onmousedown="handleReset()"/>
   <use id="arrowup" xlink:href="#arrowUp" x="0" y="0" onmousedown="handlePan(0,-1)"/>
  <use id="arrowright" xlink:href="#arrowRight" x="0" y="0" onmousedown="handlePan(1,0)"/>
  <use id="arrowdown" xlink:href="#arrowDown" x="0" y="0" onmousedown="handlePan(0,1)"/>
  <use id="arrowleft" xlink:href="#arrowLeft" x="0" y="0" onmousedown="handlePan(-1,0)"/>
</g>
<svg viewBox="0 0 15 15" width="100%" height="30px" preserveAspectRatio="xMaxYMin meet">
 <g id="arrow_out" transform="scale(0.3 0.3)">
  <a xlink:href="protocol_8hpp__dep__incl_org.svg" target="_base">
   <rect id="button" ry="5" rx="5" y="6" x="6" height="38" width="38"
        fill="#f2f5e9" fill-opacity="0.5" stroke="#606060" stroke-width="1.0"/>
   <path id="arrow"
     d="M 11.500037,31.436501 C 11.940474,20.09759 22.043105,11.32322 32.158766,21.979434 L 37.068811,17.246167 C 37.068811,17.246167 37.088388,32 37.088388,32 L 22.160133,31.978069 C 22.160133,31.978069 26.997745,27.140456 26.997745,27.140456 C 18.528582,18.264221 13.291696,25.230495 11.500037,31.436501 z"
     style="fill:#404040;"/>
  </a>
 </g>
</svg>

<style type='text/css'>
<![CDATA[
[data-mouse-over-selected='false'] { opacity: 0.7; }
[data-mouse-over-selected='true']  { opacity: 1.0; }
]]>
</style>
<script type="application/ecmascript"><![CDATA[
document.addEventListener('DOMContentLoaded', (event) => {
  highlightEdges();
  highlightAdjacentNodes();
});
]]></script>
</svg>
