<?xml version="1.0" encoding="UTF-8" standalone="no"?>
<!DOCTYPE svg PUBLIC "-//W3C//DTD SVG 1.1//EN"
 "http://www.w3.org/Graphics/SVG/1.1/DTD/svg11.dtd">
<!-- Generated by graphviz version 2.43.0 (0)
 -->
<!-- Title: GameEngine/src/Quadtree.cpp Pages: 1 -->
<svg width="1984pt" height="192pt"
 viewBox="0.00 0.00 1984.00 192.00" xmlns="http://www.w3.org/2000/svg" xmlns:xlink="http://www.w3.org/1999/xlink">
<g id="graph0" class="graph" transform="scale(1 1) rotate(0) translate(4 188)">
<title>GameEngine/src/Quadtree.cpp</title>
<!-- Node1 -->
<g id="Node000001" class="node">
<title>Node1</title>
<g id="a_Node000001"><a xlink:title=" ">
<polygon fill="#999999" stroke="#666666" points="1158,-184 994,-184 994,-165 1158,-165 1158,-184"/>
<text text-anchor="middle" x="1076" y="-172" font-family="Helvetica,sans-Serif" font-size="10.00">GameEngine/src/Quadtree.cpp</text>
</a>
</g>
</g>
<!-- Node2 -->
<g id="Node000002" class="node">
<title>Node2</title>
<g id="a_Node000002"><a xlink:href="Quadtree_8hpp.html" target="_top" xlink:title=" ">
<polygon fill="white" stroke="#666666" points="1141,-129 1011,-129 1011,-110 1141,-110 1141,-129"/>
<text text-anchor="middle" x="1076" y="-117" font-family="Helvetica,sans-Serif" font-size="10.00">../Include/Quadtree.hpp</text>
</a>
</g>
</g>
<!-- Node1&#45;&gt;Node2 -->
<g id="edge1_Node000001_Node000002" class="edge">
<title>Node1&#45;&gt;Node2</title>
<g id="a_edge1_Node000001_Node000002"><a xlink:title=" ">
<path fill="none" stroke="#63b8ff" d="M1076,-164.75C1076,-157.8 1076,-147.85 1076,-139.13"/>
<polygon fill="#63b8ff" stroke="#63b8ff" points="1079.5,-139.09 1076,-129.09 1072.5,-139.09 1079.5,-139.09"/>
</a>
</g>
</g>
<!-- Node3 -->
<g id="Node000003" class="node">
<title>Node3</title>
<g id="a_Node000003"><a xlink:title=" ">
<polygon fill="#e0e0e0" stroke="#999999" points="110,-19 0,-19 0,0 110,0 110,-19"/>
<text text-anchor="middle" x="55" y="-7" font-family="Helvetica,sans-Serif" font-size="10.00">SFML/Graphics.hpp</text>
</a>
</g>
</g>
<!-- Node2&#45;&gt;Node3 -->
<g id="edge2_Node000002_Node000003" class="edge">
<title>Node2&#45;&gt;Node3</title>
<g id="a_edge2_Node000002_Node000003"><a xlink:title=" ">
<path fill="none" stroke="#63b8ff" d="M1010.94,-118.73C878.55,-118.32 568.66,-112.84 312,-74 232.5,-61.97 141.63,-36.73 92.07,-21.95"/>
<polygon fill="#63b8ff" stroke="#63b8ff" points="93.01,-18.58 82.43,-19.05 91,-25.28 93.01,-18.58"/>
</a>
</g>
</g>
<!-- Node4 -->
<g id="Node000004" class="node">
<title>Node4</title>
<g id="a_Node000004"><a xlink:title=" ">
<polygon fill="#e0e0e0" stroke="#999999" points="880,-74 776,-74 776,-55 880,-55 880,-74"/>
<text text-anchor="middle" x="828" y="-62" font-family="Helvetica,sans-Serif" font-size="10.00">SFML/System.hpp</text>
</a>
</g>
</g>
<!-- Node2&#45;&gt;Node4 -->
<g id="edge3_Node000002_Node000004" class="edge">
<title>Node2&#45;&gt;Node4</title>
<g id="a_edge3_Node000002_Node000004"><a xlink:title=" ">
<path fill="none" stroke="#63b8ff" d="M1036.15,-109.98C993.17,-100.8 924.63,-86.15 878.04,-76.19"/>
<polygon fill="#63b8ff" stroke="#63b8ff" points="878.67,-72.75 868.16,-74.08 877.21,-79.59 878.67,-72.75"/>
</a>
</g>
</g>
<!-- Node5 -->
<g id="Node000005" class="node">
<title>Node5</title>
<g id="a_Node000005"><a xlink:title=" ">
<polygon fill="#e0e0e0" stroke="#999999" points="1003.5,-74 898.5,-74 898.5,-55 1003.5,-55 1003.5,-74"/>
<text text-anchor="middle" x="951" y="-62" font-family="Helvetica,sans-Serif" font-size="10.00">SFML/Window.hpp</text>
</a>
</g>
</g>
<!-- Node2&#45;&gt;Node5 -->
<g id="edge4_Node000002_Node000005" class="edge">
<title>Node2&#45;&gt;Node5</title>
<g id="a_edge4_Node000002_Node000005"><a xlink:title=" ">
<path fill="none" stroke="#63b8ff" d="M1055.92,-109.98C1035.63,-101.38 1004.04,-87.99 980.83,-78.15"/>
<polygon fill="#63b8ff" stroke="#63b8ff" points="982.02,-74.85 971.45,-74.17 979.29,-81.3 982.02,-74.85"/>
</a>
</g>
</g>
<!-- Node6 -->
<g id="Node000006" class="node">
<title>Node6</title>
<g id="a_Node000006"><a xlink:title=" ">
<polygon fill="#e0e0e0" stroke="#999999" points="223.5,-19 128.5,-19 128.5,0 223.5,0 223.5,-19"/>
<text text-anchor="middle" x="176" y="-7" font-family="Helvetica,sans-Serif" font-size="10.00">SFML/Audio.hpp</text>
</a>
</g>
</g>
<!-- Node2&#45;&gt;Node6 -->
<g id="edge5_Node000002_Node000006" class="edge">
<title>Node2&#45;&gt;Node6</title>
<g id="a_edge5_Node000002_Node000006"><a xlink:title=" ">
<path fill="none" stroke="#63b8ff" d="M1010.65,-118.92C888.68,-118.66 618.48,-113.22 395,-74 327.5,-62.15 251.14,-37.29 208.77,-22.43"/>
<polygon fill="#63b8ff" stroke="#63b8ff" points="209.86,-19.1 199.26,-19.06 207.52,-25.7 209.86,-19.1"/>
</a>
</g>
</g>
<!-- Node7 -->
<g id="Node000007" class="node">
<title>Node7</title>
<g id="a_Node000007"><a xlink:title=" ">
<polygon fill="#e0e0e0" stroke="#999999" points="1130,-74 1022,-74 1022,-55 1130,-55 1130,-74"/>
<text text-anchor="middle" x="1076" y="-62" font-family="Helvetica,sans-Serif" font-size="10.00">SFML/Network.hpp</text>
</a>
</g>
</g>
<!-- Node2&#45;&gt;Node7 -->
<g id="edge6_Node000002_Node000007" class="edge">
<title>Node2&#45;&gt;Node7</title>
<g id="a_edge6_Node000002_Node000007"><a xlink:title=" ">
<path fill="none" stroke="#63b8ff" d="M1076,-109.75C1076,-102.8 1076,-92.85 1076,-84.13"/>
<polygon fill="#63b8ff" stroke="#63b8ff" points="1079.5,-84.09 1076,-74.09 1072.5,-84.09 1079.5,-84.09"/>
</a>
</g>
</g>
<!-- Node8 -->
<g id="Node000008" class="node">
<title>Node8</title>
<g id="a_Node000008"><a xlink:title=" ">
<polygon fill="#e0e0e0" stroke="#999999" points="302,-19 242,-19 242,0 302,0 302,-19"/>
<text text-anchor="middle" x="272" y="-7" font-family="Helvetica,sans-Serif" font-size="10.00">iostream</text>
</a>
</g>
</g>
<!-- Node2&#45;&gt;Node8 -->
<g id="edge7_Node000002_Node000008" class="edge">
<title>Node2&#45;&gt;Node8</title>
<g id="a_edge7_Node000002_Node000008"><a xlink:title=" ">
<path fill="none" stroke="#63b8ff" d="M1010.76,-118.75C898.99,-118.05 664.17,-111.71 470,-74 409.17,-62.19 340.89,-37.66 302.5,-22.79"/>
<polygon fill="#63b8ff" stroke="#63b8ff" points="303.54,-19.44 292.96,-19.05 300.99,-25.95 303.54,-19.44"/>
</a>
</g>
</g>
<!-- Node9 -->
<g id="Node000009" class="node">
<title>Node9</title>
<g id="a_Node000009"><a xlink:title=" ">
<polygon fill="#e0e0e0" stroke="#999999" points="1195.5,-74 1148.5,-74 1148.5,-55 1195.5,-55 1195.5,-74"/>
<text text-anchor="middle" x="1172" y="-62" font-family="Helvetica,sans-Serif" font-size="10.00">vector</text>
</a>
</g>
</g>
<!-- Node2&#45;&gt;Node9 -->
<g id="edge8_Node000002_Node000009" class="edge">
<title>Node2&#45;&gt;Node9</title>
<g id="a_edge8_Node000002_Node000009"><a xlink:title=" ">
<path fill="none" stroke="#63b8ff" d="M1091.42,-109.98C1106.45,-101.69 1129.54,-88.94 1147.16,-79.22"/>
<polygon fill="#63b8ff" stroke="#63b8ff" points="1149.23,-82.07 1156.3,-74.17 1145.85,-75.94 1149.23,-82.07"/>
</a>
</g>
</g>
<!-- Node10 -->
<g id="Node000010" class="node">
<title>Node10</title>
<g id="a_Node000010"><a xlink:title=" ">
<polygon fill="#e0e0e0" stroke="#999999" points="413.5,-19 320.5,-19 320.5,0 413.5,0 413.5,-19"/>
<text text-anchor="middle" x="367" y="-7" font-family="Helvetica,sans-Serif" font-size="10.00">unordered_map</text>
</a>
</g>
</g>
<!-- Node2&#45;&gt;Node10 -->
<g id="edge9_Node000002_Node000010" class="edge">
<title>Node2&#45;&gt;Node10</title>
<g id="a_edge9_Node000002_Node000010"><a xlink:title=" ">
<path fill="none" stroke="#63b8ff" d="M1011,-118.96C908.52,-118.4 703.7,-112.03 535,-74 483.45,-62.38 426.53,-38.32 393.94,-23.38"/>
<polygon fill="#63b8ff" stroke="#63b8ff" points="395.18,-20.1 384.64,-19.06 392.23,-26.44 395.18,-20.1"/>
</a>
</g>
</g>
<!-- Node11 -->
<g id="Node000011" class="node">
<title>Node11</title>
<g id="a_Node000011"><a xlink:title=" ">
<polygon fill="#e0e0e0" stroke="#999999" points="518,-19 432,-19 432,0 518,0 518,-19"/>
<text text-anchor="middle" x="475" y="-7" font-family="Helvetica,sans-Serif" font-size="10.00">unordered_set</text>
</a>
</g>
</g>
<!-- Node2&#45;&gt;Node11 -->
<g id="edge10_Node000002_Node000011" class="edge">
<title>Node2&#45;&gt;Node11</title>
<g id="a_edge10_Node000002_Node000011"><a xlink:title=" ">
<path fill="none" stroke="#63b8ff" d="M1010.75,-116.39C894.54,-112.01 656.56,-100.1 578,-74 545.67,-63.26 512.97,-40.65 493.34,-25.51"/>
<polygon fill="#63b8ff" stroke="#63b8ff" points="495.31,-22.6 485.29,-19.15 490.97,-28.1 495.31,-22.6"/>
</a>
</g>
</g>
<!-- Node12 -->
<g id="Node000012" class="node">
<title>Node12</title>
<g id="a_Node000012"><a xlink:title=" ">
<polygon fill="#e0e0e0" stroke="#999999" points="594,-19 536,-19 536,0 594,0 594,-19"/>
<text text-anchor="middle" x="565" y="-7" font-family="Helvetica,sans-Serif" font-size="10.00">memory</text>
</a>
</g>
</g>
<!-- Node2&#45;&gt;Node12 -->
<g id="edge11_Node000002_Node000012" class="edge">
<title>Node2&#45;&gt;Node12</title>
<g id="a_edge11_Node000002_Node000012"><a xlink:title=" ">
<path fill="none" stroke="#63b8ff" d="M1010.9,-115.88C888.09,-110.45 631.5,-96.53 598,-74 582.72,-63.72 574.07,-44.06 569.5,-29.32"/>
<polygon fill="#63b8ff" stroke="#63b8ff" points="572.76,-27.98 566.75,-19.25 566.01,-29.82 572.76,-27.98"/>
</a>
</g>
</g>
<!-- Node13 -->
<g id="Node000013" class="node">
<title>Node13</title>
<g id="a_Node000013"><a xlink:title=" ">
<polygon fill="#e0e0e0" stroke="#999999" points="1260.5,-74 1213.5,-74 1213.5,-55 1260.5,-55 1260.5,-74"/>
<text text-anchor="middle" x="1237" y="-62" font-family="Helvetica,sans-Serif" font-size="10.00">cmath</text>
</a>
</g>
</g>
<!-- Node2&#45;&gt;Node13 -->
<g id="edge12_Node000002_Node000013" class="edge">
<title>Node2&#45;&gt;Node13</title>
<g id="a_edge12_Node000002_Node000013"><a xlink:title=" ">
<path fill="none" stroke="#63b8ff" d="M1101.87,-109.98C1129.5,-100.89 1173.39,-86.44 1203.61,-76.49"/>
<polygon fill="#63b8ff" stroke="#63b8ff" points="1204.89,-79.75 1213.3,-73.3 1202.7,-73.11 1204.89,-79.75"/>
</a>
</g>
</g>
<!-- Node14 -->
<g id="Node000014" class="node">
<title>Node14</title>
<g id="a_Node000014"><a xlink:title=" ">
<polygon fill="#e0e0e0" stroke="#999999" points="1323,-74 1279,-74 1279,-55 1323,-55 1323,-74"/>
<text text-anchor="middle" x="1301" y="-62" font-family="Helvetica,sans-Serif" font-size="10.00">ctime</text>
</a>
</g>
</g>
<!-- Node2&#45;&gt;Node14 -->
<g id="edge13_Node000002_Node000014" class="edge">
<title>Node2&#45;&gt;Node14</title>
<g id="a_edge13_Node000002_Node000014"><a xlink:title=" ">
<path fill="none" stroke="#63b8ff" d="M1115.5,-109.95C1152.71,-101.78 1210.25,-88.86 1268.88,-74.2"/>
<polygon fill="#63b8ff" stroke="#63b8ff" points="1269.83,-77.57 1278.68,-71.74 1268.13,-70.79 1269.83,-77.57"/>
</a>
</g>
</g>
<!-- Node15 -->
<g id="Node000015" class="node">
<title>Node15</title>
<g id="a_Node000015"><a xlink:title=" ">
<polygon fill="#e0e0e0" stroke="#999999" points="1390.5,-74 1341.5,-74 1341.5,-55 1390.5,-55 1390.5,-74"/>
<text text-anchor="middle" x="1366" y="-62" font-family="Helvetica,sans-Serif" font-size="10.00">cstdlib</text>
</a>
</g>
</g>
<!-- Node2&#45;&gt;Node15 -->
<g id="edge14_Node000002_Node000015" class="edge">
<title>Node2&#45;&gt;Node15</title>
<g id="a_edge14_Node000002_Node000015"><a xlink:title=" ">
<path fill="none" stroke="#63b8ff" d="M1131.91,-109.99C1181.68,-102.13 1256.7,-89.63 1331.14,-74.05"/>
<polygon fill="#63b8ff" stroke="#63b8ff" points="1332.11,-77.42 1341.17,-71.93 1330.66,-70.57 1332.11,-77.42"/>
</a>
</g>
</g>
<!-- Node16 -->
<g id="Node000016" class="node">
<title>Node16</title>
<g id="a_Node000016"><a xlink:title=" ">
<polygon fill="#e0e0e0" stroke="#999999" points="656,-19 612,-19 612,0 656,0 656,-19"/>
<text text-anchor="middle" x="634" y="-7" font-family="Helvetica,sans-Serif" font-size="10.00">string</text>
</a>
</g>
</g>
<!-- Node2&#45;&gt;Node16 -->
<g id="edge15_Node000002_Node000016" class="edge">
<title>Node2&#45;&gt;Node16</title>
<g id="a_edge15_Node000002_Node000016"><a xlink:title=" ">
<path fill="none" stroke="#63b8ff" d="M1010.55,-117.07C887.95,-113.72 633.62,-103.27 607,-74 594.85,-60.64 606.37,-41 617.89,-27.11"/>
<polygon fill="#63b8ff" stroke="#63b8ff" points="620.81,-29.1 624.86,-19.31 615.59,-24.44 620.81,-29.1"/>
</a>
</g>
</g>
<!-- Node17 -->
<g id="Node000017" class="node">
<title>Node17</title>
<g id="a_Node000017"><a xlink:title=" ">
<polygon fill="#e0e0e0" stroke="#999999" points="1463.5,-74 1408.5,-74 1408.5,-55 1463.5,-55 1463.5,-74"/>
<text text-anchor="middle" x="1436" y="-62" font-family="Helvetica,sans-Serif" font-size="10.00">fstream</text>
</a>
</g>
</g>
<!-- Node2&#45;&gt;Node17 -->
<g id="edge16_Node000002_Node000017" class="edge">
<title>Node2&#45;&gt;Node17</title>
<g id="a_edge16_Node000002_Node000017"><a xlink:title=" ">
<path fill="none" stroke="#63b8ff" d="M1141.15,-111.4C1204.54,-104.08 1303.76,-91.51 1398.15,-74.21"/>
<polygon fill="#63b8ff" stroke="#63b8ff" points="1398.95,-77.62 1408.15,-72.35 1397.68,-70.74 1398.95,-77.62"/>
</a>
</g>
</g>
<!-- Node18 -->
<g id="Node000018" class="node">
<title>Node18</title>
<g id="a_Node000018"><a xlink:title=" ">
<polygon fill="#e0e0e0" stroke="#999999" points="1538,-74 1482,-74 1482,-55 1538,-55 1538,-74"/>
<text text-anchor="middle" x="1510" y="-62" font-family="Helvetica,sans-Serif" font-size="10.00">sstream</text>
</a>
</g>
</g>
<!-- Node2&#45;&gt;Node18 -->
<g id="edge17_Node000002_Node000018" class="edge">
<title>Node2&#45;&gt;Node18</title>
<g id="a_edge17_Node000002_Node000018"><a xlink:title=" ">
<path fill="none" stroke="#63b8ff" d="M1141.3,-113.48C1218.16,-107.06 1349.77,-94.46 1471.89,-74.01"/>
<polygon fill="#63b8ff" stroke="#63b8ff" points="1472.51,-77.45 1481.79,-72.33 1471.34,-70.55 1472.51,-77.45"/>
</a>
</g>
</g>
<!-- Node19 -->
<g id="Node000019" class="node">
<title>Node19</title>
<g id="a_Node000019"><a xlink:title=" ">
<polygon fill="#e0e0e0" stroke="#999999" points="1620,-74 1556,-74 1556,-55 1620,-55 1620,-74"/>
<text text-anchor="middle" x="1588" y="-62" font-family="Helvetica,sans-Serif" font-size="10.00">algorithm</text>
</a>
</g>
</g>
<!-- Node2&#45;&gt;Node19 -->
<g id="edge18_Node000002_Node000019" class="edge">
<title>Node2&#45;&gt;Node19</title>
<g id="a_edge18_Node000002_Node000019"><a xlink:title=" ">
<path fill="none" stroke="#63b8ff" d="M1141.03,-114.63C1230.11,-108.83 1395.21,-96.27 1545.5,-74.06"/>
<polygon fill="#63b8ff" stroke="#63b8ff" points="1546.46,-77.46 1555.83,-72.52 1545.42,-70.54 1546.46,-77.46"/>
</a>
</g>
</g>
<!-- Node20 -->
<g id="Node000020" class="node">
<title>Node20</title>
<g id="a_Node000020"><a xlink:title=" ">
<polygon fill="#e0e0e0" stroke="#999999" points="1703.5,-74 1638.5,-74 1638.5,-55 1703.5,-55 1703.5,-74"/>
<text text-anchor="middle" x="1671" y="-62" font-family="Helvetica,sans-Serif" font-size="10.00">functional</text>
</a>
</g>
</g>
<!-- Node2&#45;&gt;Node20 -->
<g id="edge19_Node000002_Node000020" class="edge">
<title>Node2&#45;&gt;Node20</title>
<g id="a_edge19_Node000002_Node000020"><a xlink:title=" ">
<path fill="none" stroke="#63b8ff" d="M1141.4,-115.77C1243.3,-110.95 1446.25,-99.13 1628.04,-73.96"/>
<polygon fill="#63b8ff" stroke="#63b8ff" points="1628.63,-77.41 1638.05,-72.56 1627.66,-70.48 1628.63,-77.41"/>
</a>
</g>
</g>
<!-- Node21 -->
<g id="Node000021" class="node">
<title>Node21</title>
<g id="a_Node000021"><a xlink:title=" ">
<polygon fill="#e0e0e0" stroke="#999999" points="1770,-74 1722,-74 1722,-55 1770,-55 1770,-74"/>
<text text-anchor="middle" x="1746" y="-62" font-family="Helvetica,sans-Serif" font-size="10.00">thread</text>
</a>
</g>
</g>
<!-- Node2&#45;&gt;Node21 -->
<g id="edge20_Node000002_Node000021" class="edge">
<title>Node2&#45;&gt;Node21</title>
<g id="a_edge20_Node000002_Node000021"><a xlink:title=" ">
<path fill="none" stroke="#63b8ff" d="M1141.1,-117.86C1255.07,-115.88 1498.16,-107.87 1711.81,-73.87"/>
<polygon fill="#63b8ff" stroke="#63b8ff" points="1712.64,-77.28 1721.96,-72.23 1711.53,-70.37 1712.64,-77.28"/>
</a>
</g>
</g>
<!-- Node22 -->
<g id="Node000022" class="node">
<title>Node22</title>
<g id="a_Node000022"><a xlink:title=" ">
<polygon fill="#e0e0e0" stroke="#999999" points="1836,-74 1788,-74 1788,-55 1836,-55 1836,-74"/>
<text text-anchor="middle" x="1812" y="-62" font-family="Helvetica,sans-Serif" font-size="10.00">mutex</text>
</a>
</g>
</g>
<!-- Node2&#45;&gt;Node22 -->
<g id="edge21_Node000002_Node000022" class="edge">
<title>Node2&#45;&gt;Node22</title>
<g id="a_edge21_Node000002_Node000022"><a xlink:title=" ">
<path fill="none" stroke="#63b8ff" d="M1141.39,-118.47C1264.46,-117.51 1538.87,-111.14 1778.04,-73.82"/>
<polygon fill="#63b8ff" stroke="#63b8ff" points="1778.63,-77.27 1787.96,-72.25 1777.54,-70.36 1778.63,-77.27"/>
</a>
</g>
</g>
<!-- Node23 -->
<g id="Node000023" class="node">
<title>Node23</title>
<g id="a_Node000023"><a xlink:title=" ">
<polygon fill="#e0e0e0" stroke="#999999" points="1904,-74 1854,-74 1854,-55 1904,-55 1904,-74"/>
<text text-anchor="middle" x="1879" y="-62" font-family="Helvetica,sans-Serif" font-size="10.00">chrono</text>
</a>
</g>
</g>
<!-- Node2&#45;&gt;Node23 -->
<g id="edge22_Node000002_Node000023" class="edge">
<title>Node2&#45;&gt;Node23</title>
<g id="a_edge22_Node000002_Node000023"><a xlink:title=" ">
<path fill="none" stroke="#63b8ff" d="M1141.24,-118.83C1272.67,-118.59 1578.65,-113.56 1843.65,-73.89"/>
<polygon fill="#63b8ff" stroke="#63b8ff" points="1844.49,-77.3 1853.86,-72.34 1843.44,-70.38 1844.49,-77.3"/>
</a>
</g>
</g>
<!-- Node24 -->
<g id="Node000024" class="node">
<title>Node24</title>
<g id="a_Node000024"><a xlink:title=" ">
<polygon fill="#e0e0e0" stroke="#999999" points="1976,-74 1922,-74 1922,-55 1976,-55 1976,-74"/>
<text text-anchor="middle" x="1949" y="-62" font-family="Helvetica,sans-Serif" font-size="10.00">random</text>
</a>
</g>
</g>
<!-- Node2&#45;&gt;Node24 -->
<g id="edge23_Node000002_Node000024" class="edge">
<title>Node2&#45;&gt;Node24</title>
<g id="a_edge23_Node000002_Node000024"><a xlink:title=" ">
<path fill="none" stroke="#63b8ff" d="M1141.24,-118.98C1281.05,-119.16 1619.89,-115.04 1912.04,-73.85"/>
<polygon fill="#63b8ff" stroke="#63b8ff" points="1912.57,-77.31 1921.97,-72.43 1911.58,-70.38 1912.57,-77.31"/>
</a>
</g>
</g>
<!-- Node25 -->
<g id="Node000025" class="node">
<title>Node25</title>
<g id="a_Node000025"><a xlink:title=" ">
<polygon fill="#e0e0e0" stroke="#999999" points="1222,-19 1170,-19 1170,0 1222,0 1222,-19"/>
<text text-anchor="middle" x="1196" y="-7" font-family="Helvetica,sans-Serif" font-size="10.00">cassert</text>
</a>
</g>
</g>
<!-- Node2&#45;&gt;Node25 -->
<g id="edge24_Node000002_Node000025" class="edge">
<title>Node2&#45;&gt;Node25</title>
<g id="a_edge24_Node000002_Node000025"><a xlink:title=" ">
<path fill="none" stroke="#63b8ff" d="M1010.92,-116.4C901.28,-111.68 695.28,-97.13 734,-55 764.65,-21.66 1080.79,-26.09 1159.54,-18.6"/>
<polygon fill="#63b8ff" stroke="#63b8ff" points="1160.22,-22.04 1169.72,-17.34 1159.36,-15.09 1160.22,-22.04"/>
</a>
</g>
</g>
<!-- Node26 -->
<g id="Node000026" class="node">
<title>Node26</title>
<g id="a_Node000026"><a xlink:title=" ">
<polygon fill="#e0e0e0" stroke="#999999" points="1282,-19 1240,-19 1240,0 1282,0 1282,-19"/>
<text text-anchor="middle" x="1261" y="-7" font-family="Helvetica,sans-Serif" font-size="10.00">array</text>
</a>
</g>
</g>
<!-- Node2&#45;&gt;Node26 -->
<g id="edge25_Node000002_Node000026" class="edge">
<title>Node2&#45;&gt;Node26</title>
<g id="a_edge25_Node000002_Node000026"><a xlink:title=" ">
<path fill="none" stroke="#63b8ff" d="M1010.7,-118.7C929.53,-117.39 797.87,-109.64 767,-74 761.47,-67.62 761.26,-61.2 767,-55 800.54,-18.75 1146.83,-27.2 1229.9,-18.42"/>
<polygon fill="#63b8ff" stroke="#63b8ff" points="1230.38,-21.89 1239.82,-17.06 1229.43,-14.96 1230.38,-21.89"/>
</a>
</g>
</g>
<!-- Node27 -->
<g id="Node000027" class="node">
<title>Node27</title>
<g id="a_Node000027"><a xlink:href="Entity_8hpp.html" target="_top" xlink:title=" ">
<polygon fill="white" stroke="#666666" points="681.5,-74 616.5,-74 616.5,-55 681.5,-55 681.5,-74"/>
<text text-anchor="middle" x="649" y="-62" font-family="Helvetica,sans-Serif" font-size="10.00">Entity.hpp</text>
</a>
</g>
</g>
<!-- Node2&#45;&gt;Node27 -->
<g id="edge26_Node000002_Node000027" class="edge">
<title>Node2&#45;&gt;Node27</title>
<g id="a_edge26_Node000002_Node000027"><a xlink:title=" ">
<path fill="none" stroke="#63b8ff" d="M1010.95,-112.13C935.15,-104.42 806.21,-90.4 696,-74 694.54,-73.78 693.05,-73.55 691.55,-73.32"/>
<polygon fill="#63b8ff" stroke="#63b8ff" points="692.01,-69.85 681.57,-71.66 690.87,-76.75 692.01,-69.85"/>
</a>
</g>
</g>
<!-- Node27&#45;&gt;Node3 -->
<g id="edge38_Node000027_Node000003" class="edge">
<title>Node27&#45;&gt;Node3</title>
<g id="a_edge38_Node000027_Node000003"><a xlink:title=" ">
<path fill="none" stroke="#63b8ff" d="M616.38,-61.31C534.71,-55.72 314.66,-39.91 120.25,-19.09"/>
<polygon fill="#63b8ff" stroke="#63b8ff" points="120.46,-15.59 110.14,-17.99 119.7,-22.55 120.46,-15.59"/>
</a>
</g>
</g>
<!-- Node27&#45;&gt;Node6 -->
<g id="edge40_Node000027_Node000006" class="edge">
<title>Node27&#45;&gt;Node6</title>
<g id="a_edge40_Node000027_Node000006"><a xlink:title=" ">
<path fill="none" stroke="#63b8ff" d="M616.32,-60.47C547.64,-54 383.08,-37.98 233.83,-19.05"/>
<polygon fill="#63b8ff" stroke="#63b8ff" points="233.93,-15.54 223.57,-17.74 233.04,-22.48 233.93,-15.54"/>
</a>
</g>
</g>
<!-- Node27&#45;&gt;Node8 -->
<g id="edge27_Node000027_Node000008" class="edge">
<title>Node27&#45;&gt;Node8</title>
<g id="a_edge27_Node000027_Node000008"><a xlink:title=" ">
<path fill="none" stroke="#63b8ff" d="M616.23,-60.11C557.36,-53.82 429.6,-39.26 312.07,-19.06"/>
<polygon fill="#63b8ff" stroke="#63b8ff" points="312.64,-15.6 302.18,-17.34 311.44,-22.5 312.64,-15.6"/>
</a>
</g>
</g>
<!-- Node27&#45;&gt;Node10 -->
<g id="edge34_Node000027_Node000010" class="edge">
<title>Node27&#45;&gt;Node10</title>
<g id="a_edge34_Node000027_Node000010"><a xlink:title=" ">
<path fill="none" stroke="#63b8ff" d="M616.38,-57.37C568.92,-48.45 480.21,-31.78 422.39,-20.91"/>
<polygon fill="#63b8ff" stroke="#63b8ff" points="422.8,-17.43 412.33,-19.02 421.51,-24.31 422.8,-17.43"/>
</a>
</g>
</g>
<!-- Node27&#45;&gt;Node11 -->
<g id="edge41_Node000027_Node000011" class="edge">
<title>Node27&#45;&gt;Node11</title>
<g id="a_edge41_Node000027_Node000011"><a xlink:title=" ">
<path fill="none" stroke="#63b8ff" d="M621.04,-54.98C591.7,-46.05 545.4,-31.94 512.81,-22.02"/>
<polygon fill="#63b8ff" stroke="#63b8ff" points="513.76,-18.65 503.18,-19.08 511.72,-25.34 513.76,-18.65"/>
</a>
</g>
</g>
<!-- Node27&#45;&gt;Node12 -->
<g id="edge35_Node000027_Node000012" class="edge">
<title>Node27&#45;&gt;Node12</title>
<g id="a_edge35_Node000027_Node000012"><a xlink:title=" ">
<path fill="none" stroke="#63b8ff" d="M635.5,-54.98C622.6,-46.84 602.9,-34.41 587.6,-24.76"/>
<polygon fill="#63b8ff" stroke="#63b8ff" points="589.07,-21.55 578.74,-19.17 585.33,-27.47 589.07,-21.55"/>
</a>
</g>
</g>
<!-- Node27&#45;&gt;Node16 -->
<g id="edge29_Node000027_Node000016" class="edge">
<title>Node27&#45;&gt;Node16</title>
<g id="a_edge29_Node000027_Node000016"><a xlink:title=" ">
<path fill="none" stroke="#63b8ff" d="M646.52,-54.75C644.54,-47.72 641.68,-37.62 639.19,-28.84"/>
<polygon fill="#63b8ff" stroke="#63b8ff" points="642.52,-27.76 636.43,-19.09 635.79,-29.66 642.52,-27.76"/>
</a>
</g>
</g>
<!-- Node27&#45;&gt;Node25 -->
<g id="edge33_Node000027_Node000025" class="edge">
<title>Node27&#45;&gt;Node25</title>
<g id="a_edge33_Node000027_Node000025"><a xlink:title=" ">
<path fill="none" stroke="#63b8ff" d="M681.55,-57.17C686.38,-56.36 691.31,-55.6 696,-55 898.37,-28.93 954.54,-50.86 1159.83,-18.92"/>
<polygon fill="#63b8ff" stroke="#63b8ff" points="1160.39,-22.38 1169.72,-17.36 1159.3,-15.47 1160.39,-22.38"/>
</a>
</g>
</g>
<!-- Node27&#45;&gt;Node26 -->
<g id="edge32_Node000027_Node000026" class="edge">
<title>Node27&#45;&gt;Node26</title>
<g id="a_edge32_Node000027_Node000026"><a xlink:title=" ">
<path fill="none" stroke="#63b8ff" d="M681.68,-60.02C697.47,-58.39 716.71,-56.49 734,-55 951.42,-36.26 1011.14,-56.77 1229.95,-18.81"/>
<polygon fill="#63b8ff" stroke="#63b8ff" points="1230.57,-22.26 1239.82,-17.08 1229.36,-15.36 1230.57,-22.26"/>
</a>
</g>
</g>
<!-- Node28 -->
<g id="Node000028" class="node">
<title>Node28</title>
<g id="a_Node000028"><a xlink:title=" ">
<polygon fill="#e0e0e0" stroke="#999999" points="1024,-19 974,-19 974,0 1024,0 1024,-19"/>
<text text-anchor="middle" x="999" y="-7" font-family="Helvetica,sans-Serif" font-size="10.00">cstdint</text>
</a>
</g>
</g>
<!-- Node27&#45;&gt;Node28 -->
<g id="edge28_Node000027_Node000028" class="edge">
<title>Node27&#45;&gt;Node28</title>
<g id="a_edge28_Node000027_Node000028"><a xlink:title=" ">
<path fill="none" stroke="#63b8ff" d="M681.58,-57.41C686.41,-56.56 691.33,-55.73 696,-55 812.44,-36.72 845.44,-41.84 964.02,-19.21"/>
<polygon fill="#63b8ff" stroke="#63b8ff" points="964.69,-22.65 973.85,-17.31 963.36,-15.77 964.69,-22.65"/>
</a>
</g>
</g>
<!-- Node29 -->
<g id="Node000029" class="node">
<title>Node29</title>
<g id="a_Node000029"><a xlink:title=" ">
<polygon fill="#e0e0e0" stroke="#999999" points="1086,-19 1042,-19 1042,0 1086,0 1086,-19"/>
<text text-anchor="middle" x="1064" y="-7" font-family="Helvetica,sans-Serif" font-size="10.00">bitset</text>
</a>
</g>
</g>
<!-- Node27&#45;&gt;Node29 -->
<g id="edge30_Node000027_Node000029" class="edge">
<title>Node27&#45;&gt;Node29</title>
<g id="a_edge30_Node000027_Node000029"><a xlink:title=" ">
<path fill="none" stroke="#63b8ff" d="M681.57,-57.29C686.4,-56.47 691.32,-55.67 696,-55 841.9,-34.04 883.23,-46.45 1031.81,-18.93"/>
<polygon fill="#63b8ff" stroke="#63b8ff" points="1032.57,-22.35 1041.75,-17.06 1031.27,-15.47 1032.57,-22.35"/>
</a>
</g>
</g>
<!-- Node30 -->
<g id="Node000030" class="node">
<title>Node30</title>
<g id="a_Node000030"><a xlink:title=" ">
<polygon fill="#e0e0e0" stroke="#999999" points="1151.5,-19 1104.5,-19 1104.5,0 1151.5,0 1151.5,-19"/>
<text text-anchor="middle" x="1128" y="-7" font-family="Helvetica,sans-Serif" font-size="10.00">queue</text>
</a>
</g>
</g>
<!-- Node27&#45;&gt;Node30 -->
<g id="edge31_Node000027_Node000030" class="edge">
<title>Node27&#45;&gt;Node30</title>
<g id="a_edge31_Node000027_Node000030"><a xlink:title=" ">
<path fill="none" stroke="#63b8ff" d="M681.56,-57.23C686.39,-56.41 691.32,-55.63 696,-55 869.26,-31.56 917.8,-48.66 1094.43,-18.79"/>
<polygon fill="#63b8ff" stroke="#63b8ff" points="1095.04,-22.24 1104.31,-17.09 1093.86,-15.34 1095.04,-22.24"/>
</a>
</g>
</g>
<!-- Node31 -->
<g id="Node000031" class="node">
<title>Node31</title>
<g id="a_Node000031"><a xlink:title=" ">
<polygon fill="#e0e0e0" stroke="#999999" points="706,-19 674,-19 674,0 706,0 706,-19"/>
<text text-anchor="middle" x="690" y="-7" font-family="Helvetica,sans-Serif" font-size="10.00">set</text>
</a>
</g>
</g>
<!-- Node27&#45;&gt;Node31 -->
<g id="edge36_Node000027_Node000031" class="edge">
<title>Node27&#45;&gt;Node31</title>
<g id="a_edge36_Node000027_Node000031"><a xlink:title=" ">
<path fill="none" stroke="#63b8ff" d="M655.77,-54.75C661.56,-47.26 670.06,-36.28 677.14,-27.13"/>
<polygon fill="#63b8ff" stroke="#63b8ff" points="680.01,-29.14 683.36,-19.09 674.47,-24.86 680.01,-29.14"/>
</a>
</g>
</g>
<!-- Node32 -->
<g id="Node000032" class="node">
<title>Node32</title>
<g id="a_Node000032"><a xlink:title=" ">
<polygon fill="#e0e0e0" stroke="#999999" points="789.5,-19 724.5,-19 724.5,0 789.5,0 789.5,-19"/>
<text text-anchor="middle" x="757" y="-7" font-family="Helvetica,sans-Serif" font-size="10.00">typeindex</text>
</a>
</g>
</g>
<!-- Node27&#45;&gt;Node32 -->
<g id="edge37_Node000027_Node000032" class="edge">
<title>Node27&#45;&gt;Node32</title>
<g id="a_edge37_Node000027_Node000032"><a xlink:title=" ">
<path fill="none" stroke="#63b8ff" d="M666.35,-54.98C683.57,-46.54 710.2,-33.47 730.15,-23.68"/>
<polygon fill="#63b8ff" stroke="#63b8ff" points="731.9,-26.72 739.33,-19.17 728.81,-20.43 731.9,-26.72"/>
</a>
</g>
</g>
<!-- Node33 -->
<g id="Node000033" class="node">
<title>Node33</title>
<g id="a_Node000033"><a xlink:title=" ">
<polygon fill="#e0e0e0" stroke="#999999" points="956.5,-19 807.5,-19 807.5,0 956.5,0 956.5,-19"/>
<text text-anchor="middle" x="882" y="-7" font-family="Helvetica,sans-Serif" font-size="10.00">SFML/Graphics/Texture.hpp</text>
</a>
</g>
</g>
<!-- Node27&#45;&gt;Node33 -->
<g id="edge39_Node000027_Node000033" class="edge">
<title>Node27&#45;&gt;Node33</title>
<g id="a_edge39_Node000027_Node000033"><a xlink:title=" ">
<path fill="none" stroke="#63b8ff" d="M681.89,-56.02C721.66,-46.97 788.9,-31.68 834.34,-21.34"/>
<polygon fill="#63b8ff" stroke="#63b8ff" points="835.29,-24.72 844.26,-19.08 833.73,-17.89 835.29,-24.72"/>
</a>
</g>
</g>
</g>
</svg>
