<?xml version="1.0" encoding="UTF-8" standalone="no"?>
<!DOCTYPE svg PUBLIC "-//W3C//DTD SVG 1.1//EN"
 "http://www.w3.org/Graphics/SVG/1.1/DTD/svg11.dtd">
<!-- Generated by graphviz version 2.43.0 (0)
 -->
<!-- Title: GameEngine/Include/Quadtree.hpp Pages: 1 -->
<!--zoomable 368 -->

<svg id="main" version="1.1" xmlns="http://www.w3.org/2000/svg" xmlns:xlink="http://www.w3.org/1999/xlink" xml:space="preserve" onload="init(evt)">
<style type="text/css"><![CDATA[
.node, .edge {opacity: 0.7;}
.node.selected, .edge.selected {opacity: 1;}
.edge:hover path { stroke: red; }
.edge:hover polygon { stroke: red; fill: red; }
]]></style>

<defs>
  <circle id="rim" cx="0" cy="0" r="7"/>
  <circle id="rim2" cx="0" cy="0" r="3.5"/>
  <g id="zoomPlus">
    <use xlink:href="#rim" fill="#404040"><set attributeName="fill" to="#808080" begin="zoomplus.mouseover" end="zoomplus.mouseout"/></use>
    <path d="M-4,0h8M0,-4v8" fill="none" stroke="white" stroke-width="1.5" pointer-events="none"/>
  </g>
  <g id="zoomMin">
    <use xlink:href="#rim" fill="#404040"><set attributeName="fill" to="#808080" begin="zoomminus.mouseover" end="zoomminus.mouseout"/></use>
    <path d="M-4,0h8" fill="none" stroke="white" stroke-width="1.5" pointer-events="none"/>
  </g>
  <g id="arrowUp" transform="translate(30 24)">
    <use xlink:href="#rim"/>
    <path pointer-events="none" fill="none" stroke="white" stroke-width="1.5" d="M0,-3.0v7 M-2.5,-0.5L0,-3.0L2.5,-0.5"/>
  </g>
  <g id="arrowRight" transform="rotate(90) translate(36 -43)">
    <use xlink:href="#rim"/>
    <path pointer-events="none" fill="none" stroke="white" stroke-width="1.5" d="M0,-3.0v7 M-2.5,-0.5L0,-3.0L2.5,-0.5"/>
  </g>
  <g id="arrowDown" transform="rotate(180) translate(-30 -48)">
    <use xlink:href="#rim"/>
    <path pointer-events="none" fill="none" stroke="white" stroke-width="1.5" d="M0,-3.0v7 M-2.5,-0.5L0,-3.0L2.5,-0.5"/>
  </g>
  <g id="arrowLeft" transform="rotate(270) translate(-36 17)">
    <use xlink:href="#rim"/>
    <path pointer-events="none" fill="none" stroke="white" stroke-width="1.5" d="M0,-3.0v7 M-2.5,-0.5L0,-3.0L2.5,-0.5"/>
  </g>
  <g id="resetDef">
    <use xlink:href="#rim2" fill="#404040"><set attributeName="fill" to="#808080" begin="reset.mouseover" end="reset.mouseout"/></use>
  </g>
</defs>
<script type="application/ecmascript">
var viewWidth = 1880;
var viewHeight = 368;
var sectionId = 'dynsection-1';
</script>
<script type="application/ecmascript" xlink:href="svg.min.js"/>
<svg id="graph" class="graph">
<g id="viewport">
<title>GameEngine/Include/Quadtree.hpp</title>
<!-- Node1 -->
<g id="Node000001" class="node">
<title>Node1</title>
<g id="a_Node000001"><a xlink:title=" ">
<polygon fill="#999999" stroke="#666666" points="1249,-360 1132,-360 1132,-330 1249,-330 1249,-360"/>
<text text-anchor="start" x="1140" y="-348" font-family="Helvetica,sans-Serif" font-size="10.00">GameEngine/Include</text>
<text text-anchor="middle" x="1190.5" y="-337" font-family="Helvetica,sans-Serif" font-size="10.00">/Quadtree.hpp</text>
</a>
</g>
</g>
<!-- Node2 -->
<g id="Node000002" class="node">
<title>Node2</title>
<g id="a_Node000002"><a xlink:href="CollisionSystem_8hpp.html" target="_top" xlink:title=" ">
<polygon fill="white" stroke="#666666" points="1206,-294 1087,-294 1087,-264 1206,-264 1206,-294"/>
<text text-anchor="start" x="1095" y="-282" font-family="Helvetica,sans-Serif" font-size="10.00">GameEngine/Include</text>
<text text-anchor="middle" x="1146.5" y="-271" font-family="Helvetica,sans-Serif" font-size="10.00">/CollisionSystem.hpp</text>
</a>
</g>
</g>
<!-- Node1&#45;&gt;Node2 -->
<g id="edge1_Node000001_Node000002" class="edge">
<title>Node1&#45;&gt;Node2</title>
<g id="a_edge1_Node000001_Node000002"><a xlink:title=" ">
<path fill="none" stroke="#63b8ff" d="M1175.05,-321.53C1168.79,-312.43 1161.76,-302.19 1156.24,-294.16"/>
<polygon fill="#63b8ff" stroke="#63b8ff" points="1172.19,-323.54 1180.73,-329.8 1177.95,-319.57 1172.19,-323.54"/>
</a>
</g>
</g>
<!-- Node17 -->
<g id="Node000017" class="node">
<title>Node17</title>
<g id="a_Node000017"><a xlink:href="network_8hpp.html" target="_top" xlink:title=" ">
<polygon fill="white" stroke="#666666" points="1309.5,-222.5 1159.5,-222.5 1159.5,-203.5 1309.5,-203.5 1309.5,-222.5"/>
<text text-anchor="middle" x="1234.5" y="-210.5" font-family="Helvetica,sans-Serif" font-size="10.00">Server/include/network.hpp</text>
</a>
</g>
</g>
<!-- Node1&#45;&gt;Node17 -->
<g id="edge39_Node000001_Node000017" class="edge">
<title>Node1&#45;&gt;Node17</title>
<g id="a_edge39_Node000001_Node000017"><a xlink:title=" ">
<path fill="none" stroke="#63b8ff" d="M1203.45,-320.89C1207.72,-312.59 1212.21,-303.05 1215.5,-294 1224.66,-268.78 1230.61,-237.45 1233.13,-222.6"/>
<polygon fill="#63b8ff" stroke="#63b8ff" points="1200.24,-319.48 1198.62,-329.95 1206.41,-322.77 1200.24,-319.48"/>
</a>
</g>
</g>
<!-- Node26 -->
<g id="Node000026" class="node">
<title>Node26</title>
<g id="a_Node000026"><a xlink:href="GameLogic_8hpp.html" target="_top" xlink:title=" ">
<polygon fill="white" stroke="#666666" points="775,-294 658,-294 658,-264 775,-264 775,-294"/>
<text text-anchor="start" x="666" y="-282" font-family="Helvetica,sans-Serif" font-size="10.00">GameEngine/Include</text>
<text text-anchor="middle" x="716.5" y="-271" font-family="Helvetica,sans-Serif" font-size="10.00">/GameLogic.hpp</text>
</a>
</g>
</g>
<!-- Node1&#45;&gt;Node26 -->
<g id="edge25_Node000001_Node000026" class="edge">
<title>Node1&#45;&gt;Node26</title>
<g id="a_edge25_Node000001_Node000026"><a xlink:title=" ">
<path fill="none" stroke="#63b8ff" d="M1121.72,-334.71C1028.38,-322.11 863.21,-299.81 775.33,-287.94"/>
<polygon fill="#63b8ff" stroke="#63b8ff" points="1121.52,-338.22 1131.9,-336.09 1122.46,-331.28 1121.52,-338.22"/>
</a>
</g>
</g>
<!-- Node32 -->
<g id="Node000032" class="node">
<title>Node32</title>
<g id="a_Node000032"><a xlink:href="Quadtree_8cpp.html" target="_top" xlink:title=" ">
<polygon fill="white" stroke="#666666" points="1426.5,-288.5 1262.5,-288.5 1262.5,-269.5 1426.5,-269.5 1426.5,-288.5"/>
<text text-anchor="middle" x="1344.5" y="-276.5" font-family="Helvetica,sans-Serif" font-size="10.00">GameEngine/src/Quadtree.cpp</text>
</a>
</g>
</g>
<!-- Node1&#45;&gt;Node32 -->
<g id="edge38_Node000001_Node000032" class="edge">
<title>Node1&#45;&gt;Node32</title>
<g id="a_edge38_Node000001_Node000032"><a xlink:title=" ">
<path fill="none" stroke="#63b8ff" d="M1233.57,-326.1C1263.13,-313.82 1301.03,-298.06 1324.01,-288.52"/>
<polygon fill="#63b8ff" stroke="#63b8ff" points="1232.19,-322.89 1224.3,-329.95 1234.87,-329.35 1232.19,-322.89"/>
</a>
</g>
</g>
<!-- Node3 -->
<g id="Node000003" class="node">
<title>Node3</title>
<g id="a_Node000003"><a xlink:href="SoloPlay_8hpp.html" target="_top" xlink:title=" ">
<polygon fill="white" stroke="#666666" points="953.5,-156.5 805.5,-156.5 805.5,-137.5 953.5,-137.5 953.5,-156.5"/>
<text text-anchor="middle" x="879.5" y="-144.5" font-family="Helvetica,sans-Serif" font-size="10.00">Client/include/SoloPlay.hpp</text>
</a>
</g>
</g>
<!-- Node2&#45;&gt;Node3 -->
<g id="edge2_Node000002_Node000003" class="edge">
<title>Node2&#45;&gt;Node3</title>
<g id="a_edge2_Node000002_Node000003"><a xlink:title=" ">
<path fill="none" stroke="#63b8ff" d="M1108.39,-259.44C1049.81,-230.92 939.95,-177.43 897.18,-156.61"/>
<polygon fill="#63b8ff" stroke="#63b8ff" points="1107.15,-262.73 1117.67,-263.96 1110.21,-256.44 1107.15,-262.73"/>
</a>
</g>
</g>
<!-- Node16 -->
<g id="Node000016" class="node">
<title>Node16</title>
<g id="a_Node000016"><a xlink:href="CollisionSystem_8cpp.html" target="_top" xlink:title=" ">
<polygon fill="white" stroke="#666666" points="1469,-228 1328,-228 1328,-198 1469,-198 1469,-228"/>
<text text-anchor="start" x="1336" y="-216" font-family="Helvetica,sans-Serif" font-size="10.00">GameEngine/src/Collision</text>
<text text-anchor="middle" x="1398.5" y="-205" font-family="Helvetica,sans-Serif" font-size="10.00">System.cpp</text>
</a>
</g>
</g>
<!-- Node2&#45;&gt;Node16 -->
<g id="edge15_Node000002_Node000016" class="edge">
<title>Node2&#45;&gt;Node16</title>
<g id="a_edge15_Node000002_Node000016"><a xlink:title=" ">
<path fill="none" stroke="#63b8ff" d="M1211.66,-261.45C1252.49,-251.08 1304.54,-237.86 1343.33,-228.01"/>
<polygon fill="#63b8ff" stroke="#63b8ff" points="1210.63,-258.1 1201.8,-263.95 1212.36,-264.89 1210.63,-258.1"/>
</a>
</g>
</g>
<!-- Node2&#45;&gt;Node17 -->
<g id="edge16_Node000002_Node000017" class="edge">
<title>Node2&#45;&gt;Node17</title>
<g id="a_edge16_Node000002_Node000017"><a xlink:title=" ">
<path fill="none" stroke="#63b8ff" d="M1174.17,-257.87C1190.46,-246.03 1210.23,-231.65 1222.59,-222.66"/>
<polygon fill="#63b8ff" stroke="#63b8ff" points="1172.06,-255.08 1166.03,-263.8 1176.18,-260.75 1172.06,-255.08"/>
</a>
</g>
</g>
<!-- Node4 -->
<g id="Node000004" class="node">
<title>Node4</title>
<g id="a_Node000004"><a xlink:href="client_8hpp.html" target="_top" xlink:title=" ">
<polygon fill="white" stroke="#666666" points="711.5,-90.5 577.5,-90.5 577.5,-71.5 711.5,-71.5 711.5,-90.5"/>
<text text-anchor="middle" x="644.5" y="-78.5" font-family="Helvetica,sans-Serif" font-size="10.00">Client/include/client.hpp</text>
</a>
</g>
</g>
<!-- Node3&#45;&gt;Node4 -->
<g id="edge3_Node000003_Node000004" class="edge">
<title>Node3&#45;&gt;Node4</title>
<g id="a_edge3_Node000003_Node000004"><a xlink:title=" ">
<path fill="none" stroke="#63b8ff" d="M838.09,-134.72C791.81,-122.12 717.9,-101.99 676.07,-90.6"/>
<polygon fill="#63b8ff" stroke="#63b8ff" points="837.24,-138.12 847.81,-137.37 839.08,-131.36 837.24,-138.12"/>
</a>
</g>
</g>
<!-- Node14 -->
<g id="Node000014" class="node">
<title>Node14</title>
<g id="a_Node000014"><a xlink:href="SoloPlay_8cpp.html" target="_top" xlink:title=" ">
<polygon fill="white" stroke="#666666" points="1016.5,-90.5 890.5,-90.5 890.5,-71.5 1016.5,-71.5 1016.5,-90.5"/>
<text text-anchor="middle" x="953.5" y="-78.5" font-family="Helvetica,sans-Serif" font-size="10.00">Client/src/SoloPlay.cpp</text>
</a>
</g>
</g>
<!-- Node3&#45;&gt;Node14 -->
<g id="edge13_Node000003_Node000014" class="edge">
<title>Node3&#45;&gt;Node14</title>
<g id="a_edge13_Node000003_Node000014"><a xlink:title=" ">
<path fill="none" stroke="#63b8ff" d="M897.21,-130.68C911.58,-118.26 931.32,-101.18 943.2,-90.91"/>
<polygon fill="#63b8ff" stroke="#63b8ff" points="894.75,-128.18 889.48,-137.37 899.33,-133.47 894.75,-128.18"/>
</a>
</g>
</g>
<!-- Node15 -->
<g id="Node000015" class="node">
<title>Node15</title>
<g id="a_Node000015"><a xlink:href="solo__play__render_8cpp.html" target="_top" xlink:title=" ">
<polygon fill="white" stroke="#666666" points="872.5,-96 760.5,-96 760.5,-66 872.5,-66 872.5,-96"/>
<text text-anchor="start" x="768.5" y="-84" font-family="Helvetica,sans-Serif" font-size="10.00">Client/src/solo_play</text>
<text text-anchor="middle" x="816.5" y="-73" font-family="Helvetica,sans-Serif" font-size="10.00">_render.cpp</text>
</a>
</g>
</g>
<!-- Node3&#45;&gt;Node15 -->
<g id="edge14_Node000003_Node000015" class="edge">
<title>Node3&#45;&gt;Node15</title>
<g id="a_edge14_Node000003_Node000015"><a xlink:title=" ">
<path fill="none" stroke="#63b8ff" d="M863.9,-130.16C853.72,-119.81 840.52,-106.4 830.64,-96.36"/>
<polygon fill="#63b8ff" stroke="#63b8ff" points="861.49,-132.7 871,-137.37 866.48,-127.79 861.49,-132.7"/>
</a>
</g>
</g>
<!-- Node5 -->
<g id="Node000005" class="node">
<title>Node5</title>
<g id="a_Node000005"><a xlink:href="client_8cpp.html" target="_top" xlink:title=" ">
<polygon fill="white" stroke="#666666" points="113,-24.5 0,-24.5 0,-5.5 113,-5.5 113,-24.5"/>
<text text-anchor="middle" x="56.5" y="-12.5" font-family="Helvetica,sans-Serif" font-size="10.00">Client/src/client.cpp</text>
</a>
</g>
</g>
<!-- Node4&#45;&gt;Node5 -->
<g id="edge4_Node000004_Node000005" class="edge">
<title>Node4&#45;&gt;Node5</title>
<g id="a_edge4_Node000004_Node000005"><a xlink:title=" ">
<path fill="none" stroke="#63b8ff" d="M571.68,-70.23C559.61,-68.73 547.21,-67.26 535.5,-66 351.87,-46.23 304.14,-57.5 121.5,-30 111.91,-28.56 101.62,-26.55 92.11,-24.51"/>
<polygon fill="#63b8ff" stroke="#63b8ff" points="571.37,-73.71 581.73,-71.49 572.24,-66.77 571.37,-73.71"/>
</a>
</g>
</g>
<!-- Node6 -->
<g id="Node000006" class="node">
<title>Node6</title>
<g id="a_Node000006"><a xlink:href="client2_8cpp.html" target="_top" xlink:title=" ">
<polygon fill="white" stroke="#666666" points="250,-24.5 131,-24.5 131,-5.5 250,-5.5 250,-24.5"/>
<text text-anchor="middle" x="190.5" y="-12.5" font-family="Helvetica,sans-Serif" font-size="10.00">Client/src/client2.cpp</text>
</a>
</g>
</g>
<!-- Node4&#45;&gt;Node6 -->
<g id="edge5_Node000004_Node000006" class="edge">
<title>Node4&#45;&gt;Node6</title>
<g id="a_edge5_Node000004_Node000006"><a xlink:title=" ">
<path fill="none" stroke="#63b8ff" d="M568.17,-70.16C458.09,-55.95 267.06,-31.26 259.5,-30 249.97,-28.42 239.76,-26.48 230.18,-24.55"/>
<polygon fill="#63b8ff" stroke="#63b8ff" points="567.86,-73.65 578.23,-71.45 568.76,-66.7 567.86,-73.65"/>
</a>
</g>
</g>
<!-- Node7 -->
<g id="Node000007" class="node">
<title>Node7</title>
<g id="a_Node000007"><a xlink:href="client__init_8cpp.html" target="_top" xlink:title=" ">
<polygon fill="white" stroke="#666666" points="402.5,-24.5 268.5,-24.5 268.5,-5.5 402.5,-5.5 402.5,-24.5"/>
<text text-anchor="middle" x="335.5" y="-12.5" font-family="Helvetica,sans-Serif" font-size="10.00">Client/src/client_init.cpp</text>
</a>
</g>
</g>
<!-- Node4&#45;&gt;Node7 -->
<g id="edge6_Node000004_Node000007" class="edge">
<title>Node4&#45;&gt;Node7</title>
<g id="a_edge6_Node000004_Node000007"><a xlink:title=" ">
<path fill="none" stroke="#63b8ff" d="M593.01,-69.34C532.25,-56.75 432.44,-36.08 376.61,-24.51"/>
<polygon fill="#63b8ff" stroke="#63b8ff" points="592.65,-72.83 603.15,-71.44 594.07,-65.98 592.65,-72.83"/>
</a>
</g>
</g>
<!-- Node8 -->
<g id="Node000008" class="node">
<title>Node8</title>
<g id="a_Node000008"><a xlink:href="client__network__part__one_8cpp.html" target="_top" xlink:title=" ">
<polygon fill="white" stroke="#666666" points="558,-30 421,-30 421,0 558,0 558,-30"/>
<text text-anchor="start" x="429" y="-18" font-family="Helvetica,sans-Serif" font-size="10.00">Client/src/client_network</text>
<text text-anchor="middle" x="489.5" y="-7" font-family="Helvetica,sans-Serif" font-size="10.00">_part_one.cpp</text>
</a>
</g>
</g>
<!-- Node4&#45;&gt;Node8 -->
<g id="edge7_Node000004_Node000008" class="edge">
<title>Node4&#45;&gt;Node8</title>
<g id="a_edge7_Node000004_Node000008"><a xlink:title=" ">
<path fill="none" stroke="#63b8ff" d="M614.24,-67.5C588.24,-56.77 550.77,-41.3 523.69,-30.12"/>
<polygon fill="#63b8ff" stroke="#63b8ff" points="613.02,-70.79 623.6,-71.37 615.69,-64.32 613.02,-70.79"/>
</a>
</g>
</g>
<!-- Node9 -->
<g id="Node000009" class="node">
<title>Node9</title>
<g id="a_Node000009"><a xlink:href="client__network__part__two_8cpp.html" target="_top" xlink:title=" ">
<polygon fill="white" stroke="#666666" points="713,-30 576,-30 576,0 713,0 713,-30"/>
<text text-anchor="start" x="584" y="-18" font-family="Helvetica,sans-Serif" font-size="10.00">Client/src/client_network</text>
<text text-anchor="middle" x="644.5" y="-7" font-family="Helvetica,sans-Serif" font-size="10.00">_part_two.cpp</text>
</a>
</g>
</g>
<!-- Node4&#45;&gt;Node9 -->
<g id="edge8_Node000004_Node000009" class="edge">
<title>Node4&#45;&gt;Node9</title>
<g id="a_edge8_Node000004_Node000009"><a xlink:title=" ">
<path fill="none" stroke="#63b8ff" d="M644.5,-61.35C644.5,-51.47 644.5,-39.51 644.5,-30.36"/>
<polygon fill="#63b8ff" stroke="#63b8ff" points="641,-61.37 644.5,-71.37 648,-61.37 641,-61.37"/>
</a>
</g>
</g>
<!-- Node10 -->
<g id="Node000010" class="node">
<title>Node10</title>
<g id="a_Node000010"><a xlink:href="client__protocol_8cpp.html" target="_top" xlink:title=" ">
<polygon fill="white" stroke="#666666" points="889.5,-24.5 731.5,-24.5 731.5,-5.5 889.5,-5.5 889.5,-24.5"/>
<text text-anchor="middle" x="810.5" y="-12.5" font-family="Helvetica,sans-Serif" font-size="10.00">Client/src/client_protocol.cpp</text>
</a>
</g>
</g>
<!-- Node4&#45;&gt;Node10 -->
<g id="edge9_Node000004_Node000010" class="edge">
<title>Node4&#45;&gt;Node10</title>
<g id="a_edge9_Node000004_Node000010"><a xlink:title=" ">
<path fill="none" stroke="#63b8ff" d="M676.47,-67.68C709.27,-55.03 759.46,-35.68 788.2,-24.6"/>
<polygon fill="#63b8ff" stroke="#63b8ff" points="674.96,-64.51 666.89,-71.37 677.48,-71.04 674.96,-64.51"/>
</a>
</g>
</g>
<!-- Node11 -->
<g id="Node000011" class="node">
<title>Node11</title>
<g id="a_Node000011"><a xlink:href="client__replay_8cpp.html" target="_top" xlink:title=" ">
<polygon fill="white" stroke="#666666" points="1055,-24.5 908,-24.5 908,-5.5 1055,-5.5 1055,-24.5"/>
<text text-anchor="middle" x="981.5" y="-12.5" font-family="Helvetica,sans-Serif" font-size="10.00">Client/src/client_replay.cpp</text>
</a>
</g>
</g>
<!-- Node4&#45;&gt;Node11 -->
<g id="edge10_Node000004_Node000011" class="edge">
<title>Node4&#45;&gt;Node11</title>
<g id="a_edge10_Node000004_Node000011"><a xlink:title=" ">
<path fill="none" stroke="#63b8ff" d="M699.43,-69.57C765.57,-57.01 875.39,-36.15 936.67,-24.51"/>
<polygon fill="#63b8ff" stroke="#63b8ff" points="698.77,-66.13 689.6,-71.44 700.08,-73.01 698.77,-66.13"/>
</a>
</g>
</g>
<!-- Node12 -->
<g id="Node000012" class="node">
<title>Node12</title>
<g id="a_Node000012"><a xlink:href="client__update_8cpp.html" target="_top" xlink:title=" ">
<polygon fill="white" stroke="#666666" points="1225.5,-24.5 1073.5,-24.5 1073.5,-5.5 1225.5,-5.5 1225.5,-24.5"/>
<text text-anchor="middle" x="1149.5" y="-12.5" font-family="Helvetica,sans-Serif" font-size="10.00">Client/src/client_update.cpp</text>
</a>
</g>
</g>
<!-- Node4&#45;&gt;Node12 -->
<g id="edge11_Node000004_Node000012" class="edge">
<title>Node4&#45;&gt;Node12</title>
<g id="a_edge11_Node000004_Node000012"><a xlink:title=" ">
<path fill="none" stroke="#63b8ff" d="M718.49,-70.17C729.55,-68.74 740.82,-67.31 751.5,-66 890.48,-48.92 925.82,-49.38 1064.5,-30 1076.05,-28.39 1088.46,-26.45 1100.12,-24.55"/>
<polygon fill="#63b8ff" stroke="#63b8ff" points="717.88,-66.72 708.41,-71.47 718.78,-73.66 717.88,-66.72"/>
</a>
</g>
</g>
<!-- Node13 -->
<g id="Node000013" class="node">
<title>Node13</title>
<g id="a_Node000013"><a xlink:href="main_8cpp.html" target="_top" xlink:title=" ">
<polygon fill="white" stroke="#666666" points="1353.5,-24.5 1243.5,-24.5 1243.5,-5.5 1353.5,-5.5 1353.5,-24.5"/>
<text text-anchor="middle" x="1298.5" y="-12.5" font-family="Helvetica,sans-Serif" font-size="10.00">Client/src/main.cpp</text>
</a>
</g>
</g>
<!-- Node4&#45;&gt;Node13 -->
<g id="edge12_Node000004_Node000013" class="edge">
<title>Node4&#45;&gt;Node13</title>
<g id="a_edge12_Node000004_Node000013"><a xlink:title=" ">
<path fill="none" stroke="#63b8ff" d="M715.07,-70.2C727.21,-68.68 739.71,-67.21 751.5,-66 965.64,-44.03 1021.49,-61.08 1234.5,-30 1244.07,-28.6 1254.34,-26.59 1263.79,-24.53"/>
<polygon fill="#63b8ff" stroke="#63b8ff" points="714.46,-66.75 704.98,-71.49 715.34,-73.69 714.46,-66.75"/>
</a>
</g>
</g>
<!-- Node18 -->
<g id="Node000018" class="node">
<title>Node18</title>
<g id="a_Node000018"><a xlink:href="Core_8hpp.html" target="_top" xlink:title=" ">
<polygon fill="white" stroke="#666666" points="1871.5,-156.5 1747.5,-156.5 1747.5,-137.5 1871.5,-137.5 1871.5,-156.5"/>
<text text-anchor="middle" x="1809.5" y="-144.5" font-family="Helvetica,sans-Serif" font-size="10.00">Core/include/Core.hpp</text>
</a>
</g>
</g>
<!-- Node17&#45;&gt;Node18 -->
<g id="edge17_Node000017_Node000018" class="edge">
<title>Node17&#45;&gt;Node18</title>
<g id="a_edge17_Node000017_Node000018"><a xlink:title=" ">
<path fill="none" stroke="#63b8ff" d="M1292.22,-201.88C1301.33,-200.46 1310.66,-199.11 1319.5,-198 1504.96,-174.79 1553.43,-188.12 1738.5,-162 1748.83,-160.54 1759.92,-158.56 1770.2,-156.54"/>
<polygon fill="#63b8ff" stroke="#63b8ff" points="1291.38,-198.46 1282.06,-203.5 1292.49,-205.38 1291.38,-198.46"/>
</a>
</g>
</g>
<!-- Node20 -->
<g id="Node000020" class="node">
<title>Node20</title>
<g id="a_Node000020"><a xlink:href="network_8cpp.html" target="_top" xlink:title=" ">
<polygon fill="white" stroke="#666666" points="1099.5,-156.5 971.5,-156.5 971.5,-137.5 1099.5,-137.5 1099.5,-156.5"/>
<text text-anchor="middle" x="1035.5" y="-144.5" font-family="Helvetica,sans-Serif" font-size="10.00">Server/src/network.cpp</text>
</a>
</g>
</g>
<!-- Node17&#45;&gt;Node20 -->
<g id="edge19_Node000017_Node000020" class="edge">
<title>Node17&#45;&gt;Node20</title>
<g id="a_edge19_Node000017_Node000020"><a xlink:title=" ">
<path fill="none" stroke="#63b8ff" d="M1197.94,-200.24C1158.67,-187.61 1097.21,-167.85 1062.23,-156.6"/>
<polygon fill="#63b8ff" stroke="#63b8ff" points="1197.07,-203.64 1207.66,-203.37 1199.21,-196.98 1197.07,-203.64"/>
</a>
</g>
</g>
<!-- Node21 -->
<g id="Node000021" class="node">
<title>Node21</title>
<g id="a_Node000021"><a xlink:href="network__client__info_8cpp.html" target="_top" xlink:title=" ">
<polygon fill="white" stroke="#666666" points="1225.5,-162 1117.5,-162 1117.5,-132 1225.5,-132 1225.5,-162"/>
<text text-anchor="start" x="1125.5" y="-150" font-family="Helvetica,sans-Serif" font-size="10.00">Server/src/network</text>
<text text-anchor="middle" x="1171.5" y="-139" font-family="Helvetica,sans-Serif" font-size="10.00">_client_info.cpp</text>
</a>
</g>
</g>
<!-- Node17&#45;&gt;Node21 -->
<g id="edge20_Node000017_Node000021" class="edge">
<title>Node17&#45;&gt;Node21</title>
<g id="a_edge20_Node000017_Node000021"><a xlink:title=" ">
<path fill="none" stroke="#63b8ff" d="M1218.9,-196.16C1208.72,-185.81 1195.52,-172.4 1185.64,-162.36"/>
<polygon fill="#63b8ff" stroke="#63b8ff" points="1216.49,-198.7 1226,-203.37 1221.48,-193.79 1216.49,-198.7"/>
</a>
</g>
</g>
<!-- Node22 -->
<g id="Node000022" class="node">
<title>Node22</title>
<g id="a_Node000022"><a xlink:href="network__generate_8cpp.html" target="_top" xlink:title=" ">
<polygon fill="white" stroke="#666666" points="1351.5,-162 1243.5,-162 1243.5,-132 1351.5,-132 1351.5,-162"/>
<text text-anchor="start" x="1251.5" y="-150" font-family="Helvetica,sans-Serif" font-size="10.00">Server/src/network</text>
<text text-anchor="middle" x="1297.5" y="-139" font-family="Helvetica,sans-Serif" font-size="10.00">_generate.cpp</text>
</a>
</g>
</g>
<!-- Node17&#45;&gt;Node22 -->
<g id="edge21_Node000017_Node000022" class="edge">
<title>Node17&#45;&gt;Node22</title>
<g id="a_edge21_Node000017_Node000022"><a xlink:title=" ">
<path fill="none" stroke="#63b8ff" d="M1250.1,-196.16C1260.28,-185.81 1273.48,-172.4 1283.36,-162.36"/>
<polygon fill="#63b8ff" stroke="#63b8ff" points="1247.52,-193.79 1243,-203.37 1252.51,-198.7 1247.52,-193.79"/>
</a>
</g>
</g>
<!-- Node23 -->
<g id="Node000023" class="node">
<title>Node23</title>
<g id="a_Node000023"><a xlink:href="network__lobby_8cpp.html" target="_top" xlink:title=" ">
<polygon fill="white" stroke="#666666" points="1477.5,-162 1369.5,-162 1369.5,-132 1477.5,-132 1477.5,-162"/>
<text text-anchor="start" x="1377.5" y="-150" font-family="Helvetica,sans-Serif" font-size="10.00">Server/src/network</text>
<text text-anchor="middle" x="1423.5" y="-139" font-family="Helvetica,sans-Serif" font-size="10.00">_lobby.cpp</text>
</a>
</g>
</g>
<!-- Node17&#45;&gt;Node23 -->
<g id="edge22_Node000017_Node000023" class="edge">
<title>Node17&#45;&gt;Node23</title>
<g id="a_edge22_Node000017_Node000023"><a xlink:title=" ">
<path fill="none" stroke="#63b8ff" d="M1269.74,-200.07C1301.49,-189.31 1348.21,-173.49 1381.81,-162.12"/>
<polygon fill="#63b8ff" stroke="#63b8ff" points="1268.34,-196.85 1259.99,-203.37 1270.58,-203.48 1268.34,-196.85"/>
</a>
</g>
</g>
<!-- Node24 -->
<g id="Node000024" class="node">
<title>Node24</title>
<g id="a_Node000024"><a xlink:href="network__server_8cpp.html" target="_top" xlink:title=" ">
<polygon fill="white" stroke="#666666" points="1603.5,-162 1495.5,-162 1495.5,-132 1603.5,-132 1603.5,-162"/>
<text text-anchor="start" x="1503.5" y="-150" font-family="Helvetica,sans-Serif" font-size="10.00">Server/src/network</text>
<text text-anchor="middle" x="1549.5" y="-139" font-family="Helvetica,sans-Serif" font-size="10.00">_server.cpp</text>
</a>
</g>
</g>
<!-- Node17&#45;&gt;Node24 -->
<g id="edge23_Node000017_Node000024" class="edge">
<title>Node17&#45;&gt;Node24</title>
<g id="a_edge23_Node000017_Node000024"><a xlink:title=" ">
<path fill="none" stroke="#63b8ff" d="M1289.01,-201.56C1340.1,-191.68 1418.57,-176.28 1486.5,-162 1489.35,-161.4 1492.27,-160.78 1495.22,-160.14"/>
<polygon fill="#63b8ff" stroke="#63b8ff" points="1288.33,-198.12 1279.17,-203.46 1289.66,-205 1288.33,-198.12"/>
</a>
</g>
</g>
<!-- Node25 -->
<g id="Node000025" class="node">
<title>Node25</title>
<g id="a_Node000025"><a xlink:href="network__update_8cpp.html" target="_top" xlink:title=" ">
<polygon fill="white" stroke="#666666" points="1729.5,-162 1621.5,-162 1621.5,-132 1729.5,-132 1729.5,-162"/>
<text text-anchor="start" x="1629.5" y="-150" font-family="Helvetica,sans-Serif" font-size="10.00">Server/src/network</text>
<text text-anchor="middle" x="1675.5" y="-139" font-family="Helvetica,sans-Serif" font-size="10.00">_update.cpp</text>
</a>
</g>
</g>
<!-- Node17&#45;&gt;Node25 -->
<g id="edge24_Node000017_Node000025" class="edge">
<title>Node17&#45;&gt;Node25</title>
<g id="a_edge24_Node000017_Node000025"><a xlink:title=" ">
<path fill="none" stroke="#63b8ff" d="M1294.48,-201.81C1302.87,-200.47 1311.4,-199.16 1319.5,-198 1449.37,-179.33 1483.2,-184.26 1612.5,-162 1615.37,-161.51 1618.31,-160.97 1621.27,-160.4"/>
<polygon fill="#63b8ff" stroke="#63b8ff" points="1293.65,-198.39 1284.34,-203.44 1294.77,-205.3 1293.65,-198.39"/>
</a>
</g>
</g>
<!-- Node19 -->
<g id="Node000019" class="node">
<title>Node19</title>
<g id="a_Node000019"><a xlink:href="Core_8cpp.html" target="_top" xlink:title=" ">
<polygon fill="white" stroke="#666666" points="1860.5,-90.5 1758.5,-90.5 1758.5,-71.5 1860.5,-71.5 1860.5,-90.5"/>
<text text-anchor="middle" x="1809.5" y="-78.5" font-family="Helvetica,sans-Serif" font-size="10.00">Core/src/Core.cpp</text>
</a>
</g>
</g>
<!-- Node18&#45;&gt;Node19 -->
<g id="edge18_Node000018_Node000019" class="edge">
<title>Node18&#45;&gt;Node19</title>
<g id="a_edge18_Node000018_Node000019"><a xlink:title=" ">
<path fill="none" stroke="#63b8ff" d="M1809.5,-127.08C1809.5,-115.13 1809.5,-100.22 1809.5,-90.91"/>
<polygon fill="#63b8ff" stroke="#63b8ff" points="1806,-127.37 1809.5,-137.37 1813,-127.37 1806,-127.37"/>
</a>
</g>
</g>
<!-- Node26&#45;&gt;Node3 -->
<g id="edge34_Node000026_Node000003" class="edge">
<title>Node26&#45;&gt;Node3</title>
<g id="a_edge34_Node000026_Node000003"><a xlink:title=" ">
<path fill="none" stroke="#63b8ff" d="M761.54,-259.48C778.74,-251.23 797.94,-240.54 813.5,-228 840.27,-206.42 863.84,-172.51 874.07,-156.68"/>
<polygon fill="#63b8ff" stroke="#63b8ff" points="759.82,-256.41 752.22,-263.8 762.77,-262.76 759.82,-256.41"/>
</a>
</g>
</g>
<!-- Node26&#45;&gt;Node4 -->
<g id="edge35_Node000026_Node000004" class="edge">
<title>Node26&#45;&gt;Node4</title>
<g id="a_edge35_Node000026_Node000004"><a xlink:title=" ">
<path fill="none" stroke="#63b8ff" d="M667.55,-259.86C650.87,-251.95 633.03,-241.37 619.5,-228 595.89,-204.66 592.51,-194.22 584.5,-162 581.28,-149.06 578.84,-144.07 584.5,-132 593.3,-113.21 613.01,-99.02 627.45,-90.65"/>
<polygon fill="#63b8ff" stroke="#63b8ff" points="666.12,-263.05 676.67,-263.98 669,-256.67 666.12,-263.05"/>
</a>
</g>
</g>
<!-- Node26&#45;&gt;Node17 -->
<g id="edge37_Node000026_Node000017" class="edge">
<title>Node26&#45;&gt;Node17</title>
<g id="a_edge37_Node000026_Node000017"><a xlink:title=" ">
<path fill="none" stroke="#63b8ff" d="M785.36,-269.49C884.41,-257.25 1066.05,-234.81 1165.29,-222.55"/>
<polygon fill="#63b8ff" stroke="#63b8ff" points="784.66,-266.05 775.17,-270.75 785.52,-273 784.66,-266.05"/>
</a>
</g>
</g>
<!-- Node27 -->
<g id="Node000027" class="node">
<title>Node27</title>
<g id="a_Node000027"><a xlink:href="AssetManager_8hpp.html" target="_top" xlink:title=" ">
<polygon fill="white" stroke="#666666" points="804.5,-222.5 628.5,-222.5 628.5,-203.5 804.5,-203.5 804.5,-222.5"/>
<text text-anchor="middle" x="716.5" y="-210.5" font-family="Helvetica,sans-Serif" font-size="10.00">Client/include/AssetManager.hpp</text>
</a>
</g>
</g>
<!-- Node26&#45;&gt;Node27 -->
<g id="edge26_Node000026_Node000027" class="edge">
<title>Node26&#45;&gt;Node27</title>
<g id="a_edge26_Node000026_Node000027"><a xlink:title=" ">
<path fill="none" stroke="#63b8ff" d="M716.5,-253.6C716.5,-242.8 716.5,-230.78 716.5,-222.84"/>
<polygon fill="#63b8ff" stroke="#63b8ff" points="713,-253.8 716.5,-263.8 720,-253.8 713,-253.8"/>
</a>
</g>
</g>
<!-- Node28 -->
<g id="Node000028" class="node">
<title>Node28</title>
<g id="a_Node000028"><a xlink:href="NetworkEntityMapper_8hpp.html" target="_top" xlink:title=" ">
<polygon fill="white" stroke="#666666" points="537.5,-162 381.5,-162 381.5,-132 537.5,-132 537.5,-162"/>
<text text-anchor="start" x="389.5" y="-150" font-family="Helvetica,sans-Serif" font-size="10.00">Client/include/NetworkEntity</text>
<text text-anchor="middle" x="459.5" y="-139" font-family="Helvetica,sans-Serif" font-size="10.00">Mapper.hpp</text>
</a>
</g>
</g>
<!-- Node26&#45;&gt;Node28 -->
<g id="edge33_Node000026_Node000028" class="edge">
<title>Node26&#45;&gt;Node28</title>
<g id="a_edge33_Node000026_Node000028"><a xlink:title=" ">
<path fill="none" stroke="#63b8ff" d="M648.2,-264.18C617.44,-256.26 581.4,-244.53 551.5,-228 519.45,-210.28 488.7,-179.98 472.14,-162.19"/>
<polygon fill="#63b8ff" stroke="#63b8ff" points="647.44,-267.6 657.99,-266.62 649.13,-260.81 647.44,-267.6"/>
</a>
</g>
</g>
<!-- Node31 -->
<g id="Node000031" class="node">
<title>Node31</title>
<g id="a_Node000031"><a xlink:href="GameLogic_8cpp.html" target="_top" xlink:title=" ">
<polygon fill="white" stroke="#666666" points="499.5,-222.5 325.5,-222.5 325.5,-203.5 499.5,-203.5 499.5,-222.5"/>
<text text-anchor="middle" x="412.5" y="-210.5" font-family="Helvetica,sans-Serif" font-size="10.00">GameEngine/src/GameLogic.cpp</text>
</a>
</g>
</g>
<!-- Node26&#45;&gt;Node31 -->
<g id="edge36_Node000026_Node000031" class="edge">
<title>Node26&#45;&gt;Node31</title>
<g id="a_edge36_Node000026_Node000031"><a xlink:title=" ">
<path fill="none" stroke="#63b8ff" d="M647.73,-263.52C587.71,-250.89 502.66,-232.98 452.97,-222.52"/>
<polygon fill="#63b8ff" stroke="#63b8ff" points="647.38,-267.02 657.89,-265.66 648.82,-260.18 647.38,-267.02"/>
</a>
</g>
</g>
<!-- Node27&#45;&gt;Node3 -->
<g id="edge30_Node000027_Node000003" class="edge">
<title>Node27&#45;&gt;Node3</title>
<g id="a_edge30_Node000027_Node000003"><a xlink:title=" ">
<path fill="none" stroke="#63b8ff" d="M747.89,-199.68C780.1,-187.03 829.38,-167.68 857.61,-156.6"/>
<polygon fill="#63b8ff" stroke="#63b8ff" points="746.51,-196.46 738.48,-203.37 749.07,-202.97 746.51,-196.46"/>
</a>
</g>
</g>
<!-- Node27&#45;&gt;Node4 -->
<g id="edge31_Node000027_Node000004" class="edge">
<title>Node27&#45;&gt;Node4</title>
<g id="a_edge31_Node000027_Node000004"><a xlink:title=" ">
<path fill="none" stroke="#63b8ff" d="M734.63,-196.48C751.63,-180 772.49,-153.41 758.5,-132 744.02,-109.84 717.29,-97.44 693.36,-90.53"/>
<polygon fill="#63b8ff" stroke="#63b8ff" points="732.22,-193.94 727.23,-203.29 736.96,-199.09 732.22,-193.94"/>
</a>
</g>
</g>
<!-- Node27&#45;&gt;Node28 -->
<g id="edge27_Node000027_Node000028" class="edge">
<title>Node27&#45;&gt;Node28</title>
<g id="a_edge27_Node000027_Node000028"><a xlink:title=" ">
<path fill="none" stroke="#63b8ff" d="M672.15,-200.96C628.86,-190.17 562.81,-173.73 515.82,-162.02"/>
<polygon fill="#63b8ff" stroke="#63b8ff" points="671.56,-204.41 682.11,-203.44 673.25,-197.62 671.56,-204.41"/>
</a>
</g>
</g>
<!-- Node30 -->
<g id="Node000030" class="node">
<title>Node30</title>
<g id="a_Node000030"><a xlink:href="AssetManager_8cpp.html" target="_top" xlink:title=" ">
<polygon fill="white" stroke="#666666" points="749,-156.5 594,-156.5 594,-137.5 749,-137.5 749,-156.5"/>
<text text-anchor="middle" x="671.5" y="-144.5" font-family="Helvetica,sans-Serif" font-size="10.00">Client/src/AssetManager.cpp</text>
</a>
</g>
</g>
<!-- Node27&#45;&gt;Node30 -->
<g id="edge32_Node000027_Node000030" class="edge">
<title>Node27&#45;&gt;Node30</title>
<g id="a_edge32_Node000027_Node000030"><a xlink:title=" ">
<path fill="none" stroke="#63b8ff" d="M704.48,-194.91C695.88,-182.68 684.65,-166.7 677.76,-156.91"/>
<polygon fill="#63b8ff" stroke="#63b8ff" points="701.82,-197.2 710.43,-203.37 707.54,-193.18 701.82,-197.2"/>
</a>
</g>
</g>
<!-- Node28&#45;&gt;Node4 -->
<g id="edge28_Node000028_Node000004" class="edge">
<title>Node28&#45;&gt;Node4</title>
<g id="a_edge28_Node000028_Node000004"><a xlink:title=" ">
<path fill="none" stroke="#63b8ff" d="M509.86,-128.58C545.57,-116.23 591.92,-100.19 619.88,-90.52"/>
<polygon fill="#63b8ff" stroke="#63b8ff" points="508.41,-125.38 500.1,-131.95 510.69,-131.99 508.41,-125.38"/>
</a>
</g>
</g>
<!-- Node29 -->
<g id="Node000029" class="node">
<title>Node29</title>
<g id="a_Node000029"><a xlink:href="NetworkEntityMapper_8cpp.html" target="_top" xlink:title=" ">
<polygon fill="white" stroke="#666666" points="527,-96 392,-96 392,-66 527,-66 527,-96"/>
<text text-anchor="start" x="400" y="-84" font-family="Helvetica,sans-Serif" font-size="10.00">Client/src/NetworkEntity</text>
<text text-anchor="middle" x="459.5" y="-73" font-family="Helvetica,sans-Serif" font-size="10.00">Mapper.cpp</text>
</a>
</g>
</g>
<!-- Node28&#45;&gt;Node29 -->
<g id="edge29_Node000028_Node000029" class="edge">
<title>Node28&#45;&gt;Node29</title>
<g id="a_edge29_Node000028_Node000029"><a xlink:title=" ">
<path fill="none" stroke="#63b8ff" d="M459.5,-121.54C459.5,-112.96 459.5,-103.61 459.5,-96.16"/>
<polygon fill="#63b8ff" stroke="#63b8ff" points="456,-121.8 459.5,-131.8 463,-121.8 456,-121.8"/>
</a>
</g>
</g>
</g>
</svg>

<g id="navigator" transform="translate(0 0)" fill="#404254">
  <rect fill="#f2f5e9" fill-opacity="0.5" stroke="#606060" stroke-width=".5" x="0" y="0" width="60" height="60"/>
  <use id="zoomplus" xlink:href="#zoomPlus" x="17" y="9" onmousedown="handleZoom(evt,'in')"/>
  <use id="zoomminus" xlink:href="#zoomMin" x="42" y="9" onmousedown="handleZoom(evt,'out')"/>
  <use id="reset" xlink:href="#resetDef" x="30" y="36" onmousedown="handleReset()"/>
   <use id="arrowup" xlink:href="#arrowUp" x="0" y="0" onmousedown="handlePan(0,-1)"/>
  <use id="arrowright" xlink:href="#arrowRight" x="0" y="0" onmousedown="handlePan(1,0)"/>
  <use id="arrowdown" xlink:href="#arrowDown" x="0" y="0" onmousedown="handlePan(0,1)"/>
  <use id="arrowleft" xlink:href="#arrowLeft" x="0" y="0" onmousedown="handlePan(-1,0)"/>
</g>
<svg viewBox="0 0 15 15" width="100%" height="30px" preserveAspectRatio="xMaxYMin meet">
 <g id="arrow_out" transform="scale(0.3 0.3)">
  <a xlink:href="Quadtree_8hpp__dep__incl_org.svg" target="_base">
   <rect id="button" ry="5" rx="5" y="6" x="6" height="38" width="38"
        fill="#f2f5e9" fill-opacity="0.5" stroke="#606060" stroke-width="1.0"/>
   <path id="arrow"
     d="M 11.500037,31.436501 C 11.940474,20.09759 22.043105,11.32322 32.158766,21.979434 L 37.068811,17.246167 C 37.068811,17.246167 37.088388,32 37.088388,32 L 22.160133,31.978069 C 22.160133,31.978069 26.997745,27.140456 26.997745,27.140456 C 18.528582,18.264221 13.291696,25.230495 11.500037,31.436501 z"
     style="fill:#404040;"/>
  </a>
 </g>
</svg>

<style type='text/css'>
<![CDATA[
[data-mouse-over-selected='false'] { opacity: 0.7; }
[data-mouse-over-selected='true']  { opacity: 1.0; }
]]>
</style>
<script type="application/ecmascript"><![CDATA[
document.addEventListener('DOMContentLoaded', (event) => {
  highlightEdges();
  highlightAdjacentNodes();
});
]]></script>
</svg>
