<?xml version="1.0" encoding="UTF-8" standalone="no"?>
<!DOCTYPE svg PUBLIC "-//W3C//DTD SVG 1.1//EN"
 "http://www.w3.org/Graphics/SVG/1.1/DTD/svg11.dtd">
<!-- Generated by graphviz version 2.43.0 (0)
 -->
<!-- Title: GameEngine/Include/RenderSystem.hpp Pages: 1 -->
<svg width="1362pt" height="291pt"
 viewBox="0.00 0.00 1361.50 291.00" xmlns="http://www.w3.org/2000/svg" xmlns:xlink="http://www.w3.org/1999/xlink">
<g id="graph0" class="graph" transform="scale(1 1) rotate(0) translate(4 287)">
<title>GameEngine/Include/RenderSystem.hpp</title>
<!-- Node1 -->
<g id="Node000001" class="node">
<title>Node1</title>
<g id="a_Node000001"><a xlink:title=" ">
<polygon fill="#999999" stroke="#666666" points="809,-283 692,-283 692,-253 809,-253 809,-283"/>
<text text-anchor="start" x="700" y="-271" font-family="Helvetica,sans-Serif" font-size="10.00">GameEngine/Include</text>
<text text-anchor="middle" x="750.5" y="-260" font-family="Helvetica,sans-Serif" font-size="10.00">/RenderSystem.hpp</text>
</a>
</g>
</g>
<!-- Node2 -->
<g id="Node000002" class="node">
<title>Node2</title>
<g id="a_Node000002"><a xlink:href="AssetManager_8hpp.html" target="_top" xlink:title=" ">
<polygon fill="white" stroke="#666666" points="722.5,-217 546.5,-217 546.5,-198 722.5,-198 722.5,-217"/>
<text text-anchor="middle" x="634.5" y="-205" font-family="Helvetica,sans-Serif" font-size="10.00">Client/include/AssetManager.hpp</text>
</a>
</g>
</g>
<!-- Node1&#45;&gt;Node2 -->
<g id="edge1_Node000001_Node000002" class="edge">
<title>Node1&#45;&gt;Node2</title>
<g id="a_edge1_Node000001_Node000002"><a xlink:title=" ">
<path fill="none" stroke="#63b8ff" d="M713.52,-248.35C692.76,-237.88 667.86,-225.32 651.63,-217.14"/>
<polygon fill="#63b8ff" stroke="#63b8ff" points="712.21,-251.61 722.72,-252.99 715.36,-245.36 712.21,-251.61"/>
</a>
</g>
</g>
<!-- Node3 -->
<g id="Node000003" class="node">
<title>Node3</title>
<g id="a_Node000003"><a xlink:href="NetworkEntityMapper_8hpp.html" target="_top" xlink:title=" ">
<polygon fill="white" stroke="#666666" points="510.5,-162 354.5,-162 354.5,-132 510.5,-132 510.5,-162"/>
<text text-anchor="start" x="362.5" y="-150" font-family="Helvetica,sans-Serif" font-size="10.00">Client/include/NetworkEntity</text>
<text text-anchor="middle" x="432.5" y="-139" font-family="Helvetica,sans-Serif" font-size="10.00">Mapper.hpp</text>
</a>
</g>
</g>
<!-- Node1&#45;&gt;Node3 -->
<g id="edge20_Node000001_Node000003" class="edge">
<title>Node1&#45;&gt;Node3</title>
<g id="a_edge20_Node000001_Node000003"><a xlink:title=" ">
<path fill="none" stroke="#63b8ff" d="M681.79,-257.18C639.08,-249.55 583.7,-236.86 537.5,-217 504.03,-202.61 469.55,-177.63 449.61,-162"/>
<polygon fill="#63b8ff" stroke="#63b8ff" points="681.35,-260.65 691.8,-258.91 682.55,-253.76 681.35,-260.65"/>
</a>
</g>
</g>
<!-- Node4 -->
<g id="Node000004" class="node">
<title>Node4</title>
<g id="a_Node000004"><a xlink:href="client_8hpp.html" target="_top" xlink:title=" ">
<polygon fill="white" stroke="#666666" points="711.5,-90.5 577.5,-90.5 577.5,-71.5 711.5,-71.5 711.5,-90.5"/>
<text text-anchor="middle" x="644.5" y="-78.5" font-family="Helvetica,sans-Serif" font-size="10.00">Client/include/client.hpp</text>
</a>
</g>
</g>
<!-- Node1&#45;&gt;Node4 -->
<g id="edge22_Node000001_Node000004" class="edge">
<title>Node1&#45;&gt;Node4</title>
<g id="a_edge22_Node000001_Node000004"><a xlink:title=" ">
<path fill="none" stroke="#63b8ff" d="M753.13,-242.94C755.02,-214.07 754.07,-165.38 731.5,-132 717.55,-111.36 692.04,-98.18 672.23,-90.56"/>
<polygon fill="#63b8ff" stroke="#63b8ff" points="749.64,-242.71 752.3,-252.97 756.61,-243.29 749.64,-242.71"/>
</a>
</g>
</g>
<!-- Node15 -->
<g id="Node000015" class="node">
<title>Node15</title>
<g id="a_Node000015"><a xlink:href="SoloPlay_8hpp.html" target="_top" xlink:title=" ">
<polygon fill="white" stroke="#666666" points="926.5,-156.5 778.5,-156.5 778.5,-137.5 926.5,-137.5 926.5,-156.5"/>
<text text-anchor="middle" x="852.5" y="-144.5" font-family="Helvetica,sans-Serif" font-size="10.00">Client/include/SoloPlay.hpp</text>
</a>
</g>
</g>
<!-- Node1&#45;&gt;Node15 -->
<g id="edge21_Node000001_Node000015" class="edge">
<title>Node1&#45;&gt;Node15</title>
<g id="a_edge21_Node000001_Node000015"><a xlink:title=" ">
<path fill="none" stroke="#63b8ff" d="M768.75,-245.04C780.11,-231.43 795.06,-213.62 808.5,-198 821.02,-183.45 835.8,-166.74 844.65,-156.8"/>
<polygon fill="#63b8ff" stroke="#63b8ff" points="765.9,-242.99 762.18,-252.91 771.27,-247.47 765.9,-242.99"/>
</a>
</g>
</g>
<!-- Node19 -->
<g id="Node000019" class="node">
<title>Node19</title>
<g id="a_Node000019"><a xlink:href="RenderSystem_8cpp.html" target="_top" xlink:title=" ">
<polygon fill="white" stroke="#666666" points="1008,-217 817,-217 817,-198 1008,-198 1008,-217"/>
<text text-anchor="middle" x="912.5" y="-205" font-family="Helvetica,sans-Serif" font-size="10.00">GameEngine/src/RenderSystem.cpp</text>
</a>
</g>
</g>
<!-- Node1&#45;&gt;Node19 -->
<g id="edge23_Node000001_Node000019" class="edge">
<title>Node1&#45;&gt;Node19</title>
<g id="a_edge23_Node000001_Node000019"><a xlink:title=" ">
<path fill="none" stroke="#63b8ff" d="M799.04,-249.47C828.61,-238.79 865.1,-225.62 888.58,-217.14"/>
<polygon fill="#63b8ff" stroke="#63b8ff" points="797.52,-246.3 789.3,-252.99 799.9,-252.88 797.52,-246.3"/>
</a>
</g>
</g>
<!-- Node2&#45;&gt;Node3 -->
<g id="edge2_Node000002_Node000003" class="edge">
<title>Node2&#45;&gt;Node3</title>
<g id="a_edge2_Node000002_Node000003"><a xlink:title=" ">
<path fill="none" stroke="#63b8ff" d="M595.48,-195.2C562.84,-185.75 516.12,-172.22 481.06,-162.06"/>
<polygon fill="#63b8ff" stroke="#63b8ff" points="594.55,-198.57 605.13,-197.99 596.5,-191.85 594.55,-198.57"/>
</a>
</g>
</g>
<!-- Node2&#45;&gt;Node4 -->
<g id="edge18_Node000002_Node000004" class="edge">
<title>Node2&#45;&gt;Node4</title>
<g id="a_edge18_Node000002_Node000004"><a xlink:title=" ">
<path fill="none" stroke="#63b8ff" d="M595.85,-193.77C581.15,-186.83 565.92,-176.59 557.5,-162 550.84,-150.45 550.82,-143.54 557.5,-132 569.63,-111.04 594.23,-98.1 614.19,-90.65"/>
<polygon fill="#63b8ff" stroke="#63b8ff" points="594.79,-197.13 605.36,-197.87 597.57,-190.7 594.79,-197.13"/>
</a>
</g>
</g>
<!-- Node2&#45;&gt;Node15 -->
<g id="edge14_Node000002_Node000015" class="edge">
<title>Node2&#45;&gt;Node15</title>
<g id="a_edge14_Node000002_Node000015"><a xlink:title=" ">
<path fill="none" stroke="#63b8ff" d="M675.88,-195.4C718.03,-184.08 782.48,-166.79 820.76,-156.52"/>
<polygon fill="#63b8ff" stroke="#63b8ff" points="674.95,-192.02 666.2,-197.99 676.76,-198.78 674.95,-192.02"/>
</a>
</g>
</g>
<!-- Node18 -->
<g id="Node000018" class="node">
<title>Node18</title>
<g id="a_Node000018"><a xlink:href="AssetManager_8cpp.html" target="_top" xlink:title=" ">
<polygon fill="white" stroke="#666666" points="722,-156.5 567,-156.5 567,-137.5 722,-137.5 722,-156.5"/>
<text text-anchor="middle" x="644.5" y="-144.5" font-family="Helvetica,sans-Serif" font-size="10.00">Client/src/AssetManager.cpp</text>
</a>
</g>
</g>
<!-- Node2&#45;&gt;Node18 -->
<g id="edge19_Node000002_Node000018" class="edge">
<title>Node2&#45;&gt;Node18</title>
<g id="a_edge19_Node000002_Node000018"><a xlink:title=" ">
<path fill="none" stroke="#63b8ff" d="M637.66,-187.99C639.46,-177.51 641.61,-164.89 643.02,-156.67"/>
<polygon fill="#63b8ff" stroke="#63b8ff" points="634.21,-187.42 635.98,-197.87 641.11,-188.6 634.21,-187.42"/>
</a>
</g>
</g>
<!-- Node3&#45;&gt;Node4 -->
<g id="edge3_Node000003_Node000004" class="edge">
<title>Node3&#45;&gt;Node4</title>
<g id="a_edge3_Node000003_Node000004"><a xlink:title=" ">
<path fill="none" stroke="#63b8ff" d="M488.65,-129.05C529.76,-116.64 583.84,-100.31 616.29,-90.52"/>
<polygon fill="#63b8ff" stroke="#63b8ff" points="487.59,-125.71 479.02,-131.95 489.61,-132.42 487.59,-125.71"/>
</a>
</g>
</g>
<!-- Node14 -->
<g id="Node000014" class="node">
<title>Node14</title>
<g id="a_Node000014"><a xlink:href="NetworkEntityMapper_8cpp.html" target="_top" xlink:title=" ">
<polygon fill="white" stroke="#666666" points="500,-96 365,-96 365,-66 500,-66 500,-96"/>
<text text-anchor="start" x="373" y="-84" font-family="Helvetica,sans-Serif" font-size="10.00">Client/src/NetworkEntity</text>
<text text-anchor="middle" x="432.5" y="-73" font-family="Helvetica,sans-Serif" font-size="10.00">Mapper.cpp</text>
</a>
</g>
</g>
<!-- Node3&#45;&gt;Node14 -->
<g id="edge13_Node000003_Node000014" class="edge">
<title>Node3&#45;&gt;Node14</title>
<g id="a_edge13_Node000003_Node000014"><a xlink:title=" ">
<path fill="none" stroke="#63b8ff" d="M432.5,-121.54C432.5,-112.96 432.5,-103.61 432.5,-96.16"/>
<polygon fill="#63b8ff" stroke="#63b8ff" points="429,-121.8 432.5,-131.8 436,-121.8 429,-121.8"/>
</a>
</g>
</g>
<!-- Node5 -->
<g id="Node000005" class="node">
<title>Node5</title>
<g id="a_Node000005"><a xlink:href="client_8cpp.html" target="_top" xlink:title=" ">
<polygon fill="white" stroke="#666666" points="113,-24.5 0,-24.5 0,-5.5 113,-5.5 113,-24.5"/>
<text text-anchor="middle" x="56.5" y="-12.5" font-family="Helvetica,sans-Serif" font-size="10.00">Client/src/client.cpp</text>
</a>
</g>
</g>
<!-- Node4&#45;&gt;Node5 -->
<g id="edge4_Node000004_Node000005" class="edge">
<title>Node4&#45;&gt;Node5</title>
<g id="a_edge4_Node000004_Node000005"><a xlink:title=" ">
<path fill="none" stroke="#63b8ff" d="M567.22,-71.91C548.03,-69.94 527.52,-67.86 508.5,-66 336.58,-49.16 292.24,-56.23 121.5,-30 112.03,-28.55 101.87,-26.56 92.46,-24.55"/>
<polygon fill="#63b8ff" stroke="#63b8ff" points="567.11,-75.42 577.41,-72.96 567.83,-68.46 567.11,-75.42"/>
</a>
</g>
</g>
<!-- Node6 -->
<g id="Node000006" class="node">
<title>Node6</title>
<g id="a_Node000006"><a xlink:href="client2_8cpp.html" target="_top" xlink:title=" ">
<polygon fill="white" stroke="#666666" points="250,-24.5 131,-24.5 131,-5.5 250,-5.5 250,-24.5"/>
<text text-anchor="middle" x="190.5" y="-12.5" font-family="Helvetica,sans-Serif" font-size="10.00">Client/src/client2.cpp</text>
</a>
</g>
</g>
<!-- Node4&#45;&gt;Node6 -->
<g id="edge5_Node000004_Node000006" class="edge">
<title>Node4&#45;&gt;Node6</title>
<g id="a_edge5_Node000004_Node000006"><a xlink:title=" ">
<path fill="none" stroke="#63b8ff" d="M566.96,-71.57C489.04,-62.71 365.61,-47.63 259.5,-30 249.97,-28.42 239.76,-26.48 230.18,-24.55"/>
<polygon fill="#63b8ff" stroke="#63b8ff" points="566.84,-75.08 577.17,-72.72 567.63,-68.12 566.84,-75.08"/>
</a>
</g>
</g>
<!-- Node7 -->
<g id="Node000007" class="node">
<title>Node7</title>
<g id="a_Node000007"><a xlink:href="client__init_8cpp.html" target="_top" xlink:title=" ">
<polygon fill="white" stroke="#666666" points="402.5,-24.5 268.5,-24.5 268.5,-5.5 402.5,-5.5 402.5,-24.5"/>
<text text-anchor="middle" x="335.5" y="-12.5" font-family="Helvetica,sans-Serif" font-size="10.00">Client/src/client_init.cpp</text>
</a>
</g>
</g>
<!-- Node4&#45;&gt;Node7 -->
<g id="edge6_Node000004_Node000007" class="edge">
<title>Node4&#45;&gt;Node7</title>
<g id="a_edge6_Node000004_Node000007"><a xlink:title=" ">
<path fill="none" stroke="#63b8ff" d="M593.01,-69.34C532.25,-56.75 432.44,-36.08 376.61,-24.51"/>
<polygon fill="#63b8ff" stroke="#63b8ff" points="592.65,-72.83 603.15,-71.44 594.07,-65.98 592.65,-72.83"/>
</a>
</g>
</g>
<!-- Node8 -->
<g id="Node000008" class="node">
<title>Node8</title>
<g id="a_Node000008"><a xlink:href="client__network__part__one_8cpp.html" target="_top" xlink:title=" ">
<polygon fill="white" stroke="#666666" points="558,-30 421,-30 421,0 558,0 558,-30"/>
<text text-anchor="start" x="429" y="-18" font-family="Helvetica,sans-Serif" font-size="10.00">Client/src/client_network</text>
<text text-anchor="middle" x="489.5" y="-7" font-family="Helvetica,sans-Serif" font-size="10.00">_part_one.cpp</text>
</a>
</g>
</g>
<!-- Node4&#45;&gt;Node8 -->
<g id="edge7_Node000004_Node000008" class="edge">
<title>Node4&#45;&gt;Node8</title>
<g id="a_edge7_Node000004_Node000008"><a xlink:title=" ">
<path fill="none" stroke="#63b8ff" d="M614.24,-67.5C588.24,-56.77 550.77,-41.3 523.69,-30.12"/>
<polygon fill="#63b8ff" stroke="#63b8ff" points="613.02,-70.79 623.6,-71.37 615.69,-64.32 613.02,-70.79"/>
</a>
</g>
</g>
<!-- Node9 -->
<g id="Node000009" class="node">
<title>Node9</title>
<g id="a_Node000009"><a xlink:href="client__network__part__two_8cpp.html" target="_top" xlink:title=" ">
<polygon fill="white" stroke="#666666" points="713,-30 576,-30 576,0 713,0 713,-30"/>
<text text-anchor="start" x="584" y="-18" font-family="Helvetica,sans-Serif" font-size="10.00">Client/src/client_network</text>
<text text-anchor="middle" x="644.5" y="-7" font-family="Helvetica,sans-Serif" font-size="10.00">_part_two.cpp</text>
</a>
</g>
</g>
<!-- Node4&#45;&gt;Node9 -->
<g id="edge8_Node000004_Node000009" class="edge">
<title>Node4&#45;&gt;Node9</title>
<g id="a_edge8_Node000004_Node000009"><a xlink:title=" ">
<path fill="none" stroke="#63b8ff" d="M644.5,-61.35C644.5,-51.47 644.5,-39.51 644.5,-30.36"/>
<polygon fill="#63b8ff" stroke="#63b8ff" points="641,-61.37 644.5,-71.37 648,-61.37 641,-61.37"/>
</a>
</g>
</g>
<!-- Node10 -->
<g id="Node000010" class="node">
<title>Node10</title>
<g id="a_Node000010"><a xlink:href="client__protocol_8cpp.html" target="_top" xlink:title=" ">
<polygon fill="white" stroke="#666666" points="889.5,-24.5 731.5,-24.5 731.5,-5.5 889.5,-5.5 889.5,-24.5"/>
<text text-anchor="middle" x="810.5" y="-12.5" font-family="Helvetica,sans-Serif" font-size="10.00">Client/src/client_protocol.cpp</text>
</a>
</g>
</g>
<!-- Node4&#45;&gt;Node10 -->
<g id="edge9_Node000004_Node000010" class="edge">
<title>Node4&#45;&gt;Node10</title>
<g id="a_edge9_Node000004_Node000010"><a xlink:title=" ">
<path fill="none" stroke="#63b8ff" d="M676.47,-67.68C709.27,-55.03 759.46,-35.68 788.2,-24.6"/>
<polygon fill="#63b8ff" stroke="#63b8ff" points="674.96,-64.51 666.89,-71.37 677.48,-71.04 674.96,-64.51"/>
</a>
</g>
</g>
<!-- Node11 -->
<g id="Node000011" class="node">
<title>Node11</title>
<g id="a_Node000011"><a xlink:href="client__replay_8cpp.html" target="_top" xlink:title=" ">
<polygon fill="white" stroke="#666666" points="1055,-24.5 908,-24.5 908,-5.5 1055,-5.5 1055,-24.5"/>
<text text-anchor="middle" x="981.5" y="-12.5" font-family="Helvetica,sans-Serif" font-size="10.00">Client/src/client_replay.cpp</text>
</a>
</g>
</g>
<!-- Node4&#45;&gt;Node11 -->
<g id="edge10_Node000004_Node000011" class="edge">
<title>Node4&#45;&gt;Node11</title>
<g id="a_edge10_Node000004_Node000011"><a xlink:title=" ">
<path fill="none" stroke="#63b8ff" d="M699.43,-69.57C765.57,-57.01 875.39,-36.15 936.67,-24.51"/>
<polygon fill="#63b8ff" stroke="#63b8ff" points="698.77,-66.13 689.6,-71.44 700.08,-73.01 698.77,-66.13"/>
</a>
</g>
</g>
<!-- Node12 -->
<g id="Node000012" class="node">
<title>Node12</title>
<g id="a_Node000012"><a xlink:href="client__update_8cpp.html" target="_top" xlink:title=" ">
<polygon fill="white" stroke="#666666" points="1225.5,-24.5 1073.5,-24.5 1073.5,-5.5 1225.5,-5.5 1225.5,-24.5"/>
<text text-anchor="middle" x="1149.5" y="-12.5" font-family="Helvetica,sans-Serif" font-size="10.00">Client/src/client_update.cpp</text>
</a>
</g>
</g>
<!-- Node4&#45;&gt;Node12 -->
<g id="edge11_Node000004_Node000012" class="edge">
<title>Node4&#45;&gt;Node12</title>
<g id="a_edge11_Node000004_Node000012"><a xlink:title=" ">
<path fill="none" stroke="#63b8ff" d="M717.58,-70.18C728.61,-68.75 739.85,-67.31 750.5,-66 889.91,-48.8 925.38,-49.42 1064.5,-30 1076.05,-28.39 1088.46,-26.46 1100.12,-24.55"/>
<polygon fill="#63b8ff" stroke="#63b8ff" points="717,-66.73 707.53,-71.49 717.9,-73.67 717,-66.73"/>
</a>
</g>
</g>
<!-- Node13 -->
<g id="Node000013" class="node">
<title>Node13</title>
<g id="a_Node000013"><a xlink:href="main_8cpp.html" target="_top" xlink:title=" ">
<polygon fill="white" stroke="#666666" points="1353.5,-24.5 1243.5,-24.5 1243.5,-5.5 1353.5,-5.5 1353.5,-24.5"/>
<text text-anchor="middle" x="1298.5" y="-12.5" font-family="Helvetica,sans-Serif" font-size="10.00">Client/src/main.cpp</text>
</a>
</g>
</g>
<!-- Node4&#45;&gt;Node13 -->
<g id="edge12_Node000004_Node000013" class="edge">
<title>Node4&#45;&gt;Node13</title>
<g id="a_edge12_Node000004_Node000013"><a xlink:title=" ">
<path fill="none" stroke="#63b8ff" d="M714.41,-70.19C726.43,-68.67 738.82,-67.21 750.5,-66 965.07,-43.87 1021.05,-61.13 1234.5,-30 1244.07,-28.6 1254.34,-26.59 1263.79,-24.53"/>
<polygon fill="#63b8ff" stroke="#63b8ff" points="713.88,-66.73 704.41,-71.48 714.78,-73.67 713.88,-66.73"/>
</a>
</g>
</g>
<!-- Node15&#45;&gt;Node4 -->
<g id="edge15_Node000015_Node000004" class="edge">
<title>Node15&#45;&gt;Node4</title>
<g id="a_edge15_Node000015_Node000004"><a xlink:title=" ">
<path fill="none" stroke="#63b8ff" d="M814.81,-134.4C773.79,-121.78 709.16,-101.89 672.44,-90.6"/>
<polygon fill="#63b8ff" stroke="#63b8ff" points="813.86,-137.77 824.45,-137.37 815.92,-131.08 813.86,-137.77"/>
</a>
</g>
</g>
<!-- Node16 -->
<g id="Node000016" class="node">
<title>Node16</title>
<g id="a_Node000016"><a xlink:href="SoloPlay_8cpp.html" target="_top" xlink:title=" ">
<polygon fill="white" stroke="#666666" points="885.5,-90.5 759.5,-90.5 759.5,-71.5 885.5,-71.5 885.5,-90.5"/>
<text text-anchor="middle" x="822.5" y="-78.5" font-family="Helvetica,sans-Serif" font-size="10.00">Client/src/SoloPlay.cpp</text>
</a>
</g>
</g>
<!-- Node15&#45;&gt;Node16 -->
<g id="edge16_Node000015_Node000016" class="edge">
<title>Node15&#45;&gt;Node16</title>
<g id="a_edge16_Node000015_Node000016"><a xlink:title=" ">
<path fill="none" stroke="#63b8ff" d="M844.15,-128.18C838.46,-116.05 831.18,-100.51 826.67,-90.91"/>
<polygon fill="#63b8ff" stroke="#63b8ff" points="841.04,-129.8 848.45,-137.37 847.38,-126.83 841.04,-129.8"/>
</a>
</g>
</g>
<!-- Node17 -->
<g id="Node000017" class="node">
<title>Node17</title>
<g id="a_Node000017"><a xlink:href="solo__play__render_8cpp.html" target="_top" xlink:title=" ">
<polygon fill="white" stroke="#666666" points="1015.5,-96 903.5,-96 903.5,-66 1015.5,-66 1015.5,-96"/>
<text text-anchor="start" x="911.5" y="-84" font-family="Helvetica,sans-Serif" font-size="10.00">Client/src/solo_play</text>
<text text-anchor="middle" x="959.5" y="-73" font-family="Helvetica,sans-Serif" font-size="10.00">_render.cpp</text>
</a>
</g>
</g>
<!-- Node15&#45;&gt;Node17 -->
<g id="edge17_Node000015_Node000017" class="edge">
<title>Node15&#45;&gt;Node17</title>
<g id="a_edge17_Node000015_Node000017"><a xlink:title=" ">
<path fill="none" stroke="#63b8ff" d="M875.56,-132.21C893.38,-121.55 917.95,-106.85 935.9,-96.12"/>
<polygon fill="#63b8ff" stroke="#63b8ff" points="873.72,-129.23 866.93,-137.37 877.31,-135.24 873.72,-129.23"/>
</a>
</g>
</g>
</g>
</svg>
