<?xml version="1.0" encoding="UTF-8" standalone="no"?>
<!DOCTYPE svg PUBLIC "-//W3C//DTD SVG 1.1//EN"
 "http://www.w3.org/Graphics/SVG/1.1/DTD/svg11.dtd">
<!-- Generated by graphviz version 2.43.0 (0)
 -->
<!-- Title: Client/src/SoundManager.cpp Pages: 1 -->
<svg width="661pt" height="137pt"
 viewBox="0.00 0.00 661.00 137.00" xmlns="http://www.w3.org/2000/svg" xmlns:xlink="http://www.w3.org/1999/xlink">
<g id="graph0" class="graph" transform="scale(1 1) rotate(0) translate(4 133)">
<title>Client/src/SoundManager.cpp</title>
<!-- Node1 -->
<g id="Node000001" class="node">
<title>Node1</title>
<g id="a_Node000001"><a xlink:title=" ">
<polygon fill="#999999" stroke="#666666" points="390.5,-129 232.5,-129 232.5,-110 390.5,-110 390.5,-129"/>
<text text-anchor="middle" x="311.5" y="-117" font-family="Helvetica,sans-Serif" font-size="10.00">Client/src/SoundManager.cpp</text>
</a>
</g>
</g>
<!-- Node2 -->
<g id="Node000002" class="node">
<title>Node2</title>
<g id="a_Node000002"><a xlink:href="SoundManager_8hpp.html" target="_top" xlink:title=" ">
<polygon fill="white" stroke="#666666" points="390,-74 233,-74 233,-55 390,-55 390,-74"/>
<text text-anchor="middle" x="311.5" y="-62" font-family="Helvetica,sans-Serif" font-size="10.00">../include/SoundManager.hpp</text>
</a>
</g>
</g>
<!-- Node1&#45;&gt;Node2 -->
<g id="edge1_Node000001_Node000002" class="edge">
<title>Node1&#45;&gt;Node2</title>
<g id="a_edge1_Node000001_Node000002"><a xlink:title=" ">
<path fill="none" stroke="#63b8ff" d="M311.5,-109.75C311.5,-102.8 311.5,-92.85 311.5,-84.13"/>
<polygon fill="#63b8ff" stroke="#63b8ff" points="315,-84.09 311.5,-74.09 308,-84.09 315,-84.09"/>
</a>
</g>
</g>
<!-- Node3 -->
<g id="Node000003" class="node">
<title>Node3</title>
<g id="a_Node000003"><a xlink:title=" ">
<polygon fill="#e0e0e0" stroke="#999999" points="95,-19 0,-19 0,0 95,0 95,-19"/>
<text text-anchor="middle" x="47.5" y="-7" font-family="Helvetica,sans-Serif" font-size="10.00">SFML/Audio.hpp</text>
</a>
</g>
</g>
<!-- Node2&#45;&gt;Node3 -->
<g id="edge2_Node000002_Node000003" class="edge">
<title>Node2&#45;&gt;Node3</title>
<g id="a_edge2_Node000002_Node000003"><a xlink:title=" ">
<path fill="none" stroke="#63b8ff" d="M269.08,-54.98C223.13,-45.76 149.75,-31.03 100.15,-21.07"/>
<polygon fill="#63b8ff" stroke="#63b8ff" points="100.74,-17.62 90.25,-19.08 99.36,-24.48 100.74,-17.62"/>
</a>
</g>
</g>
<!-- Node4 -->
<g id="Node000004" class="node">
<title>Node4</title>
<g id="a_Node000004"><a xlink:title=" ">
<polygon fill="#e0e0e0" stroke="#999999" points="151.5,-19 113.5,-19 113.5,0 151.5,0 151.5,-19"/>
<text text-anchor="middle" x="132.5" y="-7" font-family="Helvetica,sans-Serif" font-size="10.00">map</text>
</a>
</g>
</g>
<!-- Node2&#45;&gt;Node4 -->
<g id="edge3_Node000002_Node000004" class="edge">
<title>Node2&#45;&gt;Node4</title>
<g id="a_edge3_Node000002_Node000004"><a xlink:title=" ">
<path fill="none" stroke="#63b8ff" d="M282.25,-54.96C253.78,-46.62 209.03,-33.48 161.61,-19.31"/>
<polygon fill="#63b8ff" stroke="#63b8ff" points="162.36,-15.89 151.77,-16.37 160.35,-22.59 162.36,-15.89"/>
</a>
</g>
</g>
<!-- Node5 -->
<g id="Node000005" class="node">
<title>Node5</title>
<g id="a_Node000005"><a xlink:title=" ">
<polygon fill="#e0e0e0" stroke="#999999" points="213.5,-19 169.5,-19 169.5,0 213.5,0 213.5,-19"/>
<text text-anchor="middle" x="191.5" y="-7" font-family="Helvetica,sans-Serif" font-size="10.00">string</text>
</a>
</g>
</g>
<!-- Node2&#45;&gt;Node5 -->
<g id="edge4_Node000002_Node000005" class="edge">
<title>Node2&#45;&gt;Node5</title>
<g id="a_edge4_Node000002_Node000005"><a xlink:title=" ">
<path fill="none" stroke="#63b8ff" d="M292.22,-54.98C272.83,-46.42 242.69,-33.11 220.43,-23.28"/>
<polygon fill="#63b8ff" stroke="#63b8ff" points="221.69,-20.01 211.13,-19.17 218.86,-26.41 221.69,-20.01"/>
</a>
</g>
</g>
<!-- Node6 -->
<g id="Node000006" class="node">
<title>Node6</title>
<g id="a_Node000006"><a xlink:title=" ">
<polygon fill="#e0e0e0" stroke="#999999" points="291.5,-19 231.5,-19 231.5,0 291.5,0 291.5,-19"/>
<text text-anchor="middle" x="261.5" y="-7" font-family="Helvetica,sans-Serif" font-size="10.00">iostream</text>
</a>
</g>
</g>
<!-- Node2&#45;&gt;Node6 -->
<g id="edge5_Node000002_Node000006" class="edge">
<title>Node2&#45;&gt;Node6</title>
<g id="a_edge5_Node000002_Node000006"><a xlink:title=" ">
<path fill="none" stroke="#63b8ff" d="M303.24,-54.75C296.04,-47.11 285.39,-35.82 276.65,-26.56"/>
<polygon fill="#63b8ff" stroke="#63b8ff" points="279.01,-23.96 269.6,-19.09 273.92,-28.76 279.01,-23.96"/>
</a>
</g>
</g>
<!-- Node7 -->
<g id="Node000007" class="node">
<title>Node7</title>
<g id="a_Node000007"><a xlink:title=" ">
<polygon fill="#e0e0e0" stroke="#999999" points="413.5,-19 309.5,-19 309.5,0 413.5,0 413.5,-19"/>
<text text-anchor="middle" x="361.5" y="-7" font-family="Helvetica,sans-Serif" font-size="10.00">jsoncons/json.hpp</text>
</a>
</g>
</g>
<!-- Node2&#45;&gt;Node7 -->
<g id="edge6_Node000002_Node000007" class="edge">
<title>Node2&#45;&gt;Node7</title>
<g id="a_edge6_Node000002_Node000007"><a xlink:title=" ">
<path fill="none" stroke="#63b8ff" d="M319.76,-54.75C326.96,-47.11 337.61,-35.82 346.35,-26.56"/>
<polygon fill="#63b8ff" stroke="#63b8ff" points="349.08,-28.76 353.4,-19.09 343.99,-23.96 349.08,-28.76"/>
</a>
</g>
</g>
<!-- Node8 -->
<g id="Node000008" class="node">
<title>Node8</title>
<g id="a_Node000008"><a xlink:title=" ">
<polygon fill="#e0e0e0" stroke="#999999" points="487,-19 432,-19 432,0 487,0 487,-19"/>
<text text-anchor="middle" x="459.5" y="-7" font-family="Helvetica,sans-Serif" font-size="10.00">fstream</text>
</a>
</g>
</g>
<!-- Node2&#45;&gt;Node8 -->
<g id="edge7_Node000002_Node000008" class="edge">
<title>Node2&#45;&gt;Node8</title>
<g id="a_edge7_Node000002_Node000008"><a xlink:title=" ">
<path fill="none" stroke="#63b8ff" d="M335.28,-54.98C359.73,-46.23 398.03,-32.51 425.65,-22.62"/>
<polygon fill="#63b8ff" stroke="#63b8ff" points="427.05,-25.84 435.29,-19.17 424.69,-19.25 427.05,-25.84"/>
</a>
</g>
</g>
<!-- Node9 -->
<g id="Node000009" class="node">
<title>Node9</title>
<g id="a_Node000009"><a xlink:title=" ">
<polygon fill="#e0e0e0" stroke="#999999" points="569.5,-19 505.5,-19 505.5,0 569.5,0 569.5,-19"/>
<text text-anchor="middle" x="537.5" y="-7" font-family="Helvetica,sans-Serif" font-size="10.00">algorithm</text>
</a>
</g>
</g>
<!-- Node2&#45;&gt;Node9 -->
<g id="edge8_Node000002_Node000009" class="edge">
<title>Node2&#45;&gt;Node9</title>
<g id="a_edge8_Node000002_Node000009"><a xlink:title=" ">
<path fill="none" stroke="#63b8ff" d="M347.81,-54.98C388.13,-45.53 453.1,-30.29 495.55,-20.34"/>
<polygon fill="#63b8ff" stroke="#63b8ff" points="496.37,-23.74 505.31,-18.05 494.77,-16.93 496.37,-23.74"/>
</a>
</g>
</g>
<!-- Node10 -->
<g id="Node000010" class="node">
<title>Node10</title>
<g id="a_Node000010"><a xlink:title=" ">
<polygon fill="#e0e0e0" stroke="#999999" points="653,-19 588,-19 588,0 653,0 653,-19"/>
<text text-anchor="middle" x="620.5" y="-7" font-family="Helvetica,sans-Serif" font-size="10.00">stdexcept</text>
</a>
</g>
</g>
<!-- Node2&#45;&gt;Node10 -->
<g id="edge9_Node000002_Node000010" class="edge">
<title>Node2&#45;&gt;Node10</title>
<g id="a_edge9_Node000002_Node000010"><a xlink:title=" ">
<path fill="none" stroke="#63b8ff" d="M366.06,-54.97C417.87,-46.75 498.21,-33.66 577.76,-19.08"/>
<polygon fill="#63b8ff" stroke="#63b8ff" points="578.76,-22.45 587.96,-17.2 577.49,-15.57 578.76,-22.45"/>
</a>
</g>
</g>
</g>
</svg>
